<svg xmlns="http://www.w3.org/2000/svg" width="665" height="271" viewBox="0 0 665.4 270.8"><style>.a{fill:none;stroke:#384040;}.b{fill:#384040;}</style><rect x="-2212.9" y="-230.5" width="68" height="136" class="a"/><rect x="-334.5" y="-230.5" width="68" height="136" class="a"/><rect x="-1212.6" y="-230.5" width="68" height="136" class="a"/><rect x="-1144.6" y="-230.5" width="68" height="136" class="a"/><rect x="-1076.6" y="-230.5" width="68" height="136" class="a"/><path d="M-1596.3 73.5l9.7 24.3 9.7-24.3h5.1v29.8h-3.9V91.7l0.4-12.5 -9.8 24.1h-3l-9.8-24.1 0.4 12.5v11.6h-3.9V73.5H-1596.3z" class="b"/><rect x="-1620.6" y="55.5" width="68" height="68" class="a"/><path d="M-1583.4 35.3h-3.8V10l-7.6 2.8V9.4l10.8-4.1h0.6V35.3z" class="b"/><path d="M-1440.3 35.3h-19.5v-2.7l10.3-11.5c1.5-1.7 2.6-3.1 3.2-4.2 0.6-1.1 0.9-2.2 0.9-3.4 0-1.6-0.5-2.8-1.4-3.8 -0.9-1-2.2-1.5-3.8-1.5 -1.9 0-3.3 0.5-4.4 1.6 -1 1.1-1.6 2.6-1.6 4.5h-3.8c0-2.7 0.9-5 2.7-6.6 1.8-1.7 4.1-2.5 7.1-2.5 2.8 0 5 0.7 6.6 2.2 1.6 1.5 2.4 3.4 2.4 5.8 0 2.9-1.9 6.4-5.6 10.5l-8 8.7h15V35.3z" class="b"/><path d="M-1318.4 18.5h2.8c1.8 0 3.2-0.5 4.2-1.4 1-0.9 1.5-2.1 1.5-3.7 0-3.5-1.7-5.2-5.2-5.2 -1.6 0-2.9 0.5-3.9 1.4 -1 0.9-1.5 2.2-1.5 3.7h-3.8c0-2.4 0.9-4.3 2.6-5.9 1.7-1.6 3.9-2.3 6.6-2.3 2.8 0 5 0.7 6.6 2.2 1.6 1.5 2.4 3.6 2.4 6.2 0 1.3-0.4 2.6-1.3 3.8s-2 2.1-3.4 2.7c1.6 0.5 2.9 1.4 3.8 2.6 0.9 1.2 1.3 2.7 1.3 4.4 0 2.7-0.9 4.8-2.6 6.4 -1.7 1.6-4 2.4-6.8 2.4 -2.8 0-5.1-0.8-6.8-2.3s-2.6-3.5-2.6-6h3.8c0 1.6 0.5 2.8 1.5 3.8 1 0.9 2.4 1.4 4.1 1.4 1.8 0 3.2-0.5 4.2-1.4s1.5-2.3 1.5-4.1c0-1.7-0.5-3.1-1.6-4 -1.1-0.9-2.6-1.4-4.6-1.4h-2.8V18.5z" class="b"/><path d="M-1171.9 25.3h4.1v3.1h-4.1v6.9h-3.8v-6.9h-13.6v-2.2l13.3-20.6h4V25.3zM-1185 25.3h9.3V10.7l-0.4 0.8L-1185 25.3z" class="b"/><path d="M-1050.1 20.3l1.5-14.9h15.3v3.5h-12.1l-0.9 8.1c1.5-0.9 3.1-1.3 5-1.3 2.7 0 4.9 0.9 6.5 2.7 1.6 1.8 2.4 4.2 2.4 7.3 0 3.1-0.8 5.5-2.5 7.3 -1.7 1.8-4 2.7-6.9 2.7 -2.6 0-4.8-0.7-6.4-2.2 -1.7-1.5-2.6-3.5-2.8-6.1h3.6c0.2 1.7 0.8 3 1.8 3.9s2.3 1.3 3.9 1.3c1.8 0 3.1-0.6 4.1-1.8 1-1.2 1.5-2.9 1.5-5 0-2-0.5-3.6-1.6-4.8 -1.1-1.2-2.5-1.8-4.3-1.8 -1.7 0-2.9 0.4-3.9 1.1l-1 0.8L-1050.1 20.3z" class="b"/><rect x="-1620.6" y="123.5" width="68" height="68" class="a"/><path d="M-1460.3 73.5l9.7 24.3 9.7-24.3h5.1v29.8h-3.9V91.7l0.4-12.5 -9.8 24.1h-3l-9.8-24.1 0.4 12.5v11.6h-3.9V73.5H-1460.3z" class="b"/><rect x="-1484.6" y="55.5" width="68" height="68" class="a"/><rect x="-1484.6" y="123.5" width="68" height="68" class="a"/><path d="M-1324.3 73.5l9.7 24.3 9.7-24.3h5.1v29.8h-3.9V91.7l0.4-12.5 -9.8 24.1h-3l-9.8-24.1 0.4 12.5v11.6h-3.9V73.5H-1324.3z" class="b"/><path d="M-1302.6 157.3c0 2.9-0.5 5.5-1.5 7.6s-2.4 3.8-4.2 5c-1.8 1.1-3.9 1.7-6.3 1.7 -2.3 0-4.4-0.6-6.2-1.7 -1.8-1.2-3.2-2.8-4.2-4.9s-1.5-4.6-1.5-7.4v-2.1c0-2.9 0.5-5.4 1.5-7.6 1-2.2 2.4-3.9 4.2-5 1.8-1.2 3.9-1.7 6.3-1.7 2.4 0 4.5 0.6 6.3 1.7 1.8 1.2 3.2 2.8 4.2 5s1.5 4.7 1.5 7.6V157.3zM-1306.5 155.4c0-3.5-0.7-6.2-2.1-8.1 -1.4-1.9-3.4-2.8-6-2.8 -2.5 0-4.4 0.9-5.9 2.8 -1.4 1.9-2.2 4.5-2.2 7.9v2.2c0 3.4 0.7 6.1 2.2 8.1s3.4 2.9 5.9 2.9c2.5 0 4.5-0.9 5.9-2.8s2.1-4.5 2.1-8V155.4z" class="b"/><rect x="-1348.6" y="55.5" width="68" height="68" class="a"/><rect x="-1348.6" y="123.5" width="68" height="68" class="a"/><polyline points="-1280.6 157.5 -1246.6 157.5 -1246.6 259.5 -1518.6 259.5 -1518.6 89.5 -1546.5 89.5 " class="a"/><path d="M-1552.6 89.5c2.8-1.1 6.4-2.9 8.5-4.8l-1.7 4.8 1.7 4.8C-1546.2 92.4-1549.7 90.6-1552.6 89.5z" class="b"/><path d="M-1188.3 73.5l9.7 24.3 9.7-24.3h5.1v29.8h-3.9V91.7l0.4-12.5 -9.8 24.1h-3l-9.8-24.1 0.4 12.5v11.6h-3.9V73.5H-1188.3z" class="b"/><path d="M-1166.6 157.3c0 2.9-0.5 5.5-1.5 7.6s-2.4 3.8-4.2 5c-1.8 1.1-3.9 1.7-6.3 1.7 -2.3 0-4.4-0.6-6.2-1.7 -1.8-1.2-3.2-2.8-4.2-4.9s-1.5-4.6-1.5-7.4v-2.1c0-2.9 0.5-5.4 1.5-7.6 1-2.2 2.4-3.9 4.2-5 1.8-1.2 3.9-1.7 6.3-1.7 2.4 0 4.5 0.6 6.3 1.7 1.8 1.2 3.2 2.8 4.2 5s1.5 4.7 1.5 7.6V157.3zM-1170.5 155.4c0-3.5-0.7-6.2-2.1-8.1 -1.4-1.9-3.4-2.8-6-2.8 -2.5 0-4.4 0.9-5.9 2.8 -1.4 1.9-2.2 4.5-2.2 7.9v2.2c0 3.4 0.7 6.1 2.2 8.1s3.4 2.9 5.9 2.9c2.5 0 4.5-0.9 5.9-2.8s2.1-4.5 2.1-8V155.4z" class="b"/><rect x="-1212.6" y="55.5" width="68" height="68" class="a"/><rect x="-1212.6" y="123.5" width="68" height="68" class="a"/><path d="M-1052.3 73.5l9.7 24.3 9.7-24.3h5.1v29.8h-3.9V91.7l0.4-12.5 -9.8 24.1h-3l-9.8-24.1 0.4 12.5v11.6h-3.9V73.5H-1052.3z" class="b"/><path d="M-1030.6 157.3c0 2.9-0.5 5.5-1.5 7.6s-2.4 3.8-4.2 5c-1.8 1.1-3.9 1.7-6.3 1.7 -2.3 0-4.4-0.6-6.2-1.7 -1.8-1.2-3.2-2.8-4.2-4.9s-1.5-4.6-1.5-7.4v-2.1c0-2.9 0.5-5.4 1.5-7.6 1-2.2 2.4-3.9 4.2-5 1.8-1.2 3.9-1.7 6.3-1.7 2.4 0 4.5 0.6 6.3 1.7 1.8 1.2 3.2 2.8 4.2 5s1.5 4.7 1.5 7.6V157.3zM-1034.5 155.4c0-3.5-0.7-6.2-2.1-8.1 -1.4-1.9-3.4-2.8-6-2.8 -2.5 0-4.4 0.9-5.9 2.8 -1.4 1.9-2.2 4.5-2.2 7.9v2.2c0 3.4 0.7 6.1 2.2 8.1s3.4 2.9 5.9 2.9c2.5 0 4.5-0.9 5.9-2.8s2.1-4.5 2.1-8V155.4z" class="b"/><rect x="-1076.6" y="55.5" width="68" height="68" class="a"/><rect x="-1076.6" y="123.5" width="68" height="68" class="a"/><path d="M-786.3 73.5l9.7 24.3 9.7-24.3h5.1v29.8h-3.9V91.7l0.4-12.5 -9.8 24.1h-3l-9.8-24.1 0.4 12.5v11.6h-3.9V73.5H-786.3z" class="b"/><rect x="-810.5" y="55.5" width="68" height="68" class="a"/><path d="M-773.3 35.3h-3.8V10l-7.6 2.8V9.4l10.8-4.1h0.6V35.3z" class="b"/><path d="M-630.3 35.3h-19.5v-2.7l10.3-11.5c1.5-1.7 2.6-3.1 3.2-4.2 0.6-1.1 0.9-2.2 0.9-3.4 0-1.6-0.5-2.8-1.4-3.8 -0.9-1-2.2-1.5-3.8-1.5 -1.9 0-3.3 0.5-4.4 1.6 -1 1.1-1.6 2.6-1.6 4.5h-3.8c0-2.7 0.9-5 2.7-6.6 1.8-1.7 4.1-2.5 7.1-2.5 2.8 0 5 0.7 6.6 2.2 1.6 1.5 2.4 3.4 2.4 5.8 0 2.9-1.9 6.4-5.6 10.5l-8 8.7h15V35.3z" class="b"/><path d="M-508.3 18.5h2.8c1.8 0 3.2-0.5 4.2-1.4 1-0.9 1.5-2.1 1.5-3.7 0-3.5-1.7-5.2-5.2-5.2 -1.6 0-2.9 0.5-3.9 1.4 -1 0.9-1.5 2.2-1.5 3.7h-3.8c0-2.4 0.9-4.3 2.6-5.9 1.7-1.6 3.9-2.3 6.6-2.3 2.8 0 5 0.7 6.6 2.2 1.6 1.5 2.4 3.6 2.4 6.2 0 1.3-0.4 2.6-1.3 3.8s-2 2.1-3.4 2.7c1.6 0.5 2.9 1.4 3.8 2.6 0.9 1.2 1.3 2.7 1.3 4.4 0 2.7-0.9 4.8-2.6 6.4 -1.7 1.6-4 2.4-6.8 2.4 -2.8 0-5.1-0.8-6.8-2.3s-2.6-3.5-2.6-6h3.8c0 1.6 0.5 2.8 1.5 3.8 1 0.9 2.4 1.4 4.1 1.4 1.8 0 3.2-0.5 4.2-1.4s1.5-2.3 1.5-4.1c0-1.7-0.5-3.1-1.6-4 -1.1-0.9-2.6-1.4-4.6-1.4h-2.8V18.5z" class="b"/><path d="M-361.8 25.3h4.1v3.1h-4.1v6.9h-3.8v-6.9h-13.6v-2.2l13.3-20.6h4V25.3zM-374.9 25.3h9.3V10.7l-0.4 0.8L-374.9 25.3z" class="b"/><path d="M-240.1 20.3l1.5-14.9h15.3v3.5h-12.1l-0.9 8.1c1.5-0.9 3.1-1.3 5-1.3 2.7 0 4.9 0.9 6.5 2.7 1.6 1.8 2.4 4.2 2.4 7.3 0 3.1-0.8 5.5-2.5 7.3 -1.7 1.8-4 2.7-6.9 2.7 -2.6 0-4.8-0.7-6.4-2.2 -1.7-1.5-2.6-3.5-2.8-6.1h3.6c0.2 1.7 0.8 3 1.8 3.9s2.3 1.3 3.9 1.3c1.8 0 3.1-0.6 4.1-1.8 1-1.2 1.5-2.9 1.5-5 0-2-0.5-3.6-1.6-4.8 -1.1-1.2-2.5-1.8-4.3-1.8 -1.7 0-2.9 0.4-3.9 1.1l-1 0.8L-240.1 20.3z" class="b"/><rect x="-810.5" y="123.5" width="68" height="68" class="a"/><path d="M-650.3 73.5l9.7 24.3 9.7-24.3h5.1v29.8h-3.9V91.7l0.4-12.5 -9.8 24.1h-3l-9.8-24.1 0.4 12.5v11.6h-3.9V73.5H-650.3z" class="b"/><rect x="-674.5" y="55.5" width="68" height="68" class="a"/><rect x="-674.5" y="123.5" width="68" height="68" class="a"/><path d="M-514.3 73.5l9.7 24.3 9.7-24.3h5.1v29.8h-3.9V91.7l0.4-12.5 -9.8 24.1h-3l-9.8-24.1 0.4 12.5v11.6h-3.9V73.5H-514.3z" class="b"/><rect x="-538.5" y="55.5" width="68" height="68" class="a"/><rect x="-538.5" y="123.5" width="68" height="68" class="a"/><polyline points="-334.5 157.5 -300.5 157.5 -300.5 259.5 -708.5 259.5 -708.5 89.5 -736.5 89.5 " class="a"/><path d="M-742.5 89.5c2.8-1.1 6.4-2.9 8.5-4.8l-1.7 4.8 1.7 4.8C-736.1 92.4-739.7 90.6-742.5 89.5z" class="b"/><path d="M-378.3 73.5l9.7 24.3 9.7-24.3h5.1v29.8h-3.9V91.7l0.4-12.5 -9.8 24.1h-3l-9.8-24.1 0.4 12.5v11.6h-3.9V73.5H-378.3z" class="b"/><path d="M-356.5 157.3c0 2.9-0.5 5.5-1.5 7.6s-2.4 3.8-4.2 5c-1.8 1.1-3.9 1.7-6.3 1.7 -2.3 0-4.4-0.6-6.2-1.7 -1.8-1.2-3.2-2.8-4.2-4.9s-1.5-4.6-1.5-7.4v-2.1c0-2.9 0.5-5.4 1.5-7.6 1-2.2 2.4-3.9 4.2-5 1.8-1.2 3.9-1.7 6.3-1.7 2.4 0 4.5 0.6 6.3 1.7 1.8 1.2 3.2 2.8 4.2 5s1.5 4.7 1.5 7.6V157.3zM-360.4 155.4c0-3.5-0.7-6.2-2.1-8.1 -1.4-1.9-3.4-2.8-6-2.8 -2.5 0-4.4 0.9-5.9 2.8 -1.4 1.9-2.2 4.5-2.2 7.9v2.2c0 3.4 0.7 6.1 2.2 8.1s3.4 2.9 5.9 2.9c2.5 0 4.5-0.9 5.9-2.8s2.1-4.5 2.1-8V155.4z" class="b"/><rect x="-402.5" y="55.5" width="68" height="68" class="a"/><rect x="-402.5" y="123.5" width="68" height="68" class="a"/><path d="M-242.3 73.5l9.7 24.3 9.7-24.3h5.1v29.8h-3.9V91.7l0.4-12.5 -9.8 24.1h-3l-9.8-24.1 0.4 12.5v11.6h-3.9V73.5H-242.3z" class="b"/><path d="M-220.5 157.3c0 2.9-0.5 5.5-1.5 7.6s-2.4 3.8-4.2 5c-1.8 1.1-3.9 1.7-6.3 1.7 -2.3 0-4.4-0.6-6.2-1.7 -1.8-1.2-3.2-2.8-4.2-4.9s-1.5-4.6-1.5-7.4v-2.1c0-2.9 0.5-5.4 1.5-7.6 1-2.2 2.4-3.9 4.2-5 1.8-1.2 3.9-1.7 6.3-1.7 2.4 0 4.5 0.6 6.3 1.7 1.8 1.2 3.2 2.8 4.2 5s1.5 4.7 1.5 7.6V157.3zM-224.4 155.4c0-3.5-0.7-6.2-2.1-8.1 -1.4-1.9-3.4-2.8-6-2.8 -2.5 0-4.4 0.9-5.9 2.8 -1.4 1.9-2.2 4.5-2.2 7.9v2.2c0 3.4 0.7 6.1 2.2 8.1s3.4 2.9 5.9 2.9c2.5 0 4.5-0.9 5.9-2.8s2.1-4.5 2.1-8V155.4z" class="b"/><rect x="-266.5" y="55.5" width="68" height="68" class="a"/><rect x="-266.5" y="123.5" width="68" height="68" class="a"/><path d="M33.8 73.5l9.7 24.3 9.7-24.3h5.1v29.8h-3.9V91.7l0.4-12.5 -9.8 24.1h-3l-9.8-24.1 0.4 12.5v11.6h-3.9V73.5H33.8z" class="b"/><rect x="9.6" y="55.5" width="68" height="68" class="a"/><path d="M46.7 35.3h-3.8V10l-7.6 2.8V9.4L46.1 5.3h0.6V35.3z" class="b"/><path d="M189.8 35.3h-19.5v-2.7l10.3-11.5c1.5-1.7 2.6-3.1 3.2-4.2 0.6-1.1 0.9-2.2 0.9-3.4 0-1.6-0.5-2.8-1.4-3.8 -0.9-1-2.2-1.5-3.8-1.5 -1.9 0-3.3 0.5-4.4 1.6 -1 1.1-1.6 2.6-1.6 4.5h-3.8c0-2.7 0.9-5 2.7-6.6 1.8-1.7 4.1-2.5 7.1-2.5 2.8 0 5 0.7 6.6 2.2 1.6 1.5 2.4 3.4 2.4 5.8 0 2.9-1.9 6.4-5.6 10.5l-8 8.7h15V35.3z" class="b"/><path d="M311.8 18.5h2.8c1.8 0 3.2-0.5 4.2-1.4 1-0.9 1.5-2.1 1.5-3.7 0-3.5-1.7-5.2-5.2-5.2 -1.6 0-2.9 0.5-3.9 1.4 -1 0.9-1.5 2.2-1.5 3.7h-3.8c0-2.4 0.9-4.3 2.6-5.9 1.7-1.6 3.9-2.3 6.6-2.3 2.8 0 5 0.7 6.6 2.2 1.6 1.5 2.4 3.6 2.4 6.2 0 1.3-0.4 2.6-1.3 3.8s-2 2.1-3.4 2.7c1.6 0.5 2.9 1.4 3.8 2.6 0.9 1.2 1.3 2.7 1.3 4.4 0 2.7-0.9 4.8-2.6 6.4 -1.7 1.6-4 2.4-6.8 2.4 -2.8 0-5.1-0.8-6.8-2.3s-2.6-3.5-2.6-6h3.8c0 1.6 0.5 2.8 1.5 3.8 1 0.9 2.4 1.4 4.1 1.4 1.8 0 3.2-0.5 4.2-1.4s1.5-2.3 1.5-4.1c0-1.7-0.5-3.1-1.6-4 -1.1-0.9-2.6-1.4-4.6-1.4h-2.8V18.5z" class="b"/><path d="M458.3 25.3h4.1v3.1h-4.1v6.9h-3.8v-6.9h-13.6v-2.2l13.3-20.6h4V25.3zM445.2 25.3h9.3V10.7l-0.4 0.8L445.2 25.3z" class="b"/><path d="M580 20.3l1.5-14.9h15.3v3.5H584.8l-0.9 8.1c1.5-0.9 3.1-1.3 5-1.3 2.7 0 4.9 0.9 6.5 2.7 1.6 1.8 2.4 4.2 2.4 7.3 0 3.1-0.8 5.5-2.5 7.3 -1.7 1.8-4 2.7-6.9 2.7 -2.6 0-4.8-0.7-6.4-2.2 -1.7-1.5-2.6-3.5-2.8-6.1h3.6c0.2 1.7 0.8 3 1.8 3.9s2.3 1.3 3.9 1.3c1.8 0 3.1-0.6 4.1-1.8 1-1.2 1.5-2.9 1.5-5 0-2-0.5-3.6-1.6-4.8 -1.1-1.2-2.5-1.8-4.3-1.8 -1.7 0-2.9 0.4-3.9 1.1l-1 0.8L580 20.3z" class="b"/><rect x="9.6" y="123.5" width="68" height="68" class="a"/><path d="M169.8 73.5l9.7 24.3 9.7-24.3h5.1v29.8h-3.9V91.7l0.4-12.5 -9.8 24.1h-3l-9.8-24.1 0.4 12.5v11.6h-3.9V73.5H169.8z" class="b"/><rect x="145.6" y="55.5" width="68" height="68" class="a"/><rect x="145.6" y="123.5" width="68" height="68" class="a"/><path d="M305.8 73.5l9.7 24.3 9.7-24.3h5.1v29.8h-3.9V91.7l0.4-12.5 -9.8 24.1h-3l-9.8-24.1 0.4 12.5v11.6h-3.9V73.5H305.8z" class="b"/><rect x="281.6" y="55.5" width="68" height="68" class="a"/><rect x="281.6" y="123.5" width="68" height="68" class="a"/><polyline points="621.6 157.5 655.6 157.5 655.6 259.5 111.6 259.5 111.6 89.5 83.6 89.5 " class="a"/><path d="M77.6 89.5c2.8-1.1 6.4-2.9 8.5-4.8L84.4 89.5l1.7 4.8C83.9 92.4 80.4 90.6 77.6 89.5z" class="b"/><path d="M441.8 73.5l9.7 24.3 9.7-24.3h5.1v29.8h-3.9V91.7l0.4-12.5 -9.8 24.1h-3l-9.8-24.1 0.4 12.5v11.6h-3.9V73.5H441.8z" class="b"/><rect x="417.6" y="55.5" width="68" height="68" class="a"/><rect x="417.6" y="123.5" width="68" height="68" class="a"/><path d="M577.8 73.5l9.7 24.3 9.7-24.3h5.1v29.8h-3.9V91.7l0.4-12.5 -9.8 24.1h-3l-9.8-24.1 0.4 12.5v11.6h-3.9V73.5H577.8z" class="b"/><path d="M599.6 157.3c0 2.9-0.5 5.5-1.5 7.6s-2.4 3.8-4.2 5c-1.8 1.1-3.9 1.7-6.3 1.7 -2.3 0-4.4-0.6-6.2-1.7 -1.8-1.2-3.2-2.8-4.2-4.9s-1.5-4.6-1.5-7.4v-2.1c0-2.9 0.5-5.4 1.5-7.6 1-2.2 2.4-3.9 4.2-5 1.8-1.2 3.9-1.7 6.3-1.7 2.4 0 4.5 0.6 6.3 1.7 1.8 1.2 3.2 2.8 4.2 5s1.5 4.7 1.5 7.6V157.3zM595.6 155.4c0-3.5-0.7-6.2-2.1-8.1 -1.4-1.9-3.4-2.8-6-2.8 -2.5 0-4.4 0.9-5.9 2.8 -1.4 1.9-2.2 4.5-2.2 7.9v2.2c0 3.4 0.7 6.1 2.2 8.1s3.4 2.9 5.9 2.9c2.5 0 4.5-0.9 5.9-2.8s2.1-4.5 2.1-8V155.4z" class="b"/><rect x="553.6" y="55.5" width="68" height="68" class="a"/><rect x="553.6" y="123.5" width="68" height="68" class="a"/><path d="M-2392.7 73.5l9.7 24.3 9.7-24.3h5.1v29.8h-3.9V91.7l0.4-12.5 -9.8 24.1h-3l-9.8-24.1 0.4 12.5v11.6h-3.9V73.5H-2392.7z" class="b"/><rect x="-2416.9" y="55.5" width="68" height="68" class="a"/><path d="M-2379.8 35.3h-3.8V10l-7.6 2.8V9.4l10.8-4.1h0.6V35.3z" class="b"/><path d="M-2236.7 35.3h-19.5v-2.7l10.3-11.5c1.5-1.7 2.6-3.1 3.2-4.2 0.6-1.1 0.9-2.2 0.9-3.4 0-1.6-0.5-2.8-1.4-3.8 -0.9-1-2.2-1.5-3.8-1.5 -1.9 0-3.3 0.5-4.4 1.6 -1 1.1-1.6 2.6-1.6 4.5h-3.8c0-2.7 0.9-5 2.7-6.6 1.8-1.7 4.1-2.5 7.1-2.5 2.8 0 5 0.7 6.6 2.2 1.6 1.5 2.4 3.4 2.4 5.8 0 2.9-1.9 6.4-5.6 10.5l-8 8.7h15V35.3z" class="b"/><path d="M-2114.7 18.5h2.8c1.8 0 3.2-0.5 4.2-1.4 1-0.9 1.5-2.1 1.5-3.7 0-3.5-1.7-5.2-5.2-5.2 -1.6 0-2.9 0.5-3.9 1.4 -1 0.9-1.5 2.2-1.5 3.7h-3.8c0-2.4 0.9-4.3 2.6-5.9 1.7-1.6 3.9-2.3 6.6-2.3 2.8 0 5 0.7 6.6 2.2 1.6 1.5 2.4 3.6 2.4 6.2 0 1.3-0.4 2.6-1.3 3.8s-2 2.1-3.4 2.7c1.6 0.5 2.9 1.4 3.8 2.6 0.9 1.2 1.3 2.7 1.3 4.4 0 2.7-0.9 4.8-2.6 6.4 -1.7 1.6-4 2.4-6.8 2.4 -2.8 0-5.1-0.8-6.8-2.3s-2.6-3.5-2.6-6h3.8c0 1.6 0.5 2.8 1.5 3.8 1 0.9 2.4 1.4 4.1 1.4 1.8 0 3.2-0.5 4.2-1.4s1.5-2.3 1.5-4.1c0-1.7-0.5-3.1-1.6-4 -1.1-0.9-2.6-1.4-4.6-1.4h-2.8V18.5z" class="b"/><path d="M-1968.3 25.3h4.1v3.1h-4.1v6.9h-3.8v-6.9h-13.6v-2.2l13.3-20.6h4V25.3zM-1981.3 25.3h9.3V10.7l-0.4 0.8L-1981.3 25.3z" class="b"/><path d="M-1846.5 20.3l1.5-14.9h15.3v3.5h-12.1l-0.9 8.1c1.5-0.9 3.1-1.3 5-1.3 2.7 0 4.9 0.9 6.5 2.7 1.6 1.8 2.4 4.2 2.4 7.3 0 3.1-0.8 5.5-2.5 7.3 -1.7 1.8-4 2.7-6.9 2.7 -2.6 0-4.8-0.7-6.4-2.2 -1.7-1.5-2.6-3.5-2.8-6.1h3.6c0.2 1.7 0.8 3 1.8 3.9s2.3 1.3 3.9 1.3c1.8 0 3.1-0.6 4.1-1.8 1-1.2 1.5-2.9 1.5-5 0-2-0.5-3.6-1.6-4.8 -1.1-1.2-2.5-1.8-4.3-1.8 -1.7 0-2.9 0.4-3.9 1.1l-1 0.8L-1846.5 20.3z" class="b"/><rect x="-2416.9" y="123.5" width="68" height="68" class="a"/><path d="M-2256.7 73.5l9.7 24.3 9.7-24.3h5.1v29.8h-3.9V91.7l0.4-12.5 -9.8 24.1h-3l-9.8-24.1 0.4 12.5v11.6h-3.9V73.5H-2256.7z" class="b"/><path d="M-2235 157.3c0 2.9-0.5 5.5-1.5 7.6s-2.4 3.8-4.2 5c-1.8 1.1-3.9 1.7-6.3 1.7 -2.3 0-4.4-0.6-6.2-1.7 -1.8-1.2-3.2-2.8-4.2-4.9s-1.5-4.6-1.5-7.4v-2.1c0-2.9 0.5-5.4 1.5-7.6 1-2.2 2.4-3.9 4.2-5 1.8-1.2 3.9-1.7 6.3-1.7 2.4 0 4.5 0.6 6.3 1.7 1.8 1.2 3.2 2.8 4.2 5s1.5 4.7 1.5 7.6V157.3zM-2238.9 155.4c0-3.5-0.7-6.2-2.1-8.1 -1.4-1.9-3.4-2.8-6-2.8 -2.5 0-4.4 0.9-5.9 2.8 -1.4 1.9-2.2 4.5-2.2 7.9v2.2c0 3.4 0.7 6.1 2.2 8.1s3.4 2.9 5.9 2.9c2.5 0 4.5-0.9 5.9-2.8s2.1-4.5 2.1-8V155.4z" class="b"/><rect x="-2280.9" y="55.5" width="68" height="68" class="a"/><rect x="-2280.9" y="123.5" width="68" height="68" class="a"/><path d="M-2120.7 73.5l9.7 24.3 9.7-24.3h5.1v29.8h-3.9V91.7l0.4-12.5 -9.8 24.1h-3l-9.8-24.1 0.4 12.5v11.6h-3.9V73.5H-2120.7z" class="b"/><path d="M-2099 157.3c0 2.9-0.5 5.5-1.5 7.6s-2.4 3.8-4.2 5c-1.8 1.1-3.9 1.7-6.3 1.7 -2.3 0-4.4-0.6-6.2-1.7 -1.8-1.2-3.2-2.8-4.2-4.9s-1.5-4.6-1.5-7.4v-2.1c0-2.9 0.5-5.4 1.5-7.6 1-2.2 2.4-3.9 4.2-5 1.8-1.2 3.9-1.7 6.3-1.7 2.4 0 4.5 0.6 6.3 1.7 1.8 1.2 3.2 2.8 4.2 5s1.5 4.7 1.5 7.6V157.3zM-2102.9 155.4c0-3.5-0.7-6.2-2.1-8.1 -1.4-1.9-3.4-2.8-6-2.8 -2.5 0-4.4 0.9-5.9 2.8 -1.4 1.9-2.2 4.5-2.2 7.9v2.2c0 3.4 0.7 6.1 2.2 8.1s3.4 2.9 5.9 2.9c2.5 0 4.5-0.9 5.9-2.8s2.1-4.5 2.1-8V155.4z" class="b"/><rect x="-2144.9" y="55.5" width="68" height="68" class="a"/><rect x="-2144.9" y="123.5" width="68" height="68" class="a"/><polyline points="-2212.9 157.5 -2178.9 157.5 -2178.9 259.5 -2314.9 259.5 -2314.9 89.5 -2342.9 89.5 " class="a"/><path d="M-2348.9 89.5c2.8-1.1 6.4-2.9 8.5-4.8l-1.7 4.8 1.7 4.8C-2342.6 92.4-2346.1 90.6-2348.9 89.5z" class="b"/><path d="M-1984.7 73.5l9.7 24.3 9.7-24.3h5.1v29.8h-3.9V91.7l0.4-12.5 -9.8 24.1h-3l-9.8-24.1 0.4 12.5v11.6h-3.9V73.5H-1984.7z" class="b"/><path d="M-1963 157.3c0 2.9-0.5 5.5-1.5 7.6s-2.4 3.8-4.2 5c-1.8 1.1-3.9 1.7-6.3 1.7 -2.3 0-4.4-0.6-6.2-1.7 -1.8-1.2-3.2-2.8-4.2-4.9s-1.5-4.6-1.5-7.4v-2.1c0-2.9 0.5-5.4 1.5-7.6 1-2.2 2.4-3.9 4.2-5 1.8-1.2 3.9-1.7 6.3-1.7 2.4 0 4.5 0.6 6.3 1.7 1.8 1.2 3.2 2.8 4.2 5s1.5 4.7 1.5 7.6V157.3zM-1966.9 155.4c0-3.5-0.7-6.2-2.1-8.1 -1.4-1.9-3.4-2.8-6-2.8 -2.5 0-4.4 0.9-5.9 2.8 -1.4 1.9-2.2 4.5-2.2 7.9v2.2c0 3.4 0.7 6.1 2.2 8.1s3.4 2.9 5.9 2.9c2.5 0 4.5-0.9 5.9-2.8s2.1-4.5 2.1-8V155.4z" class="b"/><rect x="-2008.9" y="55.5" width="68" height="68" class="a"/><rect x="-2008.9" y="123.5" width="68" height="68" class="a"/><path d="M-1848.7 73.5l9.7 24.3 9.7-24.3h5.1v29.8h-3.9V91.7l0.4-12.5 -9.8 24.1h-3l-9.8-24.1 0.4 12.5v11.6h-3.9V73.5H-1848.7z" class="b"/><path d="M-1827 157.3c0 2.9-0.5 5.5-1.5 7.6s-2.4 3.8-4.2 5c-1.8 1.1-3.9 1.7-6.3 1.7 -2.3 0-4.4-0.6-6.2-1.7 -1.8-1.2-3.2-2.8-4.2-4.9s-1.5-4.6-1.5-7.4v-2.1c0-2.9 0.5-5.4 1.5-7.6 1-2.2 2.4-3.9 4.2-5 1.8-1.2 3.9-1.7 6.3-1.7 2.4 0 4.5 0.6 6.3 1.7 1.8 1.2 3.2 2.8 4.2 5s1.5 4.7 1.5 7.6V157.3zM-1830.9 155.4c0-3.5-0.7-6.2-2.1-8.1 -1.4-1.9-3.4-2.8-6-2.8 -2.5 0-4.4 0.9-5.9 2.8 -1.4 1.9-2.2 4.5-2.2 7.9v2.2c0 3.4 0.7 6.1 2.2 8.1s3.4 2.9 5.9 2.9c2.5 0 4.5-0.9 5.9-2.8s2.1-4.5 2.1-8V155.4z" class="b"/><rect x="-1872.9" y="55.5" width="68" height="68" class="a"/><rect x="-1872.9" y="123.5" width="68" height="68" class="a"/><path d="M-3229.7 73.5l9.7 24.3 9.7-24.3h5.1v29.8h-3.9V91.7l0.4-12.5 -9.8 24.1h-3l-9.8-24.1 0.4 12.5v11.6h-3.9V73.5H-3229.7z" class="b"/><rect x="-3253.9" y="55.5" width="68" height="68" class="a"/><path d="M-3216.7 35.3h-3.8V10l-7.6 2.8V9.4l10.8-4.1h0.6V35.3z" class="b"/><path d="M-3073.7 35.3h-19.5v-2.7l10.3-11.5c1.5-1.7 2.6-3.1 3.2-4.2 0.6-1.1 0.9-2.2 0.9-3.4 0-1.6-0.5-2.8-1.4-3.8 -0.9-1-2.2-1.5-3.8-1.5 -1.9 0-3.3 0.5-4.4 1.6 -1 1.1-1.6 2.6-1.6 4.5h-3.8c0-2.7 0.9-5 2.7-6.6 1.8-1.7 4.1-2.5 7.1-2.5 2.8 0 5 0.7 6.6 2.2 1.6 1.5 2.4 3.4 2.4 5.8 0 2.9-1.9 6.4-5.6 10.5l-8 8.7h15V35.3z" class="b"/><path d="M-2951.7 18.5h2.8c1.8 0 3.2-0.5 4.2-1.4 1-0.9 1.5-2.1 1.5-3.7 0-3.5-1.7-5.2-5.2-5.2 -1.6 0-2.9 0.5-3.9 1.4 -1 0.9-1.5 2.2-1.5 3.7h-3.8c0-2.4 0.9-4.3 2.6-5.9 1.7-1.6 3.9-2.3 6.6-2.3 2.8 0 5 0.7 6.6 2.2 1.6 1.5 2.4 3.6 2.4 6.2 0 1.3-0.4 2.6-1.3 3.8s-2 2.1-3.4 2.7c1.6 0.5 2.9 1.4 3.8 2.6 0.9 1.2 1.3 2.7 1.3 4.4 0 2.7-0.9 4.8-2.6 6.4 -1.7 1.6-4 2.4-6.8 2.4 -2.8 0-5.1-0.8-6.8-2.3s-2.6-3.5-2.6-6h3.8c0 1.6 0.5 2.8 1.5 3.8 1 0.9 2.4 1.4 4.1 1.4 1.8 0 3.2-0.5 4.2-1.4s1.5-2.3 1.5-4.1c0-1.7-0.5-3.1-1.6-4 -1.1-0.9-2.6-1.4-4.6-1.4h-2.8V18.5z" class="b"/><path d="M-2805.2 25.3h4.1v3.1h-4.1v6.9h-3.8v-6.9h-13.6v-2.2l13.3-20.6h4V25.3zM-2818.3 25.3h9.3V10.7l-0.4 0.8L-2818.3 25.3z" class="b"/><path d="M-2683.5 20.3l1.5-14.9h15.3v3.5h-12.1l-0.9 8.1c1.5-0.9 3.1-1.3 5-1.3 2.7 0 4.9 0.9 6.5 2.7 1.6 1.8 2.4 4.2 2.4 7.3 0 3.1-0.8 5.5-2.5 7.3 -1.7 1.8-4 2.7-6.9 2.7 -2.6 0-4.8-0.7-6.4-2.2 -1.7-1.5-2.6-3.5-2.8-6.1h3.6c0.2 1.7 0.8 3 1.8 3.9s2.3 1.3 3.9 1.3c1.8 0 3.1-0.6 4.1-1.8 1-1.2 1.5-2.9 1.5-5 0-2-0.5-3.6-1.6-4.8 -1.1-1.2-2.5-1.8-4.3-1.8 -1.7 0-2.9 0.4-3.9 1.1l-1 0.8L-2683.5 20.3z" class="b"/><rect x="-3253.9" y="123.5" width="68" height="68" class="a"/><path d="M-3093.7 73.5l9.7 24.3 9.7-24.3h5.1v29.8h-3.9V91.7l0.4-12.5 -9.8 24.1h-3l-9.8-24.1 0.4 12.5v11.6h-3.9V73.5H-3093.7z" class="b"/><path d="M-3071.9 157.3c0 2.9-0.5 5.5-1.5 7.6s-2.4 3.8-4.2 5c-1.8 1.1-3.9 1.7-6.3 1.7 -2.3 0-4.4-0.6-6.2-1.7 -1.8-1.2-3.2-2.8-4.2-4.9s-1.5-4.6-1.5-7.4v-2.1c0-2.9 0.5-5.4 1.5-7.6 1-2.2 2.4-3.9 4.2-5 1.8-1.2 3.9-1.7 6.3-1.7 2.4 0 4.5 0.6 6.3 1.7 1.8 1.2 3.2 2.8 4.2 5s1.5 4.7 1.5 7.6V157.3zM-3075.8 155.4c0-3.5-0.7-6.2-2.1-8.1 -1.4-1.9-3.4-2.8-6-2.8 -2.5 0-4.4 0.9-5.9 2.8 -1.4 1.9-2.2 4.5-2.2 7.9v2.2c0 3.4 0.7 6.1 2.2 8.1s3.4 2.9 5.9 2.9c2.5 0 4.5-0.9 5.9-2.8s2.1-4.5 2.1-8V155.4z" class="b"/><path d="M-3207.9 157.3c0 2.9-0.5 5.5-1.5 7.6s-2.4 3.8-4.2 5c-1.8 1.1-3.9 1.7-6.3 1.7 -2.3 0-4.4-0.6-6.2-1.7 -1.8-1.2-3.2-2.8-4.2-4.9s-1.5-4.6-1.5-7.4v-2.1c0-2.9 0.5-5.4 1.5-7.6 1-2.2 2.4-3.9 4.2-5 1.8-1.2 3.9-1.7 6.3-1.7 2.4 0 4.5 0.6 6.3 1.7 1.8 1.2 3.2 2.8 4.2 5s1.5 4.7 1.5 7.6V157.3zM-3211.8 155.4c0-3.5-0.7-6.2-2.1-8.1 -1.4-1.9-3.4-2.8-6-2.8 -2.5 0-4.4 0.9-5.9 2.8 -1.4 1.9-2.2 4.5-2.2 7.9v2.2c0 3.4 0.7 6.1 2.2 8.1s3.4 2.9 5.9 2.9c2.5 0 4.5-0.9 5.9-2.8s2.1-4.5 2.1-8V155.4z" class="b"/><rect x="-3117.9" y="55.5" width="68" height="68" class="a"/><rect x="-3117.9" y="123.5" width="68" height="68" class="a"/><path d="M-2957.7 73.5l9.7 24.3 9.7-24.3h5.1v29.8h-3.9V91.7l0.4-12.5 -9.8 24.1h-3l-9.8-24.1 0.4 12.5v11.6h-3.9V73.5H-2957.7z" class="b"/><path d="M-2935.9 157.3c0 2.9-0.5 5.5-1.5 7.6s-2.4 3.8-4.2 5c-1.8 1.1-3.9 1.7-6.3 1.7 -2.3 0-4.4-0.6-6.2-1.7 -1.8-1.2-3.2-2.8-4.2-4.9s-1.5-4.6-1.5-7.4v-2.1c0-2.9 0.5-5.4 1.5-7.6 1-2.2 2.4-3.9 4.2-5 1.8-1.2 3.9-1.7 6.3-1.7 2.4 0 4.5 0.6 6.3 1.7 1.8 1.2 3.2 2.8 4.2 5s1.5 4.7 1.5 7.6V157.3zM-2939.8 155.4c0-3.5-0.7-6.2-2.1-8.1 -1.4-1.9-3.4-2.8-6-2.8 -2.5 0-4.4 0.9-5.9 2.8 -1.4 1.9-2.2 4.5-2.2 7.9v2.2c0 3.4 0.7 6.1 2.2 8.1s3.4 2.9 5.9 2.9c2.5 0 4.5-0.9 5.9-2.8s2.1-4.5 2.1-8V155.4z" class="b"/><rect x="-2981.9" y="55.5" width="68" height="68" class="a"/><rect x="-2981.9" y="123.5" width="68" height="68" class="a"/><polyline points="-3185.9 157.5 -3151.9 157.5 -3151.9 89.5 -3179.9 89.5 " class="a"/><path d="M-3185.9 89.5c2.8-1.1 6.4-2.9 8.5-4.8l-1.7 4.8 1.7 4.8C-3179.5 92.4-3183.1 90.6-3185.9 89.5z" class="b"/><path d="M-2821.7 73.5l9.7 24.3 9.7-24.3h5.1v29.8h-3.9V91.7l0.4-12.5 -9.8 24.1h-3l-9.8-24.1 0.4 12.5v11.6h-3.9V73.5H-2821.7z" class="b"/><path d="M-2799.9 157.3c0 2.9-0.5 5.5-1.5 7.6s-2.4 3.8-4.2 5c-1.8 1.1-3.9 1.7-6.3 1.7 -2.3 0-4.4-0.6-6.2-1.7 -1.8-1.2-3.2-2.8-4.2-4.9s-1.5-4.6-1.5-7.4v-2.1c0-2.9 0.5-5.4 1.5-7.6 1-2.2 2.4-3.9 4.2-5 1.8-1.2 3.9-1.7 6.3-1.7 2.4 0 4.5 0.6 6.3 1.7 1.8 1.2 3.2 2.8 4.2 5s1.5 4.7 1.5 7.6V157.3zM-2803.8 155.4c0-3.5-0.7-6.2-2.1-8.1 -1.4-1.9-3.4-2.8-6-2.8 -2.5 0-4.4 0.9-5.9 2.8 -1.4 1.9-2.2 4.5-2.2 7.9v2.2c0 3.4 0.7 6.1 2.2 8.1s3.4 2.9 5.9 2.9c2.5 0 4.5-0.9 5.9-2.8s2.1-4.5 2.1-8V155.4z" class="b"/><rect x="-2845.9" y="55.5" width="68" height="68" class="a"/><rect x="-2845.9" y="123.5" width="68" height="68" class="a"/><path d="M-2685.7 73.5l9.7 24.3 9.7-24.3h5.1v29.8h-3.9V91.7l0.4-12.5 -9.8 24.1h-3l-9.8-24.1 0.4 12.5v11.6h-3.9V73.5H-2685.7z" class="b"/><path d="M-2663.9 157.3c0 2.9-0.5 5.5-1.5 7.6s-2.4 3.8-4.2 5c-1.8 1.1-3.9 1.7-6.3 1.7 -2.3 0-4.4-0.6-6.2-1.7 -1.8-1.2-3.2-2.8-4.2-4.9s-1.5-4.6-1.5-7.4v-2.1c0-2.9 0.5-5.4 1.5-7.6 1-2.2 2.4-3.9 4.2-5 1.8-1.2 3.9-1.7 6.3-1.7 2.4 0 4.5 0.6 6.3 1.7 1.8 1.2 3.2 2.8 4.2 5s1.5 4.7 1.5 7.6V157.3zM-2667.8 155.4c0-3.5-0.7-6.2-2.1-8.1 -1.4-1.9-3.4-2.8-6-2.8 -2.5 0-4.4 0.9-5.9 2.8 -1.4 1.9-2.2 4.5-2.2 7.9v2.2c0 3.4 0.7 6.1 2.2 8.1s3.4 2.9 5.9 2.9c2.5 0 4.5-0.9 5.9-2.8s2.1-4.5 2.1-8V155.4z" class="b"/><rect x="-2709.9" y="55.5" width="68" height="68" class="a"/><rect x="-2709.9" y="123.5" width="68" height="68" class="a"/><text transform="matrix(1 0 0 1 -1604.877 -702.5)" font-family="'Roboto-Regular'" font-size="41.9111" class="b">  M</text><rect x="-1620.6" y="-750.3" width="68" height="68" class="a"/><text transform="matrix(1 0 0 1 -1598.3486 -770.5)" font-family="'Roboto-Regular'" font-size="41.9111" class="b">  1</text><text transform="matrix(1 0 0 1 -1462.3486 -770.5)" font-family="'Roboto-Regular'" font-size="41.9111" class="b">  2</text><text transform="matrix(1 0 0 1 -1326.3486 -770.5)" font-family="'Roboto-Regular'" font-size="41.9111" class="b">  3</text><text transform="matrix(1 0 0 1 -1190.3486 -770.5)" font-family="'Roboto-Regular'" font-size="41.9111" class="b">  4</text><text transform="matrix(1 0 0 1 -1054.3486 -770.5)" font-family="'Roboto-Regular'" font-size="41.9111" class="b">  5</text><rect x="-1620.6" y="-682.3" width="68" height="68" class="a"/><text transform="matrix(1 0 0 1 -1468.877 -702.5)" font-family="'Roboto-Regular'" font-size="41.9111" class="b">  M</text><rect x="-1484.6" y="-750.3" width="68" height="68" class="a"/><rect x="-1484.6" y="-682.3" width="68" height="68" class="a"/><text transform="matrix(1 0 0 1 -1332.877 -702.5)" font-family="'Roboto-Regular'" font-size="41.9111" class="b">  M</text><text transform="matrix(1 0 0 1 -1328.9883 -634.5)" font-family="'Roboto-Regular'" font-size="41.9111" class="b">  O</text><rect x="-1348.6" y="-750.3" width="68" height="68" class="a"/><rect x="-1348.6" y="-682.3" width="68" height="68" class="a"/><polyline points="-1280.6 -648.3 -1246.6 -648.3 -1246.6 -546.3 -1518.6 -546.3 -1518.6 -716.3 -1546.5 -716.3 " class="a"/><path d="M-1552.6-716.3c2.8-1.1 6.4-2.9 8.5-4.8l-1.7 4.8 1.7 4.8C-1546.2-713.4-1549.7-715.2-1552.6-716.3z" class="b"/><text transform="matrix(1 0 0 1 -1196.877 -702.5)" font-family="'Roboto-Regular'" font-size="41.9111" class="b">  M</text><text transform="matrix(1 0 0 1 -1192.9883 -634.5)" font-family="'Roboto-Regular'" font-size="41.9111" class="b">  O</text><rect x="-1212.6" y="-750.3" width="68" height="68" class="a"/><rect x="-1212.6" y="-682.3" width="68" height="68" class="a"/><text transform="matrix(1 0 0 1 -1060.877 -702.5)" font-family="'Roboto-Regular'" font-size="41.9111" class="b">  M</text><text transform="matrix(1 0 0 1 -1056.9883 -634.5)" font-family="'Roboto-Regular'" font-size="41.9111" class="b">  O</text><rect x="-1076.6" y="-750.3" width="68" height="68" class="a"/><rect x="-1076.6" y="-682.3" width="68" height="68" class="a"/><text transform="matrix(1 0 0 1 -794.7959 -702.5)" font-family="'Roboto-Regular'" font-size="41.9111" class="b">  M</text><rect x="-810.5" y="-750.3" width="68" height="68" class="a"/><text transform="matrix(1 0 0 1 -788.2676 -770.5)" font-family="'Roboto-Regular'" font-size="41.9111" class="b">  1</text><text transform="matrix(1 0 0 1 -652.2676 -770.5)" font-family="'Roboto-Regular'" font-size="41.9111" class="b">  2</text><text transform="matrix(1 0 0 1 -516.2676 -770.5)" font-family="'Roboto-Regular'" font-size="41.9111" class="b">  3</text><text transform="matrix(1 0 0 1 -380.2676 -770.5)" font-family="'Roboto-Regular'" font-size="41.9111" class="b">  4</text><text transform="matrix(1 0 0 1 -244.2676 -770.5)" font-family="'Roboto-Regular'" font-size="41.9111" class="b">  5</text><rect x="-810.5" y="-682.3" width="68" height="68" class="a"/><text transform="matrix(1 0 0 1 -658.7959 -702.5)" font-family="'Roboto-Regular'" font-size="41.9111" class="b">  M</text><rect x="-674.5" y="-750.3" width="68" height="68" class="a"/><rect x="-674.5" y="-682.3" width="68" height="68" class="a"/><text transform="matrix(1 0 0 1 -522.7959 -702.5)" font-family="'Roboto-Regular'" font-size="41.9111" class="b">  M</text><rect x="-538.5" y="-750.3" width="68" height="68" class="a"/><rect x="-538.5" y="-682.3" width="68" height="68" class="a"/><polyline points="-334.5 -648.3 -300.5 -648.3 -300.5 -546.3 -708.5 -546.3 -708.5 -716.3 -736.5 -716.3 " class="a"/><path d="M-742.5-716.3c2.8-1.1 6.4-2.9 8.5-4.8l-1.7 4.8 1.7 4.8C-736.1-713.4-739.7-715.2-742.5-716.3z" class="b"/><text transform="matrix(1 0 0 1 -386.7959 -702.5)" font-family="'Roboto-Regular'" font-size="41.9111" class="b">  M</text><text transform="matrix(1 0 0 1 -382.9072 -634.5)" font-family="'Roboto-Regular'" font-size="41.9111" class="b">  O</text><rect x="-402.5" y="-750.3" width="68" height="68" class="a"/><rect x="-402.5" y="-682.3" width="68" height="68" class="a"/><text transform="matrix(1 0 0 1 -250.7959 -702.5)" font-family="'Roboto-Regular'" font-size="41.9111" class="b">  M</text><text transform="matrix(1 0 0 1 -246.9072 -634.5)" font-family="'Roboto-Regular'" font-size="41.9111" class="b">  O</text><rect x="-266.5" y="-750.3" width="68" height="68" class="a"/><rect x="-266.5" y="-682.3" width="68" height="68" class="a"/><text transform="matrix(1 0 0 1 25.2881 -702.5)" font-family="'Roboto-Regular'" font-size="41.9111" class="b">  M</text><rect x="9.6" y="-750.3" width="68" height="68" class="a"/><text transform="matrix(1 0 0 1 31.8164 -770.5)" font-family="'Roboto-Regular'" font-size="41.9111" class="b">  1</text><text transform="matrix(1 0 0 1 167.8164 -770.5)" font-family="'Roboto-Regular'" font-size="41.9111" class="b">  2</text><text transform="matrix(1 0 0 1 303.8164 -770.5)" font-family="'Roboto-Regular'" font-size="41.9111" class="b">  3</text><text transform="matrix(1 0 0 1 439.8164 -770.5)" font-family="'Roboto-Regular'" font-size="41.9111" class="b">  4</text><text transform="matrix(1 0 0 1 575.8164 -770.5)" font-family="'Roboto-Regular'" font-size="41.9111" class="b">  5</text><rect x="9.6" y="-682.3" width="68" height="68" class="a"/><text transform="matrix(1 0 0 1 161.2881 -702.5)" font-family="'Roboto-Regular'" font-size="41.9111" class="b">  M</text><rect x="145.6" y="-750.3" width="68" height="68" class="a"/><rect x="145.6" y="-682.3" width="68" height="68" class="a"/><text transform="matrix(1 0 0 1 297.2881 -702.5)" font-family="'Roboto-Regular'" font-size="41.9111" class="b">  M</text><rect x="281.6" y="-750.3" width="68" height="68" class="a"/><rect x="281.6" y="-682.3" width="68" height="68" class="a"/><polyline points="621.6 -648.3 655.6 -648.3 655.6 -546.3 111.6 -546.3 111.6 -716.3 83.6 -716.3 " class="a"/><path d="M77.6-716.3c2.8-1.1 6.4-2.9 8.5-4.8l-1.7 4.8 1.7 4.8C83.9-713.4 80.4-715.2 77.6-716.3z" class="b"/><text transform="matrix(1 0 0 1 433.2881 -702.5)" font-family="'Roboto-Regular'" font-size="41.9111" class="b">  M</text><rect x="417.6" y="-750.3" width="68" height="68" class="a"/><rect x="417.6" y="-682.3" width="68" height="68" class="a"/><text transform="matrix(1 0 0 1 569.2881 -702.5)" font-family="'Roboto-Regular'" font-size="41.9111" class="b">  M</text><text transform="matrix(1 0 0 1 573.1768 -634.5)" font-family="'Roboto-Regular'" font-size="41.9111" class="b">  O</text><rect x="553.6" y="-750.3" width="68" height="68" class="a"/><rect x="553.6" y="-682.3" width="68" height="68" class="a"/><text transform="matrix(1 0 0 1 -2401.2383 -702.5)" font-family="'Roboto-Regular'" font-size="41.9111" class="b">  M</text><rect x="-2416.9" y="-750.3" width="68" height="68" class="a"/><text transform="matrix(1 0 0 1 -2394.71 -770.5)" font-family="'Roboto-Regular'" font-size="41.9111" class="b">  1</text><text transform="matrix(1 0 0 1 -2258.71 -770.5)" font-family="'Roboto-Regular'" font-size="41.9111" class="b">  2</text><text transform="matrix(1 0 0 1 -2122.71 -770.5)" font-family="'Roboto-Regular'" font-size="41.9111" class="b">  3</text><text transform="matrix(1 0 0 1 -1986.71 -770.5)" font-family="'Roboto-Regular'" font-size="41.9111" class="b">  4</text><text transform="matrix(1 0 0 1 -1850.71 -770.5)" font-family="'Roboto-Regular'" font-size="41.9111" class="b">  5</text><rect x="-2416.9" y="-682.3" width="68" height="68" class="a"/><text transform="matrix(1 0 0 1 -2265.2383 -702.5)" font-family="'Roboto-Regular'" font-size="41.9111" class="b">  M</text><text transform="matrix(1 0 0 1 -2261.3496 -634.5)" font-family="'Roboto-Regular'" font-size="41.9111" class="b">  O</text><rect x="-2280.9" y="-750.3" width="68" height="68" class="a"/><rect x="-2280.9" y="-682.3" width="68" height="68" class="a"/><text transform="matrix(1 0 0 1 -2129.2383 -702.5)" font-family="'Roboto-Regular'" font-size="41.9111" class="b">  M</text><text transform="matrix(1 0 0 1 -2125.3496 -634.5)" font-family="'Roboto-Regular'" font-size="41.9111" class="b">  O</text><rect x="-2144.9" y="-750.3" width="68" height="68" class="a"/><rect x="-2144.9" y="-682.3" width="68" height="68" class="a"/><polyline points="-2212.9 -648.3 -2178.9 -648.3 -2178.9 -546.3 -2314.9 -546.3 -2314.9 -716.3 -2342.9 -716.3 " class="a"/><path d="M-2348.9-716.3c2.8-1.1 6.4-2.9 8.5-4.8l-1.7 4.8 1.7 4.8C-2342.6-713.4-2346.1-715.2-2348.9-716.3z" class="b"/><text transform="matrix(1 0 0 1 -1993.2383 -702.5)" font-family="'Roboto-Regular'" font-size="41.9111" class="b">  M</text><text transform="matrix(1 0 0 1 -1989.3496 -634.5)" font-family="'Roboto-Regular'" font-size="41.9111" class="b">  O</text><rect x="-2008.9" y="-750.3" width="68" height="68" class="a"/><rect x="-2008.9" y="-682.3" width="68" height="68" class="a"/><text transform="matrix(1 0 0 1 -1857.2383 -702.5)" font-family="'Roboto-Regular'" font-size="41.9111" class="b">  M</text><text transform="matrix(1 0 0 1 -1853.3496 -634.5)" font-family="'Roboto-Regular'" font-size="41.9111" class="b">  O</text><rect x="-1872.9" y="-750.3" width="68" height="68" class="a"/><rect x="-1872.9" y="-682.3" width="68" height="68" class="a"/><text transform="matrix(1 0 0 1 -3238.1963 -702.5)" font-family="'Roboto-Regular'" font-size="41.9111" class="b">  M</text><rect x="-3253.9" y="-750.3" width="68" height="68" class="a"/><text transform="matrix(1 0 0 1 -3231.668 -770.5)" font-family="'Roboto-Regular'" font-size="41.9111" class="b">  1</text><text transform="matrix(1 0 0 1 -3095.668 -770.5)" font-family="'Roboto-Regular'" font-size="41.9111" class="b">  2</text><text transform="matrix(1 0 0 1 -2959.668 -770.5)" font-family="'Roboto-Regular'" font-size="41.9111" class="b">  3</text><text transform="matrix(1 0 0 1 -2823.668 -770.5)" font-family="'Roboto-Regular'" font-size="41.9111" class="b">  4</text><text transform="matrix(1 0 0 1 -2687.668 -770.5)" font-family="'Roboto-Regular'" font-size="41.9111" class="b">  5</text><rect x="-3253.9" y="-682.3" width="68" height="68" class="a"/><text transform="matrix(1 0 0 1 -3102.1963 -702.5)" font-family="'Roboto-Regular'" font-size="41.9111" class="b">  M</text><text transform="matrix(1 0 0 1 -3098.3076 -634.5)" font-family="'Roboto-Regular'" font-size="41.9111" class="b">  O</text><text transform="matrix(1 0 0 1 -3234.3076 -634.5)" font-family="'Roboto-Regular'" font-size="41.9111" class="b">  O</text><rect x="-3117.9" y="-750.3" width="68" height="68" class="a"/><rect x="-3117.9" y="-682.3" width="68" height="68" class="a"/><text transform="matrix(1 0 0 1 -2966.1963 -702.5)" font-family="'Roboto-Regular'" font-size="41.9111" class="b">  M</text><text transform="matrix(1 0 0 1 -2962.3076 -634.5)" font-family="'Roboto-Regular'" font-size="41.9111" class="b">  O</text><rect x="-2981.9" y="-750.3" width="68" height="68" class="a"/><rect x="-2981.9" y="-682.3" width="68" height="68" class="a"/><polyline points="-3185.9 -648.3 -3151.9 -648.3 -3151.9 -716.3 -3179.9 -716.3 " class="a"/><path d="M-3185.9-716.3c2.8-1.1 6.4-2.9 8.5-4.8l-1.7 4.8 1.7 4.8C-3179.5-713.4-3183.1-715.2-3185.9-716.3z" class="b"/><text transform="matrix(1 0 0 1 -2830.1963 -702.5)" font-family="'Roboto-Regular'" font-size="41.9111" class="b">  M</text><text transform="matrix(1 0 0 1 -2826.3076 -634.5)" font-family="'Roboto-Regular'" font-size="41.9111" class="b">  O</text><rect x="-2845.9" y="-750.3" width="68" height="68" class="a"/><rect x="-2845.9" y="-682.3" width="68" height="68" class="a"/><text transform="matrix(1 0 0 1 -2694.1963 -702.5)" font-family="'Roboto-Regular'" font-size="41.9111" class="b">  M</text><text transform="matrix(1 0 0 1 -2690.3076 -634.5)" font-family="'Roboto-Regular'" font-size="41.9111" class="b">  O</text><rect x="-2709.9" y="-750.3" width="68" height="68" class="a"/><rect x="-2709.9" y="-682.3" width="68" height="68" class="a"/><rect x="-1809.5" y="837.1" width="232.5" height="127.5" class="a"/><text transform="matrix(1 0 0 1 -1734.6182 920.1426)" font-family="'Roboto-Regular'" font-size="75.0523" class="b">  M</text><text transform="matrix(1 0 0 1 -1794.0312 1021.2939)" font-family="'Roboto-Regular'" font-size="26.523" class="b">  O</text><text transform="matrix(1 0 0 1 -1702.3369 1021.2939)" font-family="'Roboto-Regular'" font-size="26.523" class="b">  O</text><text transform="matrix(1 0 0 1 -1611.7578 1021.2939)" font-family="'Roboto-Regular'" font-size="26.523" class="b">  O</text><circle cx="-1784.9" cy="1012.5" r="25.7" class="a"/><circle cx="-1693.8" cy="1012.5" r="25.7" class="a"/><circle cx="-1602.6" cy="1012.5" r="25.7" class="a"/></svg>