<svg width="2455" height="387" viewBox="0 0 2455 387" xmlns="http://www.w3.org/2000/svg"><g fill="none" fill-rule="evenodd"><path stroke="#384040" d="M943.9 124.3h30.4V1.1h1008V386H2110v-29"/><path d="M944 128a3.8 3.8 0 1 1 0-7.4 3.8 3.8 0 0 1 0 7.5M2110 350.9c1 2.8 2.8 6.3 4.7 8.5l-4.7-1.7-4.8 1.7c2-2.2 3.7-5.7 4.8-8.5M242.2 134.5c-1.8-12.3-3.6-24.5-6-36.7-1.7-8.7-3.5-17.4-6.6-25.8a25 25 0 0 0-4.7-8.6c-.8-.9-1.5-.8-2.4 0-1.7 1.6-2.8 3.7-3.9 5.8-.5.9-.4 1.7 0 2.7 3.7 9.9 5.8 20.2 8.2 30.5 2.2 9.2 3.9 18.6 7.5 27.4 1 2.4 2.2 4.7 4.3 6.2 1 .7 2.2.6 3.3.2 1-.4.2-1.1.3-1.7m-52.5.4c-.3 1 .3 1.3 1 1.5 1.5.4 2.6-.2 3.6-1.1 2.2-2.3 3.4-5 4.4-8 2.2-6 3.6-12.4 5.1-18.7 3-12.5 5.3-25.1 9.8-37.1a2 2 0 0 0 0-1.8c-1-1.9-1.9-3.8-3.3-5.5-1.8-2-2.3-2-4 .1a33.9 33.9 0 0 0-5 10.7c-3 9.3-4.9 19-6.6 28.7-1.9 10.4-3.4 20.8-5 31.2m108-24a22 22 0 0 0-1.7-10.3c-1.3-2.6-2.4-3-5-2-2.2.8-4.2 2-6.1 3.3-9.1 6.2-16.6 14.1-24.3 21.9-3.4 3.4-6.7 7-10.6 9.8-2.6 1.9-3.4 3.6-2.9 6.7 1.8 10.1 3 20.3 5.6 30.3 1.1 4.4 2.4 8.7 5 12.5 2.6 3.6 4.3 4 7.8 1.3 5.2-4 8.8-9.4 12-15 7.3-12.1 12.7-25 16.6-38.7 2-6.8 3.4-13.6 3.6-19.8m-163.4-1.2v1c.3 7.2 1.9 14.2 4 21.2 4.5 15.3 10.8 29.9 19.8 43.2 2.4 3.5 5.1 6.9 8.6 9.5 3 2.3 4.9 2 7.2-1 1.9-2.4 3-5.3 4-8.2 3.9-12.5 5.4-25.5 7.4-38.4 0-.7-.2-1-.8-1.4-4.6-3.1-8.4-7-12.3-11-5.7-5.8-11.3-11.6-17.5-16.9-4.1-3.6-8.4-7-13.6-9-2.7-1.1-4.3-.4-5.4 2.3a21.5 21.5 0 0 0-1.4 8.7m81.5-33.4c-2 5.2-3.3 10.5-4.7 15.9-3 11-5 22.2-8.6 33-1 3.2-2.2 6.3-4.1 9.1-1.7 2.5-4 4.1-7 3.7-2-.3-2.3.8-2.6 2.2-1.4 10-3 19.9-5.3 29.6a41.8 41.8 0 0 1-5.3 13.8c-3.1 4.6-8 5.8-13 3.5-4.7-2.3-8.2-6-11.2-10.1a148.6 148.6 0 0 1-25.2-55 50.3 50.3 0 0 1-1.4-16.4c.5-5.6 3-9 7.6-10.2 2.3-.5 4.7-.4 7 .1a33 33 0 0 1 13.2 7.4c6.4 5.1 12 11.2 17.4 17.2 3.6 3.9 7.1 7.8 11 11.4.5.6 1.2 1 2 1.8.8-2.7 1-5.2 1.3-7.7 2.2-15 4.4-30 8.2-44.7 1.4-5.1 3-10.2 5.5-14.9 1.5-2.7 3.3-5 6.8-5.5 3.5-.4 6 1.4 7.6 4.3.8 1.4 1.2 1.1 2 0 3-4.5 7.3-5.6 11.1-3 2 1.5 3 3.6 4 5.7 3 6 4.6 12.3 6 18.7 3.5 14.6 5.5 29.4 7.7 44.2l.4 2.6c1.2-.2 1.8-1 2.5-1.7 6-5.8 11.4-12.1 17-18.1a91 91 0 0 1 16.5-14.3c3.7-2.3 7.6-4 12-3.8 7 .3 9.7 4.5 10.4 10.6.8 7.8-.9 15.3-3 22.7a155.1 155.1 0 0 1-20.4 44.2c-3.4 5-7 10-12.3 13.3-7 4.5-13.6 2.3-17-5.5-3-7-4.4-14.5-5.8-22-1.1-6.3-2.1-12.5-3-18.8-.3-1.2-.6-1.8-2-1.6-3.5.4-6-1.2-7.8-4-2.6-4-3.9-8.6-5.2-13.1-3.5-12.4-6-25.1-9.6-37.5l-2.2-7.1h-.5" fill="#384040"/><text font-family="Roboto-Regular, Roboto" font-size="30" letter-spacing="-.7" fill="#384040"><tspan x="28.7" y="71.8">M</tspan></text><text font-family="Roboto-Regular, Roboto" font-size="30" letter-spacing=".4" fill="#384040"><tspan x="28.7" y="222.9">O</tspan></text><path stroke="#384040" stroke-width="2" d="M1 350.9h435V26H1z"/><path d="M1567.6 265l.1.5c1.5 4.7 3 9.5 4.9 14.2a19 19 0 0 0 2.4 4.8c.8 1.1 1.2 1.1 2 0 1.4-1.5 2.2-3.4 3.2-5.3.2-.3 0-.5 0-.7l-2.4-3.9a32.4 32.4 0 0 0-6.3-7.7c-1.1-.9-2.3-1.7-3.9-1.9m19.5 20.4l.8-.6c1-1.2 1.6-2.6 2.2-4 2-4.8 3.6-9.9 5.2-15 0-.2.3-.5.1-.7-.2-.2-.5 0-.8 0-1.5.6-2.7 1.5-3.8 2.6-2.7 2.6-4.6 5.8-6.8 9-1 1.6-1.4 3 0 4.5l.1.4c.6 1 1.2 2.1 2 3 .3.4.6.7 1 .8m-31-8.9h.3l.2-.7c.6-2.3 1.4-4.6 2.5-6.7 1.3-2.2 2.8-4.2 5.3-5.1.8-.3.8-.6.5-1.2-.7-2-1.4-4-2.2-5.8-1.2-3.2-2.4-6.3-4.3-9-.4-.6-.7-1.5-1.3-1.4-.6.2-.7 1.1-.8 1.7-.8 3.4-.8 6.9-.9 10.3 0 4 .2 7.8.4 11.7 0 2 .3 4.2.4 6.2m50.7 0v-.3c.6-7.5 1-15 .6-22.4 0-2.2-.3-4.3-1-6.4-.3-1-.5-1.1-1.2-.3a16 16 0 0 0-1.7 2.7c-2.1 4-3.6 8.2-5.2 12.3-.5 1.4-.5 1.4.8 2l.3.2c2.6 1.4 4 3.8 5.2 6.3 1 2 1.5 4 2.2 6m-25.4 0l3.2-5.2c1.3-2 2.7-3.9 4.6-5.5a9.8 9.8 0 0 1 6-2.5c.7 0 1-.3 1.1-.8 1.4-4.1 2.9-8.3 4.7-12.2.8-1.6 1.6-3.2 2.9-4.4 1.6-1.6 4-1 4.8 1 1 2.9 1 5.8 1.2 8.7.2 7.6-.4 15.1-1 22.6-.4 4.6-.7 9.2-.5 13.8.3 6.2-.2 12.4-1.5 18.6-.2.9-.3 1.9-1.6 2-1 0-1.4-.2-1.4-1.2 0-3 .2-6.1.6-9.2 1.3-10 .4-19.8-2.8-29.4-.8-2.4-2-4.8-3.9-6.6-.7-.7-.7-.7-1 .3l-4.6 12.8c-.5 1.4-1.2 2.8-1.9 4.2-1.7 3.3-4.6 3.5-6.8.4l-1.6-2.4c-.3-.5-.5-.7-.9 0-.8 1.3-1.7 2.7-2.9 3.8-1.3 1.2-3.1 1.1-4.3-.2-1.6-1.7-2.3-3.9-3.2-6-1.6-4.1-3-8.4-4.4-12.6-.4-1-.4-1-1.1-.3-2 1.9-3 4.3-4 6.8a60 60 0 0 0-3 15l-.3 4.5c-.3 3.2.3 6.3.6 9.5.2 3 .6 6 .7 9.1 0 .9-.3 1.4-1.1 1.5-.8.2-1.5-.3-1.8-1a72.5 72.5 0 0 1-1.7-20.3c.4-5.3-.4-10.5-.7-15.7l-.8-14c0-3.9 0-7.8.5-11.6.1-1.2.4-2.3.8-3.3 1-2.2 3.6-2 4.8-.8.8.9 1.5 2 2 3a95 95 0 0 1 5.5 13.5c.2.6.4.9 1.1 1 3.9.1 6.5 2.4 8.8 5.3 1.9 2.4 3.4 5 5 7.9M1745.2 283.2c-1-6.4-2-13-3.2-19.4-1-4.6-2-9.2-3.6-13.7-.6-1.6-1.2-3.2-2.4-4.5-.5-.5-.8-.5-1.3 0-1 .8-1.5 2-2 3-.3.5-.3 1-.1 1.5 2 5.2 3.1 10.7 4.4 16.2 1.1 4.8 2 9.8 4 14.5a7 7 0 0 0 2.3 3.3c.5.4 1 .3 1.7 0 .5-.2.1-.5.2-.9m-27.9.3c-.2.5.2.7.6.8.7.2 1.3-.1 1.8-.6 1.2-1.2 1.8-2.7 2.4-4.2 1.2-3.3 1.9-6.6 2.7-10 1.5-6.6 2.8-13.3 5.2-19.7a1 1 0 0 0 0-.9c-.5-1-1-2-1.8-2.9-.9-1-1.2-1-2 0a18 18 0 0 0-2.7 5.7c-1.6 5-2.6 10-3.5 15.2-1 5.5-1.9 11-2.7 16.6m57.3-12.7c0-2.2-.1-4-1-5.5-.6-1.4-1.2-1.6-2.6-1-1.1.4-2.2 1-3.2 1.7-4.9 3.3-8.8 7.5-13 11.6-1.7 1.8-3.4 3.7-5.5 5.2-1.4 1-1.8 1.9-1.5 3.6.9 5.3 1.6 10.7 3 16 .5 2.3 1.2 4.6 2.6 6.7 1.3 1.9 2.3 2 4.1.6 2.8-2.1 4.7-5 6.4-8a86 86 0 0 0 8.8-20.4c1-3.6 1.7-7.3 1.9-10.5m-86.7-.7v.5c.2 3.9 1 7.6 2.1 11.3a82 82 0 0 0 10.5 22.9c1.3 1.9 2.8 3.6 4.6 5 1.7 1.2 2.6 1.1 3.8-.5 1-1.3 1.7-2.8 2.1-4.3 2.1-6.7 3-13.6 4-20.4 0-.4-.2-.6-.4-.8-2.5-1.6-4.5-3.7-6.6-5.8-3-3-6-6.1-9.2-9a25.9 25.9 0 0 0-7.3-4.8c-1.4-.5-2.2-.1-2.8 1.3-.6 1.5-.8 3-.8 4.6m43.3-17.7c-1 2.7-1.8 5.6-2.6 8.4-1.5 5.9-2.6 11.8-4.5 17.6-.5 1.6-1.2 3.3-2.2 4.8-.9 1.3-2.1 2.1-3.7 2-1.1-.2-1.2.3-1.3 1.1-.8 5.3-1.6 10.5-2.9 15.7-.6 2.5-1.3 5-2.8 7.3-1.6 2.5-4.2 3-6.9 1.8a16.2 16.2 0 0 1-6-5.3 78.8 78.8 0 0 1-13.3-29.2c-.7-2.8-1-5.7-.7-8.7.3-2.9 1.6-4.8 4-5.3a8 8 0 0 1 3.8 0c2.7.6 4.8 2.2 7 3.9 3.3 2.7 6.2 6 9.2 9.1 1.8 2 3.7 4.1 5.7 6l1.1 1c.5-1.4.5-2.7.7-4 1.2-8 2.4-16 4.4-23.7.7-2.8 1.5-5.4 2.9-8 .8-1.4 1.8-2.6 3.6-2.9 1.9-.2 3.1.8 4 2.3.5.7.7.6 1 0 1.7-2.4 4-3 6-1.5 1 .7 1.6 1.8 2.1 3a47 47 0 0 1 3.2 9.8c1.8 7.8 3 15.7 4 23.5l.3 1.4c.6-.1 1-.6 1.3-1 3.2-3 6-6.4 9-9.5 2.7-2.8 5.5-5.5 8.8-7.6 1.9-1.3 4-2.1 6.4-2 3.6.1 5 2.4 5.4 5.6.5 4.1-.4 8.1-1.6 12-2.3 8.4-5.9 16.2-10.8 23.5a23.5 23.5 0 0 1-6.5 7c-3.8 2.4-7.2 1.3-9-2.9a54.8 54.8 0 0 1-3.1-11.7l-1.6-10c-.1-.6-.3-.9-1-.8-1.9.2-3.2-.6-4.1-2.1a25 25 0 0 1-2.8-7c-1.9-6.5-3.2-13.3-5.1-19.8l-1.2-3.8h-.2M1857.8 299c-.2-5-.7-10-1.5-15-.4 5 .2 10 1.5 15m46.3.2c1.3-5 2-10 1.5-15.2-.7 5-1.3 10-1.5 15.2m-48.8-46.8h-.2l.3 4 1.9 17.3c.2 2.2.2 2.2 2.4 2.7h.2c1 .5 1.1.2 1-.8l-3.6-15-2-8.2m45.6 24.3l2.5-.5c.8 0 1-.3 1-1l2-17 .5-5.9c-2.3 8-4.1 16.2-6 24.4m-35.2 9.4v.6c1.5 6.8 3 13.7 5.4 20.3.6 1.7 1.4 3.3 2.5 4.7.7 1 1 1 2 .1 1.3-1.2 2.2-2.8 3.2-4.3.4-.6.3-1 0-1.6l-8.3-13a78 78 0 0 0-4.8-6.8m30.8-.1l-.4.3c-4.8 6.3-8.8 13.2-13 19.8-.3.3-.4.6-.2 1 1.1 1.7 2.1 3.5 3.7 5 .6.5 1.2.4 1.7-.3.7-1 1.4-2 1.9-3.3 1.7-4.1 2.8-8.4 4-12.7l2.3-9.8m5.5 14.2c.2-4.7.7-9.4 1.2-14.2l.8-6.5-.1-.7c-.3-.2-.6 0-.8.2-1.2.8-2.2 1.7-3.2 2.8-.5.5-.5 1.3-.7 2-1.7 7.4-3.4 14.7-5.7 21.9-.7 2-1.4 4.2-2.7 6-1.5 2.1-4 2.7-6 1.3-1.3-.8-2.3-2-3.2-3.1-.5-.7-.8-.7-1.3 0-.6 1-1.4 1.7-2.2 2.4-2.6 2.3-5.8 1.8-7.4-1.3-1.8-3.3-2.8-7-3.8-10.6a407 407 0 0 1-4.4-17.7c-.1-.4-.3-.7-.6-1-.9-1-2-2-3-2.7-.2-.2-.5-.4-.8-.3-.3.2-.2.6-.1.8l.9 8.3c.5 4.7 1.1 9.5 1 14.2 0 .8.2 1.8-1 2.1-1 .3-2 0-2.6-1.2a38.9 38.9 0 0 1-3.1-10c-.8-3.8-1.4-7.7-.8-11.7.2-1.8.8-3.6 2.6-4.5.7-.3.5-.8.4-1.2l-1.6-13c-.6-5.2-1.3-10.2-1.5-15.4v-.8c.1-.7-.2-1.6.9-1.8 1.2-.3 2 0 2.5 1.2 1.4 3.6 2.2 7.3 3 11l4.8 20.5c0 .5.1 1.1.6 1.6 3.3 2.8 5.7 6.3 8 9.9 3 4.5 5.6 9.2 8.3 14 .1.2.2.7.6.7.3 0 .4-.5.6-.7 2.5-4.6 5-9.3 8-13.7 2.3-3.6 4.8-7.2 8.1-10 .6-.6.7-1.2.8-1.8 2.1-9.4 4-18.8 6.6-28.1.4-1.3.7-2.5 1.3-3.7.4-.9 1.3-1.2 2.4-1 .9.3.8 1 .8 1.5 0 3-.2 5.7-.6 8.6l-2 17.8-.5 3.3c0 .6 0 1 .7 1.3 1.5.8 2 2.4 2.3 4 .7 4.3 0 8.5-1 12.7a37 37 0 0 1-3.4 10c-.6.7-1.4.7-2.2.5-.8-.3-.8-1-.9-1.6v-2.3" fill="#384040"/><text font-family="Roboto-Regular, Roboto" font-size="30" letter-spacing="-.7" fill="#384040"><tspan x="533.1" y="71.8">M</tspan></text><text font-family="Roboto-Regular, Roboto" font-size="30" letter-spacing=".4" fill="#384040"><tspan x="533.1" y="222.9">O</tspan></text><path stroke="#384040" stroke-width="2" d="M505.3 350.9h435V26h-435z"/><path stroke="#384040" d="M439.6 124.3H470V386h1261.3v-29"/><path d="M439.8 128a3.8 3.8 0 1 1 0-7.4 3.8 3.8 0 0 1 0 7.5M1731.3 350.9c1 2.8 2.8 6.3 4.7 8.5l-4.7-1.7-4.8 1.7c2-2.2 3.7-5.7 4.8-8.5" fill="#384040"/><text font-family="Roboto-Regular, Roboto" font-size="30" letter-spacing="-.7" fill="#384040"><tspan x="1037.4" y="71.8">M</tspan></text><text font-family="Roboto-Regular, Roboto" font-size="30" letter-spacing=".4" fill="#384040"><tspan x="1037.4" y="222.9">O</tspan></text><path stroke="#384040" stroke-width="2" d="M1009.6 350.9h435V26h-435z"/><path d="M1767.5 115h-.3l-1.4 5.1c-.1.5.2.7.6.7l3 .4c.8 0 .9-.2.6-.8l-2.5-5.4m-72-.5l-1.7 3.6c-.3 1-1.5 2.2-1 2.8.6.9 2 0 3.2 0h.4c.5-.1.8-.3.6-.9l-1.5-5.5m58.3 6.4c1.7 1.1 3.5 2.1 5.1 3.3 2.2 1.6 2.1 1.6 3-1 .4-1 .1-1.3-.9-1.4l-7.2-1m-44.8 0l-5.7.9c-3 .4-3 .7-1.7 3.4.3.6.6.6 1 .2 2-1.8 4.2-3 6.4-4.4m66.5 3l2.5 6.6c.2.6.4.9.9.1 1-1.7 1.9-3.5 2.7-5.4.1-.3.2-.7-.4-.7l-5.7-.7m-91.1 7.7l2.7-6.8c.2-.6 0-1-.7-.8l-4.3.5c-1 0-1 .4-.7 1.1.8 2 1.7 4 3 6m13.1-27.6l8.6-12c-2 .4-3.8 1-5.6 1.5-.2 0-.3.3-.5.5-1.9 3-2.6 6.4-2.5 10m67.8 0c.1-3.2-.5-6.3-2-9.2-.3-.5-.5-1-1-1.3-1.8-.6-3.6-1.2-5.8-1.6 3.1 4.1 6 8 8.8 12.1m-69.4 43.4a19.9 19.9 0 0 1 1.9-15.6c2-3 1.7-5.4.3-8.2-.3-.8-.6-1.2-1.5-1-1.2.3-2.4.4-3.6.5-1.1 0-1.7.6-2.1 1.7-1 3-2 5.9-3.2 8.8-.8 1.8-.4 3.2.8 4.7 2.2 3 4.4 6.2 7.4 9m71 0l.4-.2c3-3.2 5.7-6.7 8-10.3.5-.7.4-1.3.2-2-1-2.5-1.7-5-2.6-7.6-1.5-4-1.5-3.9-5.7-4.5-1.7-.2-2.5.1-2.8 1.8-.2.8-.5 1.7-1 2.4-.5 1-.2 1.7.4 2.6 2.8 4.3 4 9 3.6 14.2 0 1.1-.3 2.3-.5 3.5m-21.5-63.3l-.2-.5a91.9 91.9 0 0 0-12.8-11c-.8-.6-1.4-.3-2.1.2-4 2.8-7.8 5.9-11.2 9.3-.6.7-1.4 1.1-1.6 2 9.3.3 18.5.3 27.9 0m51.3 39.7v-.2h5.2c2.4-.2 4.8-.2 7-1.4 1.4-.7 1.8-1.6 1.3-3.2a8.3 8.3 0 0 0-2.2-3.1c-4.3-4.2-9.6-7-14.8-9.8-.7-.4-1.1-.3-1.2.6-.5 5.3-2 10.4-3.7 15.5-.3 1-.1 1.2.8 1.2 2.6 0 5 .2 7.6.4m-130-.1c2-.1 4.6 0 7.2-.3.9-.1 1-.3.7-1.2-1.8-5-3.2-10.1-3.8-15.5 0-1-.6-1-1.3-.6l-5 2.9c-4 2.4-8.1 4.7-11 8.5-2 2.5-1.3 4.5 1.7 5.3 3.6 1 7.3.9 11.4.9m95.3 7.3a133 133 0 0 1-22 34.1l.6.2 1.1-.3c6-2.3 11.7-5.4 16.7-9.4 1.3-1.1 2.9-1.8 3.7-3.5 1.9-3.8 2.8-7.8 2.5-12-.1-3.2-.9-6.2-2.6-9.1M1723 165a133.3 133.3 0 0 1-22-34c-.8.7-1 1.5-1.4 2.3-1.8 5-1.8 10.1-.1 15.2.6 1.9 1.1 3.7 2.7 5 4.8 3.9 10 7.4 15.8 9.9 1.5.6 2.9 1.5 5 1.6m43.5-70.1c2 4.7 2.2 9.2 1.7 13.9 0 .3.1.7.3 1 2.2 3.5 3.8 7.3 5.7 11 .2.7.6 1 1.3 1l6 .7c1 .1 1.4-.3 1.7-1a77.2 77.2 0 0 0 4-17c.1-1.3-.4-1.8-1.4-2.2-2.6-1-5-2.2-7.7-3.2-3.7-1.5-7.4-3-11.6-4.2m-70.3.1h-.5c-6.6 2.2-13 4.8-19.4 7.6-.8.3-.7 1-.7 1.6.5 6 2.2 11.8 4.1 17.5.2.6.5 1 1.3.8 2-.2 4-.5 6.1-.6 1 0 1.4-.5 1.8-1.3 1.4-3.4 3.1-6.7 4.9-9.9.4-.7.9-1.3.8-2.2-.5-4.6-.2-9 1.6-13.5m81.2 47.2c-.7.3-1 .8-1.4 1.3a74 74 0 0 1-12.3 12.1c-.8.7-1.4 1.4-2 2.2a28.5 28.5 0 0 1-10.9 8.2 35.7 35.7 0 0 1-13 3c-1.7 0-2.7.9-3.8 2-.6.5-.5.8 0 1.3l4.5 3.7c6 4.6 12.4 8.5 20 10 3.9.7 7.6.4 11-1.8 5.3-3.2 7.6-8.3 9-14 1.5-6.6 1.3-13.3.4-20a77 77 0 0 0-1.5-8m-92-.2a80 80 0 0 0-2 21.8c.6 5.2 1.5 10.3 4.3 14.8 4.1 6.6 10.5 8.8 17.7 7.2 3.8-1 7.5-2.5 11-4.5 4.4-2.5 8.6-5.6 12.4-9 .3-.3.7-.6.3-1-1-.8-1.5-2-3.1-2.2-4.2-.2-8.2-.8-12.1-2.3-5.1-2-9.6-4.9-13-9.3a12 12 0 0 0-2.2-2.1 66.5 66.5 0 0 1-8-7.4l-5.2-6m72.5-79.8h-1.1c-8.3.4-15.6 3.5-22.6 7.6-1 .5-.4.9.2 1.3a90.9 90.9 0 0 1 14.6 12.5c.7.6 1.4 1 2.2 1.1 3.8.8 7.6 2 10.5 4.5 1.9 1.6 4 2.3 6.2 3l.7.2c6 1.9 11.7 3.9 17.5 6.2 1.2.5 1.3.2 1.3-1 0-2.4-.2-4.8-.6-7.2-1.1-7.3-3.8-14-9-19.5a26.3 26.3 0 0 0-20-8.7m-52 0a27.8 27.8 0 0 0-24.2 12.7 41.3 41.3 0 0 0-6.4 22.8c0 1 0 1.4 1.4 1a228.3 228.3 0 0 1 22.6-8c3.4-3.6 7.7-5 12.2-6a4 4 0 0 0 2.2-1.1 92.9 92.9 0 0 1 14.6-12.5c1-.6 1-1 0-1.5-1-.4-1.8-1-2.7-1.4a44.5 44.5 0 0 0-19.6-6m25.4 24l-.9.1c-5.9.8-11.7 2.1-17.5 3.5-1.2.3-2 .9-2.7 1.8-4.5 5.7-8.6 11.8-12.2 18-.4.7-.4 1.4-.3 2.1l1.7 7.4c.3 1 .8 1.3 1.9 1.2 5.9-.8 11.9-1.3 17.8-2 9.4-1 18.7-.7 28 .4l14.5 1.6c.8 0 1.2-.1 1.5-1 .7-2.6 1.3-5.3 1.8-8 .2-.6 0-1-.3-1.6a159 159 0 0 0-10.3-15.7c-1.9-2.7-4-4.5-7.3-4.9-.8 0-1.5-.3-2.3-.5-4.4-1-8.9-1.9-13.4-2.4m1.3 32.7c-5.6 0-9.8.3-13.9.8-5.8.7-11 3-15.1 7.1-.7.8-1 1.4-.5 2.4 1.2 2.6 2.4 5.2 3.8 7.7 5.3 10.3 11.9 19.7 19.8 28.2a6.5 6.5 0 0 0 9.4 0 129 129 0 0 0 23.5-36.1c.3-.8.2-1.4-.4-2a24.2 24.2 0 0 0-8.5-5.6c-6.3-2.5-13-2-18-2.5m66.5 6.8c-4 0-7.5-.2-11-.6-1 0-1.4 0-1.8 1a65.1 65.1 0 0 1-5.6 10.6c-.5.7-.6 1.3-.3 2.1a78 78 0 0 1 3 20.5c.2 6.9-.7 13.6-4.4 19.6a18 18 0 0 1-13.7 8.7c-7.3 1-14-1.1-20.4-4.5a63.5 63.5 0 0 1-12.5-8.8c-1-.8-1.6-.6-2.4.1-4.6 4-9.7 7.5-15.3 10-5.8 2.8-12 4.2-18.4 3.1-5.3-.8-9.6-3.4-12.5-8a36 36 0 0 1-4.8-21.1c.2-6.7 1.3-13.2 3-19.6.2-.5.4-1 0-1.6a70.3 70.3 0 0 1-6-11.3c-.3-.9-1-.9-1.7-.8-4.6.5-9.3.7-14 .6a28 28 0 0 1-12.5-2.5c-2.7-1.4-3.3-4-1.4-6.6 2.8-4 7-6.5 11-9 3.8-2.1 7.7-4.1 11.7-5.8.8-.4 1-.9 1-1.7.1-5.1.6-10.2 2.1-15 3.8-11.7 11-20 23.2-23.2a38.7 38.7 0 0 1 19.3.1 55.8 55.8 0 0 1 15.5 6.5c.7.4 1.3.4 2 0a52 52 0 0 1 20.3-7.3c12.3-1.5 23 1.5 31.2 11.4 4.7 5.7 7 12.4 8 19.7.5 2.5.4 5 .6 7.6 0 1 .3 1.6 1.2 2 4.3 1.8 8.4 3.9 12.3 6.3 4 2.4 8 4.9 10.6 9 1.5 2.3.9 4.4-1.5 5.8-2.6 1.6-5.5 2-8.5 2.4-2.5.3-5.1.4-7.3.3M2107 313.7l1.8-3.4v-.5l-1.8-3.4-1.8 3.2c-.2.4 0 .6 0 1l1.7 3m-22.1-37.7v1a90.2 90.2 0 0 0 4 17c.1.2.2.8.7.7.3 0 .4-.5.5-.8l1-2.7c.6-1.7.4-3.2-.5-4.8-2-3.4-3.6-6.8-5.7-10.4m44.4.1a160.5 160.5 0 0 0-6.7 12.9c.4 1.6.7 3.2 1.3 4.7.2.4.3 1 .7 1 .5 0 .5-.6.7-1l.6-1.2a73.1 73.1 0 0 0 3.4-16.4m-49-6.4a9.9 9.9 0 0 0-.1 3.7c.7 6.8 2.4 13.3 4.8 19.7.7 2 1.6 4 3 5.6.4.5.8.6 1.2 0a10 10 0 0 0 1.4-3c-2 .3-2.4 0-3.3-1.6l-1-2c-2-6-3.3-12.2-4-18.5-.1-1.6-.6-2.9-2-4m43.3 26.1c.2 1 .9 2.4 1.3 3 .4.5.7.5 1.2 0 .7-.6 1.2-1.4 1.6-2.3a74 74 0 0 0 6.3-23.7c.1-1 .2-2-.3-3-.6.8-1.6 1.4-1.7 2.6-.4 4-1 7.9-2 11.7-.7 3.4-1.5 6.8-3 10-.9 1.6-1.5 2-3.4 1.7m-31.2-11.6h.2l1.3-6-.2-1a116 116 0 0 0-4.2-7.8c-1-1.8-2.1-3.6-3.6-5.2-.6-.6-.8-.4-1 .3-.4 1-.5 2.1-.6 3.3 0 1.1-.3 2.3.5 3.4 2 2.5 3.4 5.2 4.8 7.9l2.8 5.1m29.2.3l.3-.5c2.4-4.5 4.6-9 7.7-13.2l.2-.5c0-2 0-4.1-.7-6.1-.1-.4-.4-.5-.6-.2l-1.4 1.5c-2.7 3.7-4.7 7.8-6.7 11.9-.2.3-.2.6-.2 1l1.4 6.1m-17.5 23.5l1.7-3.5c.2-.3 0-.5 0-.7l-2.1-4.5-6-13.3-1.6-3.4c-.6 1.6-1 3.3-1.4 4.9-.2.7-.1 1.3.2 2l6.9 14c.7 1.5 1.2 3 2.3 4.5m14-25.5c-.4.2-.4.6-.5.8l-2 4.5c-2.4 5.3-4.7 10.7-7.2 16 0 .2-.2.4 0 .6l1.7 3.6.3-.5 9-18.6c.2-.3.2-.5.2-.8l-1.4-5.6m-45.1 22.3l.1.4c4.2 5.5 8.4 10.9 13.4 15.6 1.7 1.6 3.6 3 5.6 4a6 6 0 0 0 6.9-.5 27 27 0 0 0 6.5-8c.1-.1.2-.4 0-.6l-1.9-3.3c-1 1.6-2 3-3.2 4.2a9.7 9.7 0 0 1-5.5 3.1c-2.8.4-5.3-.5-7.6-1.9-3.4-2-6.3-4.7-9-7.5-1.8-1.7-3.5-3.5-5.3-5.5m68 .2c-.4 0-.5.2-.7.4a120 120 0 0 1-7 7.2 34.6 34.6 0 0 1-8.3 6.1 9.4 9.4 0 0 1-11.6-2.2c-1.2-1.3-2-2.6-3.1-4l-1.9 3c-.2.4-.1.7 0 1 1.6 2.5 3.3 5 5.6 7 2.2 2 4.5 2.8 7.4 1.5 2.2-1 4.1-2.5 5.9-4.1 5.1-4.8 9.4-10.3 13.7-16m-34-3.1l3-6.8c2.2-5.2 4.4-10.4 6.8-15.6.2-.5.2-1 0-1.6-1.1-4-2.3-8.2-4-12.1a24 24 0 0 0-4.7-8c-1-1-1.3-1-2.3 0-1.8 1.8-3 4-4 6.3-2 4.5-3.5 9.2-4.8 14l.1 1.2 7.5 17.3 2.4 5.3m-13.7-9.3c-.5 1.4-.9 3-1.5 4.4a11 11 0 0 1-1 1.9 2.9 2.9 0 0 1-4.6.3 18.5 18.5 0 0 1-3.2-5.6c-2.7-6.5-4.6-13-5.6-20a11 11 0 0 1 0-4.5c.3-1 1-1.3 2-1.3.6 0 1.3-.1 1.9.2.5.2.5 0 .5-.5 0-1 .1-2 .4-2.9.6-2.1 2.8-3 4.7-1.7 1.7 1 2.7 2.5 3.7 4 1.4 2.1 2.6 4.3 3.6 6.4.2.3.2.6.5.8l1.8-6c1.1-3.5 2.4-7.1 4.8-10.1 1.4-1.7 3.1-2.6 5.3-2.3.8 0 1.5-.2 2.3 0 2.3.4 3.7 2 4.9 3.9 2.6 4.2 3.9 9 5.1 13.7l.3 1c1-1.7 1.7-3.3 2.5-4.8 1.2-2 2.3-4 4-5.6 1-1.1 2.2-1.7 3.8-1.5 1.1.2 1.8.8 2.1 2 .3 1 .4 2 .5 3 0 .5 0 .7.6.5 3.1-.6 4 .2 4 3.3a74.6 74.6 0 0 1-6.9 24.8c-.6 1.2-1.3 2.4-2.2 3.3-1.4 1.4-3.4 1.2-4.4-.4-1.1-1.5-1.6-3.3-2.2-5.1-.1-.4-.1-.9-.5-1.3l-1.8 3.6-7 13.8c-.2.4-.4.7-.1 1.1 1.2 2.1 2.5 4.2 4.4 6 3 2.7 5.4 2.5 9 .2 3.2-2 5.9-4.8 8.4-7.6 6.9-7.4 12.9-15.4 19.3-23.2l.4-.5c2-2.3 2.4-2.4 5.4-1.8.8.2.5.7.3 1.1l-2.4 3.8a255.7 255.7 0 0 1-19 24.7c-3.5 4-7.1 7.9-11.7 10.7-2.9 1.9-6 3-9.5 2-2.8-.7-4.7-2.6-6.5-4.7l-2.3-3c-.4-.7-.6-.5-1 0a30.4 30.4 0 0 1-4 5c-4 3.8-8.7 3.9-13.2 1.4-4.3-2.5-7.7-6-11-9.6-5-5.4-9.5-11.2-14-17.1-3.1-4.3-6.4-8.5-9-13.2-.5-.8-.4-1 .5-1.1l2.6-.3c.7 0 1 .5 1.5 1l4.6 5.5c4.2 5.2 8.2 10.4 12.6 15.4 2.7 3.1 5.5 6.3 8.7 9 1.7 1.5 3.6 3 5.8 3.8 2.4 1 4.4.2 6.2-1.3 2-1.7 3.3-4 4.6-6 .2-.4.3-.6.1-1l-9-17.6M724.1 162.9l3.4-6.1a1 1 0 0 0 0-1l-3.4-6-3.2 5.8c-.3.6 0 1.1.2 1.6l3 5.7M684.3 95v1.8c1 8 2.5 15.8 4.7 23.5.7 2.3 1.4 4.7 2.5 6.8.3.6.5 1.5 1.3 1.4.6 0 .8-.9 1-1.4l1.6-4.9c1.2-3 .8-5.6-.8-8.6-3.5-6-6.5-12.2-10.3-18.6m79.7.2c-4.2 7.1-8.2 14.3-11.9 21.8-.2.4-.3.8-.2 1.3.8 2.9 1.4 5.7 2.5 8.5.3.6.5 1.7 1.2 1.7.9 0 1-1 1.3-1.7l1-2.2c3.4-9.5 5-19.4 6.1-29.4m-87.9-11.5c-.6 2.3-.4 4.5-.2 6.6 1.3 12.2 4.3 24 8.6 35.3 1.4 3.6 2.9 7.2 5.4 10.2.8.9 1.5 1 2.2-.1 1-1.7 2-3.4 2.5-5.4-3.4.5-4.2.1-6-2.9-.6-1.1-1.2-2.3-1.6-3.5-3.8-10.8-6-21.9-7.2-33.2-.3-2.8-1.2-5.2-3.7-7m77.7 46.7c.4 1.6 1.6 4.3 2.4 5.3.7.9 1.3 1 2 .2 1.3-1.3 2.2-2.7 3-4.3 6.2-13.5 9.8-27.7 11.3-42.5a11 11 0 0 0-.5-5.6c-1.2 1.7-2.9 2.7-3.1 4.8-.8 7-1.9 14.1-3.5 21.1-1.4 6.1-2.8 12.2-5.6 17.8-1.5 3-2.5 3.5-6 3.2m-56-20.8h.4l2.4-11c0-.6-.3-1-.5-1.6-2.3-4.7-4.7-9.5-7.4-14-1.9-3.3-3.9-6.5-6.5-9.3-1-1.1-1.5-.8-1.9.4-.6 2-.9 4-1 6 0 2-.5 4.1 1 6.1 3.3 4.4 6 9.2 8.6 14l5 9.4m52.3.5l.5-1c4.3-8 8.4-16.2 13.8-23.6.2-.3.5-.6.5-1 0-3.6 0-7.3-1.2-10.9-.3-.7-.7-.8-1.3-.3l-2.3 2.7c-5 6.6-8.5 14-12.1 21.3-.3.5-.4 1-.3 1.6l2.4 11.2m-31.4 42l3.1-6.1c.3-.5 0-1-.2-1.3l-3.7-8-10.6-24-2.9-6.1c-1 3-1.7 6-2.5 8.8-.4 1.3-.2 2.4.4 3.6l12.2 25.2c1.3 2.6 2.2 5.4 4.2 8m25.3-45.7c-.8.4-.8 1-1 1.5l-3.6 8c-4.3 9.6-8.4 19.2-13 28.6-.1.4-.3.8 0 1.2l3 6.4.6-.8 16.3-33.5c.2-.4.3-.9.2-1.3l-2.5-10m-81 39.8l.4.8a214 214 0 0 0 24 28c3 2.8 6.3 5.3 10 7.2 4.4 2.2 8.5 1.9 12.4-1 5-3.8 8.4-8.9 11.6-14.1.2-.4.4-.9.1-1.3l-3.4-5.8a54.6 54.6 0 0 1-5.8 7.5c-2.7 2.8-5.8 4.9-9.8 5.5-5 .8-9.6-.8-13.8-3.3a85 85 0 0 1-16.2-13.5c-3.1-3.1-6-6.4-9.5-10m122.1.4c-.8 0-1 .5-1.2.8-4 4.4-8.1 8.8-12.6 12.9a62.1 62.1 0 0 1-14.9 11 16.9 16.9 0 0 1-20.9-4c-2-2.3-3.6-4.7-5.5-7.2l-3.3 5.5c-.4.6-.2 1 0 1.6 2.9 4.6 6 9 10 12.7 3.8 3.5 8.1 5 13.2 2.6a40 40 0 0 0 10.6-7.3c9.2-8.6 16.9-18.4 24.6-28.6m-61-5.7l5.3-12.1c4-9.4 8-18.8 12.3-28.1.4-1 .4-1.8.1-2.8-2-7.4-4.2-14.7-7.2-21.8a43 43 0 0 0-8.4-14.2c-1.9-1.9-2.4-1.9-4.3 0-3.2 3.2-5.3 7.1-7.1 11.1a172 172 0 0 0-8.6 25.1c-.2.8-.1 1.5.2 2.3l13.4 31 4.3 9.5m-24.5-16.8c-1 2.7-1.7 5.4-2.8 8a20 20 0 0 1-1.7 3.3c-2 3-5.8 3.3-8.3.7a33 33 0 0 1-5.8-10.1 148.2 148.2 0 0 1-10-35.9c-.4-2.7-.6-5.4.1-8 .5-1.8 1.8-2.4 3.4-2.4 1.2 0 2.4-.2 3.5.3.9.4 1 0 1-.7 0-1.8.2-3.6.7-5.3 1-3.8 5-5.2 8.4-3.2 3 1.8 4.8 4.7 6.7 7.5 2.4 3.6 4.5 7.4 6.4 11.4.2.4.4 1 1 1.3 1-3.6 1.9-7.1 3-10.6a53 53 0 0 1 8.8-18.3c2.4-3 5.5-4.7 9.5-4.2 1.3.2 2.7-.2 4 0 4.2.9 6.8 3.7 8.8 7.1a93 93 0 0 1 9.3 24.6l.4 1.6c1.6-3 3-5.7 4.6-8.4 2-3.6 4.1-7 7-10 1.8-2 4-3.2 7-2.7 2 .3 3.2 1.4 3.7 3.3s.7 3.7.8 5.6c0 .8 0 1.2 1.1 1 5.6-1.2 7.3.2 7.2 5.8a78.1 78.1 0 0 1-3.1 18.5c-2.4 9-5.1 17.8-9.3 26a22 22 0 0 1-4 6c-2.4 2.4-6 2.1-7.9-.7-2-2.8-2.8-6-3.9-9.2-.2-.8-.2-1.6-.9-2.4l-3.1 6.5-12.7 24.8c-.3.6-.7 1.2-.2 2 2.3 3.8 4.6 7.5 8 10.5 5.5 5 9.6 4.6 16.1.5a78 78 0 0 0 15.1-13.5c12.3-13.3 23.1-27.8 34.6-41.7l.8-1c3.6-4 4.3-4.3 9.6-3 1.5.3 1 1.2.5 1.9-1.4 2.2-2.7 4.5-4.3 6.7a459.3 459.3 0 0 1-34 44.3 99.4 99.4 0 0 1-21 19.4c-5.2 3.3-10.8 5.3-17.1 3.5a24 24 0 0 1-11.7-8.5 59.4 59.4 0 0 1-4-5.4c-.8-1.1-1.1-.9-1.7 0a54.7 54.7 0 0 1-7.5 9c-7 6.9-15.4 7-23.4 2.5a83.6 83.6 0 0 1-19.8-17.2c-9-9.7-17.2-20-25-30.7-5.8-7.7-11.6-15.3-16.3-23.6-1-1.6-.8-1.8 1-2l4.5-.5c1.3-.2 2 .8 2.7 1.6l8.4 10c7.4 9.2 14.7 18.6 22.5 27.6 4.9 5.6 9.9 11.2 15.5 16.2 3.2 2.7 6.6 5.3 10.6 6.8 4.2 1.7 7.7.4 11-2.4 3.5-3 6-7 8.4-10.9.3-.5.4-1 0-1.6l-16-31.5-.2-.2M2223 291.6c.5-.5.5-1 0-1.6-.5-.5-.8-1-1.2-1.6l-2.4-3.6-.6 2c-.3.6 0 1 .4 1.4 1.3 1 2.5 2.2 3.8 3.4m28.5-6.7a54.2 54.2 0 0 1-3.5 5.2c-.5.5-.5 1-.1 1.5l1.4-1.3c.5-.4 1-1 1.5-1.3 1.6-1 1.7-2.3.9-3.8l-.2-.3m-37-8l.5 4.2.7 4c0 .2 0 .5.3.5.2 0 .2 0 .3-.2l1-3.5v-.5l-2.7-4.5m40.2 8.8h.3c.7-3 1-5.9 1.4-8.8a95.8 95.8 0 0 0-2.9 4.9l1.2 4m-37 4.8c-.2.7-.6 1.3-.4 1.9.4 2 1 4 2.1 5.8.3.5.6.5.9 0 .6-1 1-2 1.5-3.2l-.1-.6c-1.3-1.3-2.5-2.6-4-3.9m35.9 1.8l-.3-1c0-.7-.3-.7-.8-.2l-3.3 3.2c-.1.1-.3.3-.2.6.4 1.2.8 2.4 1.6 3.4.2.3.5.4.7 0 1.1-1.8 1.7-3.9 2.3-6m-11.4-14.9c.8-1.8 1.4-3.4 2.2-4.8.6-1 .3-1.7-.4-2.3-2.7-2.2-3.7-2.3-6.2-1-.6.3-.9.6-.2 1.2.5.5 1 1 1.4 1.7 1.2 1.5 2.1 3.3 3.2 5.2m-13.6.1a29.2 29.2 0 0 1 4.8-7.2c.2-.3.3-.5 0-.7-1.1-.7-2.3-1.5-3.8-1a7.8 7.8 0 0 0-3.4 2.4c-.2.2-.3.4-.2.7l2.6 5.8m-20 7.3c1.3 4.9 2.7 9.5 4.4 14.3l1.5-7.4c.7-2.7.2-4-2.3-5.3-1-.6-2.2-1.3-3.6-1.6m49 14.3l.2-.3c1.7-4.3 3-8.8 4.2-13.3.2-.7-.2-.6-.6-.5l-4 2c-1.4 1-1.6 2.3-1.4 3.6l1.7 8.5m-15.9-16.9l-1.5 3c-1 2-2 4-3.4 5.7-.6.9-.5 1.4.2 2.1 2.1 2.2 4 2.2 6.1.1l1.6-1.6c.5-.5.6-1 .3-1.6l-2-5.3c-.4-.7-.6-1.6-1.3-2.4m-12.9 0l-.2.2c-1.2 2.6-2.2 5.3-3.2 8-.1.3 0 .6.2.8 1 1.2 2 2.3 3.4 3 1 .7 2.2.6 3.2 0l1.7-1.6c.4-.5.4-.8 0-1.3a36.9 36.9 0 0 1-3.2-5.4l-1.9-3.7m17.2-9.3c-.8 1.8-1.5 3.5-2.4 5.2-.5 1-.5 1.7 0 2.6l1 2.4 2.2 5.8c.9-1.5 1.6-2.8 2.5-4 1.2-1.5 1.4-3 .5-4.7-1.1-2.5-2.2-5-3.8-7.3m-21.5 0c-2 3-3.3 6-4.4 9.2-.2.4 0 .7.2 1l2.3 4c.4.5.7 1.1 1.3 1.6 1-3 2.2-6 3.4-8.9.2-.2.2-.5 0-.7l-2.8-6.2m-19.3-9.5l-.3 2c.1 5.8 1.6 11.3 2.9 16.8 0 .3.1.5.5.6 1.7.3 3.5.6 5.2 1.5l-.1-1c-.6-3.1-1-6.2-1.5-9.4 0-.7 0-1.5-.5-2.2l-2.5-3.7a25.6 25.6 0 0 0-3.7-4.6m51.8 21c1.6-1 3.2-1.2 4.8-1.5.7-.1 1-.4 1-1 1.3-4.8 2.4-9.6 2.8-14.6a9 9 0 0 0-.2-3.8c-.4.1-.6.5-.8.7-2 2.2-3.6 4.8-5.3 7.3-.4.6-.6 1.3-.6 2l-1 6.2c-.1 1.5-.4 3-.7 4.8m-16.2-4.3l-.1-.4a32.1 32.1 0 0 0-5-7.9c-.3-.4-.5-.4-.9 0-2 2.4-3.5 5-5 7.8-.1.3 0 .5 0 .8 1.5 3.3 3 6.5 5 9.5.4.7.6.8 1 0 1.9-3 3.3-6 4.8-9.2l.2-.6m-16 12.2c-.4.5-.5.8 0 1.3 3.5 4 6.7 8.3 9.9 12.7.6.8.6.8 1.2 0 3.2-4.4 6.4-8.7 10-12.7.4-.5.3-.8 0-1.2-.5.1-.7.5-1 .8-2.9 2.6-6.3 3-9 .2-.6-.6-.9-.2-1.3.1-2.3 2.2-5 2.5-7.6.7-.8-.5-1.5-1.2-2.3-1.9m-6.7-13.1l.3-.6a28 28 0 0 1 4.7-8c.4-.4.2-.7 0-1-1.3-2.8-2.7-5.6-4.2-8.2a22 22 0 0 0-3.5-4.9c-.5-.5-.8-.4-1.1.2-.3.6-.5 1.3-.6 2-.4 2.4-.5 5-.3 7.4.2 2.7 0 5.5 1.7 8 1.2 1.5 2 3.3 3 5.1m34.5 0a2291.5 2291.5 0 0 0 4.4-8c.3-2.8.5-5.6.4-8.5 0-2-.1-3.9-.8-5.8-.4-.9-.6-1-1.3-.3a16 16 0 0 0-2.2 2.8c-1.9 2.8-3.4 5.9-4.9 9-1 2.2-1.1 1.5.4 3.3l.4.5c1.4 2.2 2.5 4.5 3.6 7m-36.2 16.3l-.8 4.1c-.3 2.2-1 4.3.1 6.6 1.7 3.2 3 6.7 5.3 9.5 2.7 3.2 4 3.4 7 .5 2-1.8 3.5-4 5.2-6 .7-.9.5-1.4 0-2.1l-4-5c-1.8-2.2-3.5-4.4-5.4-6.5-.5-.5-.7-.4-1 .2l-.9 1.6c-1.1 1.6-3 1.5-4.1-.1l-1.4-2.8m38 .2c-.6 1-1 2-1.6 2.8a2.4 2.4 0 0 1-3.8.1 7 7 0 0 1-1-1.8c-.3-.7-.6-.7-1-.1-3 3.3-5.8 6.9-8.6 10.4-1.5 2-1.6 2 0 4v.2c1.7 2.2 3.4 4.3 5.5 6 1.8 1.3 2.9 1.3 4.5-.2l1.5-1.6a44 44 0 0 0 5.5-10.2c.2-.5.6-1 .4-1.6l-1.4-8m-52.6 2.3c.2 6.2 1 12 3.1 18.7a28 28 0 0 0 3.3 7.4c.2.2.2.5.5.5.2 0 .3-.3.4-.6l.8-2.7c1-5.4 1.4-10.9 2.3-16.3 0-.8.2-1.7-.2-2.6l-1.7-4.7c-1.5-4-2.8-8-4-12-.1-.6-.3-.7-.8-.3-1 .7-1.5 1.7-2 2.7-1.4 3.1-1.6 6.4-1.7 9.9m67.2 0l-.2-3c0-2.4-.6-4.8-1.5-7-.4-1-1-1.8-1.9-2.5-.6-.5-.8-.5-1 .4a184 184 0 0 1-5.1 15.2c-.4.9-1 1.7-.9 2.8l2.1 15.5c.3 1.5.6 3 1.1 4.6.1.2.2.5.4.6.4 0 .5-.3.6-.5.6-1 1.1-1.8 1.5-2.8a65 65 0 0 0 4.9-23.3m-57.8-30.6c.2-2.2 0-4.4.2-6.6 0-1.3.2-2.5.6-3.8.6-2.1 3-2.8 4.9-1.3 1.4 1.2 2.4 2.8 3.4 4.4 1.5 2.6 3 5.3 4.1 8.1.3.7.6.7 1.2.3 2.6-1.8 5.5-2 8.4-.7 1 .5 1.7.5 2.6 0 3-1.4 6-1.1 8.6.7.7.5.9.3 1.2-.3 1.8-3.8 3.4-7.6 6-10.9.8-1.1 1.8-2.2 3.4-2.3 1.6-.2 2.5.5 3 2 .8 2.8.6 5.6.6 8.4v2.2c1.2-1.6 2.2-3.2 3.4-4.5 1-1 2.3-1.7 3.8-1.3 1 .2 1.5.8 1.7 1.8.4 2.6 0 5.1-.5 7.6-.5 3.7-1.4 7.3-2.4 10.9-.2.5 0 .8.6 1 2.7.6 4.3 2.4 5.3 4.9 1.5 3.8 1.5 7.9 1.2 12a67.4 67.4 0 0 1-7 23.4c-.6 1-1.3 2.2-2.6 2.5-1.7.5-2.9-.1-3.5-1.8-.7-2-1-4.1-1.4-6.2l-1.4-9.3-.1-.7-2.2 4.1a17.3 17.3 0 0 1-4.8 6.2 5.8 5.8 0 0 1-5.4.7c-1.8-.6-3.2-1.8-4.5-3a48.7 48.7 0 0 1-3.7-4.3c-.4-.5-.6-.5-1 0-1.5 1.8-3 3.6-4.8 5.2-1.9 1.6-3.9 2.8-6.5 2.3-2-.3-3.4-1.7-4.7-3.2-1.7-2.2-3-4.7-4.2-7.2 0-.2-.2-.3-.4-.6-.4 1.1-.4 2.2-.5 3.2-.6 3.7-1 7.5-2 11.1a13 13 0 0 1-.5 1.8c-.9 2.1-3 2.5-4.7 1-1.4-1.4-2.2-3-3-4.8-3-6.9-4.8-14-5.4-21.6-.2-3.6 0-7.3 1.2-10.7 1-2.5 2.6-4.3 5.3-5 .7-.2.8-.5.6-1.1-1-3.8-2-7.6-2.5-11.5-.3-2.1-.7-4.3-.4-6.4.4-2.3 2.5-3.2 4.5-1.9 1.5 1.1 2.5 2.7 3.6 4.2l.7 1M2369.3 323c2.8-.5 4.6-2.4 6.2-4.5-2 1.6-4 3.3-6.2 4.6m-12.1-4.9c1.9 2.8 5.1 5.2 6.5 4.8a19 19 0 0 1-3.3-2.1l-3.2-2.7m11-41.1c-.6 1.1-1 2-.3 3.3l1.6 3.9c1.2 3 2.5 6.1 4.2 9 .5.8 1 1.7 1.7 2.3-2-6.3-4.2-12.4-7.1-18.5m-3.7 0c-3 6-5.1 12.2-7.2 18.5a6 6 0 0 0 1.6-2c2.4-4.1 4-8.6 6-13 .5-1.3.4-2.3-.4-3.5m-26.6 0c3.8 10.4 7.8 20.8 12.9 30.8l.2-.2 2.7-9c.2-.3 0-.5-.4-.6-1.1-.3-2-1-2.9-1.8l-1-.7-.1.8c0 .9-.6 1-1.3 1-.7 0-.8-.5-.9-1l-.4-2.9c-.1-.8 0-1.6-.5-2.3-2.3-3.4-4.2-7-6.2-10.5-.7-1.3-1.2-2.6-2.1-3.7m44 31.1c5-10.4 9.2-20.8 13.2-31.5a227.5 227.5 0 0 1-7.3 12.7c-.8 1.2-1.9 2.3-1.9 4l-.3 3c0 .6-.1 1.1-1 1.1-.8 0-1.2-.3-1.2-1.1 0-1-.4-.6-.8-.3-1 1-2 1.8-3.3 2.1-.5.1-.4.4-.3.8l2.8 9.2m2.9-19.1v-.9c.3-5 .4-10.2 0-15.3-.1-3.8-.4-7.6-1.4-11.3a9.5 9.5 0 0 0-2.1-4.4c-.6-.7-1.1-.7-1.8-.2-2.4 1.9-3.8 4.4-5.2 7-.3.4 0 .5.4.5.6.1 1.3.2 1.9.5 2.2 1.1 3.3 3.1 4.3 5.3 1.4 3.2 2.1 6.7 2.7 10.2l1.2 8.6m-36.5 0v-1c.4-3.8.9-7.6 1.7-11.4.8-3.2 1.6-6.3 3.5-9 1-1.6 2.2-2.7 4-3 1.3-.4 1.3-.4.6-1.6-1.1-2-2.3-4-4-5.5-1.4-1.3-2.3-1.2-3.2.5l-.1.2c-1.1 2-1.6 4.3-2 6.6a94 94 0 0 0-.5 24.2m34.8 4l-.5-5a71.4 71.4 0 0 0-3.3-15.4c-.8-2.2-1.7-4.3-3.4-6-1.4-1.4-2.5-1.3-3.3.5l-2.8 6.2c-.2.4-.2.9 0 1.3a172.1 172.1 0 0 1 8.5 21.8c.3 1 .5 1.1 1.4.5 1.3-.9 2.2-2 3.2-3.2.2-.2.3-.5.2-.8m-33.3 0l.1.7c1 1.2 2 2.5 3.4 3.4.7.5 1 .4 1.3-.5 2.4-7.6 4.8-15 8.6-22v-1c-1-2.4-2-4.7-3.2-7-.5-1-.9-1-2-.6-.4.2-.8.5-1.1.9a13 13 0 0 0-3 4.7c-2.6 6.9-3.3 14.1-4.1 21.4m-25.5-4.6c0 2.7 1 5.5 1.9 8.2 2 5.7 4.8 11.2 8 16.4a36 36 0 0 0 5.8 7.3c2.7 2.6 4.3 2.4 6.3-.6 1.7-2.6 2.7-5.5 3.6-8.4.2-.4 0-.6-.3-.9l-2.8-3c-4.1-4.7-8.2-9.3-12.7-13.7-2.4-2.4-5-4.7-7.8-6.6-.5-.3-1.1-.9-1.5-.6-.5.2-.6 1-.5 1.9m84.3 0v-.2c0-.7 0-1.5-.5-1.8-.4-.2-1 .4-1.5.7a48.5 48.5 0 0 0-6.5 5.3c-6 5.7-11.3 12-16.8 18-.4.4-.5.7-.3 1.2l2 5.2c.8 1.8 1.6 3.4 3 4.7.9.7 1.7.8 2.7.3 2-1 3.5-2.7 5-4.5A77 77 0 0 0 2406 298c1.3-3.2 2.3-6.3 2.5-9.7m-42.2-7l-1 2.7c-1.5 3.4-3 6.8-4.9 10-1 1.4-2 3-3.6 3.8-.3.1-.4.4-.5.7l-3.6 11c-.1.4 0 .7.3 1 1.1 1.3 2.1 2.6 3.3 3.8 2.4 2.6 4.8 5.2 7.7 7.2 2.1 1.5 2.6 1.5 4.7 0l.1-.1c4.3-3.1 7.6-7 11-11 .4-.4.2-.7.1-1l-3.4-10.5a2 2 0 0 0-1-1.3 7 7 0 0 1-2.1-2c-2-2.6-3.3-5.5-4.6-8.4l-2.5-5.8m-21.5 19.3l-4.4-10c-3-7.3-6-14.6-8.4-22.2l-.2-.6c-.5-2-.2-2.5 2-2.4.5 0 .8.4 1 .8 1 1.4 1.8 3 2.6 4.5l6.5 13 2.2 4v-3c-.2-6.3-.3-12.5.4-18.8.4-2.6.8-5.2 2-7.7 1.5-3.6 5.3-3.5 7.7-1a30 30 0 0 1 4.5 6.7c.3.6.7 1 1.3 1.2 1.5.7 2.7 1.9 3.7 3.2.5.6.8.7 1.2 0 1.2-1.5 2.5-2.7 4.3-3.4.5-.2.6-.6.8-1 1.2-2.3 2.5-4.5 4.3-6.4 1.4-1.6 3.1-2.6 5.4-1.9 1.7.6 2.4 2 3 3.6 1.2 3.3 1.5 6.7 1.8 10.1.4 4.7.3 9.3.2 14l-.2 4.1c.4 0 .5-.4.6-.6 3-5.6 5.8-11.3 8.6-16.9.6-1.2 1.4-2.3 2-3.6.4-.7 1-1 1.8-.8l.7.1c1 0 1 .5.9 1.2-.7 3-1.7 5.7-2.7 8.5-3 8-6.2 15.7-9.7 23.4l-.8 2.1 4.9-5.4c3-3.4 6.2-6.7 9.9-9.3 2.1-1.4 4.4-2.5 7.2-2 2.2.5 2.8 2.1 2.6 4.1-.3 3.6-1.6 6.8-3 10-2.2 5.2-5 10.2-8.2 14.8a39.1 39.1 0 0 1-6.2 7.5 8.3 8.3 0 0 1-5.6 2.5c-2.3 0-3.7-1.3-5-3-1.2-1.9-2-4-3-6.1 0-.2 0-.3-.2-.5-.4.3-.6.7-.8 1.1a29.5 29.5 0 0 1-6 7.4 8.6 8.6 0 0 1-6.9 2.2c-1.3-.2-2.6.1-3.9 0a10 10 0 0 1-6.4-3c-2.3-2.2-4-4.8-5.6-7.4l-.3-.4-1 2.4c-.8 1.7-1.6 3.3-2.7 4.9-2.3 3.1-6 2.8-8.6 1a34 34 0 0 1-8.2-9.2 86 86 0 0 1-6.6-11.7c-1.6-3.4-3-6.8-3.8-10.4a9 9 0 0 1-.2-3.9c.3-1.2 1-1.8 2.1-2.1 2.8-.8 5.2.2 7.4 1.7 3.8 2.7 7 6 10.2 9.5l4.7 5.1" fill="#384040"/><text font-family="Roboto-Regular, Roboto" font-size="30" letter-spacing="-.7" fill="#384040"><tspan x="1541.7" y="71.8">M</tspan></text><text font-family="Roboto-Regular, Roboto" font-size="30" letter-spacing=".4" fill="#384040"><tspan x="1541.7" y="222.9">O</tspan></text><path stroke="#384040" stroke-width="2" d="M1514 350.9h435V26h-435z"/><path d="M1224.2 117.2v-.3c-3.4-1.2-6.8-2.4-10.2-3.4-3.5-1.1-7-2-10.7-2.2a7.7 7.7 0 0 0-7.9 5c-1 2.5-1.2 5-1.3 7.6 0 1.5.3 1.9 1.8 1.5 7-1.6 13.8-3.5 20.6-5.7l7.7-2.5m8.4.1l11 3.5c5.8 1.7 11.5 3.3 17.4 4.7 1.2.2 1.6 0 1.6-1.3 0-2-.2-3.9-.7-5.8-1.2-5.3-4.7-7.7-10.1-7-6.7.9-12.9 3.3-19.2 6m-7.8 63.8c-.2-.7-.6-.8-1-1a57.3 57.3 0 0 1-15-13 77.6 77.6 0 0 1-17.3-36.8c-.1-1-.4-1.1-1.4-1-3.1.6-6.3 1.1-9.5 1.5-1.3.2-1.6.7-1.5 1.9l.4 6.5c1 11.4 4.1 22 11 31.4 5.1 7 11.7 12 20.8 12.9 4.7.4 9.2-.6 13.5-2.4m6.7-.1a28.2 28.2 0 0 0 16.3 2.1 30 30 0 0 0 19.1-13.5 66.6 66.6 0 0 0 10.7-37.4c0-1-.4-1.2-1.3-1.3l-9.9-1.6c-.8-.2-1 0-1.2.9a75 75 0 0 1-8.4 23.7 71.2 71.2 0 0 1-17.9 22c-2.3 1.8-4.7 3.3-7.4 5m-12.6-122.4a44 44 0 0 0-10.1 1c-19.8 4.5-36.9 14-51.1 28.4a45.2 45.2 0 0 0-12.2 19.4c-2.2 8 .7 14.9 8.3 18.4 6.3 3 13.1 3 20 2.9 1 0 .8-.8.9-1.5a93.7 93.7 0 0 1 11.4-40.8c4-7 9-13.2 15.2-18.4 5.3-4.3 11.1-7.3 17.6-9.4m18.7 0a55 55 0 0 1 14.5 7 66.5 66.5 0 0 1 23.2 30.8c4 9.9 6.2 20.2 6.7 30.8 0 .9 0 1.5 1.2 1.5 5.7.1 11.5 0 17-1.8 5.7-1.9 10.2-5.1 11.4-11.5.8-4.3-.2-8.4-2-12.4a66.8 66.8 0 0 0-21.9-24.9c-9-6.8-18.9-12-29.6-15.7a71.2 71.2 0 0 0-20.5-3.9m-9.2 59.9l-1.5.4c-10.2 3.6-20.5 7-31.1 9.4-1.3.3-1.3.8-1.1 2a75.5 75.5 0 0 0 32.2 48.6c1 .5 1.7.6 2.7 0 3.4-1.8 6.4-4.1 9.2-6.7 12-11.5 20-25.4 23.2-41.8.3-1.4-.2-2-1.5-2.2-9.8-2.2-19.4-5.2-28.8-8.7l-3.3-1m-49.2 6.7v1c-.3 1.6.2 2.3 2 2 2.6-.6 5.1-1 7.7-1.2 1.8-.2 2.4-1 2.2-2.7v-2.6c.4-4 1.3-7.8 5.2-10.1 2.7-1.6 5.7-1.9 8.8-1.6 5.2.4 10.3 1.5 15.2 3.5a20 20 0 0 0 16 0 49.5 49.5 0 0 1 16.5-3.6c7.1-.3 11 2.8 12.5 9.8.4 1.8.3 3.6.3 5.4 0 1 .3 1.5 1.3 1.7 3 .4 6 .8 9 1.4 1.5.2 1.7-.4 1.6-1.6-.1-3.4-.5-6.7-1-10.1a79.5 79.5 0 0 0-18.4-41.7 47 47 0 0 0-26.6-15.4c-1.4-.3-3-.7-4.5-.4a48.7 48.7 0 0 0-32.3 20.5 86.4 86.4 0 0 0-15.5 45.7m41.4-68.5c8.1.6 16.3-.8 24.4.4 10.5 1.5 20.5 4.7 30 9.3 12.8 6 24.3 13.9 33.7 24.5 4.1 4.7 7.6 9.9 9.5 16 3 9.7-1.1 17.3-10.2 21.2-7.6 3.3-15.7 4-24 3.5-1.4-.1-2 0-2 1.9 0 10.8-2 21.4-7 31.1-5.6 11.1-14 19-26.8 21-6.3.9-12.5 0-18.4-2.4-1.1-.4-2-.4-3.1 0a33.4 33.4 0 0 1-37.7-7.8 49.8 49.8 0 0 1-11.6-21.8 71.5 71.5 0 0 1-2.7-20.1c0-1.8-.6-2-2.1-1.9-8.9.4-17.6-.2-25.7-4.4-6-3.1-9.6-8-9.4-15 .2-4.7 2-9 4.4-13a76.3 76.3 0 0 1 22.6-22.9 106 106 0 0 1 50.7-19.6h5.4" fill="#384040"/><text font-family="Roboto-Regular, Roboto" font-size="30" letter-spacing="-.7" fill="#384040"><tspan x="2046" y="71.8">M</tspan></text><text font-family="Roboto-Regular, Roboto" font-size="30" letter-spacing=".4" fill="#384040"><tspan x="2046" y="222.9">O</tspan></text><path stroke="#384040" stroke-width="2" d="M2018.3 350.9h435V26h-435z"/><path d="M2232 126.6c3.5 3.6 3.4 4 7 0a8 8 0 0 0-7 0zm21.8-8.2c7-1 13.7-1.9 20.5-2.3 1.4 0 1.3-.7 1-1.6-.8-3.8-2.6-7.1-4.4-10.5-.5-1-1-1-2-.2l-10.1 9.9c-1.6 1.5-3.5 2.7-5 4.7zm14.9 44c-3.3-3.7-7-6.7-10.5-9.8-.8-.7-1.4-.2-2.1.2-3.6 1.7-7.2 3.2-10.9 4.5l-5 1.8c9.3 2.6 18.8 3.7 28.5 3.2zm-66.6-.4l.2.6c9.7.1 19.2-1 28.8-3.2l-.3-.4c-5.6-1.8-11.1-3.7-16.3-6.5-.6-.3-1.2-.4-1.8.1l-10.6 9.4zm15-43.7c-5.1-4.9-10.3-9.5-15-14.4-1-1-1.4-.8-2 .2a42 42 0 0 0-4.1 9c-1 3-1 3 2.2 3l1.6.2 17.2 2zm7 6.1c-.5-.8-1-1.2-1.8-1.3a252 252 0 0 0-26-3.3c-1.4-.1-1.8.5-1.8 1.8.2 3.8.8 7.4 2.4 10.9.5 1 .9 1 1.7.6 4-1.7 7.8-3.2 11.8-4.4l13.7-4.3zm22.8 0l.3.3c8.5 2.4 17 4.9 25 8.4 1.2.5 1.7 0 2.1-1 1.4-3.2 2-6.6 2.2-10 0-1.8-.5-2.5-2.4-2.3-8.4.7-16.7 1.7-25 3.2-1 .1-1.7.6-2.2 1.4zm-4 57.4c7.7 1.8 15.6 2.9 23.6 3.1 3.8.1 7.7 0 11.3-1.5 3-1.3 3.8-3.2 2.9-6.4-.3-1.2-1-2.2-1.6-3.3-.8-1.8-1.9-1.8-3.5-1.3-5.6 2-11.2 3.7-17 5.3l-15.7 4.1zm-14.7 0l-3.3-.9c-10.1-2.4-20-5.2-30-8.5-.7-.3-1.6-1-2.3.2a15.5 15.5 0 0 0-2.6 5.7c-.4 2.2.5 3.7 2.3 4.8 1 .5 2 .8 3 1 4.9 1.1 9.8 1 14.7.5 6.1-.5 12.2-1.3 18.2-2.9zm4.7-49.6c0-.8-.4-1-.7-1.2-1.1-1-2.3-1.8-3.3-2.8-.8-.7-1.5-.7-2.4-.4-8.6 2.3-17.2 5-25.4 8.3-1.7.7-1.4 1.3-.6 2.4 3 3.8 6.8 7 11 9.6.9.6 1.6.5 2.4-.2l18.3-15.3.7-.4zm10.7-4.7c-.5-.1-1 .3-1.4.7l-3.3 2.7c-1 .8-.8 1.2 0 2 6.1 5 12.3 10 18.4 15.2.8.6 1.4.6 2.2 0 4-2.6 7.6-5.5 10.6-9.3 1.6-1.9 1.5-2-.7-2.9-5.5-2.2-11-4.1-16.7-5.8l-9.1-2.6zm30.9 34.8c4.7-.5 9.5-1.2 13.9-3.5 4.1-2.2 5-5.8 2.2-9.5-3.8-5-9.3-7.6-14.7-10.4-1.2-.6-1.8-.3-2.6.7-3.2 4-7.2 7.2-11.6 10-1.3.7-1.3 1-.2 2l11.4 10.2c.5.4.9.7 1.6.5zm-64-11.8l-.3-.3a50 50 0 0 1-13-11.2c-.6-.7-1.2-.7-2-.3-1.7 1-3.6 1.9-5.3 3a29.2 29.2 0 0 0-9.7 7.9c-2.4 3.4-1.9 6.3 1.7 8.7l2.5 1.4c3.9 1.6 8 2.2 12.1 2.6.6.1 1 0 1.4-.4l12.6-11.4zm45-.1l-18.3-15.3c-1.4-1.2-2.3-1-3.5 0-2 1.9-4.2 3.6-6.2 5.3l-12 10 .7.5c4.4 2.4 9.1 4.3 14 5.9 2 .6 4 1.9 6.3 1.3a82.5 82.5 0 0 0 19-7.7zm-23-78.4l-.8-.7c-7.8-3.7-15.8-6.9-24.3-8.7-5.1-1-10.3-1.9-15.6-.6-3.5.9-6 2.8-6.7 6.5-.6 3.8.7 7.2 2.4 10.6 3 6.5 7.6 12 12.2 17.3.7.8 1.1.8 1.8 0a81 81 0 0 1 11.3-11.3c6.1-5 12.5-9.3 19.7-13.1zm6.1-.1l1.3.8a105 105 0 0 1 29.7 23.8c1 1.1 1.3.3 1.8-.3 2.2-2.7 4.5-5.4 6.6-8.2 3.5-4.7 6.5-9.5 7.7-15.2 1.2-5.3-1.1-9.2-6.4-10.7-2-.6-4-.8-6-.7-7.7.3-15 2.2-22 4.9a78.2 78.2 0 0 0-12.7 5.6zm-3.2 88.5l-1.8.4a125 125 0 0 1-30.5 3.6c-2.6 0-4.5.7-6.1 2.7-1.5 2-1.6 2 .7 2.8 11.7 4 23.6 7.5 35.6 10.3 1.4.3 2.7.4 4 0 8.3-1.9 16.4-4 24.5-6.6l12.3-4.1c.4-.2 1.2 0 1-1-.2-1-3.9-4-5.2-4-9.4.1-18.6-.8-27.8-2.7l-6.7-1.4zm40.2 3.8c3 3.7 3 3.7 7 2.2 9.8-4 19.5-8.4 28.6-14 5.9-3.6 11.5-7.7 15.7-13.5 3.5-5 2.8-9.7-2-13.2a29.4 29.4 0 0 0-12-4.6c-10.4-2-20.8-2.3-31.3-1.7-1.2 0-1.5.4-1.5 1.6 0 3.9-.6 7.7-2.3 11.3-1.2 2.6-1.1 2.6 1.6 4a52.2 52.2 0 0 1 14.8 10c5 5.2 4.2 10.6-2.2 13.8-1.3.6-2.6 1.2-3.9 1.6-4 1.5-8.1 2-12.5 2.5zm-80.1.5l-.4-.5-3.6-.5c-4.8-.7-9.5-1.7-13.8-4.3-3.6-2.2-5-5.4-3.6-9 .6-1.6 1.7-3 3-4.3 4.4-4.6 10-7.6 15.6-10.4 1.3-.7 1.6-1.2.9-2.5-2-3.8-2.8-8-2.7-12.2 0-1.2-.3-1.6-1.5-1.6-9.7-.5-19.3-.3-29 1.3a33 33 0 0 0-15.1 5.5 8 8 0 0 0-2.5 10.2c2.6 5.5 7.2 9.3 12 12.7a166 166 0 0 0 36 18.2c.7.3 1.3.4 1.9-.2l2.8-2.4zm40-42.9l10-2c1.5-.2 2.7-.8 3.8-1.8 5.9-5.4 11.8-10.8 17.4-16.6 1.2-1.2 1-2 .1-3.1a108.7 108.7 0 0 0-29.7-24c-.9-.5-1.7-1-2.7-.3l-7.5 4.4a95.3 95.3 0 0 0-22.7 20c-1 1.1-1 1.9 0 3 5.8 6 12 11.6 18.1 17.2.4.3 1 .8 1.5.9l11.6 2.3zm-55-6.1h9.4c1 0 1.6-.1 2-1.3 1.1-4.6 3-9 5.9-12.8.7-1.1.5-1.8-.4-2.7-5.6-6.1-11-12.4-14.6-20-1.1-2.4-2-4.8-2.3-7.5-.3-5.1 2-8.8 6.9-10.5a33.4 33.4 0 0 1 16-1.1 95.1 95.1 0 0 1 29.9 9.6c1.5.8 2.7.7 4.2 0a101 101 0 0 1 27-9.1 34.3 34.3 0 0 1 20 1c4.6 2 6.7 6 5.8 10.9-1 6-4.3 11.1-7.8 16a93.2 93.2 0 0 1-9.1 10.9c-.9.8-.8 1.5-.2 2.3 2.7 4 4.7 8.4 6 13 .2 1 .7 1.4 1.7 1.3 7-.6 14.1-.4 21.1 0 9.7.8 19.3 1.9 28 6.6 3 1.6 5.6 3.6 6.8 7 1.4 4 0 7.5-2.4 10.6a57 57 0 0 1-17.7 14.6 198 198 0 0 1-34 15.5c-1.2.4-1.5.7-.7 1.9 1.1 1.3 2 2.9 2.6 4.6 1.3 3.8.2 6.5-3.5 8.2-3.7 1.7-7.6 2-11.6 2.2-9.8.4-19.6-1-29.2-2.8-3.8-.8-7.4-.4-11 .3a136 136 0 0 1-26 2.6c-4.7 0-9.5-.3-13.8-2.5-3.4-1.8-4.4-4.3-3.2-8 .6-1.6 1.4-3 2.4-4.4 1.1-1.4.6-1.8-.7-2.2-9.8-3.5-19.4-7.6-28.6-12.5-7-3.8-14-8-19.7-13.7-2.3-2.4-4.3-5-5.4-8.1a9.8 9.8 0 0 1 3-10.8c3.1-2.6 6.7-4.3 10.5-5.5a88.3 88.3 0 0 1 23.3-3.6h9.5z" fill="#384040"/></g></svg>