<svg xmlns="http://www.w3.org/2000/svg" width="631" height="271" viewBox="0 0 631 270.8"><style>.a{fill:none;stroke:#384040;}.b{fill:#384040;}</style><rect x="-1392.9" y="-230.5" width="68" height="136" class="a"/><rect x="485.5" y="-230.5" width="68" height="136" class="a"/><rect x="-392.6" y="-230.5" width="68" height="136" class="a"/><rect x="-324.6" y="-230.5" width="68" height="136" class="a"/><rect x="-256.6" y="-230.5" width="68" height="136" class="a"/><path d="M-776.3 73.5l9.7 24.3 9.7-24.3h5.1v29.8h-3.9V91.7l0.4-12.5 -9.8 24.1h-3l-9.8-24.1 0.4 12.5v11.6h-3.9V73.5H-776.3z" class="b"/><rect x="-800.6" y="55.5" width="68" height="68" class="a"/><path d="M-763.4 35.3h-3.8V10l-7.6 2.8V9.4l10.8-4.1h0.6V35.3z" class="b"/><path d="M-620.3 35.3h-19.5v-2.7l10.3-11.5c1.5-1.7 2.6-3.1 3.2-4.2 0.6-1.1 0.9-2.2 0.9-3.4 0-1.6-0.5-2.8-1.4-3.8 -0.9-1-2.2-1.5-3.8-1.5 -1.9 0-3.3 0.5-4.4 1.6 -1 1.1-1.6 2.6-1.6 4.5h-3.8c0-2.7 0.9-5 2.7-6.6 1.8-1.7 4.1-2.5 7.1-2.5 2.8 0 5 0.7 6.6 2.2 1.6 1.5 2.4 3.4 2.4 5.8 0 2.9-1.9 6.4-5.6 10.5l-8 8.7h15V35.3z" class="b"/><path d="M-498.4 18.5h2.8c1.8 0 3.2-0.5 4.2-1.4 1-0.9 1.5-2.1 1.5-3.7 0-3.5-1.7-5.2-5.2-5.2 -1.6 0-2.9 0.5-3.9 1.4 -1 0.9-1.5 2.2-1.5 3.7h-3.8c0-2.4 0.9-4.3 2.6-5.9 1.7-1.6 3.9-2.3 6.6-2.3 2.8 0 5 0.7 6.6 2.2 1.6 1.5 2.4 3.6 2.4 6.2 0 1.3-0.4 2.6-1.3 3.8s-2 2.1-3.4 2.7c1.6 0.5 2.9 1.4 3.8 2.6 0.9 1.2 1.3 2.7 1.3 4.4 0 2.7-0.9 4.8-2.6 6.4 -1.7 1.6-4 2.4-6.8 2.4 -2.8 0-5.1-0.8-6.8-2.3s-2.6-3.5-2.6-6h3.8c0 1.6 0.5 2.8 1.5 3.8 1 0.9 2.4 1.4 4.1 1.4 1.8 0 3.2-0.5 4.2-1.4s1.5-2.3 1.5-4.1c0-1.7-0.5-3.1-1.6-4 -1.1-0.9-2.6-1.4-4.6-1.4h-2.8V18.5z" class="b"/><path d="M-351.9 25.3h4.1v3.1h-4.1v6.9h-3.8v-6.9h-13.6v-2.2l13.3-20.6h4V25.3zM-365 25.3h9.3V10.7l-0.4 0.8L-365 25.3z" class="b"/><path d="M-230.1 20.3l1.5-14.9h15.3v3.5h-12.1l-0.9 8.1c1.5-0.9 3.1-1.3 5-1.3 2.7 0 4.9 0.9 6.5 2.7 1.6 1.8 2.4 4.2 2.4 7.3 0 3.1-0.8 5.5-2.5 7.3 -1.7 1.8-4 2.7-6.9 2.7 -2.6 0-4.8-0.7-6.4-2.2 -1.7-1.5-2.6-3.5-2.8-6.1h3.6c0.2 1.7 0.8 3 1.8 3.9s2.3 1.3 3.9 1.3c1.8 0 3.1-0.6 4.1-1.8 1-1.2 1.5-2.9 1.5-5 0-2-0.5-3.6-1.6-4.8 -1.1-1.2-2.5-1.8-4.3-1.8 -1.7 0-2.9 0.4-3.9 1.1l-1 0.8L-230.1 20.3z" class="b"/><rect x="-800.6" y="123.5" width="68" height="68" class="a"/><path d="M-640.3 73.5l9.7 24.3 9.7-24.3h5.1v29.8h-3.9V91.7l0.4-12.5 -9.8 24.1h-3l-9.8-24.1 0.4 12.5v11.6h-3.9V73.5H-640.3z" class="b"/><rect x="-664.6" y="55.5" width="68" height="68" class="a"/><rect x="-664.6" y="123.5" width="68" height="68" class="a"/><path d="M-504.3 73.5l9.7 24.3 9.7-24.3h5.1v29.8h-3.9V91.7l0.4-12.5 -9.8 24.1h-3l-9.8-24.1 0.4 12.5v11.6h-3.9V73.5H-504.3z" class="b"/><path d="M-482.6 157.3c0 2.9-0.5 5.5-1.5 7.6s-2.4 3.8-4.2 5c-1.8 1.1-3.9 1.7-6.3 1.7 -2.3 0-4.4-0.6-6.2-1.7 -1.8-1.2-3.2-2.8-4.2-4.9s-1.5-4.6-1.5-7.4v-2.1c0-2.9 0.5-5.4 1.5-7.6 1-2.2 2.4-3.9 4.2-5 1.8-1.2 3.9-1.7 6.3-1.7 2.4 0 4.5 0.6 6.3 1.7 1.8 1.2 3.2 2.8 4.2 5s1.5 4.7 1.5 7.6V157.3zM-486.5 155.4c0-3.5-0.7-6.2-2.1-8.1 -1.4-1.9-3.4-2.8-6-2.8 -2.5 0-4.4 0.9-5.9 2.8 -1.4 1.9-2.2 4.5-2.2 7.9v2.2c0 3.4 0.7 6.1 2.2 8.1s3.4 2.9 5.9 2.9c2.5 0 4.5-0.9 5.9-2.8s2.1-4.5 2.1-8V155.4z" class="b"/><rect x="-528.6" y="55.5" width="68" height="68" class="a"/><rect x="-528.6" y="123.5" width="68" height="68" class="a"/><polyline points="-460.6 157.5 -426.6 157.5 -426.6 259.5 -698.6 259.5 -698.6 89.5 -726.5 89.5 " class="a"/><path d="M-732.6 89.5c2.8-1.1 6.4-2.9 8.5-4.8l-1.7 4.8 1.7 4.8C-726.2 92.4-729.7 90.6-732.6 89.5z" class="b"/><path d="M-368.3 73.5l9.7 24.3 9.7-24.3h5.1v29.8h-3.9V91.7l0.4-12.5 -9.8 24.1h-3l-9.8-24.1 0.4 12.5v11.6h-3.9V73.5H-368.3z" class="b"/><path d="M-346.6 157.3c0 2.9-0.5 5.5-1.5 7.6s-2.4 3.8-4.2 5c-1.8 1.1-3.9 1.7-6.3 1.7 -2.3 0-4.4-0.6-6.2-1.7 -1.8-1.2-3.2-2.8-4.2-4.9s-1.5-4.6-1.5-7.4v-2.1c0-2.9 0.5-5.4 1.5-7.6 1-2.2 2.4-3.9 4.2-5 1.8-1.2 3.9-1.7 6.3-1.7 2.4 0 4.5 0.6 6.3 1.7 1.8 1.2 3.2 2.8 4.2 5s1.5 4.7 1.5 7.6V157.3zM-350.5 155.4c0-3.5-0.7-6.2-2.1-8.1 -1.4-1.9-3.4-2.8-6-2.8 -2.5 0-4.4 0.9-5.9 2.8 -1.4 1.9-2.2 4.5-2.2 7.9v2.2c0 3.4 0.7 6.1 2.2 8.1s3.4 2.9 5.9 2.9c2.5 0 4.5-0.9 5.9-2.8s2.1-4.5 2.1-8V155.4z" class="b"/><rect x="-392.6" y="55.5" width="68" height="68" class="a"/><rect x="-392.6" y="123.5" width="68" height="68" class="a"/><path d="M-232.3 73.5l9.7 24.3 9.7-24.3h5.1v29.8h-3.9V91.7l0.4-12.5 -9.8 24.1h-3l-9.8-24.1 0.4 12.5v11.6h-3.9V73.5H-232.3z" class="b"/><path d="M-210.6 157.3c0 2.9-0.5 5.5-1.5 7.6s-2.4 3.8-4.2 5c-1.8 1.1-3.9 1.7-6.3 1.7 -2.3 0-4.4-0.6-6.2-1.7 -1.8-1.2-3.2-2.8-4.2-4.9s-1.5-4.6-1.5-7.4v-2.1c0-2.9 0.5-5.4 1.5-7.6 1-2.2 2.4-3.9 4.2-5 1.8-1.2 3.9-1.7 6.3-1.7 2.4 0 4.5 0.6 6.3 1.7 1.8 1.2 3.2 2.8 4.2 5s1.5 4.7 1.5 7.6V157.3zM-214.5 155.4c0-3.5-0.7-6.2-2.1-8.1 -1.4-1.9-3.4-2.8-6-2.8 -2.5 0-4.4 0.9-5.9 2.8 -1.4 1.9-2.2 4.5-2.2 7.9v2.2c0 3.4 0.7 6.1 2.2 8.1s3.4 2.9 5.9 2.9c2.5 0 4.5-0.9 5.9-2.8s2.1-4.5 2.1-8V155.4z" class="b"/><rect x="-256.6" y="55.5" width="68" height="68" class="a"/><rect x="-256.6" y="123.5" width="68" height="68" class="a"/><path d="M33.7 73.5l9.7 24.3 9.7-24.3h5.1v29.8h-3.9V91.7l0.4-12.5 -9.8 24.1h-3l-9.8-24.1 0.4 12.5v11.6h-3.9V73.5H33.7z" class="b"/><rect x="9.5" y="55.5" width="68" height="68" class="a"/><path d="M46.7 35.3h-3.8V10l-7.6 2.8V9.4L46.1 5.3h0.6V35.3z" class="b"/><path d="M189.7 35.3h-19.5v-2.7l10.3-11.5c1.5-1.7 2.6-3.1 3.2-4.2 0.6-1.1 0.9-2.2 0.9-3.4 0-1.6-0.5-2.8-1.4-3.8 -0.9-1-2.2-1.5-3.8-1.5 -1.9 0-3.3 0.5-4.4 1.6 -1 1.1-1.6 2.6-1.6 4.5h-3.8c0-2.7 0.9-5 2.7-6.6 1.8-1.7 4.1-2.5 7.1-2.5 2.8 0 5 0.7 6.6 2.2 1.6 1.5 2.4 3.4 2.4 5.8 0 2.9-1.9 6.4-5.6 10.5l-8 8.7h15V35.3z" class="b"/><path d="M311.7 18.5h2.8c1.8 0 3.2-0.5 4.2-1.4 1-0.9 1.5-2.1 1.5-3.7 0-3.5-1.7-5.2-5.2-5.2 -1.6 0-2.9 0.5-3.9 1.4 -1 0.9-1.5 2.2-1.5 3.7h-3.8c0-2.4 0.9-4.3 2.6-5.9 1.7-1.6 3.9-2.3 6.6-2.3 2.8 0 5 0.7 6.6 2.2 1.6 1.5 2.4 3.6 2.4 6.2 0 1.3-0.4 2.6-1.3 3.8s-2 2.1-3.4 2.7c1.6 0.5 2.9 1.4 3.8 2.6 0.9 1.2 1.3 2.7 1.3 4.4 0 2.7-0.9 4.8-2.6 6.4 -1.7 1.6-4 2.4-6.8 2.4 -2.8 0-5.1-0.8-6.8-2.3s-2.6-3.5-2.6-6h3.8c0 1.6 0.5 2.8 1.5 3.8 1 0.9 2.4 1.4 4.1 1.4 1.8 0 3.2-0.5 4.2-1.4s1.5-2.3 1.5-4.1c0-1.7-0.5-3.1-1.6-4 -1.1-0.9-2.6-1.4-4.6-1.4h-2.8V18.5z" class="b"/><path d="M458.2 25.3h4.1v3.1h-4.1v6.9h-3.8v-6.9h-13.6v-2.2L454.2 5.5h4V25.3zM445.1 25.3h9.3V10.7l-0.4 0.8L445.1 25.3z" class="b"/><path d="M579.9 20.3l1.5-14.9h15.3v3.5h-12.1l-0.9 8.1c1.5-0.9 3.1-1.3 5-1.3 2.7 0 4.9 0.9 6.5 2.7 1.6 1.8 2.4 4.2 2.4 7.3 0 3.1-0.8 5.5-2.5 7.3 -1.7 1.8-4 2.7-6.9 2.7 -2.6 0-4.8-0.7-6.4-2.2 -1.7-1.5-2.6-3.5-2.8-6.1h3.6c0.2 1.7 0.8 3 1.8 3.9s2.3 1.3 3.9 1.3c1.8 0 3.1-0.6 4.1-1.8 1-1.2 1.5-2.9 1.5-5 0-2-0.5-3.6-1.6-4.8 -1.1-1.2-2.5-1.8-4.3-1.8 -1.7 0-2.9 0.4-3.9 1.1l-1 0.8L579.9 20.3z" class="b"/><rect x="9.5" y="123.5" width="68" height="68" class="a"/><path d="M169.7 73.5l9.7 24.3 9.7-24.3h5.1v29.8h-3.9V91.7l0.4-12.5 -9.8 24.1h-3l-9.8-24.1 0.4 12.5v11.6h-3.9V73.5H169.7z" class="b"/><rect x="145.5" y="55.5" width="68" height="68" class="a"/><rect x="145.5" y="123.5" width="68" height="68" class="a"/><path d="M305.7 73.5l9.7 24.3 9.7-24.3h5.1v29.8h-3.9V91.7l0.4-12.5 -9.8 24.1h-3l-9.8-24.1 0.4 12.5v11.6h-3.9V73.5H305.7z" class="b"/><rect x="281.5" y="55.5" width="68" height="68" class="a"/><rect x="281.5" y="123.5" width="68" height="68" class="a"/><polyline points="485.5 157.5 519.5 157.5 519.5 259.5 111.5 259.5 111.5 89.5 83.5 89.5 " class="a"/><path d="M77.5 89.5c2.8-1.1 6.4-2.9 8.5-4.8L84.3 89.5l1.7 4.8C83.9 92.4 80.3 90.6 77.5 89.5z" class="b"/><path d="M441.7 73.5l9.7 24.3 9.7-24.3h5.1v29.8h-3.9V91.7l0.4-12.5 -9.8 24.1h-3l-9.8-24.1 0.4 12.5v11.6h-3.9V73.5H441.7z" class="b"/><path d="M463.5 157.3c0 2.9-0.5 5.5-1.5 7.6s-2.4 3.8-4.2 5c-1.8 1.1-3.9 1.7-6.3 1.7 -2.3 0-4.4-0.6-6.2-1.7 -1.8-1.2-3.2-2.8-4.2-4.9s-1.5-4.6-1.5-7.4v-2.1c0-2.9 0.5-5.4 1.5-7.6 1-2.2 2.4-3.9 4.2-5 1.8-1.2 3.9-1.7 6.3-1.7 2.4 0 4.5 0.6 6.3 1.7 1.8 1.2 3.2 2.8 4.2 5s1.5 4.7 1.5 7.6V157.3zM459.6 155.4c0-3.5-0.7-6.2-2.1-8.1 -1.4-1.9-3.4-2.8-6-2.8 -2.5 0-4.4 0.9-5.9 2.8 -1.4 1.9-2.2 4.5-2.2 7.9v2.2c0 3.4 0.7 6.1 2.2 8.1s3.4 2.9 5.9 2.9c2.5 0 4.5-0.9 5.9-2.8s2.1-4.5 2.1-8V155.4z" class="b"/><rect x="417.5" y="55.5" width="68" height="68" class="a"/><rect x="417.5" y="123.5" width="68" height="68" class="a"/><path d="M577.7 73.5l9.7 24.3 9.7-24.3h5.1v29.8h-3.9V91.7l0.4-12.5 -9.8 24.1h-3l-9.8-24.1 0.4 12.5v11.6h-3.9V73.5H577.7z" class="b"/><path d="M599.5 157.3c0 2.9-0.5 5.5-1.5 7.6s-2.4 3.8-4.2 5c-1.8 1.1-3.9 1.7-6.3 1.7 -2.3 0-4.4-0.6-6.2-1.7 -1.8-1.2-3.2-2.8-4.2-4.9s-1.5-4.6-1.5-7.4v-2.1c0-2.9 0.5-5.4 1.5-7.6 1-2.2 2.4-3.9 4.2-5 1.8-1.2 3.9-1.7 6.3-1.7 2.4 0 4.5 0.6 6.3 1.7 1.8 1.2 3.2 2.8 4.2 5s1.5 4.7 1.5 7.6V157.3zM595.6 155.4c0-3.5-0.7-6.2-2.1-8.1 -1.4-1.9-3.4-2.8-6-2.8 -2.5 0-4.4 0.9-5.9 2.8 -1.4 1.9-2.2 4.5-2.2 7.9v2.2c0 3.4 0.7 6.1 2.2 8.1s3.4 2.9 5.9 2.9c2.5 0 4.5-0.9 5.9-2.8s2.1-4.5 2.1-8V155.4z" class="b"/><rect x="553.5" y="55.5" width="68" height="68" class="a"/><rect x="553.5" y="123.5" width="68" height="68" class="a"/><path d="M853.8 73.5l9.7 24.3 9.7-24.3h5.1v29.8h-3.9V91.7l0.4-12.5 -9.8 24.1h-3l-9.8-24.1 0.4 12.5v11.6h-3.9V73.5H853.8z" class="b"/><rect x="829.6" y="55.5" width="68" height="68" class="a"/><path d="M866.7 35.3h-3.8V10l-7.6 2.8V9.4l10.8-4.1h0.6V35.3z" class="b"/><path d="M1009.8 35.3h-19.5v-2.7l10.3-11.5c1.5-1.7 2.6-3.1 3.2-4.2 0.6-1.1 0.9-2.2 0.9-3.4 0-1.6-0.5-2.8-1.4-3.8 -0.9-1-2.2-1.5-3.8-1.5 -1.9 0-3.3 0.5-4.4 1.6 -1 1.1-1.6 2.6-1.6 4.5h-3.8c0-2.7 0.9-5 2.7-6.6 1.8-1.7 4.1-2.5 7.1-2.5 2.8 0 5 0.7 6.6 2.2 1.6 1.5 2.4 3.4 2.4 5.8 0 2.9-1.9 6.4-5.6 10.5l-8 8.7h15V35.3z" class="b"/><path d="M1131.8 18.5h2.8c1.8 0 3.2-0.5 4.2-1.4 1-0.9 1.5-2.1 1.5-3.7 0-3.5-1.7-5.2-5.2-5.2 -1.6 0-2.9 0.5-3.9 1.4 -1 0.9-1.5 2.2-1.5 3.7h-3.8c0-2.4 0.9-4.3 2.6-5.9 1.7-1.6 3.9-2.3 6.6-2.3 2.8 0 5 0.7 6.6 2.2 1.6 1.5 2.4 3.6 2.4 6.2 0 1.3-0.4 2.6-1.3 3.8s-2 2.1-3.4 2.7c1.6 0.5 2.9 1.4 3.8 2.6 0.9 1.2 1.3 2.7 1.3 4.4 0 2.7-0.9 4.8-2.6 6.4 -1.7 1.6-4 2.4-6.8 2.4 -2.8 0-5.1-0.8-6.8-2.3s-2.6-3.5-2.6-6h3.8c0 1.6 0.5 2.8 1.5 3.8 1 0.9 2.4 1.4 4.1 1.4 1.8 0 3.2-0.5 4.2-1.4s1.5-2.3 1.5-4.1c0-1.7-0.5-3.1-1.6-4 -1.1-0.9-2.6-1.4-4.6-1.4h-2.8V18.5z" class="b"/><path d="M1278.3 25.3h4.1v3.1h-4.1v6.9h-3.8v-6.9h-13.6v-2.2l13.3-20.6h4V25.3zM1265.2 25.3h9.3V10.7l-0.4 0.8L1265.2 25.3z" class="b"/><path d="M1400 20.3l1.5-14.9h15.3v3.5h-12.1l-0.9 8.1c1.5-0.9 3.1-1.3 5-1.3 2.7 0 4.9 0.9 6.5 2.7 1.6 1.8 2.4 4.2 2.4 7.3 0 3.1-0.8 5.5-2.5 7.3 -1.7 1.8-4 2.7-6.9 2.7 -2.6 0-4.8-0.7-6.4-2.2 -1.7-1.5-2.6-3.5-2.8-6.1h3.6c0.2 1.7 0.8 3 1.8 3.9s2.3 1.3 3.9 1.3c1.8 0 3.1-0.6 4.1-1.8 1-1.2 1.5-2.9 1.5-5 0-2-0.5-3.6-1.6-4.8 -1.1-1.2-2.5-1.8-4.3-1.8 -1.7 0-2.9 0.4-3.9 1.1l-1 0.8L1400 20.3z" class="b"/><rect x="829.6" y="123.5" width="68" height="68" class="a"/><path d="M989.8 73.5l9.7 24.3 9.7-24.3h5.1v29.8h-3.9V91.7l0.4-12.5 -9.8 24.1h-3l-9.8-24.1 0.4 12.5v11.6h-3.9V73.5H989.8z" class="b"/><rect x="965.6" y="55.5" width="68" height="68" class="a"/><rect x="965.6" y="123.5" width="68" height="68" class="a"/><path d="M1125.8 73.5l9.7 24.3 9.7-24.3h5.1v29.8h-3.9V91.7l0.4-12.5 -9.8 24.1h-3l-9.8-24.1 0.4 12.5v11.6h-3.9V73.5H1125.8z" class="b"/><rect x="1101.6" y="55.5" width="68" height="68" class="a"/><rect x="1101.6" y="123.5" width="68" height="68" class="a"/><polyline points="1441.6 157.5 1475.6 157.5 1475.6 259.5 931.6 259.5 931.6 89.5 903.6 89.5 " class="a"/><path d="M897.6 89.5c2.8-1.1 6.4-2.9 8.5-4.8l-1.7 4.8 1.7 4.8C903.9 92.4 900.4 90.6 897.6 89.5z" class="b"/><path d="M1261.8 73.5l9.7 24.3 9.7-24.3h5.1v29.8h-3.9V91.7l0.4-12.5 -9.8 24.1h-3l-9.8-24.1 0.4 12.5v11.6h-3.9V73.5H1261.8z" class="b"/><rect x="1237.6" y="55.5" width="68" height="68" class="a"/><rect x="1237.6" y="123.5" width="68" height="68" class="a"/><path d="M1397.8 73.5l9.7 24.3 9.7-24.3h5.1v29.8h-3.9V91.7l0.4-12.5 -9.8 24.1h-3l-9.8-24.1 0.4 12.5v11.6h-3.9V73.5H1397.8z" class="b"/><path d="M1419.6 157.3c0 2.9-0.5 5.5-1.5 7.6s-2.4 3.8-4.2 5c-1.8 1.1-3.9 1.7-6.3 1.7 -2.3 0-4.4-0.6-6.2-1.7 -1.8-1.2-3.2-2.8-4.2-4.9s-1.5-4.6-1.5-7.4v-2.1c0-2.9 0.5-5.4 1.5-7.6 1-2.2 2.4-3.9 4.2-5 1.8-1.2 3.9-1.7 6.3-1.7 2.4 0 4.5 0.6 6.3 1.7 1.8 1.2 3.2 2.8 4.2 5s1.5 4.7 1.5 7.6V157.3zM1415.6 155.4c0-3.5-0.7-6.2-2.1-8.1 -1.4-1.9-3.4-2.8-6-2.8 -2.5 0-4.4 0.9-5.9 2.8 -1.4 1.9-2.2 4.5-2.2 7.9v2.2c0 3.4 0.7 6.1 2.2 8.1s3.4 2.9 5.9 2.9c2.5 0 4.5-0.9 5.9-2.8s2.1-4.5 2.1-8V155.4z" class="b"/><rect x="1373.6" y="55.5" width="68" height="68" class="a"/><rect x="1373.6" y="123.5" width="68" height="68" class="a"/><path d="M-1572.7 73.5l9.7 24.3 9.7-24.3h5.1v29.8h-3.9V91.7l0.4-12.5 -9.8 24.1h-3l-9.8-24.1 0.4 12.5v11.6h-3.9V73.5H-1572.7z" class="b"/><rect x="-1596.9" y="55.5" width="68" height="68" class="a"/><path d="M-1559.8 35.3h-3.8V10l-7.6 2.8V9.4l10.8-4.1h0.6V35.3z" class="b"/><path d="M-1416.7 35.3h-19.5v-2.7l10.3-11.5c1.5-1.7 2.6-3.1 3.2-4.2 0.6-1.1 0.9-2.2 0.9-3.4 0-1.6-0.5-2.8-1.4-3.8 -0.9-1-2.2-1.5-3.8-1.5 -1.9 0-3.3 0.5-4.4 1.6 -1 1.1-1.6 2.6-1.6 4.5h-3.8c0-2.7 0.9-5 2.7-6.6 1.8-1.7 4.1-2.5 7.1-2.5 2.8 0 5 0.7 6.6 2.2 1.6 1.5 2.4 3.4 2.4 5.8 0 2.9-1.9 6.4-5.6 10.5l-8 8.7h15V35.3z" class="b"/><path d="M-1294.7 18.5h2.8c1.8 0 3.2-0.5 4.2-1.4 1-0.9 1.5-2.1 1.5-3.7 0-3.5-1.7-5.2-5.2-5.2 -1.6 0-2.9 0.5-3.9 1.4 -1 0.9-1.5 2.2-1.5 3.7h-3.8c0-2.4 0.9-4.3 2.6-5.9 1.7-1.6 3.9-2.3 6.6-2.3 2.8 0 5 0.7 6.6 2.2 1.6 1.5 2.4 3.6 2.4 6.2 0 1.3-0.4 2.6-1.3 3.8s-2 2.1-3.4 2.7c1.6 0.5 2.9 1.4 3.8 2.6 0.9 1.2 1.3 2.7 1.3 4.4 0 2.7-0.9 4.8-2.6 6.4 -1.7 1.6-4 2.4-6.8 2.4 -2.8 0-5.1-0.8-6.8-2.3s-2.6-3.5-2.6-6h3.8c0 1.6 0.5 2.8 1.5 3.8 1 0.9 2.4 1.4 4.1 1.4 1.8 0 3.2-0.5 4.2-1.4s1.5-2.3 1.5-4.1c0-1.7-0.5-3.1-1.6-4 -1.1-0.9-2.6-1.4-4.6-1.4h-2.8V18.5z" class="b"/><path d="M-1148.3 25.3h4.1v3.1h-4.1v6.9h-3.8v-6.9h-13.6v-2.2l13.3-20.6h4V25.3zM-1161.3 25.3h9.3V10.7l-0.4 0.8L-1161.3 25.3z" class="b"/><path d="M-1026.5 20.3l1.5-14.9h15.3v3.5h-12.1l-0.9 8.1c1.5-0.9 3.1-1.3 5-1.3 2.7 0 4.9 0.9 6.5 2.7 1.6 1.8 2.4 4.2 2.4 7.3 0 3.1-0.8 5.5-2.5 7.3 -1.7 1.8-4 2.7-6.9 2.7 -2.6 0-4.8-0.7-6.4-2.2 -1.7-1.5-2.6-3.5-2.8-6.1h3.6c0.2 1.7 0.8 3 1.8 3.9s2.3 1.3 3.9 1.3c1.8 0 3.1-0.6 4.1-1.8 1-1.2 1.5-2.9 1.5-5 0-2-0.5-3.6-1.6-4.8 -1.1-1.2-2.5-1.8-4.3-1.8 -1.7 0-2.9 0.4-3.9 1.1l-1 0.8L-1026.5 20.3z" class="b"/><rect x="-1596.9" y="123.5" width="68" height="68" class="a"/><path d="M-1436.7 73.5l9.7 24.3 9.7-24.3h5.1v29.8h-3.9V91.7l0.4-12.5 -9.8 24.1h-3l-9.8-24.1 0.4 12.5v11.6h-3.9V73.5H-1436.7z" class="b"/><path d="M-1415 157.3c0 2.9-0.5 5.5-1.5 7.6s-2.4 3.8-4.2 5c-1.8 1.1-3.9 1.7-6.3 1.7 -2.3 0-4.4-0.6-6.2-1.7 -1.8-1.2-3.2-2.8-4.2-4.9s-1.5-4.6-1.5-7.4v-2.1c0-2.9 0.5-5.4 1.5-7.6 1-2.2 2.4-3.9 4.2-5 1.8-1.2 3.9-1.7 6.3-1.7 2.4 0 4.5 0.6 6.3 1.7 1.8 1.2 3.2 2.8 4.2 5s1.5 4.7 1.5 7.6V157.3zM-1418.9 155.4c0-3.5-0.7-6.2-2.1-8.1 -1.4-1.9-3.4-2.8-6-2.8 -2.5 0-4.4 0.9-5.9 2.8 -1.4 1.9-2.2 4.5-2.2 7.9v2.2c0 3.4 0.7 6.1 2.2 8.1s3.4 2.9 5.9 2.9c2.5 0 4.5-0.9 5.9-2.8s2.1-4.5 2.1-8V155.4z" class="b"/><rect x="-1460.9" y="55.5" width="68" height="68" class="a"/><rect x="-1460.9" y="123.5" width="68" height="68" class="a"/><path d="M-1300.7 73.5l9.7 24.3 9.7-24.3h5.1v29.8h-3.9V91.7l0.4-12.5 -9.8 24.1h-3l-9.8-24.1 0.4 12.5v11.6h-3.9V73.5H-1300.7z" class="b"/><path d="M-1279 157.3c0 2.9-0.5 5.5-1.5 7.6s-2.4 3.8-4.2 5c-1.8 1.1-3.9 1.7-6.3 1.7 -2.3 0-4.4-0.6-6.2-1.7 -1.8-1.2-3.2-2.8-4.2-4.9s-1.5-4.6-1.5-7.4v-2.1c0-2.9 0.5-5.4 1.5-7.6 1-2.2 2.4-3.9 4.2-5 1.8-1.2 3.9-1.7 6.3-1.7 2.4 0 4.5 0.6 6.3 1.7 1.8 1.2 3.2 2.8 4.2 5s1.5 4.7 1.5 7.6V157.3zM-1282.9 155.4c0-3.5-0.7-6.2-2.1-8.1 -1.4-1.9-3.4-2.8-6-2.8 -2.5 0-4.4 0.9-5.9 2.8 -1.4 1.9-2.2 4.5-2.2 7.9v2.2c0 3.4 0.7 6.1 2.2 8.1s3.4 2.9 5.9 2.9c2.5 0 4.5-0.9 5.9-2.8s2.1-4.5 2.1-8V155.4z" class="b"/><rect x="-1324.9" y="55.5" width="68" height="68" class="a"/><rect x="-1324.9" y="123.5" width="68" height="68" class="a"/><polyline points="-1392.9 157.5 -1358.9 157.5 -1358.9 259.5 -1494.9 259.5 -1494.9 89.5 -1522.9 89.5 " class="a"/><path d="M-1528.9 89.5c2.8-1.1 6.4-2.9 8.5-4.8l-1.7 4.8 1.7 4.8C-1522.6 92.4-1526.1 90.6-1528.9 89.5z" class="b"/><path d="M-1164.7 73.5l9.7 24.3 9.7-24.3h5.1v29.8h-3.9V91.7l0.4-12.5 -9.8 24.1h-3l-9.8-24.1 0.4 12.5v11.6h-3.9V73.5H-1164.7z" class="b"/><path d="M-1143 157.3c0 2.9-0.5 5.5-1.5 7.6s-2.4 3.8-4.2 5c-1.8 1.1-3.9 1.7-6.3 1.7 -2.3 0-4.4-0.6-6.2-1.7 -1.8-1.2-3.2-2.8-4.2-4.9s-1.5-4.6-1.5-7.4v-2.1c0-2.9 0.5-5.4 1.5-7.6 1-2.2 2.4-3.9 4.2-5 1.8-1.2 3.9-1.7 6.3-1.7 2.4 0 4.5 0.6 6.3 1.7 1.8 1.2 3.2 2.8 4.2 5s1.5 4.7 1.5 7.6V157.3zM-1146.9 155.4c0-3.5-0.7-6.2-2.1-8.1 -1.4-1.9-3.4-2.8-6-2.8 -2.5 0-4.4 0.9-5.9 2.8 -1.4 1.9-2.2 4.5-2.2 7.9v2.2c0 3.4 0.7 6.1 2.2 8.1s3.4 2.9 5.9 2.9c2.5 0 4.5-0.9 5.9-2.8s2.1-4.5 2.1-8V155.4z" class="b"/><rect x="-1188.9" y="55.5" width="68" height="68" class="a"/><rect x="-1188.9" y="123.5" width="68" height="68" class="a"/><path d="M-1028.7 73.5l9.7 24.3 9.7-24.3h5.1v29.8h-3.9V91.7l0.4-12.5 -9.8 24.1h-3l-9.8-24.1 0.4 12.5v11.6h-3.9V73.5H-1028.7z" class="b"/><path d="M-1007 157.3c0 2.9-0.5 5.5-1.5 7.6s-2.4 3.8-4.2 5c-1.8 1.1-3.9 1.7-6.3 1.7 -2.3 0-4.4-0.6-6.2-1.7 -1.8-1.2-3.2-2.8-4.2-4.9s-1.5-4.6-1.5-7.4v-2.1c0-2.9 0.5-5.4 1.5-7.6 1-2.2 2.4-3.9 4.2-5 1.8-1.2 3.9-1.7 6.3-1.7 2.4 0 4.5 0.6 6.3 1.7 1.8 1.2 3.2 2.8 4.2 5s1.5 4.7 1.5 7.6V157.3zM-1010.9 155.4c0-3.5-0.7-6.2-2.1-8.1 -1.4-1.9-3.4-2.8-6-2.8 -2.5 0-4.4 0.9-5.9 2.8 -1.4 1.9-2.2 4.5-2.2 7.9v2.2c0 3.4 0.7 6.1 2.2 8.1s3.4 2.9 5.9 2.9c2.5 0 4.5-0.9 5.9-2.8s2.1-4.5 2.1-8V155.4z" class="b"/><rect x="-1052.9" y="55.5" width="68" height="68" class="a"/><rect x="-1052.9" y="123.5" width="68" height="68" class="a"/><path d="M-2409.7 73.5l9.7 24.3 9.7-24.3h5.1v29.8h-3.9V91.7l0.4-12.5 -9.8 24.1h-3l-9.8-24.1 0.4 12.5v11.6h-3.9V73.5H-2409.7z" class="b"/><rect x="-2433.9" y="55.5" width="68" height="68" class="a"/><path d="M-2396.7 35.3h-3.8V10l-7.6 2.8V9.4l10.8-4.1h0.6V35.3z" class="b"/><path d="M-2253.7 35.3h-19.5v-2.7l10.3-11.5c1.5-1.7 2.6-3.1 3.2-4.2 0.6-1.1 0.9-2.2 0.9-3.4 0-1.6-0.5-2.8-1.4-3.8 -0.9-1-2.2-1.5-3.8-1.5 -1.9 0-3.3 0.5-4.4 1.6 -1 1.1-1.6 2.6-1.6 4.5h-3.8c0-2.7 0.9-5 2.7-6.6 1.8-1.7 4.1-2.5 7.1-2.5 2.8 0 5 0.7 6.6 2.2 1.6 1.5 2.4 3.4 2.4 5.8 0 2.9-1.9 6.4-5.6 10.5l-8 8.7h15V35.3z" class="b"/><path d="M-2131.7 18.5h2.8c1.8 0 3.2-0.5 4.2-1.4 1-0.9 1.5-2.1 1.5-3.7 0-3.5-1.7-5.2-5.2-5.2 -1.6 0-2.9 0.5-3.9 1.4 -1 0.9-1.5 2.2-1.5 3.7h-3.8c0-2.4 0.9-4.3 2.6-5.9 1.7-1.6 3.9-2.3 6.6-2.3 2.8 0 5 0.7 6.6 2.2 1.6 1.5 2.4 3.6 2.4 6.2 0 1.3-0.4 2.6-1.3 3.8s-2 2.1-3.4 2.7c1.6 0.5 2.9 1.4 3.8 2.6 0.9 1.2 1.3 2.7 1.3 4.4 0 2.7-0.9 4.8-2.6 6.4 -1.7 1.6-4 2.4-6.8 2.4 -2.8 0-5.1-0.8-6.8-2.3s-2.6-3.5-2.6-6h3.8c0 1.6 0.5 2.8 1.5 3.8 1 0.9 2.4 1.4 4.1 1.4 1.8 0 3.2-0.5 4.2-1.4s1.5-2.3 1.5-4.1c0-1.7-0.5-3.1-1.6-4 -1.1-0.9-2.6-1.4-4.6-1.4h-2.8V18.5z" class="b"/><path d="M-1985.2 25.3h4.1v3.1h-4.1v6.9h-3.8v-6.9h-13.6v-2.2l13.3-20.6h4V25.3zM-1998.3 25.3h9.3V10.7l-0.4 0.8L-1998.3 25.3z" class="b"/><path d="M-1863.5 20.3l1.5-14.9h15.3v3.5h-12.1l-0.9 8.1c1.5-0.9 3.1-1.3 5-1.3 2.7 0 4.9 0.9 6.5 2.7 1.6 1.8 2.4 4.2 2.4 7.3 0 3.1-0.8 5.5-2.5 7.3 -1.7 1.8-4 2.7-6.9 2.7 -2.6 0-4.8-0.7-6.4-2.2 -1.7-1.5-2.6-3.5-2.8-6.1h3.6c0.2 1.7 0.8 3 1.8 3.9s2.3 1.3 3.9 1.3c1.8 0 3.1-0.6 4.1-1.8 1-1.2 1.5-2.9 1.5-5 0-2-0.5-3.6-1.6-4.8 -1.1-1.2-2.5-1.8-4.3-1.8 -1.7 0-2.9 0.4-3.9 1.1l-1 0.8L-1863.5 20.3z" class="b"/><rect x="-2433.9" y="123.5" width="68" height="68" class="a"/><path d="M-2273.7 73.5l9.7 24.3 9.7-24.3h5.1v29.8h-3.9V91.7l0.4-12.5 -9.8 24.1h-3l-9.8-24.1 0.4 12.5v11.6h-3.9V73.5H-2273.7z" class="b"/><path d="M-2251.9 157.3c0 2.9-0.5 5.5-1.5 7.6s-2.4 3.8-4.2 5c-1.8 1.1-3.9 1.7-6.3 1.7 -2.3 0-4.4-0.6-6.2-1.7 -1.8-1.2-3.2-2.8-4.2-4.9s-1.5-4.6-1.5-7.4v-2.1c0-2.9 0.5-5.4 1.5-7.6 1-2.2 2.4-3.9 4.2-5 1.8-1.2 3.9-1.7 6.3-1.7 2.4 0 4.5 0.6 6.3 1.7 1.8 1.2 3.2 2.8 4.2 5s1.5 4.7 1.5 7.6V157.3zM-2255.8 155.4c0-3.5-0.7-6.2-2.1-8.1 -1.4-1.9-3.4-2.8-6-2.8 -2.5 0-4.4 0.9-5.9 2.8 -1.4 1.9-2.2 4.5-2.2 7.9v2.2c0 3.4 0.7 6.1 2.2 8.1s3.4 2.9 5.9 2.9c2.5 0 4.5-0.9 5.9-2.8s2.1-4.5 2.1-8V155.4z" class="b"/><path d="M-2387.9 157.3c0 2.9-0.5 5.5-1.5 7.6s-2.4 3.8-4.2 5c-1.8 1.1-3.9 1.7-6.3 1.7 -2.3 0-4.4-0.6-6.2-1.7 -1.8-1.2-3.2-2.8-4.2-4.9s-1.5-4.6-1.5-7.4v-2.1c0-2.9 0.5-5.4 1.5-7.6 1-2.2 2.4-3.9 4.2-5 1.8-1.2 3.9-1.7 6.3-1.7 2.4 0 4.5 0.6 6.3 1.7 1.8 1.2 3.2 2.8 4.2 5s1.5 4.7 1.5 7.6V157.3zM-2391.8 155.4c0-3.5-0.7-6.2-2.1-8.1 -1.4-1.9-3.4-2.8-6-2.8 -2.5 0-4.4 0.9-5.9 2.8 -1.4 1.9-2.2 4.5-2.2 7.9v2.2c0 3.4 0.7 6.1 2.2 8.1s3.4 2.9 5.9 2.9c2.5 0 4.5-0.9 5.9-2.8s2.1-4.5 2.1-8V155.4z" class="b"/><rect x="-2297.9" y="55.5" width="68" height="68" class="a"/><rect x="-2297.9" y="123.5" width="68" height="68" class="a"/><path d="M-2137.7 73.5l9.7 24.3 9.7-24.3h5.1v29.8h-3.9V91.7l0.4-12.5 -9.8 24.1h-3l-9.8-24.1 0.4 12.5v11.6h-3.9V73.5H-2137.7z" class="b"/><path d="M-2115.9 157.3c0 2.9-0.5 5.5-1.5 7.6s-2.4 3.8-4.2 5c-1.8 1.1-3.9 1.7-6.3 1.7 -2.3 0-4.4-0.6-6.2-1.7 -1.8-1.2-3.2-2.8-4.2-4.9s-1.5-4.6-1.5-7.4v-2.1c0-2.9 0.5-5.4 1.5-7.6 1-2.2 2.4-3.9 4.2-5 1.8-1.2 3.9-1.7 6.3-1.7 2.4 0 4.5 0.6 6.3 1.7 1.8 1.2 3.2 2.8 4.2 5s1.5 4.7 1.5 7.6V157.3zM-2119.8 155.4c0-3.5-0.7-6.2-2.1-8.1 -1.4-1.9-3.4-2.8-6-2.8 -2.5 0-4.4 0.9-5.9 2.8 -1.4 1.9-2.2 4.5-2.2 7.9v2.2c0 3.4 0.7 6.1 2.2 8.1s3.4 2.9 5.9 2.9c2.5 0 4.5-0.9 5.9-2.8s2.1-4.5 2.1-8V155.4z" class="b"/><rect x="-2161.9" y="55.5" width="68" height="68" class="a"/><rect x="-2161.9" y="123.5" width="68" height="68" class="a"/><polyline points="-2365.9 157.5 -2331.9 157.5 -2331.9 89.5 -2359.9 89.5 " class="a"/><path d="M-2365.9 89.5c2.8-1.1 6.4-2.9 8.5-4.8l-1.7 4.8 1.7 4.8C-2359.5 92.4-2363.1 90.6-2365.9 89.5z" class="b"/><path d="M-2001.7 73.5l9.7 24.3 9.7-24.3h5.1v29.8h-3.9V91.7l0.4-12.5 -9.8 24.1h-3l-9.8-24.1 0.4 12.5v11.6h-3.9V73.5H-2001.7z" class="b"/><path d="M-1979.9 157.3c0 2.9-0.5 5.5-1.5 7.6s-2.4 3.8-4.2 5c-1.8 1.1-3.9 1.7-6.3 1.7 -2.3 0-4.4-0.6-6.2-1.7 -1.8-1.2-3.2-2.8-4.2-4.9s-1.5-4.6-1.5-7.4v-2.1c0-2.9 0.5-5.4 1.5-7.6 1-2.2 2.4-3.9 4.2-5 1.8-1.2 3.9-1.7 6.3-1.7 2.4 0 4.5 0.6 6.3 1.7 1.8 1.2 3.2 2.8 4.2 5s1.5 4.7 1.5 7.6V157.3zM-1983.8 155.4c0-3.5-0.7-6.2-2.1-8.1 -1.4-1.9-3.4-2.8-6-2.8 -2.5 0-4.4 0.9-5.9 2.8 -1.4 1.9-2.2 4.5-2.2 7.9v2.2c0 3.4 0.7 6.1 2.2 8.1s3.4 2.9 5.9 2.9c2.5 0 4.5-0.9 5.9-2.8s2.1-4.5 2.1-8V155.4z" class="b"/><rect x="-2025.9" y="55.5" width="68" height="68" class="a"/><rect x="-2025.9" y="123.5" width="68" height="68" class="a"/><path d="M-1865.7 73.5l9.7 24.3 9.7-24.3h5.1v29.8h-3.9V91.7l0.4-12.5 -9.8 24.1h-3l-9.8-24.1 0.4 12.5v11.6h-3.9V73.5H-1865.7z" class="b"/><path d="M-1843.9 157.3c0 2.9-0.5 5.5-1.5 7.6s-2.4 3.8-4.2 5c-1.8 1.1-3.9 1.7-6.3 1.7 -2.3 0-4.4-0.6-6.2-1.7 -1.8-1.2-3.2-2.8-4.2-4.9s-1.5-4.6-1.5-7.4v-2.1c0-2.9 0.5-5.4 1.5-7.6 1-2.2 2.4-3.9 4.2-5 1.8-1.2 3.9-1.7 6.3-1.7 2.4 0 4.5 0.6 6.3 1.7 1.8 1.2 3.2 2.8 4.2 5s1.5 4.7 1.5 7.6V157.3zM-1847.8 155.4c0-3.5-0.7-6.2-2.1-8.1 -1.4-1.9-3.4-2.8-6-2.8 -2.5 0-4.4 0.9-5.9 2.8 -1.4 1.9-2.2 4.5-2.2 7.9v2.2c0 3.4 0.7 6.1 2.2 8.1s3.4 2.9 5.9 2.9c2.5 0 4.5-0.9 5.9-2.8s2.1-4.5 2.1-8V155.4z" class="b"/><rect x="-1889.9" y="55.5" width="68" height="68" class="a"/><rect x="-1889.9" y="123.5" width="68" height="68" class="a"/><text transform="matrix(1 0 0 1 -784.877 -702.5)" font-family="'Roboto-Regular'" font-size="41.9111" class="b">  M</text><rect x="-800.6" y="-750.3" width="68" height="68" class="a"/><text transform="matrix(1 0 0 1 -778.3486 -770.5)" font-family="'Roboto-Regular'" font-size="41.9111" class="b">  1</text><text transform="matrix(1 0 0 1 -642.3486 -770.5)" font-family="'Roboto-Regular'" font-size="41.9111" class="b">  2</text><text transform="matrix(1 0 0 1 -506.3486 -770.5)" font-family="'Roboto-Regular'" font-size="41.9111" class="b">  3</text><text transform="matrix(1 0 0 1 -370.3486 -770.5)" font-family="'Roboto-Regular'" font-size="41.9111" class="b">  4</text><text transform="matrix(1 0 0 1 -234.3486 -770.5)" font-family="'Roboto-Regular'" font-size="41.9111" class="b">  5</text><rect x="-800.6" y="-682.3" width="68" height="68" class="a"/><text transform="matrix(1 0 0 1 -648.877 -702.5)" font-family="'Roboto-Regular'" font-size="41.9111" class="b">  M</text><rect x="-664.6" y="-750.3" width="68" height="68" class="a"/><rect x="-664.6" y="-682.3" width="68" height="68" class="a"/><text transform="matrix(1 0 0 1 -512.877 -702.5)" font-family="'Roboto-Regular'" font-size="41.9111" class="b">  M</text><text transform="matrix(1 0 0 1 -508.9883 -634.5)" font-family="'Roboto-Regular'" font-size="41.9111" class="b">  O</text><rect x="-528.6" y="-750.3" width="68" height="68" class="a"/><rect x="-528.6" y="-682.3" width="68" height="68" class="a"/><polyline points="-460.6 -648.3 -426.6 -648.3 -426.6 -546.3 -698.6 -546.3 -698.6 -716.3 -726.5 -716.3 " class="a"/><path d="M-732.6-716.3c2.8-1.1 6.4-2.9 8.5-4.8l-1.7 4.8 1.7 4.8C-726.2-713.4-729.7-715.2-732.6-716.3z" class="b"/><text transform="matrix(1 0 0 1 -376.877 -702.5)" font-family="'Roboto-Regular'" font-size="41.9111" class="b">  M</text><text transform="matrix(1 0 0 1 -372.9883 -634.5)" font-family="'Roboto-Regular'" font-size="41.9111" class="b">  O</text><rect x="-392.6" y="-750.3" width="68" height="68" class="a"/><rect x="-392.6" y="-682.3" width="68" height="68" class="a"/><text transform="matrix(1 0 0 1 -240.877 -702.5)" font-family="'Roboto-Regular'" font-size="41.9111" class="b">  M</text><text transform="matrix(1 0 0 1 -236.9883 -634.5)" font-family="'Roboto-Regular'" font-size="41.9111" class="b">  O</text><rect x="-256.6" y="-750.3" width="68" height="68" class="a"/><rect x="-256.6" y="-682.3" width="68" height="68" class="a"/><text transform="matrix(1 0 0 1 25.2041 -702.5)" font-family="'Roboto-Regular'" font-size="41.9111" class="b">  M</text><rect x="9.5" y="-750.3" width="68" height="68" class="a"/><text transform="matrix(1 0 0 1 31.7324 -770.5)" font-family="'Roboto-Regular'" font-size="41.9111" class="b">  1</text><text transform="matrix(1 0 0 1 167.7324 -770.5)" font-family="'Roboto-Regular'" font-size="41.9111" class="b">  2</text><text transform="matrix(1 0 0 1 303.7324 -770.5)" font-family="'Roboto-Regular'" font-size="41.9111" class="b">  3</text><text transform="matrix(1 0 0 1 439.7324 -770.5)" font-family="'Roboto-Regular'" font-size="41.9111" class="b">  4</text><text transform="matrix(1 0 0 1 575.7324 -770.5)" font-family="'Roboto-Regular'" font-size="41.9111" class="b">  5</text><rect x="9.5" y="-682.3" width="68" height="68" class="a"/><text transform="matrix(1 0 0 1 161.2041 -702.5)" font-family="'Roboto-Regular'" font-size="41.9111" class="b">  M</text><rect x="145.5" y="-750.3" width="68" height="68" class="a"/><rect x="145.5" y="-682.3" width="68" height="68" class="a"/><text transform="matrix(1 0 0 1 297.2041 -702.5)" font-family="'Roboto-Regular'" font-size="41.9111" class="b">  M</text><rect x="281.5" y="-750.3" width="68" height="68" class="a"/><rect x="281.5" y="-682.3" width="68" height="68" class="a"/><polyline points="485.5 -648.3 519.5 -648.3 519.5 -546.3 111.5 -546.3 111.5 -716.3 83.5 -716.3 " class="a"/><path d="M77.5-716.3c2.8-1.1 6.4-2.9 8.5-4.8l-1.7 4.8 1.7 4.8C83.9-713.4 80.3-715.2 77.5-716.3z" class="b"/><text transform="matrix(1 0 0 1 433.2041 -702.5)" font-family="'Roboto-Regular'" font-size="41.9111" class="b">  M</text><text transform="matrix(1 0 0 1 437.0928 -634.5)" font-family="'Roboto-Regular'" font-size="41.9111" class="b">  O</text><rect x="417.5" y="-750.3" width="68" height="68" class="a"/><rect x="417.5" y="-682.3" width="68" height="68" class="a"/><text transform="matrix(1 0 0 1 569.2041 -702.5)" font-family="'Roboto-Regular'" font-size="41.9111" class="b">  M</text><text transform="matrix(1 0 0 1 573.0928 -634.5)" font-family="'Roboto-Regular'" font-size="41.9111" class="b">  O</text><rect x="553.5" y="-750.3" width="68" height="68" class="a"/><rect x="553.5" y="-682.3" width="68" height="68" class="a"/><text transform="matrix(1 0 0 1 845.2881 -702.5)" font-family="'Roboto-Regular'" font-size="41.9111" class="b">  M</text><rect x="829.6" y="-750.3" width="68" height="68" class="a"/><text transform="matrix(1 0 0 1 851.8164 -770.5)" font-family="'Roboto-Regular'" font-size="41.9111" class="b">  1</text><text transform="matrix(1 0 0 1 987.8164 -770.5)" font-family="'Roboto-Regular'" font-size="41.9111" class="b">  2</text><text transform="matrix(1 0 0 1 1123.8164 -770.5)" font-family="'Roboto-Regular'" font-size="41.9111" class="b">  3</text><text transform="matrix(1 0 0 1 1259.8164 -770.5)" font-family="'Roboto-Regular'" font-size="41.9111" class="b">  4</text><text transform="matrix(1 0 0 1 1395.8164 -770.5)" font-family="'Roboto-Regular'" font-size="41.9111" class="b">  5</text><rect x="829.6" y="-682.3" width="68" height="68" class="a"/><text transform="matrix(1 0 0 1 981.2881 -702.5)" font-family="'Roboto-Regular'" font-size="41.9111" class="b">  M</text><rect x="965.6" y="-750.3" width="68" height="68" class="a"/><rect x="965.6" y="-682.3" width="68" height="68" class="a"/><text transform="matrix(1 0 0 1 1117.2881 -702.5)" font-family="'Roboto-Regular'" font-size="41.9111" class="b">  M</text><rect x="1101.6" y="-750.3" width="68" height="68" class="a"/><rect x="1101.6" y="-682.3" width="68" height="68" class="a"/><polyline points="1441.6 -648.3 1475.6 -648.3 1475.6 -546.3 931.6 -546.3 931.6 -716.3 903.6 -716.3 " class="a"/><path d="M897.6-716.3c2.8-1.1 6.4-2.9 8.5-4.8l-1.7 4.8 1.7 4.8C903.9-713.4 900.4-715.2 897.6-716.3z" class="b"/><text transform="matrix(1 0 0 1 1253.2881 -702.5)" font-family="'Roboto-Regular'" font-size="41.9111" class="b">  M</text><rect x="1237.6" y="-750.3" width="68" height="68" class="a"/><rect x="1237.6" y="-682.3" width="68" height="68" class="a"/><text transform="matrix(1 0 0 1 1389.2881 -702.5)" font-family="'Roboto-Regular'" font-size="41.9111" class="b">  M</text><text transform="matrix(1 0 0 1 1393.1768 -634.5)" font-family="'Roboto-Regular'" font-size="41.9111" class="b">  O</text><rect x="1373.6" y="-750.3" width="68" height="68" class="a"/><rect x="1373.6" y="-682.3" width="68" height="68" class="a"/><text transform="matrix(1 0 0 1 -1581.2383 -702.5)" font-family="'Roboto-Regular'" font-size="41.9111" class="b">  M</text><rect x="-1596.9" y="-750.3" width="68" height="68" class="a"/><text transform="matrix(1 0 0 1 -1574.71 -770.5)" font-family="'Roboto-Regular'" font-size="41.9111" class="b">  1</text><text transform="matrix(1 0 0 1 -1438.71 -770.5)" font-family="'Roboto-Regular'" font-size="41.9111" class="b">  2</text><text transform="matrix(1 0 0 1 -1302.71 -770.5)" font-family="'Roboto-Regular'" font-size="41.9111" class="b">  3</text><text transform="matrix(1 0 0 1 -1166.71 -770.5)" font-family="'Roboto-Regular'" font-size="41.9111" class="b">  4</text><text transform="matrix(1 0 0 1 -1030.71 -770.5)" font-family="'Roboto-Regular'" font-size="41.9111" class="b">  5</text><rect x="-1596.9" y="-682.3" width="68" height="68" class="a"/><text transform="matrix(1 0 0 1 -1445.2383 -702.5)" font-family="'Roboto-Regular'" font-size="41.9111" class="b">  M</text><text transform="matrix(1 0 0 1 -1441.3496 -634.5)" font-family="'Roboto-Regular'" font-size="41.9111" class="b">  O</text><rect x="-1460.9" y="-750.3" width="68" height="68" class="a"/><rect x="-1460.9" y="-682.3" width="68" height="68" class="a"/><text transform="matrix(1 0 0 1 -1309.2383 -702.5)" font-family="'Roboto-Regular'" font-size="41.9111" class="b">  M</text><text transform="matrix(1 0 0 1 -1305.3496 -634.5)" font-family="'Roboto-Regular'" font-size="41.9111" class="b">  O</text><rect x="-1324.9" y="-750.3" width="68" height="68" class="a"/><rect x="-1324.9" y="-682.3" width="68" height="68" class="a"/><polyline points="-1392.9 -648.3 -1358.9 -648.3 -1358.9 -546.3 -1494.9 -546.3 -1494.9 -716.3 -1522.9 -716.3 " class="a"/><path d="M-1528.9-716.3c2.8-1.1 6.4-2.9 8.5-4.8l-1.7 4.8 1.7 4.8C-1522.6-713.4-1526.1-715.2-1528.9-716.3z" class="b"/><text transform="matrix(1 0 0 1 -1173.2383 -702.5)" font-family="'Roboto-Regular'" font-size="41.9111" class="b">  M</text><text transform="matrix(1 0 0 1 -1169.3496 -634.5)" font-family="'Roboto-Regular'" font-size="41.9111" class="b">  O</text><rect x="-1188.9" y="-750.3" width="68" height="68" class="a"/><rect x="-1188.9" y="-682.3" width="68" height="68" class="a"/><text transform="matrix(1 0 0 1 -1037.2383 -702.5)" font-family="'Roboto-Regular'" font-size="41.9111" class="b">  M</text><text transform="matrix(1 0 0 1 -1033.3496 -634.5)" font-family="'Roboto-Regular'" font-size="41.9111" class="b">  O</text><rect x="-1052.9" y="-750.3" width="68" height="68" class="a"/><rect x="-1052.9" y="-682.3" width="68" height="68" class="a"/><text transform="matrix(1 0 0 1 -2418.1963 -702.5)" font-family="'Roboto-Regular'" font-size="41.9111" class="b">  M</text><rect x="-2433.9" y="-750.3" width="68" height="68" class="a"/><text transform="matrix(1 0 0 1 -2411.668 -770.5)" font-family="'Roboto-Regular'" font-size="41.9111" class="b">  1</text><text transform="matrix(1 0 0 1 -2275.668 -770.5)" font-family="'Roboto-Regular'" font-size="41.9111" class="b">  2</text><text transform="matrix(1 0 0 1 -2139.668 -770.5)" font-family="'Roboto-Regular'" font-size="41.9111" class="b">  3</text><text transform="matrix(1 0 0 1 -2003.668 -770.5)" font-family="'Roboto-Regular'" font-size="41.9111" class="b">  4</text><text transform="matrix(1 0 0 1 -1867.668 -770.5)" font-family="'Roboto-Regular'" font-size="41.9111" class="b">  5</text><rect x="-2433.9" y="-682.3" width="68" height="68" class="a"/><text transform="matrix(1 0 0 1 -2282.1963 -702.5)" font-family="'Roboto-Regular'" font-size="41.9111" class="b">  M</text><text transform="matrix(1 0 0 1 -2278.3076 -634.5)" font-family="'Roboto-Regular'" font-size="41.9111" class="b">  O</text><text transform="matrix(1 0 0 1 -2414.3076 -634.5)" font-family="'Roboto-Regular'" font-size="41.9111" class="b">  O</text><rect x="-2297.9" y="-750.3" width="68" height="68" class="a"/><rect x="-2297.9" y="-682.3" width="68" height="68" class="a"/><text transform="matrix(1 0 0 1 -2146.1963 -702.5)" font-family="'Roboto-Regular'" font-size="41.9111" class="b">  M</text><text transform="matrix(1 0 0 1 -2142.3076 -634.5)" font-family="'Roboto-Regular'" font-size="41.9111" class="b">  O</text><rect x="-2161.9" y="-750.3" width="68" height="68" class="a"/><rect x="-2161.9" y="-682.3" width="68" height="68" class="a"/><polyline points="-2365.9 -648.3 -2331.9 -648.3 -2331.9 -716.3 -2359.9 -716.3 " class="a"/><path d="M-2365.9-716.3c2.8-1.1 6.4-2.9 8.5-4.8l-1.7 4.8 1.7 4.8C-2359.5-713.4-2363.1-715.2-2365.9-716.3z" class="b"/><text transform="matrix(1 0 0 1 -2010.1963 -702.5)" font-family="'Roboto-Regular'" font-size="41.9111" class="b">  M</text><text transform="matrix(1 0 0 1 -2006.3076 -634.5)" font-family="'Roboto-Regular'" font-size="41.9111" class="b">  O</text><rect x="-2025.9" y="-750.3" width="68" height="68" class="a"/><rect x="-2025.9" y="-682.3" width="68" height="68" class="a"/><text transform="matrix(1 0 0 1 -1874.1963 -702.5)" font-family="'Roboto-Regular'" font-size="41.9111" class="b">  M</text><text transform="matrix(1 0 0 1 -1870.3076 -634.5)" font-family="'Roboto-Regular'" font-size="41.9111" class="b">  O</text><rect x="-1889.9" y="-750.3" width="68" height="68" class="a"/><rect x="-1889.9" y="-682.3" width="68" height="68" class="a"/><rect x="-989.5" y="837.1" width="232.5" height="127.5" class="a"/><text transform="matrix(1 0 0 1 -914.6182 920.1426)" font-family="'Roboto-Regular'" font-size="75.0523" class="b">  M</text><text transform="matrix(1 0 0 1 -974.0312 1021.2939)" font-family="'Roboto-Regular'" font-size="26.523" class="b">  O</text><text transform="matrix(1 0 0 1 -882.3369 1021.2939)" font-family="'Roboto-Regular'" font-size="26.523" class="b">  O</text><text transform="matrix(1 0 0 1 -791.7578 1021.2939)" font-family="'Roboto-Regular'" font-size="26.523" class="b">  O</text><circle cx="-964.9" cy="1012.5" r="25.7" class="a"/><circle cx="-873.8" cy="1012.5" r="25.7" class="a"/><circle cx="-782.6" cy="1012.5" r="25.7" class="a"/></svg>