<svg xmlns="http://www.w3.org/2000/svg" width="631" height="271" viewBox="0 0 631 270.8"><style>.a{fill:none;stroke:#384040;}.b{fill:#384040;}</style><rect x="-582.9" y="-230.5" width="68" height="136" class="a"/><rect x="1295.6" y="-230.5" width="68" height="136" class="a"/><rect x="417.5" y="-230.5" width="68" height="136" class="a"/><rect x="485.5" y="-230.5" width="68" height="136" class="a"/><rect x="553.5" y="-230.5" width="68" height="136" class="a"/><path d="M33.7 73.5l9.7 24.3 9.7-24.3h5.1v29.8h-3.9V91.7l0.4-12.5 -9.8 24.1h-3l-9.8-24.1 0.4 12.5v11.6h-3.9V73.5H33.7z" class="b"/><rect x="9.5" y="55.5" width="68" height="68" class="a"/><path d="M46.7 35.3h-3.8V10l-7.6 2.8V9.4L46.1 5.3h0.6V35.3z" class="b"/><path d="M189.7 35.3h-19.5v-2.7l10.3-11.5c1.5-1.7 2.6-3.1 3.2-4.2 0.6-1.1 0.9-2.2 0.9-3.4 0-1.6-0.5-2.8-1.4-3.8 -0.9-1-2.2-1.5-3.8-1.5 -1.9 0-3.3 0.5-4.4 1.6 -1 1.1-1.6 2.6-1.6 4.5h-3.8c0-2.7 0.9-5 2.7-6.6 1.8-1.7 4.1-2.5 7.1-2.5 2.8 0 5 0.7 6.6 2.2 1.6 1.5 2.4 3.4 2.4 5.8 0 2.9-1.9 6.4-5.6 10.5l-8 8.7h15V35.3z" class="b"/><path d="M311.7 18.5h2.8c1.8 0 3.2-0.5 4.2-1.4 1-0.9 1.5-2.1 1.5-3.7 0-3.5-1.7-5.2-5.2-5.2 -1.6 0-2.9 0.5-3.9 1.4 -1 0.9-1.5 2.2-1.5 3.7h-3.8c0-2.4 0.9-4.3 2.6-5.9 1.7-1.6 3.9-2.3 6.6-2.3 2.8 0 5 0.7 6.6 2.2 1.6 1.5 2.4 3.6 2.4 6.2 0 1.3-0.4 2.6-1.3 3.8s-2 2.1-3.4 2.7c1.6 0.5 2.9 1.4 3.8 2.6 0.9 1.2 1.3 2.7 1.3 4.4 0 2.7-0.9 4.8-2.6 6.4 -1.7 1.6-4 2.4-6.8 2.4 -2.8 0-5.1-0.8-6.8-2.3s-2.6-3.5-2.6-6h3.8c0 1.6 0.5 2.8 1.5 3.8 1 0.9 2.4 1.4 4.1 1.4 1.8 0 3.2-0.5 4.2-1.4s1.5-2.3 1.5-4.1c0-1.7-0.5-3.1-1.6-4 -1.1-0.9-2.6-1.4-4.6-1.4h-2.8V18.5z" class="b"/><path d="M458.2 25.3h4.1v3.1h-4.1v6.9h-3.8v-6.9h-13.6v-2.2L454.2 5.5h4V25.3zM445.1 25.3h9.3V10.7l-0.4 0.8L445.1 25.3z" class="b"/><path d="M579.9 20.3l1.5-14.9h15.3v3.5h-12.1l-0.9 8.1c1.5-0.9 3.1-1.3 5-1.3 2.7 0 4.9 0.9 6.5 2.7 1.6 1.8 2.4 4.2 2.4 7.3 0 3.1-0.8 5.5-2.5 7.3 -1.7 1.8-4 2.7-6.9 2.7 -2.6 0-4.8-0.7-6.4-2.2 -1.7-1.5-2.6-3.5-2.8-6.1h3.6c0.2 1.7 0.8 3 1.8 3.9s2.3 1.3 3.9 1.3c1.8 0 3.1-0.6 4.1-1.8 1-1.2 1.5-2.9 1.5-5 0-2-0.5-3.6-1.6-4.8 -1.1-1.2-2.5-1.8-4.3-1.8 -1.7 0-2.9 0.4-3.9 1.1l-1 0.8L579.9 20.3z" class="b"/><rect x="9.5" y="123.5" width="68" height="68" class="a"/><path d="M169.7 73.5l9.7 24.3 9.7-24.3h5.1v29.8h-3.9V91.7l0.4-12.5 -9.8 24.1h-3l-9.8-24.1 0.4 12.5v11.6h-3.9V73.5H169.7z" class="b"/><rect x="145.5" y="55.5" width="68" height="68" class="a"/><rect x="145.5" y="123.5" width="68" height="68" class="a"/><path d="M305.7 73.5l9.7 24.3 9.7-24.3h5.1v29.8h-3.9V91.7l0.4-12.5 -9.8 24.1h-3l-9.8-24.1 0.4 12.5v11.6h-3.9V73.5H305.7z" class="b"/><path d="M327.5 157.3c0 2.9-0.5 5.5-1.5 7.6s-2.4 3.8-4.2 5c-1.8 1.1-3.9 1.7-6.3 1.7 -2.3 0-4.4-0.6-6.2-1.7 -1.8-1.2-3.2-2.8-4.2-4.9s-1.5-4.6-1.5-7.4v-2.1c0-2.9 0.5-5.4 1.5-7.6 1-2.2 2.4-3.9 4.2-5 1.8-1.2 3.9-1.7 6.3-1.7 2.4 0 4.5 0.6 6.3 1.7 1.8 1.2 3.2 2.8 4.2 5s1.5 4.7 1.5 7.6V157.3zM323.6 155.4c0-3.5-0.7-6.2-2.1-8.1 -1.4-1.9-3.4-2.8-6-2.8 -2.5 0-4.4 0.9-5.9 2.8 -1.4 1.9-2.2 4.5-2.2 7.9v2.2c0 3.4 0.7 6.1 2.2 8.1s3.4 2.9 5.9 2.9c2.5 0 4.5-0.9 5.9-2.8s2.1-4.5 2.1-8V155.4z" class="b"/><rect x="281.5" y="55.5" width="68" height="68" class="a"/><rect x="281.5" y="123.5" width="68" height="68" class="a"/><polyline points="349.5 157.5 383.5 157.5 383.5 259.5 111.5 259.5 111.5 89.5 83.5 89.5 " class="a"/><path d="M77.5 89.5c2.8-1.1 6.4-2.9 8.5-4.8l-1.7 4.8 1.7 4.8C83.9 92.4 80.3 90.6 77.5 89.5z" class="b"/><path d="M441.7 73.5l9.7 24.3 9.7-24.3h5.1v29.8h-3.9V91.7l0.4-12.5 -9.8 24.1h-3l-9.8-24.1 0.4 12.5v11.6h-3.9V73.5H441.7z" class="b"/><path d="M463.5 157.3c0 2.9-0.5 5.5-1.5 7.6s-2.4 3.8-4.2 5c-1.8 1.1-3.9 1.7-6.3 1.7 -2.3 0-4.4-0.6-6.2-1.7 -1.8-1.2-3.2-2.8-4.2-4.9s-1.5-4.6-1.5-7.4v-2.1c0-2.9 0.5-5.4 1.5-7.6 1-2.2 2.4-3.9 4.2-5 1.8-1.2 3.9-1.7 6.3-1.7 2.4 0 4.5 0.6 6.3 1.7 1.8 1.2 3.2 2.8 4.2 5s1.5 4.7 1.5 7.6V157.3zM459.6 155.4c0-3.5-0.7-6.2-2.1-8.1 -1.4-1.9-3.4-2.8-6-2.8 -2.5 0-4.4 0.9-5.9 2.8 -1.4 1.9-2.2 4.5-2.2 7.9v2.2c0 3.4 0.7 6.1 2.2 8.1s3.4 2.9 5.9 2.9c2.5 0 4.5-0.9 5.9-2.8s2.1-4.5 2.1-8V155.4z" class="b"/><rect x="417.5" y="55.5" width="68" height="68" class="a"/><rect x="417.5" y="123.5" width="68" height="68" class="a"/><path d="M577.7 73.5l9.7 24.3 9.7-24.3h5.1v29.8h-3.9V91.7l0.4-12.5 -9.8 24.1h-3l-9.8-24.1 0.4 12.5v11.6h-3.9V73.5H577.7z" class="b"/><path d="M599.5 157.3c0 2.9-0.5 5.5-1.5 7.6s-2.4 3.8-4.2 5c-1.8 1.1-3.9 1.7-6.3 1.7 -2.3 0-4.4-0.6-6.2-1.7 -1.8-1.2-3.2-2.8-4.2-4.9s-1.5-4.6-1.5-7.4v-2.1c0-2.9 0.5-5.4 1.5-7.6 1-2.2 2.4-3.9 4.2-5 1.8-1.2 3.9-1.7 6.3-1.7 2.4 0 4.5 0.6 6.3 1.7 1.8 1.2 3.2 2.8 4.2 5s1.5 4.7 1.5 7.6V157.3zM595.6 155.4c0-3.5-0.7-6.2-2.1-8.1 -1.4-1.9-3.4-2.8-6-2.8 -2.5 0-4.4 0.9-5.9 2.8 -1.4 1.9-2.2 4.5-2.2 7.9v2.2c0 3.4 0.7 6.1 2.2 8.1s3.4 2.9 5.9 2.9c2.5 0 4.5-0.9 5.9-2.8s2.1-4.5 2.1-8V155.4z" class="b"/><rect x="553.5" y="55.5" width="68" height="68" class="a"/><rect x="553.5" y="123.5" width="68" height="68" class="a"/><path d="M843.8 73.5l9.7 24.3 9.7-24.3h5.1v29.8h-3.9V91.7l0.4-12.5 -9.8 24.1h-3l-9.8-24.1 0.4 12.5v11.6h-3.9V73.5H843.8z" class="b"/><rect x="819.6" y="55.5" width="68" height="68" class="a"/><path d="M856.7 35.3h-3.8V10l-7.6 2.8V9.4l10.8-4.1h0.6V35.3z" class="b"/><path d="M999.8 35.3H980.3v-2.7l10.3-11.5c1.5-1.7 2.6-3.1 3.2-4.2 0.6-1.1 0.9-2.2 0.9-3.4 0-1.6-0.5-2.8-1.4-3.8 -0.9-1-2.2-1.5-3.8-1.5 -1.9 0-3.3 0.5-4.4 1.6 -1 1.1-1.6 2.6-1.6 4.5h-3.8c0-2.7 0.9-5 2.7-6.6 1.8-1.7 4.1-2.5 7.1-2.5 2.8 0 5 0.7 6.6 2.2 1.6 1.5 2.4 3.4 2.4 5.8 0 2.9-1.9 6.4-5.6 10.5l-8 8.7h15V35.3z" class="b"/><path d="M1121.8 18.5h2.8c1.8 0 3.2-0.5 4.2-1.4 1-0.9 1.5-2.1 1.5-3.7 0-3.5-1.7-5.2-5.2-5.2 -1.6 0-2.9 0.5-3.9 1.4 -1 0.9-1.5 2.2-1.5 3.7h-3.8c0-2.4 0.9-4.3 2.6-5.9 1.7-1.6 3.9-2.3 6.6-2.3 2.8 0 5 0.7 6.6 2.2 1.6 1.5 2.4 3.6 2.4 6.2 0 1.3-0.4 2.6-1.3 3.8s-2 2.1-3.4 2.7c1.6 0.5 2.9 1.4 3.8 2.6 0.9 1.2 1.3 2.7 1.3 4.4 0 2.7-0.9 4.8-2.6 6.4 -1.7 1.6-4 2.4-6.8 2.4 -2.8 0-5.1-0.8-6.8-2.3s-2.6-3.5-2.6-6h3.8c0 1.6 0.5 2.8 1.5 3.8 1 0.9 2.4 1.4 4.1 1.4 1.8 0 3.2-0.5 4.2-1.4s1.5-2.3 1.5-4.1c0-1.7-0.5-3.1-1.6-4 -1.1-0.9-2.6-1.4-4.6-1.4h-2.8V18.5z" class="b"/><path d="M1268.3 25.3h4.1v3.1h-4.1v6.9h-3.8v-6.9h-13.6v-2.2l13.3-20.6h4V25.3zM1255.2 25.3h9.3V10.7l-0.4 0.8L1255.2 25.3z" class="b"/><path d="M1390 20.3l1.5-14.9h15.3v3.5h-12.1l-0.9 8.1c1.5-0.9 3.1-1.3 5-1.3 2.7 0 4.9 0.9 6.5 2.7 1.6 1.8 2.4 4.2 2.4 7.3 0 3.1-0.8 5.5-2.5 7.3 -1.7 1.8-4 2.7-6.9 2.7 -2.6 0-4.8-0.7-6.4-2.2 -1.7-1.5-2.6-3.5-2.8-6.1h3.6c0.2 1.7 0.8 3 1.8 3.9s2.3 1.3 3.9 1.3c1.8 0 3.1-0.6 4.1-1.8 1-1.2 1.5-2.9 1.5-5 0-2-0.5-3.6-1.6-4.8 -1.1-1.2-2.5-1.8-4.3-1.8 -1.7 0-2.9 0.4-3.9 1.1l-1 0.8L1390 20.3z" class="b"/><rect x="819.6" y="123.5" width="68" height="68" class="a"/><path d="M979.8 73.5l9.7 24.3 9.7-24.3h5.1v29.8h-3.9V91.7l0.4-12.5 -9.8 24.1h-3l-9.8-24.1 0.4 12.5v11.6h-3.9V73.5H979.8z" class="b"/><rect x="955.6" y="55.5" width="68" height="68" class="a"/><rect x="955.6" y="123.5" width="68" height="68" class="a"/><path d="M1115.8 73.5l9.7 24.3 9.7-24.3h5.1v29.8h-3.9V91.7l0.4-12.5 -9.8 24.1h-3l-9.8-24.1 0.4 12.5v11.6h-3.9V73.5H1115.8z" class="b"/><rect x="1091.6" y="55.5" width="68" height="68" class="a"/><rect x="1091.6" y="123.5" width="68" height="68" class="a"/><polyline points="1295.6 157.5 1329.6 157.5 1329.6 259.5 921.6 259.5 921.6 89.5 893.6 89.5 " class="a"/><path d="M887.6 89.5c2.8-1.1 6.4-2.9 8.5-4.8l-1.7 4.8 1.7 4.8C893.9 92.4 890.4 90.6 887.6 89.5z" class="b"/><path d="M1251.8 73.5l9.7 24.3 9.7-24.3h5.1v29.8h-3.9V91.7l0.4-12.5 -9.8 24.1h-3l-9.8-24.1 0.4 12.5v11.6h-3.9V73.5H1251.8z" class="b"/><path d="M1273.6 157.3c0 2.9-0.5 5.5-1.5 7.6s-2.4 3.8-4.2 5c-1.8 1.1-3.9 1.7-6.3 1.7 -2.3 0-4.4-0.6-6.2-1.7 -1.8-1.2-3.2-2.8-4.2-4.9s-1.5-4.6-1.5-7.4v-2.1c0-2.9 0.5-5.4 1.5-7.6 1-2.2 2.4-3.9 4.2-5 1.8-1.2 3.9-1.7 6.3-1.7 2.4 0 4.5 0.6 6.3 1.7 1.8 1.2 3.2 2.8 4.2 5s1.5 4.7 1.5 7.6V157.3zM1269.6 155.4c0-3.5-0.7-6.2-2.1-8.1 -1.4-1.9-3.4-2.8-6-2.8 -2.5 0-4.4 0.9-5.9 2.8 -1.4 1.9-2.2 4.5-2.2 7.9v2.2c0 3.4 0.7 6.1 2.2 8.1s3.4 2.9 5.9 2.9c2.5 0 4.5-0.9 5.9-2.8s2.1-4.5 2.1-8V155.4z" class="b"/><rect x="1227.6" y="55.5" width="68" height="68" class="a"/><rect x="1227.6" y="123.5" width="68" height="68" class="a"/><path d="M1387.8 73.5l9.7 24.3 9.7-24.3h5.1v29.8h-3.9V91.7l0.4-12.5 -9.8 24.1h-3l-9.8-24.1 0.4 12.5v11.6h-3.9V73.5H1387.8z" class="b"/><path d="M1409.6 157.3c0 2.9-0.5 5.5-1.5 7.6s-2.4 3.8-4.2 5c-1.8 1.1-3.9 1.7-6.3 1.7 -2.3 0-4.4-0.6-6.2-1.7 -1.8-1.2-3.2-2.8-4.2-4.9s-1.5-4.6-1.5-7.4v-2.1c0-2.9 0.5-5.4 1.5-7.6 1-2.2 2.4-3.9 4.2-5 1.8-1.2 3.9-1.7 6.3-1.7 2.4 0 4.5 0.6 6.3 1.7 1.8 1.2 3.2 2.8 4.2 5s1.5 4.7 1.5 7.6V157.3zM1405.6 155.4c0-3.5-0.7-6.2-2.1-8.1 -1.4-1.9-3.4-2.8-6-2.8 -2.5 0-4.4 0.9-5.9 2.8 -1.4 1.9-2.2 4.5-2.2 7.9v2.2c0 3.4 0.7 6.1 2.2 8.1s3.4 2.9 5.9 2.9c2.5 0 4.5-0.9 5.9-2.8s2.1-4.5 2.1-8V155.4z" class="b"/><rect x="1363.6" y="55.5" width="68" height="68" class="a"/><rect x="1363.6" y="123.5" width="68" height="68" class="a"/><path d="M1663.9 73.5l9.7 24.3 9.7-24.3h5.1v29.8h-3.9V91.7l0.4-12.5 -9.8 24.1h-3l-9.8-24.1 0.4 12.5v11.6h-3.9V73.5H1663.9z" class="b"/><rect x="1639.7" y="55.5" width="68" height="68" class="a"/><path d="M1676.8 35.3h-3.8V10l-7.6 2.8V9.4l10.8-4.1h0.6V35.3z" class="b"/><path d="M1819.9 35.3h-19.5v-2.7l10.3-11.5c1.5-1.7 2.6-3.1 3.2-4.2 0.6-1.1 0.9-2.2 0.9-3.4 0-1.6-0.5-2.8-1.4-3.8 -0.9-1-2.2-1.5-3.8-1.5 -1.9 0-3.3 0.5-4.4 1.6 -1 1.1-1.6 2.6-1.6 4.5h-3.8c0-2.7 0.9-5 2.7-6.6 1.8-1.7 4.1-2.5 7.1-2.5 2.8 0 5 0.7 6.6 2.2 1.6 1.5 2.4 3.4 2.4 5.8 0 2.9-1.9 6.4-5.6 10.5l-8 8.7h15V35.3z" class="b"/><path d="M1941.9 18.5h2.8c1.8 0 3.2-0.5 4.2-1.4 1-0.9 1.5-2.1 1.5-3.7 0-3.5-1.7-5.2-5.2-5.2 -1.6 0-2.9 0.5-3.9 1.4 -1 0.9-1.5 2.2-1.5 3.7h-3.8c0-2.4 0.9-4.3 2.6-5.9 1.7-1.6 3.9-2.3 6.6-2.3 2.8 0 5 0.7 6.6 2.2 1.6 1.5 2.4 3.6 2.4 6.2 0 1.3-0.4 2.6-1.3 3.8s-2 2.1-3.4 2.7c1.6 0.5 2.9 1.4 3.8 2.6 0.9 1.2 1.3 2.7 1.3 4.4 0 2.7-0.9 4.8-2.6 6.4 -1.7 1.6-4 2.4-6.8 2.4 -2.8 0-5.1-0.8-6.8-2.3s-2.6-3.5-2.6-6h3.8c0 1.6 0.5 2.8 1.5 3.8 1 0.9 2.4 1.4 4.1 1.4 1.8 0 3.2-0.5 4.2-1.4s1.5-2.3 1.5-4.1c0-1.7-0.5-3.1-1.6-4 -1.1-0.9-2.6-1.4-4.6-1.4h-2.8V18.5z" class="b"/><path d="M2088.4 25.3h4.1v3.1h-4.1v6.9h-3.8v-6.9h-13.6v-2.2l13.3-20.6h4V25.3zM2075.3 25.3h9.3V10.7l-0.4 0.8L2075.3 25.3z" class="b"/><path d="M2210.1 20.3l1.5-14.9h15.3v3.5h-12.1l-0.9 8.1c1.5-0.9 3.1-1.3 5-1.3 2.7 0 4.9 0.9 6.5 2.7 1.6 1.8 2.4 4.2 2.4 7.3 0 3.1-0.8 5.5-2.5 7.3 -1.7 1.8-4 2.7-6.9 2.7 -2.6 0-4.8-0.7-6.4-2.2 -1.7-1.5-2.6-3.5-2.8-6.1h3.6c0.2 1.7 0.8 3 1.8 3.9s2.3 1.3 3.9 1.3c1.8 0 3.1-0.6 4.1-1.8 1-1.2 1.5-2.9 1.5-5 0-2-0.5-3.6-1.6-4.8 -1.1-1.2-2.5-1.8-4.3-1.8 -1.7 0-2.9 0.4-3.9 1.1l-1 0.8L2210.1 20.3z" class="b"/><rect x="1639.7" y="123.5" width="68" height="68" class="a"/><path d="M1799.9 73.5l9.7 24.3 9.7-24.3h5.1v29.8h-3.9V91.7l0.4-12.5 -9.8 24.1h-3l-9.8-24.1 0.4 12.5v11.6h-3.9V73.5H1799.9z" class="b"/><rect x="1775.7" y="55.5" width="68" height="68" class="a"/><rect x="1775.7" y="123.5" width="68" height="68" class="a"/><path d="M1935.9 73.5l9.7 24.3 9.7-24.3h5.1v29.8h-3.9V91.7l0.4-12.5 -9.8 24.1h-3l-9.8-24.1 0.4 12.5v11.6h-3.9V73.5H1935.9z" class="b"/><rect x="1911.7" y="55.5" width="68" height="68" class="a"/><rect x="1911.7" y="123.5" width="68" height="68" class="a"/><polyline points="2251.7 157.5 2285.7 157.5 2285.7 259.5 1741.7 259.5 1741.7 89.5 1713.7 89.5 " class="a"/><path d="M1707.7 89.5c2.8-1.1 6.4-2.9 8.5-4.8l-1.7 4.8 1.7 4.8C1714 92.4 1710.5 90.6 1707.7 89.5z" class="b"/><path d="M2071.9 73.5l9.7 24.3 9.7-24.3h5.1v29.8h-3.9V91.7l0.4-12.5 -9.8 24.1h-3l-9.8-24.1 0.4 12.5v11.6h-3.9V73.5H2071.9z" class="b"/><rect x="2047.7" y="55.5" width="68" height="68" class="a"/><rect x="2047.7" y="123.5" width="68" height="68" class="a"/><path d="M2207.9 73.5l9.7 24.3 9.7-24.3h5.1v29.8h-3.9V91.7l0.4-12.5 -9.8 24.1h-3l-9.8-24.1 0.4 12.5v11.6h-3.9V73.5H2207.9z" class="b"/><path d="M2229.6 157.3c0 2.9-0.5 5.5-1.5 7.6s-2.4 3.8-4.2 5c-1.8 1.1-3.9 1.7-6.3 1.7 -2.3 0-4.4-0.6-6.2-1.7 -1.8-1.2-3.2-2.8-4.2-4.9s-1.5-4.6-1.5-7.4v-2.1c0-2.9 0.5-5.4 1.5-7.6 1-2.2 2.4-3.9 4.2-5 1.8-1.2 3.9-1.7 6.3-1.7 2.4 0 4.5 0.6 6.3 1.7 1.8 1.2 3.2 2.8 4.2 5s1.5 4.7 1.5 7.6V157.3zM2225.7 155.4c0-3.5-0.7-6.2-2.1-8.1 -1.4-1.9-3.4-2.8-6-2.8 -2.5 0-4.4 0.9-5.9 2.8 -1.4 1.9-2.2 4.5-2.2 7.9v2.2c0 3.4 0.7 6.1 2.2 8.1s3.4 2.9 5.9 2.9c2.5 0 4.5-0.9 5.9-2.8s2.1-4.5 2.1-8V155.4z" class="b"/><rect x="2183.7" y="55.5" width="68" height="68" class="a"/><rect x="2183.7" y="123.5" width="68" height="68" class="a"/><path d="M-762.6 73.5l9.7 24.3 9.7-24.3h5.1v29.8h-3.9V91.7l0.4-12.5 -9.8 24.1h-3l-9.8-24.1 0.4 12.5v11.6h-3.9V73.5H-762.6z" class="b"/><rect x="-786.9" y="55.5" width="68" height="68" class="a"/><path d="M-749.7 35.3h-3.8V10l-7.6 2.8V9.4l10.8-4.1h0.6V35.3z" class="b"/><path d="M-606.6 35.3h-19.5v-2.7l10.3-11.5c1.5-1.7 2.6-3.1 3.2-4.2 0.6-1.1 0.9-2.2 0.9-3.4 0-1.6-0.5-2.8-1.4-3.8 -0.9-1-2.2-1.5-3.8-1.5 -1.9 0-3.3 0.5-4.4 1.6 -1 1.1-1.6 2.6-1.6 4.5h-3.8c0-2.7 0.9-5 2.7-6.6 1.8-1.7 4.1-2.5 7.1-2.5 2.8 0 5 0.7 6.6 2.2 1.6 1.5 2.4 3.4 2.4 5.8 0 2.9-1.9 6.4-5.6 10.5l-8 8.7h15V35.3z" class="b"/><path d="M-484.6 18.5h2.8c1.8 0 3.2-0.5 4.2-1.4 1-0.9 1.5-2.1 1.5-3.7 0-3.5-1.7-5.2-5.2-5.2 -1.6 0-2.9 0.5-3.9 1.4 -1 0.9-1.5 2.2-1.5 3.7h-3.8c0-2.4 0.9-4.3 2.6-5.9 1.7-1.6 3.9-2.3 6.6-2.3 2.8 0 5 0.7 6.6 2.2 1.6 1.5 2.4 3.6 2.4 6.2 0 1.3-0.4 2.6-1.3 3.8s-2 2.1-3.4 2.7c1.6 0.5 2.9 1.4 3.8 2.6 0.9 1.2 1.3 2.7 1.3 4.4 0 2.7-0.9 4.8-2.6 6.4 -1.7 1.6-4 2.4-6.8 2.4 -2.8 0-5.1-0.8-6.8-2.3s-2.6-3.5-2.6-6h3.8c0 1.6 0.5 2.8 1.5 3.8 1 0.9 2.4 1.4 4.1 1.4 1.8 0 3.2-0.5 4.2-1.4s1.5-2.3 1.5-4.1c0-1.7-0.5-3.1-1.6-4 -1.1-0.9-2.6-1.4-4.6-1.4h-2.8V18.5z" class="b"/><path d="M-338.2 25.3h4.1v3.1h-4.1v6.9h-3.8v-6.9h-13.6v-2.2l13.3-20.6h4V25.3zM-351.2 25.3h9.3V10.7l-0.4 0.8L-351.2 25.3z" class="b"/><path d="M-216.4 20.3l1.5-14.9h15.3v3.5h-12.1l-0.9 8.1c1.5-0.9 3.1-1.3 5-1.3 2.7 0 4.9 0.9 6.5 2.7 1.6 1.8 2.4 4.2 2.4 7.3 0 3.1-0.8 5.5-2.5 7.3 -1.7 1.8-4 2.7-6.9 2.7 -2.6 0-4.8-0.7-6.4-2.2 -1.7-1.5-2.6-3.5-2.8-6.1h3.6c0.2 1.7 0.8 3 1.8 3.9s2.3 1.3 3.9 1.3c1.8 0 3.1-0.6 4.1-1.8 1-1.2 1.5-2.9 1.5-5 0-2-0.5-3.6-1.6-4.8 -1.1-1.2-2.5-1.8-4.3-1.8 -1.7 0-2.9 0.4-3.9 1.1l-1 0.8L-216.4 20.3z" class="b"/><rect x="-786.9" y="123.5" width="68" height="68" class="a"/><path d="M-626.6 73.5l9.7 24.3 9.7-24.3h5.1v29.8h-3.9V91.7l0.4-12.5 -9.8 24.1h-3l-9.8-24.1 0.4 12.5v11.6h-3.9V73.5H-626.6z" class="b"/><path d="M-604.9 157.3c0 2.9-0.5 5.5-1.5 7.6s-2.4 3.8-4.2 5c-1.8 1.1-3.9 1.7-6.3 1.7 -2.3 0-4.4-0.6-6.2-1.7 -1.8-1.2-3.2-2.8-4.2-4.9s-1.5-4.6-1.5-7.4v-2.1c0-2.9 0.5-5.4 1.5-7.6 1-2.2 2.4-3.9 4.2-5 1.8-1.2 3.9-1.7 6.3-1.7 2.4 0 4.5 0.6 6.3 1.7 1.8 1.2 3.2 2.8 4.2 5s1.5 4.7 1.5 7.6V157.3zM-608.8 155.4c0-3.5-0.7-6.2-2.1-8.1 -1.4-1.9-3.4-2.8-6-2.8 -2.5 0-4.4 0.9-5.9 2.8 -1.4 1.9-2.2 4.5-2.2 7.9v2.2c0 3.4 0.7 6.1 2.2 8.1s3.4 2.9 5.9 2.9c2.5 0 4.5-0.9 5.9-2.8s2.1-4.5 2.1-8V155.4z" class="b"/><rect x="-650.9" y="55.5" width="68" height="68" class="a"/><rect x="-650.9" y="123.5" width="68" height="68" class="a"/><path d="M-490.6 73.5l9.7 24.3 9.7-24.3h5.1v29.8h-3.9V91.7l0.4-12.5 -9.8 24.1h-3l-9.8-24.1 0.4 12.5v11.6h-3.9V73.5H-490.6z" class="b"/><path d="M-468.9 157.3c0 2.9-0.5 5.5-1.5 7.6s-2.4 3.8-4.2 5c-1.8 1.1-3.9 1.7-6.3 1.7 -2.3 0-4.4-0.6-6.2-1.7 -1.8-1.2-3.2-2.8-4.2-4.9s-1.5-4.6-1.5-7.4v-2.1c0-2.9 0.5-5.4 1.5-7.6 1-2.2 2.4-3.9 4.2-5 1.8-1.2 3.9-1.7 6.3-1.7 2.4 0 4.5 0.6 6.3 1.7 1.8 1.2 3.2 2.8 4.2 5s1.5 4.7 1.5 7.6V157.3zM-472.8 155.4c0-3.5-0.7-6.2-2.1-8.1 -1.4-1.9-3.4-2.8-6-2.8 -2.5 0-4.4 0.9-5.9 2.8 -1.4 1.9-2.2 4.5-2.2 7.9v2.2c0 3.4 0.7 6.1 2.2 8.1s3.4 2.9 5.9 2.9c2.5 0 4.5-0.9 5.9-2.8s2.1-4.5 2.1-8V155.4z" class="b"/><rect x="-514.9" y="55.5" width="68" height="68" class="a"/><rect x="-514.9" y="123.5" width="68" height="68" class="a"/><polyline points="-582.9 157.5 -548.9 157.5 -548.9 259.5 -684.9 259.5 -684.9 89.5 -712.8 89.5 " class="a"/><path d="M-718.9 89.5c2.8-1.1 6.4-2.9 8.5-4.8l-1.7 4.8 1.7 4.8C-712.5 92.4-716 90.6-718.9 89.5z" class="b"/><path d="M-354.6 73.5l9.7 24.3 9.7-24.3h5.1v29.8h-3.9V91.7l0.4-12.5 -9.8 24.1h-3l-9.8-24.1 0.4 12.5v11.6h-3.9V73.5H-354.6z" class="b"/><path d="M-332.9 157.3c0 2.9-0.5 5.5-1.5 7.6s-2.4 3.8-4.2 5c-1.8 1.1-3.9 1.7-6.3 1.7 -2.3 0-4.4-0.6-6.2-1.7 -1.8-1.2-3.2-2.8-4.2-4.9s-1.5-4.6-1.5-7.4v-2.1c0-2.9 0.5-5.4 1.5-7.6 1-2.2 2.4-3.9 4.2-5 1.8-1.2 3.9-1.7 6.3-1.7 2.4 0 4.5 0.6 6.3 1.7 1.8 1.2 3.2 2.8 4.2 5s1.5 4.7 1.5 7.6V157.3zM-336.8 155.4c0-3.5-0.7-6.2-2.1-8.1 -1.4-1.9-3.4-2.8-6-2.8 -2.5 0-4.4 0.9-5.9 2.8 -1.4 1.9-2.2 4.5-2.2 7.9v2.2c0 3.4 0.7 6.1 2.2 8.1s3.4 2.9 5.9 2.9c2.5 0 4.5-0.9 5.9-2.8s2.1-4.5 2.1-8V155.4z" class="b"/><rect x="-378.9" y="55.5" width="68" height="68" class="a"/><rect x="-378.9" y="123.5" width="68" height="68" class="a"/><path d="M-218.6 73.5l9.7 24.3 9.7-24.3h5.1v29.8h-3.9V91.7l0.4-12.5 -9.8 24.1h-3l-9.8-24.1 0.4 12.5v11.6h-3.9V73.5H-218.6z" class="b"/><path d="M-196.9 157.3c0 2.9-0.5 5.5-1.5 7.6s-2.4 3.8-4.2 5c-1.8 1.1-3.9 1.7-6.3 1.7 -2.3 0-4.4-0.6-6.2-1.7 -1.8-1.2-3.2-2.8-4.2-4.9s-1.5-4.6-1.5-7.4v-2.1c0-2.9 0.5-5.4 1.5-7.6 1-2.2 2.4-3.9 4.2-5 1.8-1.2 3.9-1.7 6.3-1.7 2.4 0 4.5 0.6 6.3 1.7 1.8 1.2 3.2 2.8 4.2 5s1.5 4.7 1.5 7.6V157.3zM-200.8 155.4c0-3.5-0.7-6.2-2.1-8.1 -1.4-1.9-3.4-2.8-6-2.8 -2.5 0-4.4 0.9-5.9 2.8 -1.4 1.9-2.2 4.5-2.2 7.9v2.2c0 3.4 0.7 6.1 2.2 8.1s3.4 2.9 5.9 2.9c2.5 0 4.5-0.9 5.9-2.8s2.1-4.5 2.1-8V155.4z" class="b"/><rect x="-242.9" y="55.5" width="68" height="68" class="a"/><rect x="-242.9" y="123.5" width="68" height="68" class="a"/><path d="M-1599.6 73.5l9.7 24.3 9.7-24.3h5.1v29.8h-3.9V91.7l0.4-12.5 -9.8 24.1h-3l-9.8-24.1 0.4 12.5v11.6h-3.9V73.5H-1599.6z" class="b"/><rect x="-1623.8" y="55.5" width="68" height="68" class="a"/><path d="M-1586.7 35.3h-3.8V10l-7.6 2.8V9.4l10.8-4.1h0.6V35.3z" class="b"/><path d="M-1443.6 35.3h-19.5v-2.7l10.3-11.5c1.5-1.7 2.6-3.1 3.2-4.2 0.6-1.1 0.9-2.2 0.9-3.4 0-1.6-0.5-2.8-1.4-3.8 -0.9-1-2.2-1.5-3.8-1.5 -1.9 0-3.3 0.5-4.4 1.6 -1 1.1-1.6 2.6-1.6 4.5h-3.8c0-2.7 0.9-5 2.7-6.6 1.8-1.7 4.1-2.5 7.1-2.5 2.8 0 5 0.7 6.6 2.2 1.6 1.5 2.4 3.4 2.4 5.8 0 2.9-1.9 6.4-5.6 10.5l-8 8.7h15V35.3z" class="b"/><path d="M-1321.6 18.5h2.8c1.8 0 3.2-0.5 4.2-1.4 1-0.9 1.5-2.1 1.5-3.7 0-3.5-1.7-5.2-5.2-5.2 -1.6 0-2.9 0.5-3.9 1.4 -1 0.9-1.5 2.2-1.5 3.7h-3.8c0-2.4 0.9-4.3 2.6-5.9 1.7-1.6 3.9-2.3 6.6-2.3 2.8 0 5 0.7 6.6 2.2 1.6 1.5 2.4 3.6 2.4 6.2 0 1.3-0.4 2.6-1.3 3.8s-2 2.1-3.4 2.7c1.6 0.5 2.9 1.4 3.8 2.6 0.9 1.2 1.3 2.7 1.3 4.4 0 2.7-0.9 4.8-2.6 6.4 -1.7 1.6-4 2.4-6.8 2.4 -2.8 0-5.1-0.8-6.8-2.3s-2.6-3.5-2.6-6h3.8c0 1.6 0.5 2.8 1.5 3.8 1 0.9 2.4 1.4 4.1 1.4 1.8 0 3.2-0.5 4.2-1.4s1.5-2.3 1.5-4.1c0-1.7-0.5-3.1-1.6-4 -1.1-0.9-2.6-1.4-4.6-1.4h-2.8V18.5z" class="b"/><path d="M-1175.1 25.3h4.1v3.1h-4.1v6.9h-3.8v-6.9h-13.6v-2.2l13.3-20.6h4V25.3zM-1188.2 25.3h9.3V10.7l-0.4 0.8L-1188.2 25.3z" class="b"/><path d="M-1053.4 20.3l1.5-14.9h15.3v3.5h-12.1l-0.9 8.1c1.5-0.9 3.1-1.3 5-1.3 2.7 0 4.9 0.9 6.5 2.7 1.6 1.8 2.4 4.2 2.4 7.3 0 3.1-0.8 5.5-2.5 7.3 -1.7 1.8-4 2.7-6.9 2.7 -2.6 0-4.8-0.7-6.4-2.2 -1.7-1.5-2.6-3.5-2.8-6.1h3.6c0.2 1.7 0.8 3 1.8 3.9s2.3 1.3 3.9 1.3c1.8 0 3.1-0.6 4.1-1.8 1-1.2 1.5-2.9 1.5-5 0-2-0.5-3.6-1.6-4.8 -1.1-1.2-2.5-1.8-4.3-1.8 -1.7 0-2.9 0.4-3.9 1.1l-1 0.8L-1053.4 20.3z" class="b"/><rect x="-1623.8" y="123.5" width="68" height="68" class="a"/><path d="M-1463.6 73.5l9.7 24.3 9.7-24.3h5.1v29.8h-3.9V91.7l0.4-12.5 -9.8 24.1h-3l-9.8-24.1 0.4 12.5v11.6h-3.9V73.5H-1463.6z" class="b"/><path d="M-1441.8 157.3c0 2.9-0.5 5.5-1.5 7.6s-2.4 3.8-4.2 5c-1.8 1.1-3.9 1.7-6.3 1.7 -2.3 0-4.4-0.6-6.2-1.7 -1.8-1.2-3.2-2.8-4.2-4.9s-1.5-4.6-1.5-7.4v-2.1c0-2.9 0.5-5.4 1.5-7.6 1-2.2 2.4-3.9 4.2-5 1.8-1.2 3.9-1.7 6.3-1.7 2.4 0 4.5 0.6 6.3 1.7 1.8 1.2 3.2 2.8 4.2 5s1.5 4.7 1.5 7.6V157.3zM-1445.8 155.4c0-3.5-0.7-6.2-2.1-8.1 -1.4-1.9-3.4-2.8-6-2.8 -2.5 0-4.4 0.9-5.9 2.8 -1.4 1.9-2.2 4.5-2.2 7.9v2.2c0 3.4 0.7 6.1 2.2 8.1s3.4 2.9 5.9 2.9c2.5 0 4.5-0.9 5.9-2.8s2.1-4.5 2.1-8V155.4z" class="b"/><path d="M-1577.8 157.3c0 2.9-0.5 5.5-1.5 7.6s-2.4 3.8-4.2 5c-1.8 1.1-3.9 1.7-6.3 1.7 -2.3 0-4.4-0.6-6.2-1.7 -1.8-1.2-3.2-2.8-4.2-4.9s-1.5-4.6-1.5-7.4v-2.1c0-2.9 0.5-5.4 1.5-7.6 1-2.2 2.4-3.9 4.2-5 1.8-1.2 3.9-1.7 6.3-1.7 2.4 0 4.5 0.6 6.3 1.7 1.8 1.2 3.2 2.8 4.2 5s1.5 4.7 1.5 7.6V157.3zM-1581.8 155.4c0-3.5-0.7-6.2-2.1-8.1 -1.4-1.9-3.4-2.8-6-2.8 -2.5 0-4.4 0.9-5.9 2.8 -1.4 1.9-2.2 4.5-2.2 7.9v2.2c0 3.4 0.7 6.1 2.2 8.1s3.4 2.9 5.9 2.9c2.5 0 4.5-0.9 5.9-2.8s2.1-4.5 2.1-8V155.4z" class="b"/><rect x="-1487.8" y="55.5" width="68" height="68" class="a"/><rect x="-1487.8" y="123.5" width="68" height="68" class="a"/><path d="M-1327.6 73.5l9.7 24.3 9.7-24.3h5.1v29.8h-3.9V91.7l0.4-12.5 -9.8 24.1h-3l-9.8-24.1 0.4 12.5v11.6h-3.9V73.5H-1327.6z" class="b"/><path d="M-1305.8 157.3c0 2.9-0.5 5.5-1.5 7.6s-2.4 3.8-4.2 5c-1.8 1.1-3.9 1.7-6.3 1.7 -2.3 0-4.4-0.6-6.2-1.7 -1.8-1.2-3.2-2.8-4.2-4.9s-1.5-4.6-1.5-7.4v-2.1c0-2.9 0.5-5.4 1.5-7.6 1-2.2 2.4-3.9 4.2-5 1.8-1.2 3.9-1.7 6.3-1.7 2.4 0 4.5 0.6 6.3 1.7 1.8 1.2 3.2 2.8 4.2 5s1.5 4.7 1.5 7.6V157.3zM-1309.8 155.4c0-3.5-0.7-6.2-2.1-8.1 -1.4-1.9-3.4-2.8-6-2.8 -2.5 0-4.4 0.9-5.9 2.8 -1.4 1.9-2.2 4.5-2.2 7.9v2.2c0 3.4 0.7 6.1 2.2 8.1s3.4 2.9 5.9 2.9c2.5 0 4.5-0.9 5.9-2.8s2.1-4.5 2.1-8V155.4z" class="b"/><rect x="-1351.8" y="55.5" width="68" height="68" class="a"/><rect x="-1351.8" y="123.5" width="68" height="68" class="a"/><polyline points="-1555.8 157.5 -1521.8 157.5 -1521.8 89.5 -1549.8 89.5 " class="a"/><path d="M-1555.8 89.5c2.8-1.1 6.4-2.9 8.5-4.8l-1.7 4.8 1.7 4.8C-1549.5 92.4-1553 90.6-1555.8 89.5z" class="b"/><path d="M-1191.6 73.5l9.7 24.3 9.7-24.3h5.1v29.8h-3.9V91.7l0.4-12.5 -9.8 24.1h-3l-9.8-24.1 0.4 12.5v11.6h-3.9V73.5H-1191.6z" class="b"/><path d="M-1169.8 157.3c0 2.9-0.5 5.5-1.5 7.6s-2.4 3.8-4.2 5c-1.8 1.1-3.9 1.7-6.3 1.7 -2.3 0-4.4-0.6-6.2-1.7 -1.8-1.2-3.2-2.8-4.2-4.9s-1.5-4.6-1.5-7.4v-2.1c0-2.9 0.5-5.4 1.5-7.6 1-2.2 2.4-3.9 4.2-5 1.8-1.2 3.9-1.7 6.3-1.7 2.4 0 4.5 0.6 6.3 1.7 1.8 1.2 3.2 2.8 4.2 5s1.5 4.7 1.5 7.6V157.3zM-1173.8 155.4c0-3.5-0.7-6.2-2.1-8.1 -1.4-1.9-3.4-2.8-6-2.8 -2.5 0-4.4 0.9-5.9 2.8 -1.4 1.9-2.2 4.5-2.2 7.9v2.2c0 3.4 0.7 6.1 2.2 8.1s3.4 2.9 5.9 2.9c2.5 0 4.5-0.9 5.9-2.8s2.1-4.5 2.1-8V155.4z" class="b"/><rect x="-1215.8" y="55.5" width="68" height="68" class="a"/><rect x="-1215.8" y="123.5" width="68" height="68" class="a"/><path d="M-1055.6 73.5l9.7 24.3 9.7-24.3h5.1v29.8h-3.9V91.7l0.4-12.5 -9.8 24.1h-3l-9.8-24.1 0.4 12.5v11.6h-3.9V73.5H-1055.6z" class="b"/><path d="M-1033.8 157.3c0 2.9-0.5 5.5-1.5 7.6s-2.4 3.8-4.2 5c-1.8 1.1-3.9 1.7-6.3 1.7 -2.3 0-4.4-0.6-6.2-1.7 -1.8-1.2-3.2-2.8-4.2-4.9s-1.5-4.6-1.5-7.4v-2.1c0-2.9 0.5-5.4 1.5-7.6 1-2.2 2.4-3.9 4.2-5 1.8-1.2 3.9-1.7 6.3-1.7 2.4 0 4.5 0.6 6.3 1.7 1.8 1.2 3.2 2.8 4.2 5s1.5 4.7 1.5 7.6V157.3zM-1037.8 155.4c0-3.5-0.7-6.2-2.1-8.1 -1.4-1.9-3.4-2.8-6-2.8 -2.5 0-4.4 0.9-5.9 2.8 -1.4 1.9-2.2 4.5-2.2 7.9v2.2c0 3.4 0.7 6.1 2.2 8.1s3.4 2.9 5.9 2.9c2.5 0 4.5-0.9 5.9-2.8s2.1-4.5 2.1-8V155.4z" class="b"/><rect x="-1079.8" y="55.5" width="68" height="68" class="a"/><rect x="-1079.8" y="123.5" width="68" height="68" class="a"/><text transform="matrix(1 0 0 1 25.2041 -702.5)" font-family="'Roboto-Regular'" font-size="41.9111" class="b">  M</text><rect x="9.5" y="-750.3" width="68" height="68" class="a"/><text transform="matrix(1 0 0 1 31.7324 -770.5)" font-family="'Roboto-Regular'" font-size="41.9111" class="b">  1</text><text transform="matrix(1 0 0 1 167.7324 -770.5)" font-family="'Roboto-Regular'" font-size="41.9111" class="b">  2</text><text transform="matrix(1 0 0 1 303.7324 -770.5)" font-family="'Roboto-Regular'" font-size="41.9111" class="b">  3</text><text transform="matrix(1 0 0 1 439.7324 -770.5)" font-family="'Roboto-Regular'" font-size="41.9111" class="b">  4</text><text transform="matrix(1 0 0 1 575.7324 -770.5)" font-family="'Roboto-Regular'" font-size="41.9111" class="b">  5</text><rect x="9.5" y="-682.3" width="68" height="68" class="a"/><text transform="matrix(1 0 0 1 161.2041 -702.5)" font-family="'Roboto-Regular'" font-size="41.9111" class="b">  M</text><rect x="145.5" y="-750.3" width="68" height="68" class="a"/><rect x="145.5" y="-682.3" width="68" height="68" class="a"/><text transform="matrix(1 0 0 1 297.2041 -702.5)" font-family="'Roboto-Regular'" font-size="41.9111" class="b">  M</text><text transform="matrix(1 0 0 1 301.0928 -634.5)" font-family="'Roboto-Regular'" font-size="41.9111" class="b">  O</text><rect x="281.5" y="-750.3" width="68" height="68" class="a"/><rect x="281.5" y="-682.3" width="68" height="68" class="a"/><polyline points="349.5 -648.3 383.5 -648.3 383.5 -546.3 111.5 -546.3 111.5 -716.3 83.5 -716.3 " class="a"/><path d="M77.5-716.3c2.8-1.1 6.4-2.9 8.5-4.8l-1.7 4.8 1.7 4.8C83.9-713.4 80.3-715.2 77.5-716.3z" class="b"/><text transform="matrix(1 0 0 1 433.2041 -702.5)" font-family="'Roboto-Regular'" font-size="41.9111" class="b">  M</text><text transform="matrix(1 0 0 1 437.0928 -634.5)" font-family="'Roboto-Regular'" font-size="41.9111" class="b">  O</text><rect x="417.5" y="-750.3" width="68" height="68" class="a"/><rect x="417.5" y="-682.3" width="68" height="68" class="a"/><text transform="matrix(1 0 0 1 569.2041 -702.5)" font-family="'Roboto-Regular'" font-size="41.9111" class="b">  M</text><text transform="matrix(1 0 0 1 573.0928 -634.5)" font-family="'Roboto-Regular'" font-size="41.9111" class="b">  O</text><rect x="553.5" y="-750.3" width="68" height="68" class="a"/><rect x="553.5" y="-682.3" width="68" height="68" class="a"/><text transform="matrix(1 0 0 1 835.2852 -702.5)" font-family="'Roboto-Regular'" font-size="41.9111" class="b">  M</text><rect x="819.6" y="-750.3" width="68" height="68" class="a"/><text transform="matrix(1 0 0 1 841.8135 -770.5)" font-family="'Roboto-Regular'" font-size="41.9111" class="b">  1</text><text transform="matrix(1 0 0 1 977.8135 -770.5)" font-family="'Roboto-Regular'" font-size="41.9111" class="b">  2</text><text transform="matrix(1 0 0 1 1113.8135 -770.5)" font-family="'Roboto-Regular'" font-size="41.9111" class="b">  3</text><text transform="matrix(1 0 0 1 1249.8135 -770.5)" font-family="'Roboto-Regular'" font-size="41.9111" class="b">  4</text><text transform="matrix(1 0 0 1 1385.8135 -770.5)" font-family="'Roboto-Regular'" font-size="41.9111" class="b">  5</text><rect x="819.6" y="-682.3" width="68" height="68" class="a"/><text transform="matrix(1 0 0 1 971.2852 -702.5)" font-family="'Roboto-Regular'" font-size="41.9111" class="b">  M</text><rect x="955.6" y="-750.3" width="68" height="68" class="a"/><rect x="955.6" y="-682.3" width="68" height="68" class="a"/><text transform="matrix(1 0 0 1 1107.2852 -702.5)" font-family="'Roboto-Regular'" font-size="41.9111" class="b">  M</text><rect x="1091.6" y="-750.3" width="68" height="68" class="a"/><rect x="1091.6" y="-682.3" width="68" height="68" class="a"/><polyline points="1295.6 -648.3 1329.6 -648.3 1329.6 -546.3 921.6 -546.3 921.6 -716.3 893.6 -716.3 " class="a"/><path d="M887.6-716.3c2.8-1.1 6.4-2.9 8.5-4.8l-1.7 4.8 1.7 4.8C893.9-713.4 890.4-715.2 887.6-716.3z" class="b"/><text transform="matrix(1 0 0 1 1243.2852 -702.5)" font-family="'Roboto-Regular'" font-size="41.9111" class="b">  M</text><text transform="matrix(1 0 0 1 1247.1738 -634.5)" font-family="'Roboto-Regular'" font-size="41.9111" class="b">  O</text><rect x="1227.6" y="-750.3" width="68" height="68" class="a"/><rect x="1227.6" y="-682.3" width="68" height="68" class="a"/><text transform="matrix(1 0 0 1 1379.2852 -702.5)" font-family="'Roboto-Regular'" font-size="41.9111" class="b">  M</text><text transform="matrix(1 0 0 1 1383.1738 -634.5)" font-family="'Roboto-Regular'" font-size="41.9111" class="b">  O</text><rect x="1363.6" y="-750.3" width="68" height="68" class="a"/><rect x="1363.6" y="-682.3" width="68" height="68" class="a"/><text transform="matrix(1 0 0 1 1655.3691 -702.5)" font-family="'Roboto-Regular'" font-size="41.9111" class="b">  M</text><rect x="1639.7" y="-750.3" width="68" height="68" class="a"/><text transform="matrix(1 0 0 1 1661.8975 -770.5)" font-family="'Roboto-Regular'" font-size="41.9111" class="b">  1</text><text transform="matrix(1 0 0 1 1797.8975 -770.5)" font-family="'Roboto-Regular'" font-size="41.9111" class="b">  2</text><text transform="matrix(1 0 0 1 1933.8975 -770.5)" font-family="'Roboto-Regular'" font-size="41.9111" class="b">  3</text><text transform="matrix(1 0 0 1 2069.8975 -770.5)" font-family="'Roboto-Regular'" font-size="41.9111" class="b">  4</text><text transform="matrix(1 0 0 1 2205.8975 -770.5)" font-family="'Roboto-Regular'" font-size="41.9111" class="b">  5</text><rect x="1639.7" y="-682.3" width="68" height="68" class="a"/><text transform="matrix(1 0 0 1 1791.3691 -702.5)" font-family="'Roboto-Regular'" font-size="41.9111" class="b">  M</text><rect x="1775.7" y="-750.3" width="68" height="68" class="a"/><rect x="1775.7" y="-682.3" width="68" height="68" class="a"/><text transform="matrix(1 0 0 1 1927.3691 -702.5)" font-family="'Roboto-Regular'" font-size="41.9111" class="b">  M</text><rect x="1911.7" y="-750.3" width="68" height="68" class="a"/><rect x="1911.7" y="-682.3" width="68" height="68" class="a"/><polyline points="2251.7 -648.3 2285.7 -648.3 2285.7 -546.3 1741.7 -546.3 1741.7 -716.3 1713.7 -716.3 " class="a"/><path d="M1707.7-716.3c2.8-1.1 6.4-2.9 8.5-4.8l-1.7 4.8 1.7 4.8C1714-713.4 1710.5-715.2 1707.7-716.3z" class="b"/><text transform="matrix(1 0 0 1 2063.3691 -702.5)" font-family="'Roboto-Regular'" font-size="41.9111" class="b">  M</text><rect x="2047.7" y="-750.3" width="68" height="68" class="a"/><rect x="2047.7" y="-682.3" width="68" height="68" class="a"/><text transform="matrix(1 0 0 1 2199.3691 -702.5)" font-family="'Roboto-Regular'" font-size="41.9111" class="b">  M</text><text transform="matrix(1 0 0 1 2203.2578 -634.5)" font-family="'Roboto-Regular'" font-size="41.9111" class="b">  O</text><rect x="2183.7" y="-750.3" width="68" height="68" class="a"/><rect x="2183.7" y="-682.3" width="68" height="68" class="a"/><text transform="matrix(1 0 0 1 -771.1572 -702.5)" font-family="'Roboto-Regular'" font-size="41.9111" class="b">  M</text><rect x="-786.9" y="-750.3" width="68" height="68" class="a"/><text transform="matrix(1 0 0 1 -764.6289 -770.5)" font-family="'Roboto-Regular'" font-size="41.9111" class="b">  1</text><text transform="matrix(1 0 0 1 -628.6289 -770.5)" font-family="'Roboto-Regular'" font-size="41.9111" class="b">  2</text><text transform="matrix(1 0 0 1 -492.6289 -770.5)" font-family="'Roboto-Regular'" font-size="41.9111" class="b">  3</text><text transform="matrix(1 0 0 1 -356.6289 -770.5)" font-family="'Roboto-Regular'" font-size="41.9111" class="b">  4</text><text transform="matrix(1 0 0 1 -220.6289 -770.5)" font-family="'Roboto-Regular'" font-size="41.9111" class="b">  5</text><rect x="-786.9" y="-682.3" width="68" height="68" class="a"/><text transform="matrix(1 0 0 1 -635.1572 -702.5)" font-family="'Roboto-Regular'" font-size="41.9111" class="b">  M</text><text transform="matrix(1 0 0 1 -631.2686 -634.5)" font-family="'Roboto-Regular'" font-size="41.9111" class="b">  O</text><rect x="-650.9" y="-750.3" width="68" height="68" class="a"/><rect x="-650.9" y="-682.3" width="68" height="68" class="a"/><text transform="matrix(1 0 0 1 -499.1572 -702.5)" font-family="'Roboto-Regular'" font-size="41.9111" class="b">  M</text><text transform="matrix(1 0 0 1 -495.2686 -634.5)" font-family="'Roboto-Regular'" font-size="41.9111" class="b">  O</text><rect x="-514.9" y="-750.3" width="68" height="68" class="a"/><rect x="-514.9" y="-682.3" width="68" height="68" class="a"/><polyline points="-582.9 -648.3 -548.9 -648.3 -548.9 -546.3 -684.9 -546.3 -684.9 -716.3 -712.8 -716.3 " class="a"/><path d="M-718.9-716.3c2.8-1.1 6.4-2.9 8.5-4.8l-1.7 4.8 1.7 4.8C-712.5-713.4-716-715.2-718.9-716.3z" class="b"/><text transform="matrix(1 0 0 1 -363.1572 -702.5)" font-family="'Roboto-Regular'" font-size="41.9111" class="b">  M</text><text transform="matrix(1 0 0 1 -359.2686 -634.5)" font-family="'Roboto-Regular'" font-size="41.9111" class="b">  O</text><rect x="-378.9" y="-750.3" width="68" height="68" class="a"/><rect x="-378.9" y="-682.3" width="68" height="68" class="a"/><text transform="matrix(1 0 0 1 -227.1572 -702.5)" font-family="'Roboto-Regular'" font-size="41.9111" class="b">  M</text><text transform="matrix(1 0 0 1 -223.2686 -634.5)" font-family="'Roboto-Regular'" font-size="41.9111" class="b">  O</text><rect x="-242.9" y="-750.3" width="68" height="68" class="a"/><rect x="-242.9" y="-682.3" width="68" height="68" class="a"/><text transform="matrix(1 0 0 1 -1608.1152 -702.5)" font-family="'Roboto-Regular'" font-size="41.9111" class="b">  M</text><rect x="-1623.8" y="-750.3" width="68" height="68" class="a"/><text transform="matrix(1 0 0 1 -1601.5869 -770.5)" font-family="'Roboto-Regular'" font-size="41.9111" class="b">  1</text><text transform="matrix(1 0 0 1 -1465.5869 -770.5)" font-family="'Roboto-Regular'" font-size="41.9111" class="b">  2</text><text transform="matrix(1 0 0 1 -1329.5869 -770.5)" font-family="'Roboto-Regular'" font-size="41.9111" class="b">  3</text><text transform="matrix(1 0 0 1 -1193.5869 -770.5)" font-family="'Roboto-Regular'" font-size="41.9111" class="b">  4</text><text transform="matrix(1 0 0 1 -1057.5869 -770.5)" font-family="'Roboto-Regular'" font-size="41.9111" class="b">  5</text><rect x="-1623.8" y="-682.3" width="68" height="68" class="a"/><text transform="matrix(1 0 0 1 -1472.1152 -702.5)" font-family="'Roboto-Regular'" font-size="41.9111" class="b">  M</text><text transform="matrix(1 0 0 1 -1468.2266 -634.5)" font-family="'Roboto-Regular'" font-size="41.9111" class="b">  O</text><text transform="matrix(1 0 0 1 -1604.2266 -634.5)" font-family="'Roboto-Regular'" font-size="41.9111" class="b">  O</text><rect x="-1487.8" y="-750.3" width="68" height="68" class="a"/><rect x="-1487.8" y="-682.3" width="68" height="68" class="a"/><text transform="matrix(1 0 0 1 -1336.1152 -702.5)" font-family="'Roboto-Regular'" font-size="41.9111" class="b">  M</text><text transform="matrix(1 0 0 1 -1332.2266 -634.5)" font-family="'Roboto-Regular'" font-size="41.9111" class="b">  O</text><rect x="-1351.8" y="-750.3" width="68" height="68" class="a"/><rect x="-1351.8" y="-682.3" width="68" height="68" class="a"/><polyline points="-1555.8 -648.3 -1521.8 -648.3 -1521.8 -716.3 -1549.8 -716.3 " class="a"/><path d="M-1555.8-716.3c2.8-1.1 6.4-2.9 8.5-4.8l-1.7 4.8 1.7 4.8C-1549.5-713.4-1553-715.2-1555.8-716.3z" class="b"/><text transform="matrix(1 0 0 1 -1200.1152 -702.5)" font-family="'Roboto-Regular'" font-size="41.9111" class="b">  M</text><text transform="matrix(1 0 0 1 -1196.2266 -634.5)" font-family="'Roboto-Regular'" font-size="41.9111" class="b">  O</text><rect x="-1215.8" y="-750.3" width="68" height="68" class="a"/><rect x="-1215.8" y="-682.3" width="68" height="68" class="a"/><text transform="matrix(1 0 0 1 -1064.1152 -702.5)" font-family="'Roboto-Regular'" font-size="41.9111" class="b">  M</text><text transform="matrix(1 0 0 1 -1060.2266 -634.5)" font-family="'Roboto-Regular'" font-size="41.9111" class="b">  O</text><rect x="-1079.8" y="-750.3" width="68" height="68" class="a"/><rect x="-1079.8" y="-682.3" width="68" height="68" class="a"/><rect x="-179.4" y="837.1" width="232.5" height="127.5" class="a"/><text transform="matrix(1 0 0 1 -104.5371 920.1426)" font-family="'Roboto-Regular'" font-size="75.0523" class="b">  M</text><text transform="matrix(1 0 0 1 -163.9502 1021.2939)" font-family="'Roboto-Regular'" font-size="26.523" class="b">  O</text><text transform="matrix(1 0 0 1 -72.2559 1021.2939)" font-family="'Roboto-Regular'" font-size="26.523" class="b">  O</text><text transform="matrix(1 0 0 1 18.3232 1021.2939)" font-family="'Roboto-Regular'" font-size="26.523" class="b">  O</text><circle cx="-154.8" cy="1012.5" r="25.7" class="a"/><circle cx="-63.7" cy="1012.5" r="25.7" class="a"/><circle cx="27.4" cy="1012.5" r="25.7" class="a"/></svg>