<svg width="975" height="362" viewBox="0 0 975 362" xmlns="http://www.w3.org/2000/svg"><g fill="none" fill-rule="evenodd"><path d="M56.2 240v.4c1.6 4.8 3.1 9.6 5 14.3a19 19 0 0 0 2.4 4.8c.8 1 1.1 1 2 0 1.4-1.5 2.2-3.5 3.2-5.3.2-.3 0-.5-.1-.8-.8-1.2-1.5-2.6-2.4-3.8a32.4 32.4 0 0 0-6.2-7.7c-1.1-.9-2.3-1.8-3.9-2m19.5 20.4c.3-.1.6-.3.8-.6 1-1.1 1.6-2.5 2.2-3.9 2-4.9 3.6-10 5.2-15 0-.2.2-.5 0-.7-.1-.2-.5 0-.7 0-1.5.5-2.7 1.5-3.8 2.5-2.7 2.6-4.7 5.9-6.8 9-1 1.6-1.4 3 0 4.6v.3c.7 1 1.3 2.2 2.1 3.1.3.3.5.6 1 .7m-31-8.8h.3l.2-.8c.6-2.3 1.4-4.5 2.5-6.6 1.2-2.3 2.8-4.2 5.3-5.2.8-.2.8-.5.5-1.1l-2.2-5.9c-1.2-3-2.5-6.2-4.3-9-.4-.6-.7-1.5-1.4-1.3-.5.1-.6 1-.7 1.7-.9 3.4-.9 6.9-.9 10.3 0 3.9.2 7.8.4 11.7 0 2 .2 4.1.4 6.2m50.7 0v-.3c.5-7.5 1-15 .6-22.5 0-2.1-.3-4.3-1-6.3-.3-1-.5-1.1-1.2-.3a16 16 0 0 0-1.7 2.7c-2.1 4-3.7 8.1-5.2 12.3-.5 1.4-.5 1.4.8 2l.3.2c2.6 1.4 4 3.7 5.2 6.3.9 1.9 1.5 4 2.2 6m-25.4 0l3.2-5.2c1.3-2 2.7-4 4.6-5.5a9.8 9.8 0 0 1 6-2.5c.7 0 1-.3 1.1-.8 1.4-4.2 2.8-8.3 4.7-12.2.8-1.6 1.6-3.2 2.9-4.5 1.6-1.5 4-1 4.8 1.1 1 2.8 1 5.8 1.1 8.7.3 7.5-.3 15-1 22.6-.3 4.6-.6 9.1-.4 13.7.3 6.3-.2 12.5-1.5 18.6-.2 1-.3 2-1.6 2-1 .1-1.4-.1-1.4-1.1 0-3.1.2-6.2.6-9.2 1.3-10 .4-19.8-2.8-29.4-.8-2.5-2-4.8-3.9-6.6-.7-.8-.7-.8-1 .3l-4.6 12.7c-.5 1.5-1.2 2.9-2 4.3-1.7 3.3-4.5 3.5-6.7.4l-1.6-2.5c-.3-.4-.5-.6-.9 0-.8 1.4-1.7 2.8-3 3.9-1.2 1.1-3 1-4.2-.2-1.6-1.7-2.4-4-3.2-6-1.6-4.2-3-8.4-4.4-12.6-.4-1-.4-1-1.1-.3-2 1.8-3 4.2-4 6.7a60 60 0 0 0-3 15l-.3 4.6c-.3 3.2.3 6.3.6 9.4.2 3 .6 6.1.6 9.2 0 .9-.2 1.3-1 1.5-.8.1-1.5-.3-1.8-1.1a72.5 72.5 0 0 1-1.7-20.3c.4-5.3-.4-10.4-.8-15.7-.2-4.6-.6-9.3-.7-14 0-3.8 0-7.7.5-11.6.1-1 .4-2.2.8-3.3.9-2.1 3.5-2 4.8-.7.8.8 1.5 1.9 2 3a95 95 0 0 1 5.4 13.4c.2.6.5 1 1.2 1 3.9.2 6.5 2.5 8.7 5.4 2 2.4 3.4 5 5 7.8M233.7 258.2c-1-6.5-1.9-13-3.1-19.4-1-4.7-2-9.3-3.6-13.7-.6-1.6-1.2-3.2-2.4-4.5-.5-.5-.9-.5-1.3 0-1 .8-1.5 2-2 3-.3.5-.3 1-.1 1.4 2 5.3 3.1 10.8 4.4 16.2 1.1 5 2 9.9 4 14.6a7 7 0 0 0 2.2 3.2c.6.4 1.2.4 1.8.1.5-.2 0-.6.1-.9m-27.8.3c-.2.5.2.6.5.8.8.1 1.4-.1 2-.7 1.1-1.1 1.7-2.6 2.3-4.2 1.1-3.2 1.9-6.6 2.7-10 1.5-6.5 2.8-13.2 5.2-19.6a1 1 0 0 0 0-.9c-.5-1-1-2-1.8-3-1-1-1.2-1-2 .1a18 18 0 0 0-2.7 5.7c-1.6 5-2.6 10-3.6 15.2-1 5.5-1.8 11-2.6 16.6m57.2-12.8c0-2.2 0-3.9-.8-5.5-.7-1.3-1.3-1.5-2.7-1-1.2.4-2.2 1-3.3 1.7-4.8 3.3-8.8 7.5-12.8 11.7-1.8 1.8-3.6 3.7-5.6 5.2-1.4 1-1.8 1.8-1.6 3.5 1 5.4 1.6 10.8 3 16 .6 2.4 1.3 4.7 2.7 6.7 1.3 2 2.2 2 4 .7 2.9-2.2 4.7-5 6.5-8a86 86 0 0 0 8.8-20.5c1-3.6 1.7-7.2 1.8-10.5m-86.6-.6v.5a82 82 0 0 0 12.6 34.2c1.3 1.8 2.7 3.6 4.6 5 1.6 1.2 2.6 1 3.8-.5 1-1.3 1.7-2.8 2.1-4.4 2-6.6 2.9-13.5 4-20.3 0-.4-.2-.6-.5-.8-2.4-1.6-4.4-3.7-6.5-5.8-3-3-6-6.2-9.3-9-2.2-1.9-4.4-3.7-7.2-4.8-1.4-.6-2.2-.2-2.8 1.3-.7 1.4-.8 3-.8 4.6m43.2-17.7c-1 2.7-1.7 5.6-2.5 8.4-1.5 5.8-2.7 11.8-4.5 17.5-.6 1.7-1.2 3.4-2.2 4.8-.9 1.4-2.1 2.2-3.7 2-1.1-.1-1.2.4-1.4 1.2-.7 5.2-1.5 10.5-2.8 15.7-.6 2.5-1.3 5-2.8 7.3-1.7 2.4-4.2 3-6.9 1.8a16.2 16.2 0 0 1-6-5.3 78.8 78.8 0 0 1-13.3-29.2c-.7-2.9-1-5.8-.7-8.7.2-3 1.6-4.8 4-5.4a8 8 0 0 1 3.7 0c2.7.7 5 2.3 7 4 3.4 2.7 6.3 5.9 9.2 9.1 2 2 3.8 4.1 5.8 6l1.1 1c.4-1.4.5-2.8.7-4 1.2-8 2.4-16 4.4-23.8.7-2.7 1.5-5.4 2.9-7.9.8-1.4 1.7-2.7 3.6-2.9 1.8-.2 3.1.7 4 2.3.4.7.6.6 1 0 1.6-2.4 4-3 6-1.6 1 .8 1.6 1.9 2.1 3a47 47 0 0 1 3.2 10c1.8 7.7 2.9 15.5 4 23.4l.3 1.3c.6 0 .9-.5 1.3-.9 3.1-3 6-6.4 9-9.6 2.7-2.8 5.5-5.5 8.7-7.5 2-1.3 4-2.2 6.4-2 3.7 0 5.2 2.3 5.5 5.5.4 4.2-.4 8.2-1.6 12.1-2.4 8.4-6 16.2-10.8 23.4a23.5 23.5 0 0 1-6.5 7c-3.8 2.5-7.2 1.3-9-2.8a54.8 54.8 0 0 1-3.1-11.7l-1.6-10c-.1-.6-.3-.9-1-.8-1.9.2-3.2-.7-4.2-2.2a25 25 0 0 1-2.7-6.9c-1.9-6.6-3.2-13.3-5.1-19.9l-1.2-3.7h-.3M346.4 274c-.2-5-.8-10-1.5-15-.4 5 .2 10 1.5 15m46.3.1c1.3-5 2-10 1.5-15.1-.7 5-1.3 10-1.5 15.1m-48.9-46.7h-.2l.4 3.9 1.9 17.3c.2 2.3.2 2.3 2.4 2.8h.2c1 .4 1.1.1.9-.8l-3.5-15-2-8.2m45.6 24.3c.9-.2 1.7-.5 2.5-.5s1-.4 1-1.1l2-16.9.5-6c-2.3 8.1-4.1 16.2-6 24.5m-35.3 9.4v.6c1.6 6.8 3.1 13.6 5.5 20.3.6 1.6 1.3 3.3 2.5 4.7.7 1 1 1 2 .1 1.2-1.3 2.2-2.8 3.2-4.4.4-.6.3-1 0-1.5l-8.3-13a78 78 0 0 0-4.9-6.8m31-.2l-.5.4c-4.8 6.3-8.8 13.2-13.1 19.8-.2.3-.3.6-.1.9 1.1 1.8 2.1 3.6 3.7 5 .6.6 1.1.5 1.6-.2.8-1 1.5-2.1 2-3.3 1.7-4.1 2.8-8.4 4-12.7l2.3-9.9m5.5 14.3c.2-4.8.7-9.5 1.2-14.2l.8-6.5-.1-.8c-.3-.2-.6 0-.8.2-1.2.8-2.2 1.8-3.2 2.8-.5.6-.5 1.4-.7 2.1-1.8 7.3-3.4 14.7-5.7 21.8-.7 2.1-1.5 4.3-2.8 6.1-1.4 2-3.9 2.6-6 1.2-1.3-.8-2.2-1.9-3.1-3-.5-.7-.8-.7-1.3 0-.6.9-1.4 1.6-2.2 2.4-2.6 2.3-5.8 1.7-7.4-1.3-1.8-3.4-2.8-7-3.8-10.6a407 407 0 0 1-4.4-17.7c-.1-.4-.3-.8-.6-1-1-1-2-2-3-2.7-.3-.2-.5-.5-.8-.3-.3.2-.2.5-.2.8l1 8.3c.5 4.7 1 9.4 1 14.2 0 .8.2 1.8-1 2-1 .4-2 0-2.6-1.2a38.9 38.9 0 0 1-3.1-9.9c-.8-3.8-1.4-7.7-.9-11.7.3-1.9.9-3.6 2.7-4.5.6-.3.5-.8.4-1.2l-1.6-13.1c-.6-5-1.3-10.2-1.5-15.3v-.9c.1-.6-.2-1.5.8-1.8 1.3-.3 2.2.1 2.6 1.3 1.3 3.6 2.2 7.3 3 11 1.7 6.8 3.2 13.7 4.7 20.5.2.5.2 1.1.7 1.5 3.3 2.9 5.7 6.4 8 10 3 4.5 5.6 9.2 8.3 14 .1.2.2.7.5.6.4 0 .5-.4.6-.7 2.6-4.6 5.1-9.2 8-13.6 2.4-3.6 4.8-7.3 8.2-10.1.5-.5.6-1.1.8-1.8 2.1-9.4 4-18.8 6.6-28 .3-1.3.7-2.6 1.3-3.8.3-.8 1.3-1.1 2.4-.9.9.2.8 1 .8 1.5 0 2.9-.3 5.7-.6 8.5l-2 18-.5 3.2c0 .6 0 1 .6 1.3 1.6.8 2.2 2.3 2.4 4 .7 4.3 0 8.5-1 12.7a37 37 0 0 1-3.4 10c-.6.7-1.5.7-2.3.4-.7-.2-.8-.9-.8-1.5v-2.3M242.2 109.4c-1.8-12.2-3.6-24.5-6-36.6-1.7-8.8-3.5-17.5-6.6-25.8a25 25 0 0 0-4.7-8.6c-.8-1-1.5-.9-2.4 0-1.7 1.6-2.8 3.7-3.9 5.7-.5 1-.4 1.8 0 2.8 3.7 9.9 5.8 20.2 8.2 30.5 2.2 9.2 3.9 18.5 7.5 27.4 1 2.4 2.2 4.6 4.3 6.2 1 .7 2.2.6 3.3.1 1-.4.2-1 .3-1.7m-52.5.5c-.3 1 .3 1.3 1 1.5 1.5.4 2.6-.2 3.6-1.2 2.2-2.2 3.4-5 4.4-7.9 2.2-6.1 3.6-12.5 5.1-18.8 3-12.4 5.3-25 9.8-37a2 2 0 0 0 0-1.8c-1-2-1.9-3.9-3.3-5.5-1.8-2-2.3-2-4 0a33.9 33.9 0 0 0-5 10.7c-3 9.4-4.9 19-6.6 28.7-1.9 10.4-3.4 20.9-5 31.3m108-24a22 22 0 0 0-1.7-10.4c-1.3-2.5-2.4-3-5-2-2.2.9-4.2 2-6.1 3.3-9.1 6.2-16.6 14.2-24.3 22-3.4 3.4-6.7 7-10.6 9.8-2.6 1.8-3.4 3.5-2.9 6.7 1.8 10 3 20.3 5.6 30.2 1.1 4.4 2.4 8.8 5 12.6 2.6 3.6 4.3 4 7.8 1.2 5.2-4 8.8-9.4 12-15 7.3-12 12.7-25 16.6-38.6 2-6.8 3.4-13.7 3.6-19.8m-163.4-1.2v.9c.3 7.3 1.9 14.3 4 21.2 4.5 15.4 10.8 30 19.8 43.2 2.4 3.6 5.1 7 8.6 9.5 3 2.4 4.9 2.1 7.2-1 1.9-2.4 3-5.2 4-8.1 3.9-12.5 5.4-25.5 7.4-38.4 0-.8-.2-1.1-.8-1.5-4.6-3-8.4-7-12.3-11-5.7-5.7-11.3-11.5-17.5-16.8-4.1-3.6-8.4-7-13.6-9.1-2.7-1-4.3-.4-5.4 2.3a21.5 21.5 0 0 0-1.4 8.8m81.5-33.5c-2 5.2-3.3 10.6-4.7 16-3 11-5 22.1-8.6 33-1 3.2-2.2 6.3-4.1 9-1.7 2.6-4 4.2-7 3.8-2-.3-2.3.7-2.6 2.2-1.4 10-3 19.8-5.3 29.6a41.8 41.8 0 0 1-5.3 13.8c-3.1 4.6-8 5.8-13 3.4-4.7-2.2-8.2-6-11.2-10a148.6 148.6 0 0 1-25.2-55.1 50.3 50.3 0 0 1-1.4-16.4c.5-5.5 3-9 7.6-10 2.3-.7 4.7-.6 7 0a33 33 0 0 1 13.2 7.3c6.4 5.2 12 11.2 17.4 17.3 3.6 3.8 7.1 7.7 11 11.4l2 1.7c.8-2.6 1-5.1 1.3-7.6 2.2-15 4.4-30 8.2-44.7 1.4-5.1 3-10.2 5.5-14.9 1.5-2.8 3.3-5.1 6.8-5.5 3.5-.4 6 1.4 7.6 4.2.8 1.4 1.2 1.2 2 0 3-4.5 7.3-5.6 11.1-2.9 2 1.4 3 3.5 4 5.6 3 6 4.6 12.3 6 18.7 3.5 14.6 5.5 29.5 7.7 44.3l.4 2.5c1.2-.1 1.8-1 2.5-1.7 6-5.7 11.4-12 17-18a91 91 0 0 1 16.5-14.3c3.7-2.4 7.6-4 12-3.8 7 .2 9.7 4.4 10.4 10.5.8 7.8-.9 15.4-3 22.8a155.1 155.1 0 0 1-20.4 44.1c-3.4 5.1-7 10-12.3 13.4-7 4.5-13.6 2.3-17-5.5-3-7-4.4-14.6-5.8-22.1-1.1-6.2-2.1-12.5-3-18.7-.3-1.2-.6-1.8-2-1.6-3.5.4-6-1.3-7.8-4.1-2.6-4-3.9-8.6-5.2-13-3.5-12.5-6-25.2-9.6-37.5l-2.2-7.2h-.5" fill="#384040"/><text font-family="Roboto-Regular, Roboto" font-size="30" letter-spacing="-.7" fill="#384040"><tspan x="28.7" y="46.8">M</tspan></text><text font-family="Roboto-Regular, Roboto" font-size="30" letter-spacing=".4" fill="#384040"><tspan x="28.7" y="197.9">O</tspan></text><path stroke="#384040" stroke-width="2" d="M1 325.8h435V1H1z"/><path stroke="#384040" d="M439.6 99.3H470v261.5H216v-29"/><path d="M439.8 103a3.8 3.8 0 1 1 0-7.5 3.8 3.8 0 0 1 0 7.6M216 325.8c1 2.9 2.9 6.4 4.8 8.6l-4.8-1.7-4.7 1.7c1.9-2.2 3.7-5.7 4.7-8.6" fill="#384040"/><text font-family="Roboto-Regular, Roboto" font-size="30" letter-spacing="-.7" fill="#384040"><tspan x="533.1" y="46.8">M</tspan></text><text font-family="Roboto-Regular, Roboto" font-size="30" letter-spacing=".4" fill="#384040"><tspan x="533.1" y="197.9">O</tspan></text><path stroke="#384040" stroke-width="2" d="M505.3 325.8h435V1h-435z"/><path stroke="#384040" d="M943.9 99.3h30.4v261.5h-379v-29"/><path d="M944 103a3.8 3.8 0 1 1 0-7.5 3.8 3.8 0 0 1 0 7.6M595.4 325.8c1 2.9 2.8 6.4 4.7 8.6l-4.7-1.7-4.8 1.7c2-2.2 3.7-5.7 4.8-8.6M724.1 140.4l3.4-6a1 1 0 0 0 0-1l-3.4-6.1-3.2 5.9c-.3.6 0 1 .2 1.6l3 5.6m-39.8-67.7v1.8c1 8 2.5 15.8 4.7 23.5.7 2.3 1.4 4.6 2.5 6.8.3.6.5 1.5 1.3 1.4.6 0 .8-.9 1-1.5l1.6-4.8c1.2-3 .8-5.7-.8-8.6-3.5-6-6.5-12.2-10.3-18.6m79.7.2c-4.2 7-8.2 14.3-11.9 21.8-.2.4-.3.8-.2 1.3.8 2.8 1.4 5.7 2.5 8.4.3.7.5 1.7 1.2 1.8.9 0 1-1.1 1.3-1.8l1-2.1c3.4-9.6 5-19.4 6.1-29.4m-87.9-11.6c-.6 2.3-.4 4.5-.2 6.7 1.3 12.2 4.3 23.9 8.6 35.3 1.4 3.6 2.9 7.2 5.4 10.1.8 1 1.5 1 2.2 0 1-1.7 2-3.4 2.5-5.4-3.4.4-4.2.1-6-3-.6-1-1.2-2.2-1.6-3.5-3.8-10.7-6-21.8-7.2-33.1-.3-2.9-1.2-5.2-3.7-7m77.7 46.7c.4 1.6 1.6 4.2 2.4 5.3.7.8 1.3 1 2 .1 1.3-1.2 2.2-2.6 3-4.2 6.2-13.5 9.8-27.8 11.3-42.5a11 11 0 0 0-.5-5.6c-1.2 1.6-2.9 2.7-3.1 4.7-.8 7.1-1.9 14.2-3.5 21.2-1.4 6-2.8 12.1-5.6 17.8-1.5 3-2.5 3.5-6 3.2m-56-20.9h.4l2.4-11c0-.5-.3-1-.5-1.5-2.3-4.8-4.7-9.5-7.4-14-1.9-3.3-3.9-6.5-6.5-9.3-1-1.2-1.5-.8-1.9.4-.6 2-.9 3.9-1 5.9 0 2-.5 4.2 1 6.2 3.3 4.4 6 9.2 8.6 14l5 9.3m52.3.5l.5-.9c4.3-8 8.4-16.3 13.8-23.7.2-.2.5-.6.5-.9 0-3.7 0-7.3-1.2-10.9-.3-.8-.7-.8-1.3-.3-.8.9-1.6 1.7-2.3 2.7-5 6.6-8.5 14-12.1 21.3-.3.5-.4 1-.3 1.6l2.4 11.1m-31.4 42.1l3.1-6.2c.3-.5 0-.9-.2-1.3l-3.7-8-10.6-23.9-2.9-6.2c-1 3-1.7 6-2.5 8.9-.4 1.3-.2 2.3.4 3.5l12.2 25.2c1.3 2.7 2.2 5.5 4.2 8m25.3-45.6c-.8.3-.8 1-1 1.5-1.3 2.6-2.4 5.3-3.6 8-4.3 9.5-8.4 19.1-13 28.5-.1.4-.3.8 0 1.3l3 6.3.6-.7 16.3-33.6c.2-.4.3-.8.2-1.3l-2.5-10m-81 39.9l.4.8a214 214 0 0 0 24 28c3 2.8 6.3 5.3 10 7.2 4.4 2.2 8.5 1.9 12.4-1 5-3.8 8.4-9 11.6-14.2.2-.4.4-.8.1-1.3l-3.4-5.8a54.6 54.6 0 0 1-5.8 7.5c-2.7 2.9-5.8 5-9.8 5.6-5 .8-9.6-.8-13.8-3.3a85 85 0 0 1-16.2-13.5l-9.5-10m122.1.4c-.8 0-1 .4-1.2.7-4 4.5-8.1 8.9-12.6 13a62.1 62.1 0 0 1-14.9 10.9 16.9 16.9 0 0 1-20.9-4c-2-2.2-3.6-4.7-5.5-7.2l-3.3 5.6c-.4.6-.2 1 0 1.5 2.9 4.6 6 9.1 10 12.8 3.8 3.4 8.1 5 13.2 2.6a40 40 0 0 0 10.6-7.4c9.2-8.5 16.9-18.4 24.6-28.5m-61-5.7l5.3-12.2c4-9.4 8-18.8 12.3-28 .4-1 .4-1.8.1-2.8-2-7.4-4.2-14.8-7.2-21.8a43 43 0 0 0-8.4-14.3c-1.9-1.8-2.4-1.8-4.3 0-3.2 3.2-5.3 7.2-7.1 11.2a172 172 0 0 0-8.6 25.1c-.2.8-.1 1.5.2 2.3l13.4 30.9 4.3 9.6M699.7 102c-1 2.7-1.7 5.4-2.8 8a20 20 0 0 1-1.7 3.3c-2 3-5.8 3.3-8.3.7a33 33 0 0 1-5.8-10.2 148.2 148.2 0 0 1-10-35.8c-.4-2.7-.6-5.4.1-8.1.5-1.7 1.8-2.3 3.4-2.4 1.2 0 2.4-.1 3.5.4.9.3 1 0 1-.8 0-1.7.2-3.5.7-5.2 1-3.9 5-5.3 8.4-3.2 3 1.8 4.8 4.7 6.7 7.4 2.4 3.7 4.5 7.5 6.4 11.4.2.5.4 1 1 1.4 1-3.6 1.9-7.2 3-10.6a53 53 0 0 1 8.8-18.4c2.4-3 5.5-4.6 9.5-4.1 1.3.1 2.7-.2 4 0 4.2.8 6.8 3.7 8.8 7a93 93 0 0 1 9.3 24.7l.4 1.6c1.6-3 3-5.7 4.6-8.4 2-3.6 4.1-7 7-10 1.8-2 4-3.2 7-2.8 2 .3 3.2 1.5 3.7 3.4.5 1.8.7 3.7.8 5.6 0 .8 0 1.2 1.1 1 5.6-1.2 7.3.1 7.2 5.8a78.1 78.1 0 0 1-3.1 18.4c-2.4 9-5.1 17.8-9.3 26.1a22 22 0 0 1-4 6c-2.4 2.4-6 2-7.9-.7-2-2.8-2.8-6-3.9-9.3-.2-.7-.2-1.5-.9-2.3l-3.1 6.5-12.7 24.7c-.3.7-.7 1.3-.2 2 2.3 3.8 4.6 7.6 8 10.6 5.5 5 9.6 4.6 16.1.4a78 78 0 0 0 15.1-13.4c12.3-13.3 23.1-27.8 34.6-41.8l.8-.9c3.6-4.1 4.3-4.3 9.6-3.1 1.5.3 1 1.2.5 2-1.4 2.2-2.7 4.5-4.3 6.7a459.3 459.3 0 0 1-34 44.3 99.4 99.4 0 0 1-21 19.3c-5.2 3.3-10.8 5.3-17.1 3.6a24 24 0 0 1-11.7-8.6 59.4 59.4 0 0 1-4-5.4c-.8-1-1.1-.8-1.7 0a54.7 54.7 0 0 1-7.5 9.1c-7 6.8-15.4 7-23.4 2.4a83.6 83.6 0 0 1-19.8-17c-9-9.8-17.2-20.2-25-30.8-5.8-7.7-11.6-15.3-16.3-23.7-1-1.5-.8-1.8 1-2l4.5-.5c1.3-.1 2 .8 2.7 1.6l8.4 10c7.4 9.3 14.7 18.7 22.5 27.6 4.9 5.7 9.9 11.3 15.5 16.2 3.2 2.8 6.6 5.3 10.6 6.9 4.2 1.6 7.7.3 11-2.4 3.5-3 6-7 8.4-11 .3-.4.4-.9 0-1.5l-16-31.6-.2-.1M595.3 275.9l1.9-3.4v-.5l-1.9-3.4-1.7 3.3c-.2.3 0 .6 0 .9l1.7 3.1m-22.2-37.8v1a90.2 90.2 0 0 0 4 17c.2.3.3.8.8.7.3 0 .4-.5.5-.8l1-2.7c.6-1.7.4-3.2-.5-4.8-2-3.3-3.6-6.8-5.8-10.4m44.5.1a160.5 160.5 0 0 0-6.8 13c.4 1.5.8 3.1 1.4 4.6.2.4.3 1 .7 1 .5 0 .5-.6.7-1l.6-1.2a73.1 73.1 0 0 0 3.4-16.4m-49-6.4a9.9 9.9 0 0 0-.1 3.7c.7 6.8 2.4 13.3 4.8 19.7.7 2 1.5 4 3 5.6.4.6.8.6 1.2 0a10 10 0 0 0 1.4-3c-2 .3-2.4 0-3.3-1.6l-1-2c-2-6-3.3-12.2-4-18.5-.1-1.5-.6-2.8-2-3.9m43.3 26c.2 1 .9 2.4 1.3 3 .4.5.7.6 1.2.1.6-.7 1.2-1.5 1.6-2.3a74 74 0 0 0 6.3-23.8c0-1 .2-2-.3-3-.7.9-1.6 1.4-1.7 2.6-.4 4-1 7.9-2 11.8-.7 3.4-1.5 6.7-3 9.9-1 1.7-1.5 2-3.4 1.8m-31.2-11.7h.2l1.3-6a116 116 0 0 0-4.4-8.7c-1-1.9-2.1-3.7-3.6-5.2-.6-.7-.8-.5-1 .2-.4 1-.6 2.2-.6 3.3 0 1.1-.3 2.3.5 3.4 1.9 2.5 3.4 5.2 4.8 7.9l2.8 5.1m29.2.3l.3-.5c2.3-4.5 4.6-9 7.7-13.2l.2-.5c0-2 0-4.1-.7-6-.1-.5-.4-.5-.7-.2l-1.3 1.4c-2.7 3.7-4.7 7.8-6.7 12-.2.2-.2.5-.2.8l1.4 6.2M592.4 270l1.7-3.5v-.7l-2.2-4.5L586 248l-1.6-3.4c-.6 1.7-1 3.3-1.4 4.9-.2.7-.1 1.3.2 2l6.8 14c.8 1.5 1.3 3 2.4 4.5m14-25.4c-.4.1-.4.5-.5.8l-2 4.5-7.2 15.9c-.1.2-.2.4 0 .7.5 1.1 1 2.3 1.7 3.5l.3-.4 9-18.7.2-.7-1.4-5.6m-45.1 22.2l.1.4c4.2 5.5 8.4 11 13.4 15.6 1.7 1.6 3.6 3 5.6 4a6 6 0 0 0 6.9-.5 27 27 0 0 0 6.5-7.9c.1-.2.2-.5 0-.7l-1.9-3.2c-1 1.5-2 2.9-3.2 4.1a9.7 9.7 0 0 1-5.5 3.1c-2.8.5-5.3-.4-7.6-1.8-3.4-2-6.3-4.8-9-7.5l-5.3-5.6m68 .2c-.4 0-.5.3-.7.4a120 120 0 0 1-7 7.2 34.6 34.6 0 0 1-8.3 6.1 9.4 9.4 0 0 1-11.6-2.2c-1.2-1.2-2.1-2.6-3.2-4l-1.8 3.1c-.2.3-.1.6 0 .9 1.6 2.5 3.3 5 5.6 7 2.1 2 4.5 2.8 7.4 1.5 2.2-1 4.1-2.4 5.9-4 5.1-4.8 9.4-10.3 13.7-16m-34-3.2l3-6.7c2.2-5.3 4.4-10.5 6.8-15.7.2-.5.2-1 0-1.5-1.1-4.1-2.3-8.2-4-12.2a24 24 0 0 0-4.7-8c-1-1-1.3-1-2.4.1-1.8 1.8-3 4-4 6.2-2 4.5-3.4 9.2-4.7 14-.1.4 0 .8.1 1.3l7.5 17.2 2.4 5.3m-13.7-9.3c-.5 1.5-.9 3-1.5 4.4a11 11 0 0 1-1 1.9 2.9 2.9 0 0 1-4.6.3 18.5 18.5 0 0 1-3.2-5.6c-2.7-6.4-4.6-13-5.6-20a11 11 0 0 1 0-4.5c.3-1 1-1.3 2-1.3.6 0 1.3 0 1.9.2.5.2.5 0 .5-.4 0-1 .1-2 .4-3 .6-2.1 2.8-2.9 4.7-1.7 1.7 1 2.7 2.6 3.7 4.1 1.4 2 2.5 4.2 3.6 6.4.2.2.2.5.5.7.6-2 1.1-4 1.8-5.9 1.1-3.6 2.3-7.2 4.8-10.2 1.4-1.7 3.1-2.6 5.3-2.3h2.3c2.3.5 3.7 2 4.9 4 2.6 4.2 3.9 8.9 5.1 13.6l.3 1 2.5-4.7c1.1-2 2.3-4 4-5.7 1-1 2.2-1.7 3.8-1.5 1.1.2 1.8.9 2.1 2 .3 1 .4 2 .5 3 0 .5 0 .7.6.6 3.1-.7 4 0 4 3.2a74.6 74.6 0 0 1-6.9 24.8c-.6 1.3-1.3 2.4-2.2 3.4-1.4 1.3-3.4 1.1-4.4-.4-1.1-1.6-1.6-3.4-2.2-5.2-.1-.4-.2-.8-.5-1.3L607 258l-7 13.8c-.2.4-.4.7-.2 1.2 1.3 2 2.6 4.2 4.5 5.8 3 2.8 5.4 2.6 9 .3 3.2-2 5.9-4.8 8.4-7.5 6.8-7.4 12.9-15.5 19.3-23.3l.4-.5c2-2.3 2.4-2.4 5.4-1.7.8.2.5.6.3 1l-2.4 3.8a255.7 255.7 0 0 1-19 24.7c-3.5 4-7.1 7.9-11.7 10.8-3 1.8-6 3-9.5 2-2.8-.8-4.7-2.7-6.5-4.8l-2.3-3c-.4-.6-.6-.5-1 0a30.4 30.4 0 0 1-4 5c-4 3.8-8.7 3.9-13.2 1.4-4.3-2.4-7.7-6-11-9.6-5-5.4-9.5-11.2-14-17-3.1-4.4-6.4-8.6-9-13.3-.5-.8-.4-1 .5-1l2.6-.4c.7 0 1 .5 1.5 1l4.6 5.5c4.2 5.2 8.2 10.4 12.6 15.4 2.7 3.2 5.5 6.3 8.7 9 1.7 1.6 3.6 3 5.8 3.8 2.4 1 4.4.2 6.1-1.3 2-1.7 3.4-3.9 4.7-6 .2-.4.3-.6.1-1l-9-17.5v-.1M711.4 253.8c.4-.5.5-1 0-1.6-.5-.4-.9-1-1.2-1.6l-2.4-3.5-.6 1.8c-.3.7 0 1 .4 1.5 1.3 1 2.5 2.2 3.8 3.4m28.5-6.7a54.2 54.2 0 0 1-3.5 5.2c-.5.5-.5 1-.1 1.5l1.4-1.3c.5-.4 1-1 1.5-1.3 1.6-1 1.7-2.3.9-3.8l-.2-.3m-37-8l.5 4.3.7 4c0 .2 0 .4.3.4.1.1.2 0 .3-.2l1-3.5v-.5l-2.7-4.5m40.2 8.8h.3c.7-2.9 1-5.8 1.4-8.8a95.8 95.8 0 0 0-3 5c.5 1.2 1 2.5 1.3 3.8m-37 5c-.2.6-.6 1.3-.4 1.8.4 2 1 4 2 5.8.4.6.7.5 1 0 .6-1 1-2 1.5-3.1l-.1-.6c-1.3-1.3-2.5-2.7-4-4m35.9 1.9l-.3-1c0-.8-.4-.8-.8-.3l-3.3 3.2c-.1.2-.4.4-.2.6.4 1.2.8 2.4 1.6 3.4.2.4.5.4.7 0 1.1-1.8 1.7-3.9 2.3-6m-11.4-14.9c.8-1.7 1.4-3.3 2.2-4.8.5-1 .3-1.6-.4-2.3-2.7-2.2-3.7-2.3-6.2-1-.6.3-.9.6-.2 1.2l1.4 1.7c1.2 1.5 2.1 3.3 3.2 5.2m-13.6.1a29.2 29.2 0 0 1 4.8-7.2c.2-.2.3-.5 0-.6-1.1-.8-2.3-1.5-3.8-1a7.8 7.8 0 0 0-3.4 2.3c-.2.2-.3.5-.2.8l2.6 5.7m-20 7.4c1.3 4.8 2.7 9.5 4.4 14.3l1.5-7.4c.7-2.8.2-4-2.3-5.4-1.1-.6-2.2-1.2-3.7-1.5m49.2 14.2l.1-.3c1.7-4.3 3-8.8 4.2-13.3.2-.7-.2-.6-.6-.4-1.4.5-2.7 1.3-4 2-1.4.9-1.6 2.2-1.4 3.5l1.7 8.5m-15.9-16.9l-1.5 3c-1 2-2 4-3.4 5.8-.6.8-.5 1.3.2 2 2.1 2.2 4 2.2 6.1.2l1.6-1.7c.5-.4.6-1 .3-1.6l-2.1-5.2c-.3-.8-.6-1.6-1.2-2.5m-12.9 0l-.2.2c-1.2 2.6-2.2 5.3-3.2 8-.1.3 0 .6.2.8 1 1.2 2 2.3 3.4 3 1 .7 2.2.7 3.2 0l1.7-1.6c.4-.5.4-.8 0-1.2a36.9 36.9 0 0 1-3.2-5.5l-1.9-3.6m17.2-9.3l-2.4 5.1c-.5 1-.5 1.7 0 2.7l1 2.3 2.2 5.8c.9-1.4 1.6-2.8 2.5-4 1.2-1.5 1.4-3 .5-4.7-1.1-2.4-2.2-5-3.8-7.2m-21.5 0c-2 3-3.3 6-4.4 9.1-.2.5 0 .8.1 1l2.4 4c.4.5.7 1.1 1.3 1.6 1-3 2.2-6 3.4-8.9.1-.2.2-.5 0-.7l-2.8-6.1m-19.4-9.6l-.2 2.1c.1 5.7 1.5 11.2 2.9 16.7 0 .3 0 .6.5.6 1.7.3 3.5.7 5.2 1.5l-.1-1c-.6-3-1-6.2-1.5-9.4 0-.7 0-1.5-.5-2.1l-2.5-3.8a25.6 25.6 0 0 0-3.8-4.6m51.9 21.1c1.6-1.1 3.2-1.3 4.8-1.6.6-.1 1-.3 1-1 1.3-4.8 2.4-9.6 2.8-14.6a9 9 0 0 0-.2-3.7c-.4 0-.6.4-.8.6-2 2.2-3.6 4.8-5.3 7.3-.4.7-.6 1.3-.6 2l-1 6.3-.7 4.7m-16.2-4.3l-.1-.4a32.1 32.1 0 0 0-5-7.9c-.3-.3-.5-.4-.9 0-2 2.4-3.5 5-5 7.8v.9c1.5 3.2 3 6.4 5 9.5.4.6.6.7 1 0 1.9-3 3.3-6.1 4.8-9.3l.2-.6m-16 12.2c-.4.5-.5.8 0 1.3 3.5 4 6.7 8.3 9.8 12.7.7.9.7.9 1.3 0 3.2-4.4 6.4-8.7 10-12.7.4-.5.3-.8 0-1.2-.5.1-.8.5-1 .8-2.9 2.6-6.3 3-9 .2-.6-.6-1-.2-1.3.2-2.3 2.1-5 2.4-7.6.6-.8-.5-1.5-1.2-2.3-1.9m-6.7-13l.3-.7a28 28 0 0 1 4.7-8c.4-.3.2-.7 0-1-1.3-2.8-2.7-5.6-4.2-8.2a22 22 0 0 0-3.5-4.8c-.5-.6-.9-.5-1.1.1-.3.7-.5 1.3-.6 2-.4 2.4-.5 5-.3 7.4.1 2.8-.1 5.6 1.7 8 1.2 1.5 2 3.3 3 5.1m34.5 0a2291.5 2291.5 0 0 0 4.4-8c.3-2.8.5-5.6.4-8.4 0-2-.2-4-.8-5.8-.4-1-.6-1-1.3-.4a16 16 0 0 0-2.2 2.8c-1.9 2.8-3.4 6-4.9 9-1 2.2-1.1 1.6.4 3.4l.3.4c1.5 2.2 2.6 4.5 3.7 7M704.9 258l-.8 4c-.3 2.2-1 4.4.1 6.7 1.7 3.1 3 6.6 5.3 9.4 2.6 3.2 4 3.4 7 .6 2-1.9 3.5-4 5.2-6.1.7-.8.5-1.4 0-2l-4-5c-1.8-2.3-3.5-4.5-5.4-6.5-.5-.6-.7-.4-1 0-.2.7-.5 1.2-1 1.7-1 1.6-3 1.6-4-.1-.6-.8-.8-1.7-1.4-2.7m38 .2c-.6 1-1 2-1.6 2.8a2.4 2.4 0 0 1-3.8 0 7 7 0 0 1-1-1.8c-.3-.7-.6-.7-1-.1-3 3.4-5.8 7-8.6 10.4-1.5 2-1.6 2 0 4v.3c1.7 2.1 3.4 4.2 5.5 5.9 1.7 1.3 2.9 1.3 4.5-.1.6-.5 1-1.1 1.5-1.7a44 44 0 0 0 5.5-10.2c.2-.5.5-1 .4-1.6l-1.4-8m-52.6 2.3c.2 6.3 1 12 3.1 18.7a28 28 0 0 0 3.3 7.5c.1.1.2.4.5.4.2 0 .3-.3.4-.6l.8-2.7c1-5.4 1.4-10.8 2.2-16.3.2-.8.3-1.7 0-2.5l-1.9-4.7c-1.4-4-2.7-8-3.8-12-.2-.7-.4-.8-1-.4-.8.8-1.5 1.7-2 2.7-1.3 3.1-1.5 6.5-1.6 9.9m67.2 0l-.2-3c0-2.4-.6-4.7-1.5-7-.4-.9-1-1.8-1.9-2.5-.6-.4-.8-.4-1 .4a184 184 0 0 1-5.1 15.2c-.4 1-1 1.8-.9 2.9l2.1 15.4c.3 1.5.6 3.1 1.1 4.6.1.2.2.5.4.6.4 0 .5-.3.6-.5a65 65 0 0 0 6.4-26m-57.8-30.6c.2-2.3 0-4.5.2-6.7 0-1.3.2-2.5.6-3.7.6-2.2 3-2.9 4.9-1.4 1.4 1.2 2.4 2.8 3.4 4.4 1.5 2.6 2.9 5.3 4.1 8.1.3.7.6.7 1.2.3 2.6-1.8 5.5-2 8.4-.7 1 .5 1.6.6 2.6 0 3-1.4 6-1.1 8.6.7.7.5.9.3 1.2-.3 1.7-3.7 3.4-7.5 6-10.9.8-1.1 1.8-2.2 3.4-2.3 1.6-.1 2.5.5 3 2.1.8 2.7.6 5.5.6 8.3v2.2c1.2-1.6 2.1-3.1 3.4-4.4 1-1.1 2.3-1.7 3.8-1.4 1 .2 1.5.8 1.7 1.8.4 2.6 0 5.1-.5 7.7-.6 3.6-1.4 7.2-2.4 10.8-.2.6 0 .8.6 1 2.7.6 4.3 2.4 5.3 4.9 1.5 3.9 1.5 8 1.2 12a67.4 67.4 0 0 1-7 23.5c-.6 1-1.3 2-2.6 2.4-1.7.5-2.9-.1-3.5-1.8-.7-2-1-4.1-1.4-6.2L745 271l-.1-.6c-.8 1.4-1.4 2.8-2.2 4a17.3 17.3 0 0 1-4.8 6.2 5.8 5.8 0 0 1-5.4.7c-1.8-.6-3.2-1.8-4.5-3a48.7 48.7 0 0 1-3.7-4.3c-.4-.5-.6-.5-1 0-1.5 1.8-3 3.7-4.8 5.2-1.9 1.6-3.9 2.8-6.5 2.3-2-.3-3.4-1.7-4.7-3.2-1.7-2.2-3-4.7-4.2-7.2l-.4-.6c-.4 1.1-.4 2.2-.6 3.2-.5 3.7-1 7.5-1.9 11.1a13 13 0 0 1-.5 1.8c-.9 2.1-3 2.6-4.7 1-1.4-1.3-2.2-3-3-4.7-3-7-4.8-14.1-5.4-21.7-.2-3.6 0-7.2 1.2-10.7 1-2.5 2.6-4.3 5.3-5 .7-.2.8-.4.6-1.1-1-3.8-2-7.6-2.5-11.5-.3-2.1-.7-4.2-.4-6.4.4-2.3 2.5-3.2 4.5-1.8 1.5 1 2.5 2.6 3.6 4l.7 1.2M857.7 285.3c2.8-.6 4.6-2.5 6.2-4.6-2 1.6-4 3.3-6.2 4.6m-12.1-4.9c1.9 2.9 5.1 5.2 6.5 4.9a19 19 0 0 1-3.3-2.2l-3.2-2.7m11-41c-.6 1-1 2-.3 3.3l1.6 3.8c1.2 3 2.4 6.2 4.2 9 .5.8 1 1.7 1.7 2.3-2-6.2-4.2-12.4-7.1-18.5m-3.7 0c-3 6-5.1 12.3-7.2 18.5a6 6 0 0 0 1.6-2c2.4-4 4-8.6 6-13 .5-1.3.4-2.3-.4-3.5m-26.6 0c3.8 10.4 7.8 20.8 12.9 30.8l.2-.2 2.7-8.9c.2-.4 0-.6-.4-.7-1.1-.3-2-1-2.9-1.7l-1-.8-.1.8c0 .9-.6 1-1.3 1-.7.1-.8-.4-.9-1l-.4-2.9c-.1-.7 0-1.5-.5-2.3-2.3-3.3-4.2-7-6.2-10.5-.7-1.2-1.2-2.6-2.1-3.6m43.9 31c5.1-10.3 9.3-20.8 13.2-31.5-.3 0-.3.2-.4.4-2.2 4.1-4.4 8.3-6.9 12.3-.7 1.2-1.8 2.4-1.8 4l-.3 3c-.1.6-.1 1.1-1 1.1-.8 0-1.2-.3-1.2-1 0-1-.4-.7-.8-.3-1 .9-2 1.7-3.3 2-.5.1-.4.5-.3.8l2.8 9.3m2.9-19.2v-.8c.3-5.1.4-10.2 0-15.3-.1-3.9-.5-7.7-1.4-11.4a9.5 9.5 0 0 0-2.1-4.4c-.6-.6-1.1-.7-1.8-.1-2.4 1.8-3.8 4.4-5.2 6.9-.3.5 0 .5.4.6.6 0 1.3.1 1.9.5 2.2 1 3.3 3 4.3 5.2 1.4 3.3 2 6.7 2.7 10.2l1.2 8.6m-36.5 0v-1c.4-3.8.9-7.6 1.7-11.4.8-3.2 1.6-6.3 3.4-9 1-1.5 2.3-2.7 4-3 1.4-.3 1.4-.3.7-1.6-1.1-2-2.3-4-4-5.5-1.4-1.3-2.3-1.1-3.2.5l-.1.2c-1.1 2-1.6 4.4-2 6.7a94 94 0 0 0-.5 24.1m34.8 4l-.5-5a71.4 71.4 0 0 0-3.3-15.4c-.8-2.2-1.8-4.3-3.4-6-1.4-1.3-2.5-1.2-3.3.5l-2.8 6.2c-.2.5-.3.9 0 1.3a172.1 172.1 0 0 1 8.5 21.8c.3 1 .5 1.1 1.4.5 1.3-.9 2.2-2 3.2-3.1.1-.3.3-.5.2-.8m-33.4-.1c0 .2 0 .5.2.7 1 1.3 2 2.5 3.4 3.4.7.5 1 .4 1.3-.5 2.4-7.5 4.8-15 8.6-22v-1c-1-2.3-2-4.7-3.2-7-.5-.9-1-1-2-.6-.4.3-.8.5-1.1 1a13 13 0 0 0-3 4.6c-2.6 6.9-3.3 14.2-4.2 21.4m-25.4-4.6c0 2.7 1 5.5 1.9 8.2 2 5.8 4.8 11.2 8 16.4a36 36 0 0 0 5.8 7.3c2.7 2.6 4.3 2.5 6.3-.6 1.7-2.6 2.7-5.5 3.6-8.3.2-.5 0-.7-.3-1l-2.8-3c-4.1-4.7-8.2-9.3-12.7-13.6-2.4-2.4-5-4.7-7.8-6.7-.5-.3-1.1-.9-1.6-.6-.4.2-.5 1-.4 2m84.3-.1v-.2c0-.6 0-1.5-.5-1.7-.4-.3-1 .3-1.5.6a48.5 48.5 0 0 0-6.5 5.3c-6 5.7-11.3 12-16.8 18-.4.4-.5.7-.3 1.2l2 5.3c.8 1.7 1.6 3.3 3 4.6.9.7 1.7.8 2.7.3 2-1 3.5-2.7 4.9-4.5a77 77 0 0 0 10.5-19.2c1.3-3.1 2.3-6.3 2.5-9.7m-42.2-7l-1 2.7c-1.5 3.4-3 6.8-4.9 10-1 1.5-2 3-3.7 3.8-.2.1-.3.4-.4.7l-3.6 11c-.1.4 0 .7.3 1 1.1 1.3 2.1 2.6 3.3 3.8 2.4 2.6 4.8 5.2 7.7 7.2 2.1 1.5 2.6 1.5 4.7 0h.1c4.3-3.2 7.6-7.2 11-11 .3-.4.2-.7 0-1.1L865 261a2 2 0 0 0-1-1.3 7 7 0 0 1-2.1-2c-2-2.6-3.3-5.5-4.6-8.4l-2.5-5.8m-21.5 19.3l-4.4-10c-3-7.3-6-14.6-8.4-22.1l-.2-.7c-.6-2-.2-2.4 2-2.4.5 0 .8.4 1 .8 1 1.4 1.8 3 2.6 4.6l6.5 12.8 2.2 4.1v-3c-.3-6.3-.3-12.5.4-18.7.4-2.7.8-5.3 1.9-7.8 1.6-3.6 5.4-3.5 7.8-1a30 30 0 0 1 4.5 6.7c.3.6.7 1 1.2 1.2 1.6.7 2.8 1.9 3.8 3.2.5.6.8.7 1.2 0 1.2-1.5 2.5-2.7 4.3-3.4.5-.2.6-.6.8-1 1.2-2.3 2.5-4.5 4.3-6.4 1.4-1.6 3.1-2.5 5.4-1.9 1.7.6 2.4 2.1 3 3.6 1.2 3.3 1.5 6.7 1.8 10.2.3 4.6.3 9.2.2 13.8l-.2 4.3c.4-.1.5-.5.6-.7 3-5.5 5.8-11.2 8.6-16.8.6-1.3 1.3-2.4 2-3.6.4-.8 1-1.1 1.8-.9.2.1.5.2.7.1 1 0 1 .5.9 1.3-.7 2.9-1.7 5.7-2.7 8.4-3 8-6.2 15.7-9.7 23.5l-.8 2 4.9-5.4c3-3.3 6.2-6.6 9.9-9.2 2.1-1.5 4.4-2.5 7.2-2 2.2.4 2.8 2 2.6 4-.3 3.6-1.6 6.9-3 10-2.3 5.3-5 10.2-8.2 14.9a39.1 39.1 0 0 1-6.3 7.4 8.3 8.3 0 0 1-5.5 2.5c-2.3 0-3.8-1.2-5-3-1.2-1.9-2.1-4-3-6 0-.2 0-.4-.2-.6-.4.3-.6.8-.8 1.1a29.5 29.5 0 0 1-6 7.4 8.6 8.6 0 0 1-7 2.2c-1.2-.2-2.5.1-3.8 0a10 10 0 0 1-6.4-3c-2.3-2.2-4-4.8-5.6-7.4l-.3-.4-1 2.4c-.8 1.7-1.6 3.4-2.7 4.9-2.3 3.1-6 2.8-8.6 1a34 34 0 0 1-8.2-9.2 86 86 0 0 1-6.7-11.7c-1.5-3.4-3-6.8-3.7-10.4a9 9 0 0 1-.2-3.9c.2-1.2 1-1.8 2.1-2 2.8-.9 5.2 0 7.4 1.6 3.8 2.7 7 6 10.2 9.5l4.7 5.2" fill="#384040"/></g></svg>