<svg xmlns="http://www.w3.org/2000/svg" width="631" height="271" viewBox="0 0 631 270.8"><style>.a{fill:none;stroke:#384040;}.b{fill:#384040;}</style><rect x="213.5" y="-230.5" width="68" height="136" class="a"/><rect x="2091.9" y="-230.5" width="68" height="136" class="a"/><rect x="1213.9" y="-230.5" width="68" height="136" class="a"/><rect x="1281.9" y="-230.5" width="68" height="136" class="a"/><rect x="1349.9" y="-230.5" width="68" height="136" class="a"/><path d="M830.1 73.5l9.7 24.3 9.7-24.3h5.1v29.8h-3.9V91.7l0.4-12.5 -9.8 24.1h-3l-9.8-24.1 0.4 12.5v11.6h-3.9V73.5H830.1z" class="b"/><rect x="805.9" y="55.5" width="68" height="68" class="a"/><path d="M843 35.3h-3.8V10l-7.6 2.8V9.4l10.8-4.1h0.6V35.3z" class="b"/><path d="M986.1 35.3H966.6v-2.7l10.3-11.5c1.5-1.7 2.6-3.1 3.2-4.2 0.6-1.1 0.9-2.2 0.9-3.4 0-1.6-0.5-2.8-1.4-3.8 -0.9-1-2.2-1.5-3.8-1.5 -1.9 0-3.3 0.5-4.4 1.6 -1 1.1-1.6 2.6-1.6 4.5h-3.8c0-2.7 0.9-5 2.7-6.6 1.8-1.7 4.1-2.5 7.1-2.5 2.8 0 5 0.7 6.6 2.2 1.6 1.5 2.4 3.4 2.4 5.8 0 2.9-1.9 6.4-5.6 10.5l-8 8.7h15V35.3z" class="b"/><path d="M1108.1 18.5h2.8c1.8 0 3.2-0.5 4.2-1.4 1-0.9 1.5-2.1 1.5-3.7 0-3.5-1.7-5.2-5.2-5.2 -1.6 0-2.9 0.5-3.9 1.4 -1 0.9-1.5 2.2-1.5 3.7h-3.8c0-2.4 0.9-4.3 2.6-5.9 1.7-1.6 3.9-2.3 6.6-2.3 2.8 0 5 0.7 6.6 2.2 1.6 1.5 2.4 3.6 2.4 6.2 0 1.3-0.4 2.6-1.3 3.8s-2 2.1-3.4 2.7c1.6 0.5 2.9 1.4 3.8 2.6 0.9 1.2 1.3 2.7 1.3 4.4 0 2.7-0.9 4.8-2.6 6.4 -1.7 1.6-4 2.4-6.8 2.4 -2.8 0-5.1-0.8-6.8-2.3s-2.6-3.5-2.6-6h3.8c0 1.6 0.5 2.8 1.5 3.8 1 0.9 2.4 1.4 4.1 1.4 1.8 0 3.2-0.5 4.2-1.4s1.5-2.3 1.5-4.1c0-1.7-0.5-3.1-1.6-4 -1.1-0.9-2.6-1.4-4.6-1.4h-2.8V18.5z" class="b"/><path d="M1254.6 25.3h4.1v3.1h-4.1v6.9h-3.8v-6.9h-13.6v-2.2l13.3-20.6h4V25.3zM1241.5 25.3h9.3V10.7l-0.4 0.8L1241.5 25.3z" class="b"/><path d="M1376.3 20.3l1.5-14.9h15.3v3.5h-12.1l-0.9 8.1c1.5-0.9 3.1-1.3 5-1.3 2.7 0 4.9 0.9 6.5 2.7 1.6 1.8 2.4 4.2 2.4 7.3 0 3.1-0.8 5.5-2.5 7.3 -1.7 1.8-4 2.7-6.9 2.7 -2.6 0-4.8-0.7-6.4-2.2 -1.7-1.5-2.6-3.5-2.8-6.1h3.6c0.2 1.7 0.8 3 1.8 3.9s2.3 1.3 3.9 1.3c1.8 0 3.1-0.6 4.1-1.8 1-1.2 1.5-2.9 1.5-5 0-2-0.5-3.6-1.6-4.8 -1.1-1.2-2.5-1.8-4.3-1.8 -1.7 0-2.9 0.4-3.9 1.1l-1 0.8L1376.3 20.3z" class="b"/><rect x="805.9" y="123.5" width="68" height="68" class="a"/><path d="M966.1 73.5l9.7 24.3 9.7-24.3h5.1v29.8h-3.9V91.7l0.4-12.5 -9.8 24.1h-3l-9.8-24.1 0.4 12.5v11.6h-3.9V73.5H966.1z" class="b"/><rect x="941.9" y="55.5" width="68" height="68" class="a"/><rect x="941.9" y="123.5" width="68" height="68" class="a"/><path d="M1102.1 73.5l9.7 24.3 9.7-24.3h5.1v29.8h-3.9V91.7l0.4-12.5 -9.8 24.1h-3l-9.8-24.1 0.4 12.5v11.6h-3.9V73.5H1102.1z" class="b"/><path d="M1123.8 157.3c0 2.9-0.5 5.5-1.5 7.6s-2.4 3.8-4.2 5c-1.8 1.1-3.9 1.7-6.3 1.7 -2.3 0-4.4-0.6-6.2-1.7 -1.8-1.2-3.2-2.8-4.2-4.9s-1.5-4.6-1.5-7.4v-2.1c0-2.9 0.5-5.4 1.5-7.6 1-2.2 2.4-3.9 4.2-5 1.8-1.2 3.9-1.7 6.3-1.7 2.4 0 4.5 0.6 6.3 1.7 1.8 1.2 3.2 2.8 4.2 5s1.5 4.7 1.5 7.6V157.3zM1119.9 155.4c0-3.5-0.7-6.2-2.1-8.1 -1.4-1.9-3.4-2.8-6-2.8 -2.5 0-4.4 0.9-5.9 2.8 -1.4 1.9-2.2 4.5-2.2 7.9v2.2c0 3.4 0.7 6.1 2.2 8.1s3.4 2.9 5.9 2.9c2.5 0 4.5-0.9 5.9-2.8s2.1-4.5 2.1-8V155.4z" class="b"/><rect x="1077.9" y="55.5" width="68" height="68" class="a"/><rect x="1077.9" y="123.5" width="68" height="68" class="a"/><polyline points="1145.9 157.5 1179.9 157.5 1179.9 259.5 907.9 259.5 907.9 89.5 879.9 89.5 " class="a"/><path d="M873.9 89.5c2.8-1.1 6.4-2.9 8.5-4.8l-1.7 4.8 1.7 4.8C880.2 92.4 876.7 90.6 873.9 89.5z" class="b"/><path d="M1238.1 73.5l9.7 24.3 9.7-24.3h5.1v29.8h-3.9V91.7l0.4-12.5 -9.8 24.1h-3l-9.8-24.1 0.4 12.5v11.6h-3.9V73.5H1238.1z" class="b"/><path d="M1259.8 157.3c0 2.9-0.5 5.5-1.5 7.6s-2.4 3.8-4.2 5c-1.8 1.1-3.9 1.7-6.3 1.7 -2.3 0-4.4-0.6-6.2-1.7 -1.8-1.2-3.2-2.8-4.2-4.9s-1.5-4.6-1.5-7.4v-2.1c0-2.9 0.5-5.4 1.5-7.6 1-2.2 2.4-3.9 4.2-5 1.8-1.2 3.9-1.7 6.3-1.7 2.4 0 4.5 0.6 6.3 1.7 1.8 1.2 3.2 2.8 4.2 5s1.5 4.7 1.5 7.6V157.3zM1255.9 155.4c0-3.5-0.7-6.2-2.1-8.1 -1.4-1.9-3.4-2.8-6-2.8 -2.5 0-4.4 0.9-5.9 2.8 -1.4 1.9-2.2 4.5-2.2 7.9v2.2c0 3.4 0.7 6.1 2.2 8.1s3.4 2.9 5.9 2.9c2.5 0 4.5-0.9 5.9-2.8s2.1-4.5 2.1-8V155.4z" class="b"/><rect x="1213.9" y="55.5" width="68" height="68" class="a"/><rect x="1213.9" y="123.5" width="68" height="68" class="a"/><path d="M1374.1 73.5l9.7 24.3 9.7-24.3h5.1v29.8h-3.9V91.7l0.4-12.5 -9.8 24.1h-3l-9.8-24.1 0.4 12.5v11.6h-3.9V73.5H1374.1z" class="b"/><path d="M1395.8 157.3c0 2.9-0.5 5.5-1.5 7.6s-2.4 3.8-4.2 5c-1.8 1.1-3.9 1.7-6.3 1.7 -2.3 0-4.4-0.6-6.2-1.7 -1.8-1.2-3.2-2.8-4.2-4.9s-1.5-4.6-1.5-7.4v-2.1c0-2.9 0.5-5.4 1.5-7.6 1-2.2 2.4-3.9 4.2-5 1.8-1.2 3.9-1.7 6.3-1.7 2.4 0 4.5 0.6 6.3 1.7 1.8 1.2 3.2 2.8 4.2 5s1.5 4.7 1.5 7.6V157.3zM1391.9 155.4c0-3.5-0.7-6.2-2.1-8.1 -1.4-1.9-3.4-2.8-6-2.8 -2.5 0-4.4 0.9-5.9 2.8 -1.4 1.9-2.2 4.5-2.2 7.9v2.2c0 3.4 0.7 6.1 2.2 8.1s3.4 2.9 5.9 2.9c2.5 0 4.5-0.9 5.9-2.8s2.1-4.5 2.1-8V155.4z" class="b"/><rect x="1349.9" y="55.5" width="68" height="68" class="a"/><rect x="1349.9" y="123.5" width="68" height="68" class="a"/><path d="M1640.2 73.5l9.7 24.3 9.7-24.3h5.1v29.8h-3.9V91.7l0.4-12.5 -9.8 24.1h-3l-9.8-24.1 0.4 12.5v11.6h-3.9V73.5H1640.2z" class="b"/><rect x="1615.9" y="55.5" width="68" height="68" class="a"/><path d="M1653.1 35.3h-3.8V10l-7.6 2.8V9.4L1652.5 5.3h0.6V35.3z" class="b"/><path d="M1796.2 35.3h-19.5v-2.7l10.3-11.5c1.5-1.7 2.6-3.1 3.2-4.2 0.6-1.1 0.9-2.2 0.9-3.4 0-1.6-0.5-2.8-1.4-3.8 -0.9-1-2.2-1.5-3.8-1.5 -1.9 0-3.3 0.5-4.4 1.6 -1 1.1-1.6 2.6-1.6 4.5h-3.8c0-2.7 0.9-5 2.7-6.6 1.8-1.7 4.1-2.5 7.1-2.5 2.8 0 5 0.7 6.6 2.2 1.6 1.5 2.4 3.4 2.4 5.8 0 2.9-1.9 6.4-5.6 10.5l-8 8.7h15V35.3z" class="b"/><path d="M1918.2 18.5h2.8c1.8 0 3.2-0.5 4.2-1.4 1-0.9 1.5-2.1 1.5-3.7 0-3.5-1.7-5.2-5.2-5.2 -1.6 0-2.9 0.5-3.9 1.4 -1 0.9-1.5 2.2-1.5 3.7h-3.8c0-2.4 0.9-4.3 2.6-5.9 1.7-1.6 3.9-2.3 6.6-2.3 2.8 0 5 0.7 6.6 2.2 1.6 1.5 2.4 3.6 2.4 6.2 0 1.3-0.4 2.6-1.3 3.8s-2 2.1-3.4 2.7c1.6 0.5 2.9 1.4 3.8 2.6 0.9 1.2 1.3 2.7 1.3 4.4 0 2.7-0.9 4.8-2.6 6.4 -1.7 1.6-4 2.4-6.8 2.4 -2.8 0-5.1-0.8-6.8-2.3s-2.6-3.5-2.6-6h3.8c0 1.6 0.5 2.8 1.5 3.8 1 0.9 2.4 1.4 4.1 1.4 1.8 0 3.2-0.5 4.2-1.4s1.5-2.3 1.5-4.1c0-1.7-0.5-3.1-1.6-4 -1.1-0.9-2.6-1.4-4.6-1.4h-2.8V18.5z" class="b"/><path d="M2064.6 25.3h4.1v3.1h-4.1v6.9h-3.8v-6.9h-13.6v-2.2l13.3-20.6h4V25.3zM2051.6 25.3h9.3V10.7l-0.4 0.8L2051.6 25.3z" class="b"/><path d="M2186.4 20.3l1.5-14.9h15.3v3.5h-12.1l-0.9 8.1c1.5-0.9 3.1-1.3 5-1.3 2.7 0 4.9 0.9 6.5 2.7 1.6 1.8 2.4 4.2 2.4 7.3 0 3.1-0.8 5.5-2.5 7.3 -1.7 1.8-4 2.7-6.9 2.7 -2.6 0-4.8-0.7-6.4-2.2 -1.7-1.5-2.6-3.5-2.8-6.1h3.6c0.2 1.7 0.8 3 1.8 3.9s2.3 1.3 3.9 1.3c1.8 0 3.1-0.6 4.1-1.8 1-1.2 1.5-2.9 1.5-5 0-2-0.5-3.6-1.6-4.8 -1.1-1.2-2.5-1.8-4.3-1.8 -1.7 0-2.9 0.4-3.9 1.1l-1 0.8L2186.4 20.3z" class="b"/><rect x="1615.9" y="123.5" width="68" height="68" class="a"/><path d="M1776.2 73.5l9.7 24.3 9.7-24.3h5.1v29.8h-3.9V91.7l0.4-12.5 -9.8 24.1h-3l-9.8-24.1 0.4 12.5v11.6h-3.9V73.5H1776.2z" class="b"/><rect x="1751.9" y="55.5" width="68" height="68" class="a"/><rect x="1751.9" y="123.5" width="68" height="68" class="a"/><path d="M1912.2 73.5l9.7 24.3 9.7-24.3h5.1v29.8h-3.9V91.7l0.4-12.5 -9.8 24.1h-3l-9.8-24.1 0.4 12.5v11.6h-3.9V73.5H1912.2z" class="b"/><rect x="1887.9" y="55.5" width="68" height="68" class="a"/><rect x="1887.9" y="123.5" width="68" height="68" class="a"/><polyline points="2091.9 157.5 2125.9 157.5 2125.9 259.5 1717.9 259.5 1717.9 89.5 1690 89.5 " class="a"/><path d="M1683.9 89.5c2.8-1.1 6.4-2.9 8.5-4.8l-1.7 4.8 1.7 4.8C1690.3 92.4 1686.8 90.6 1683.9 89.5z" class="b"/><path d="M2048.2 73.5l9.7 24.3 9.7-24.3h5.1v29.8h-3.9V91.7l0.4-12.5 -9.8 24.1h-3l-9.8-24.1 0.4 12.5v11.6h-3.9V73.5H2048.2z" class="b"/><path d="M2069.9 157.3c0 2.9-0.5 5.5-1.5 7.6s-2.4 3.8-4.2 5c-1.8 1.1-3.9 1.7-6.3 1.7 -2.3 0-4.4-0.6-6.2-1.7 -1.8-1.2-3.2-2.8-4.2-4.9s-1.5-4.6-1.5-7.4v-2.1c0-2.9 0.5-5.4 1.5-7.6 1-2.2 2.4-3.9 4.2-5 1.8-1.2 3.9-1.7 6.3-1.7 2.4 0 4.5 0.6 6.3 1.7 1.8 1.2 3.2 2.8 4.2 5s1.5 4.7 1.5 7.6V157.3zM2066 155.4c0-3.5-0.7-6.2-2.1-8.1 -1.4-1.9-3.4-2.8-6-2.8 -2.5 0-4.4 0.9-5.9 2.8 -1.4 1.9-2.2 4.5-2.2 7.9v2.2c0 3.4 0.7 6.1 2.2 8.1s3.4 2.9 5.9 2.9c2.5 0 4.5-0.9 5.9-2.8s2.1-4.5 2.1-8V155.4z" class="b"/><rect x="2023.9" y="55.5" width="68" height="68" class="a"/><rect x="2023.9" y="123.5" width="68" height="68" class="a"/><path d="M2184.2 73.5l9.7 24.3 9.7-24.3h5.1v29.8h-3.9V91.7l0.4-12.5 -9.8 24.1h-3l-9.8-24.1 0.4 12.5v11.6h-3.9V73.5H2184.2z" class="b"/><path d="M2205.9 157.3c0 2.9-0.5 5.5-1.5 7.6s-2.4 3.8-4.2 5c-1.8 1.1-3.9 1.7-6.3 1.7 -2.3 0-4.4-0.6-6.2-1.7 -1.8-1.2-3.2-2.8-4.2-4.9s-1.5-4.6-1.5-7.4v-2.1c0-2.9 0.5-5.4 1.5-7.6 1-2.2 2.4-3.9 4.2-5 1.8-1.2 3.9-1.7 6.3-1.7 2.4 0 4.5 0.6 6.3 1.7 1.8 1.2 3.2 2.8 4.2 5s1.5 4.7 1.5 7.6V157.3zM2202 155.4c0-3.5-0.7-6.2-2.1-8.1 -1.4-1.9-3.4-2.8-6-2.8 -2.5 0-4.4 0.9-5.9 2.8 -1.4 1.9-2.2 4.5-2.2 7.9v2.2c0 3.4 0.7 6.1 2.2 8.1s3.4 2.9 5.9 2.9c2.5 0 4.5-0.9 5.9-2.8s2.1-4.5 2.1-8V155.4z" class="b"/><rect x="2159.9" y="55.5" width="68" height="68" class="a"/><rect x="2159.9" y="123.5" width="68" height="68" class="a"/><path d="M2460.3 73.5l9.7 24.3 9.7-24.3h5.1v29.8h-3.9V91.7l0.4-12.5 -9.8 24.1h-3l-9.8-24.1 0.4 12.5v11.6h-3.9V73.5H2460.3z" class="b"/><rect x="2436" y="55.5" width="68" height="68" class="a"/><path d="M2473.2 35.3h-3.8V10l-7.6 2.8V9.4l10.8-4.1h0.6V35.3z" class="b"/><path d="M2616.3 35.3h-19.5v-2.7l10.3-11.5c1.5-1.7 2.6-3.1 3.2-4.2 0.6-1.1 0.9-2.2 0.9-3.4 0-1.6-0.5-2.8-1.4-3.8 -0.9-1-2.2-1.5-3.8-1.5 -1.9 0-3.3 0.5-4.4 1.6 -1 1.1-1.6 2.6-1.6 4.5h-3.8c0-2.7 0.9-5 2.7-6.6 1.8-1.7 4.1-2.5 7.1-2.5 2.8 0 5 0.7 6.6 2.2 1.6 1.5 2.4 3.4 2.4 5.8 0 2.9-1.9 6.4-5.6 10.5l-8 8.7h15V35.3z" class="b"/><path d="M2738.2 18.5h2.8c1.8 0 3.2-0.5 4.2-1.4 1-0.9 1.5-2.1 1.5-3.7 0-3.5-1.7-5.2-5.2-5.2 -1.6 0-2.9 0.5-3.9 1.4 -1 0.9-1.5 2.2-1.5 3.7h-3.8c0-2.4 0.9-4.3 2.6-5.9 1.7-1.6 3.9-2.3 6.6-2.3 2.8 0 5 0.7 6.6 2.2 1.6 1.5 2.4 3.6 2.4 6.2 0 1.3-0.4 2.6-1.3 3.8s-2 2.1-3.4 2.7c1.6 0.5 2.9 1.4 3.8 2.6 0.9 1.2 1.3 2.7 1.3 4.4 0 2.7-0.9 4.8-2.6 6.4 -1.7 1.6-4 2.4-6.8 2.4 -2.8 0-5.1-0.8-6.8-2.3s-2.6-3.5-2.6-6h3.8c0 1.6 0.5 2.8 1.5 3.8 1 0.9 2.4 1.4 4.1 1.4 1.8 0 3.2-0.5 4.2-1.4s1.5-2.3 1.5-4.1c0-1.7-0.5-3.1-1.6-4 -1.1-0.9-2.6-1.4-4.6-1.4h-2.8V18.5z" class="b"/><path d="M2884.7 25.3h4.1v3.1h-4.1v6.9h-3.8v-6.9h-13.6v-2.2l13.3-20.6h4V25.3zM2871.6 25.3h9.3V10.7l-0.4 0.8L2871.6 25.3z" class="b"/><path d="M3006.5 20.3l1.5-14.9h15.3v3.5h-12.1l-0.9 8.1c1.5-0.9 3.1-1.3 5-1.3 2.7 0 4.9 0.9 6.5 2.7 1.6 1.8 2.4 4.2 2.4 7.3 0 3.1-0.8 5.5-2.5 7.3 -1.7 1.8-4 2.7-6.9 2.7 -2.6 0-4.8-0.7-6.4-2.2 -1.7-1.5-2.6-3.5-2.8-6.1h3.6c0.2 1.7 0.8 3 1.8 3.9s2.3 1.3 3.9 1.3c1.8 0 3.1-0.6 4.1-1.8 1-1.2 1.5-2.9 1.5-5 0-2-0.5-3.6-1.6-4.8 -1.1-1.2-2.5-1.8-4.3-1.8 -1.7 0-2.9 0.4-3.9 1.1l-1 0.8L3006.5 20.3z" class="b"/><rect x="2436" y="123.5" width="68" height="68" class="a"/><path d="M2596.3 73.5l9.7 24.3 9.7-24.3h5.1v29.8h-3.9V91.7l0.4-12.5 -9.8 24.1h-3l-9.8-24.1 0.4 12.5v11.6h-3.9V73.5H2596.3z" class="b"/><rect x="2572" y="55.5" width="68" height="68" class="a"/><rect x="2572" y="123.5" width="68" height="68" class="a"/><path d="M2732.3 73.5l9.7 24.3 9.7-24.3h5.1v29.8h-3.9V91.7l0.4-12.5 -9.8 24.1h-3l-9.8-24.1 0.4 12.5v11.6h-3.9V73.5H2732.3z" class="b"/><rect x="2708" y="55.5" width="68" height="68" class="a"/><rect x="2708" y="123.5" width="68" height="68" class="a"/><polyline points="3048 157.5 3082 157.5 3082 259.5 2538 259.5 2538 89.5 2510.1 89.5 " class="a"/><path d="M2504 89.5c2.8-1.1 6.4-2.9 8.5-4.8l-1.7 4.8 1.7 4.8C2510.4 92.4 2506.9 90.6 2504 89.5z" class="b"/><path d="M2868.3 73.5l9.7 24.3 9.7-24.3h5.1v29.8h-3.9V91.7l0.4-12.5 -9.8 24.1h-3l-9.8-24.1 0.4 12.5v11.6h-3.9V73.5H2868.3z" class="b"/><rect x="2844" y="55.5" width="68" height="68" class="a"/><rect x="2844" y="123.5" width="68" height="68" class="a"/><path d="M3004.3 73.5l9.7 24.3 9.7-24.3h5.1v29.8h-3.9V91.7l0.4-12.5 -9.8 24.1h-3l-9.8-24.1 0.4 12.5v11.6h-3.9V73.5H3004.3z" class="b"/><path d="M3026 157.3c0 2.9-0.5 5.5-1.5 7.6s-2.4 3.8-4.2 5c-1.8 1.1-3.9 1.7-6.3 1.7 -2.3 0-4.4-0.6-6.2-1.7 -1.8-1.2-3.2-2.8-4.2-4.9s-1.5-4.6-1.5-7.4v-2.1c0-2.9 0.5-5.4 1.5-7.6 1-2.2 2.4-3.9 4.2-5 1.8-1.2 3.9-1.7 6.3-1.7 2.4 0 4.5 0.6 6.3 1.7 1.8 1.2 3.2 2.8 4.2 5s1.5 4.7 1.5 7.6V157.3zM3022.1 155.4c0-3.5-0.7-6.2-2.1-8.1 -1.4-1.9-3.4-2.8-6-2.8 -2.5 0-4.4 0.9-5.9 2.8 -1.4 1.9-2.2 4.5-2.2 7.9v2.2c0 3.4 0.7 6.1 2.2 8.1s3.4 2.9 5.9 2.9c2.5 0 4.5-0.9 5.9-2.8s2.1-4.5 2.1-8V155.4z" class="b"/><rect x="2980" y="55.5" width="68" height="68" class="a"/><rect x="2980" y="123.5" width="68" height="68" class="a"/><path d="M33.7 73.5l9.7 24.3 9.7-24.3h5.1v29.8h-3.9V91.7l0.4-12.5 -9.8 24.1h-3l-9.8-24.1 0.4 12.5v11.6h-3.9V73.5H33.7z" class="b"/><rect x="9.5" y="55.5" width="68" height="68" class="a"/><path d="M46.7 35.3h-3.8V10l-7.6 2.8V9.4L46.1 5.3h0.6V35.3z" class="b"/><path d="M189.7 35.3h-19.5v-2.7l10.3-11.5c1.5-1.7 2.6-3.1 3.2-4.2 0.6-1.1 0.9-2.2 0.9-3.4 0-1.6-0.5-2.8-1.4-3.8 -0.9-1-2.2-1.5-3.8-1.5 -1.9 0-3.3 0.5-4.4 1.6 -1 1.1-1.6 2.6-1.6 4.5h-3.8c0-2.7 0.9-5 2.7-6.6 1.8-1.7 4.1-2.5 7.1-2.5 2.8 0 5 0.7 6.6 2.2 1.6 1.5 2.4 3.4 2.4 5.8 0 2.9-1.9 6.4-5.6 10.5l-8 8.7h15V35.3z" class="b"/><path d="M311.7 18.5h2.8c1.8 0 3.2-0.5 4.2-1.4 1-0.9 1.5-2.1 1.5-3.7 0-3.5-1.7-5.2-5.2-5.2 -1.6 0-2.9 0.5-3.9 1.4 -1 0.9-1.5 2.2-1.5 3.7h-3.8c0-2.4 0.9-4.3 2.6-5.9 1.7-1.6 3.9-2.3 6.6-2.3 2.8 0 5 0.7 6.6 2.2 1.6 1.5 2.4 3.6 2.4 6.2 0 1.3-0.4 2.6-1.3 3.8s-2 2.1-3.4 2.7c1.6 0.5 2.9 1.4 3.8 2.6 0.9 1.2 1.3 2.7 1.3 4.4 0 2.7-0.9 4.8-2.6 6.4 -1.7 1.6-4 2.4-6.8 2.4 -2.8 0-5.1-0.8-6.8-2.3s-2.6-3.5-2.6-6h3.8c0 1.6 0.5 2.8 1.5 3.8 1 0.9 2.4 1.4 4.1 1.4 1.8 0 3.2-0.5 4.2-1.4s1.5-2.3 1.5-4.1c0-1.7-0.5-3.1-1.6-4 -1.1-0.9-2.6-1.4-4.6-1.4h-2.8V18.5z" class="b"/><path d="M458.2 25.3h4.1v3.1h-4.1v6.9h-3.8v-6.9h-13.6v-2.2L454.2 5.5h4V25.3zM445.1 25.3h9.3V10.7l-0.4 0.8L445.1 25.3z" class="b"/><path d="M579.9 20.3l1.5-14.9h15.3v3.5h-12.1l-0.9 8.1c1.5-0.9 3.1-1.3 5-1.3 2.7 0 4.9 0.9 6.5 2.7 1.6 1.8 2.4 4.2 2.4 7.3 0 3.1-0.8 5.5-2.5 7.3 -1.7 1.8-4 2.7-6.9 2.7 -2.6 0-4.8-0.7-6.4-2.2 -1.7-1.5-2.6-3.5-2.8-6.1h3.6c0.2 1.7 0.8 3 1.8 3.9s2.3 1.3 3.9 1.3c1.8 0 3.1-0.6 4.1-1.8 1-1.2 1.5-2.9 1.5-5 0-2-0.5-3.6-1.6-4.8 -1.1-1.2-2.5-1.8-4.3-1.8 -1.7 0-2.9 0.4-3.9 1.1l-1 0.8L579.9 20.3z" class="b"/><rect x="9.5" y="123.5" width="68" height="68" class="a"/><path d="M169.7 73.5l9.7 24.3 9.7-24.3h5.1v29.8h-3.9V91.7l0.4-12.5 -9.8 24.1h-3l-9.8-24.1 0.4 12.5v11.6h-3.9V73.5H169.7z" class="b"/><path d="M191.5 157.3c0 2.9-0.5 5.5-1.5 7.6s-2.4 3.8-4.2 5c-1.8 1.1-3.9 1.7-6.3 1.7 -2.3 0-4.4-0.6-6.2-1.7 -1.8-1.2-3.2-2.8-4.2-4.9s-1.5-4.6-1.5-7.4v-2.1c0-2.9 0.5-5.4 1.5-7.6 1-2.2 2.4-3.9 4.2-5 1.8-1.2 3.9-1.7 6.3-1.7 2.4 0 4.5 0.6 6.3 1.7 1.8 1.2 3.2 2.8 4.2 5s1.5 4.7 1.5 7.6V157.3zM187.6 155.4c0-3.5-0.7-6.2-2.1-8.1 -1.4-1.9-3.4-2.8-6-2.8 -2.5 0-4.4 0.9-5.9 2.8 -1.4 1.9-2.2 4.5-2.2 7.9v2.2c0 3.4 0.7 6.1 2.2 8.1s3.4 2.9 5.9 2.9c2.5 0 4.5-0.9 5.9-2.8s2.1-4.5 2.1-8V155.4z" class="b"/><rect x="145.5" y="55.5" width="68" height="68" class="a"/><rect x="145.5" y="123.5" width="68" height="68" class="a"/><path d="M305.7 73.5l9.7 24.3 9.7-24.3h5.1v29.8h-3.9V91.7l0.4-12.5 -9.8 24.1h-3l-9.8-24.1 0.4 12.5v11.6h-3.9V73.5H305.7z" class="b"/><path d="M327.5 157.3c0 2.9-0.5 5.5-1.5 7.6s-2.4 3.8-4.2 5c-1.8 1.1-3.9 1.7-6.3 1.7 -2.3 0-4.4-0.6-6.2-1.7 -1.8-1.2-3.2-2.8-4.2-4.9s-1.5-4.6-1.5-7.4v-2.1c0-2.9 0.5-5.4 1.5-7.6 1-2.2 2.4-3.9 4.2-5 1.8-1.2 3.9-1.7 6.3-1.7 2.4 0 4.5 0.6 6.3 1.7 1.8 1.2 3.2 2.8 4.2 5s1.5 4.7 1.5 7.6V157.3zM323.6 155.4c0-3.5-0.7-6.2-2.1-8.1 -1.4-1.9-3.4-2.8-6-2.8 -2.5 0-4.4 0.9-5.9 2.8 -1.4 1.9-2.2 4.5-2.2 7.9v2.2c0 3.4 0.7 6.1 2.2 8.1s3.4 2.9 5.9 2.9c2.5 0 4.5-0.9 5.9-2.8s2.1-4.5 2.1-8V155.4z" class="b"/><rect x="281.5" y="55.5" width="68" height="68" class="a"/><rect x="281.5" y="123.5" width="68" height="68" class="a"/><polyline points="213.5 157.5 247.5 157.5 247.5 259.5 111.5 259.5 111.5 89.5 83.5 89.5 " class="a"/><path d="M77.5 89.5c2.8-1.1 6.4-2.9 8.5-4.8l-1.7 4.8 1.7 4.8C83.9 92.4 80.3 90.6 77.5 89.5z" class="b"/><path d="M441.7 73.5l9.7 24.3 9.7-24.3h5.1v29.8h-3.9V91.7l0.4-12.5 -9.8 24.1h-3l-9.8-24.1 0.4 12.5v11.6h-3.9V73.5H441.7z" class="b"/><path d="M463.5 157.3c0 2.9-0.5 5.5-1.5 7.6s-2.4 3.8-4.2 5c-1.8 1.1-3.9 1.7-6.3 1.7 -2.3 0-4.4-0.6-6.2-1.7 -1.8-1.2-3.2-2.8-4.2-4.9s-1.5-4.6-1.5-7.4v-2.1c0-2.9 0.5-5.4 1.5-7.6 1-2.2 2.4-3.9 4.2-5 1.8-1.2 3.9-1.7 6.3-1.7 2.4 0 4.5 0.6 6.3 1.7 1.8 1.2 3.2 2.8 4.2 5s1.5 4.7 1.5 7.6V157.3zM459.6 155.4c0-3.5-0.7-6.2-2.1-8.1 -1.4-1.9-3.4-2.8-6-2.8 -2.5 0-4.4 0.9-5.9 2.8 -1.4 1.9-2.2 4.5-2.2 7.9v2.2c0 3.4 0.7 6.1 2.2 8.1s3.4 2.9 5.9 2.9c2.5 0 4.5-0.9 5.9-2.8s2.1-4.5 2.1-8V155.4z" class="b"/><rect x="417.5" y="55.5" width="68" height="68" class="a"/><rect x="417.5" y="123.5" width="68" height="68" class="a"/><path d="M577.7 73.5l9.7 24.3 9.7-24.3h5.1v29.8h-3.9V91.7l0.4-12.5 -9.8 24.1h-3l-9.8-24.1 0.4 12.5v11.6h-3.9V73.5H577.7z" class="b"/><path d="M599.5 157.3c0 2.9-0.5 5.5-1.5 7.6s-2.4 3.8-4.2 5c-1.8 1.1-3.9 1.7-6.3 1.7 -2.3 0-4.4-0.6-6.2-1.7 -1.8-1.2-3.2-2.8-4.2-4.9s-1.5-4.6-1.5-7.4v-2.1c0-2.9 0.5-5.4 1.5-7.6 1-2.2 2.4-3.9 4.2-5 1.8-1.2 3.9-1.7 6.3-1.7 2.4 0 4.5 0.6 6.3 1.7 1.8 1.2 3.2 2.8 4.2 5s1.5 4.7 1.5 7.6V157.3zM595.6 155.4c0-3.5-0.7-6.2-2.1-8.1 -1.4-1.9-3.4-2.8-6-2.8 -2.5 0-4.4 0.9-5.9 2.8 -1.4 1.9-2.2 4.5-2.2 7.9v2.2c0 3.4 0.7 6.1 2.2 8.1s3.4 2.9 5.9 2.9c2.5 0 4.5-0.9 5.9-2.8s2.1-4.5 2.1-8V155.4z" class="b"/><rect x="553.5" y="55.5" width="68" height="68" class="a"/><rect x="553.5" y="123.5" width="68" height="68" class="a"/><path d="M-803.2 73.5l9.7 24.3 9.7-24.3h5.1v29.8h-3.9V91.7l0.4-12.5 -9.8 24.1h-3l-9.8-24.1 0.4 12.5v11.6h-3.9V73.5H-803.2z" class="b"/><rect x="-827.5" y="55.5" width="68" height="68" class="a"/><path d="M-790.3 35.3h-3.8V10l-7.6 2.8V9.4L-790.9 5.3h0.6V35.3z" class="b"/><path d="M-647.2 35.3h-19.5v-2.7l10.3-11.5c1.5-1.7 2.6-3.1 3.2-4.2 0.6-1.1 0.9-2.2 0.9-3.4 0-1.6-0.5-2.8-1.4-3.8 -0.9-1-2.2-1.5-3.8-1.5 -1.9 0-3.3 0.5-4.4 1.6 -1 1.1-1.6 2.6-1.6 4.5h-3.8c0-2.7 0.9-5 2.7-6.6 1.8-1.7 4.1-2.5 7.1-2.5 2.8 0 5 0.7 6.6 2.2 1.6 1.5 2.4 3.4 2.4 5.8 0 2.9-1.9 6.4-5.6 10.5l-8 8.7h15V35.3z" class="b"/><path d="M-525.2 18.5h2.8c1.8 0 3.2-0.5 4.2-1.4 1-0.9 1.5-2.1 1.5-3.7 0-3.5-1.7-5.2-5.2-5.2 -1.6 0-2.9 0.5-3.9 1.4 -1 0.9-1.5 2.2-1.5 3.7h-3.8c0-2.4 0.9-4.3 2.6-5.9 1.7-1.6 3.9-2.3 6.6-2.3 2.8 0 5 0.7 6.6 2.2 1.6 1.5 2.4 3.6 2.4 6.2 0 1.3-0.4 2.6-1.3 3.8s-2 2.1-3.4 2.7c1.6 0.5 2.9 1.4 3.8 2.6 0.9 1.2 1.3 2.7 1.3 4.4 0 2.7-0.9 4.8-2.6 6.4 -1.7 1.6-4 2.4-6.8 2.4 -2.8 0-5.1-0.8-6.8-2.3s-2.6-3.5-2.6-6h3.8c0 1.6 0.5 2.8 1.5 3.8 1 0.9 2.4 1.4 4.1 1.4 1.8 0 3.2-0.5 4.2-1.4s1.5-2.3 1.5-4.1c0-1.7-0.5-3.1-1.6-4 -1.1-0.9-2.6-1.4-4.6-1.4h-2.8V18.5z" class="b"/><path d="M-378.8 25.3h4.1v3.1h-4.1v6.9h-3.8v-6.9h-13.6v-2.2l13.3-20.6h4V25.3zM-391.8 25.3h9.3V10.7l-0.4 0.8L-391.8 25.3z" class="b"/><path d="M-257 20.3l1.5-14.9h15.3v3.5h-12.1l-0.9 8.1c1.5-0.9 3.1-1.3 5-1.3 2.7 0 4.9 0.9 6.5 2.7 1.6 1.8 2.4 4.2 2.4 7.3 0 3.1-0.8 5.5-2.5 7.3 -1.7 1.8-4 2.7-6.9 2.7 -2.6 0-4.8-0.7-6.4-2.2 -1.7-1.5-2.6-3.5-2.8-6.1h3.6c0.2 1.7 0.8 3 1.8 3.9s2.3 1.3 3.9 1.3c1.8 0 3.1-0.6 4.1-1.8 1-1.2 1.5-2.9 1.5-5 0-2-0.5-3.6-1.6-4.8 -1.1-1.2-2.5-1.8-4.3-1.8 -1.7 0-2.9 0.4-3.9 1.1l-1 0.8L-257 20.3z" class="b"/><rect x="-827.5" y="123.5" width="68" height="68" class="a"/><path d="M-667.2 73.5l9.7 24.3 9.7-24.3h5.1v29.8h-3.9V91.7l0.4-12.5 -9.8 24.1h-3l-9.8-24.1 0.4 12.5v11.6h-3.9V73.5H-667.2z" class="b"/><path d="M-645.5 157.3c0 2.9-0.5 5.5-1.5 7.6s-2.4 3.8-4.2 5c-1.8 1.1-3.9 1.7-6.3 1.7 -2.3 0-4.4-0.6-6.2-1.7 -1.8-1.2-3.2-2.8-4.2-4.9s-1.5-4.6-1.5-7.4v-2.1c0-2.9 0.5-5.4 1.5-7.6 1-2.2 2.4-3.9 4.2-5 1.8-1.2 3.9-1.7 6.3-1.7 2.4 0 4.5 0.6 6.3 1.7 1.8 1.2 3.2 2.8 4.2 5s1.5 4.7 1.5 7.6V157.3zM-649.4 155.4c0-3.5-0.7-6.2-2.1-8.1 -1.4-1.9-3.4-2.8-6-2.8 -2.5 0-4.4 0.9-5.9 2.8 -1.4 1.9-2.2 4.5-2.2 7.9v2.2c0 3.4 0.7 6.1 2.2 8.1s3.4 2.9 5.9 2.9c2.5 0 4.5-0.9 5.9-2.8s2.1-4.5 2.1-8V155.4z" class="b"/><path d="M-781.5 157.3c0 2.9-0.5 5.5-1.5 7.6s-2.4 3.8-4.2 5c-1.8 1.1-3.9 1.7-6.3 1.7 -2.3 0-4.4-0.6-6.2-1.7 -1.8-1.2-3.2-2.8-4.2-4.9s-1.5-4.6-1.5-7.4v-2.1c0-2.9 0.5-5.4 1.5-7.6 1-2.2 2.4-3.9 4.2-5 1.8-1.2 3.9-1.7 6.3-1.7 2.4 0 4.5 0.6 6.3 1.7 1.8 1.2 3.2 2.8 4.2 5s1.5 4.7 1.5 7.6V157.3zM-785.4 155.4c0-3.5-0.7-6.2-2.1-8.1 -1.4-1.9-3.4-2.8-6-2.8 -2.5 0-4.4 0.9-5.9 2.8 -1.4 1.9-2.2 4.5-2.2 7.9v2.2c0 3.4 0.7 6.1 2.2 8.1s3.4 2.9 5.9 2.9c2.5 0 4.5-0.9 5.9-2.8s2.1-4.5 2.1-8V155.4z" class="b"/><rect x="-691.5" y="55.5" width="68" height="68" class="a"/><rect x="-691.5" y="123.5" width="68" height="68" class="a"/><path d="M-531.2 73.5l9.7 24.3 9.7-24.3h5.1v29.8h-3.9V91.7l0.4-12.5 -9.8 24.1h-3l-9.8-24.1 0.4 12.5v11.6h-3.9V73.5H-531.2z" class="b"/><path d="M-509.5 157.3c0 2.9-0.5 5.5-1.5 7.6s-2.4 3.8-4.2 5c-1.8 1.1-3.9 1.7-6.3 1.7 -2.3 0-4.4-0.6-6.2-1.7 -1.8-1.2-3.2-2.8-4.2-4.9s-1.5-4.6-1.5-7.4v-2.1c0-2.9 0.5-5.4 1.5-7.6 1-2.2 2.4-3.9 4.2-5 1.8-1.2 3.9-1.7 6.3-1.7 2.4 0 4.5 0.6 6.3 1.7 1.8 1.2 3.2 2.8 4.2 5s1.5 4.7 1.5 7.6V157.3zM-513.4 155.4c0-3.5-0.7-6.2-2.1-8.1 -1.4-1.9-3.4-2.8-6-2.8 -2.5 0-4.4 0.9-5.9 2.8 -1.4 1.9-2.2 4.5-2.2 7.9v2.2c0 3.4 0.7 6.1 2.2 8.1s3.4 2.9 5.9 2.9c2.5 0 4.5-0.9 5.9-2.8s2.1-4.5 2.1-8V155.4z" class="b"/><rect x="-555.5" y="55.5" width="68" height="68" class="a"/><rect x="-555.5" y="123.5" width="68" height="68" class="a"/><polyline points="-759.5 157.5 -725.5 157.5 -725.5 89.5 -753.4 89.5 " class="a"/><path d="M-759.5 89.5c2.8-1.1 6.4-2.9 8.5-4.8l-1.7 4.8 1.7 4.8C-753.1 92.4-756.6 90.6-759.5 89.5z" class="b"/><path d="M-395.2 73.5l9.7 24.3 9.7-24.3h5.1v29.8h-3.9V91.7l0.4-12.5 -9.8 24.1h-3l-9.8-24.1 0.4 12.5v11.6h-3.9V73.5H-395.2z" class="b"/><path d="M-373.5 157.3c0 2.9-0.5 5.5-1.5 7.6s-2.4 3.8-4.2 5c-1.8 1.1-3.9 1.7-6.3 1.7 -2.3 0-4.4-0.6-6.2-1.7 -1.8-1.2-3.2-2.8-4.2-4.9s-1.5-4.6-1.5-7.4v-2.1c0-2.9 0.5-5.4 1.5-7.6 1-2.2 2.4-3.9 4.2-5 1.8-1.2 3.9-1.7 6.3-1.7 2.4 0 4.5 0.6 6.3 1.7 1.8 1.2 3.2 2.8 4.2 5s1.5 4.7 1.5 7.6V157.3zM-377.4 155.4c0-3.5-0.7-6.2-2.1-8.1 -1.4-1.9-3.4-2.8-6-2.8 -2.5 0-4.4 0.9-5.9 2.8 -1.4 1.9-2.2 4.5-2.2 7.9v2.2c0 3.4 0.7 6.1 2.2 8.1s3.4 2.9 5.9 2.9c2.5 0 4.5-0.9 5.9-2.8s2.1-4.5 2.1-8V155.4z" class="b"/><rect x="-419.5" y="55.5" width="68" height="68" class="a"/><rect x="-419.5" y="123.5" width="68" height="68" class="a"/><path d="M-259.2 73.5l9.7 24.3 9.7-24.3h5.1v29.8h-3.9V91.7l0.4-12.5 -9.8 24.1h-3l-9.8-24.1 0.4 12.5v11.6h-3.9V73.5H-259.2z" class="b"/><path d="M-237.5 157.3c0 2.9-0.5 5.5-1.5 7.6s-2.4 3.8-4.2 5c-1.8 1.1-3.9 1.7-6.3 1.7 -2.3 0-4.4-0.6-6.2-1.7 -1.8-1.2-3.2-2.8-4.2-4.9s-1.5-4.6-1.5-7.4v-2.1c0-2.9 0.5-5.4 1.5-7.6 1-2.2 2.4-3.9 4.2-5 1.8-1.2 3.9-1.7 6.3-1.7 2.4 0 4.5 0.6 6.3 1.7 1.8 1.2 3.2 2.8 4.2 5s1.5 4.7 1.5 7.6V157.3zM-241.4 155.4c0-3.5-0.7-6.2-2.1-8.1 -1.4-1.9-3.4-2.8-6-2.8 -2.5 0-4.4 0.9-5.9 2.8 -1.4 1.9-2.2 4.5-2.2 7.9v2.2c0 3.4 0.7 6.1 2.2 8.1s3.4 2.9 5.9 2.9c2.5 0 4.5-0.9 5.9-2.8s2.1-4.5 2.1-8V155.4z" class="b"/><rect x="-283.5" y="55.5" width="68" height="68" class="a"/><rect x="-283.5" y="123.5" width="68" height="68" class="a"/><text transform="matrix(1 0 0 1 821.5654 -702.5)" font-family="'Roboto-Regular'" font-size="41.9111" class="b">  M</text><rect x="805.9" y="-750.3" width="68" height="68" class="a"/><text transform="matrix(1 0 0 1 828.0938 -770.5)" font-family="'Roboto-Regular'" font-size="41.9111" class="b">  1</text><text transform="matrix(1 0 0 1 964.0938 -770.5)" font-family="'Roboto-Regular'" font-size="41.9111" class="b">  2</text><text transform="matrix(1 0 0 1 1100.0938 -770.5)" font-family="'Roboto-Regular'" font-size="41.9111" class="b">  3</text><text transform="matrix(1 0 0 1 1236.0938 -770.5)" font-family="'Roboto-Regular'" font-size="41.9111" class="b">  4</text><text transform="matrix(1 0 0 1 1372.0938 -770.5)" font-family="'Roboto-Regular'" font-size="41.9111" class="b">  5</text><rect x="805.9" y="-682.3" width="68" height="68" class="a"/><text transform="matrix(1 0 0 1 957.5654 -702.5)" font-family="'Roboto-Regular'" font-size="41.9111" class="b">  M</text><rect x="941.9" y="-750.3" width="68" height="68" class="a"/><rect x="941.9" y="-682.3" width="68" height="68" class="a"/><text transform="matrix(1 0 0 1 1093.5654 -702.5)" font-family="'Roboto-Regular'" font-size="41.9111" class="b">  M</text><text transform="matrix(1 0 0 1 1097.4541 -634.5)" font-family="'Roboto-Regular'" font-size="41.9111" class="b">  O</text><rect x="1077.9" y="-750.3" width="68" height="68" class="a"/><rect x="1077.9" y="-682.3" width="68" height="68" class="a"/><polyline points="1145.9 -648.3 1179.9 -648.3 1179.9 -546.3 907.9 -546.3 907.9 -716.3 879.9 -716.3 " class="a"/><path d="M873.9-716.3c2.8-1.1 6.4-2.9 8.5-4.8l-1.7 4.8 1.7 4.8C880.2-713.4 876.7-715.2 873.9-716.3z" class="b"/><text transform="matrix(1 0 0 1 1229.5654 -702.5)" font-family="'Roboto-Regular'" font-size="41.9111" class="b">  M</text><text transform="matrix(1 0 0 1 1233.4541 -634.5)" font-family="'Roboto-Regular'" font-size="41.9111" class="b">  O</text><rect x="1213.9" y="-750.3" width="68" height="68" class="a"/><rect x="1213.9" y="-682.3" width="68" height="68" class="a"/><text transform="matrix(1 0 0 1 1365.5654 -702.5)" font-family="'Roboto-Regular'" font-size="41.9111" class="b">  M</text><text transform="matrix(1 0 0 1 1369.4541 -634.5)" font-family="'Roboto-Regular'" font-size="41.9111" class="b">  O</text><rect x="1349.9" y="-750.3" width="68" height="68" class="a"/><rect x="1349.9" y="-682.3" width="68" height="68" class="a"/><text transform="matrix(1 0 0 1 1631.6465 -702.5)" font-family="'Roboto-Regular'" font-size="41.9111" class="b">  M</text><rect x="1615.9" y="-750.3" width="68" height="68" class="a"/><text transform="matrix(1 0 0 1 1638.1748 -770.5)" font-family="'Roboto-Regular'" font-size="41.9111" class="b">  1</text><text transform="matrix(1 0 0 1 1774.1748 -770.5)" font-family="'Roboto-Regular'" font-size="41.9111" class="b">  2</text><text transform="matrix(1 0 0 1 1910.1748 -770.5)" font-family="'Roboto-Regular'" font-size="41.9111" class="b">  3</text><text transform="matrix(1 0 0 1 2046.1748 -770.5)" font-family="'Roboto-Regular'" font-size="41.9111" class="b">  4</text><text transform="matrix(1 0 0 1 2182.1748 -770.5)" font-family="'Roboto-Regular'" font-size="41.9111" class="b">  5</text><rect x="1615.9" y="-682.3" width="68" height="68" class="a"/><text transform="matrix(1 0 0 1 1767.6465 -702.5)" font-family="'Roboto-Regular'" font-size="41.9111" class="b">  M</text><rect x="1751.9" y="-750.3" width="68" height="68" class="a"/><rect x="1751.9" y="-682.3" width="68" height="68" class="a"/><text transform="matrix(1 0 0 1 1903.6465 -702.5)" font-family="'Roboto-Regular'" font-size="41.9111" class="b">  M</text><rect x="1887.9" y="-750.3" width="68" height="68" class="a"/><rect x="1887.9" y="-682.3" width="68" height="68" class="a"/><polyline points="2091.9 -648.3 2125.9 -648.3 2125.9 -546.3 1717.9 -546.3 1717.9 -716.3 1690 -716.3 " class="a"/><path d="M1683.9-716.3c2.8-1.1 6.4-2.9 8.5-4.8l-1.7 4.8 1.7 4.8C1690.3-713.4 1686.8-715.2 1683.9-716.3z" class="b"/><text transform="matrix(1 0 0 1 2039.6465 -702.5)" font-family="'Roboto-Regular'" font-size="41.9111" class="b">  M</text><text transform="matrix(1 0 0 1 2043.5352 -634.5)" font-family="'Roboto-Regular'" font-size="41.9111" class="b">  O</text><rect x="2023.9" y="-750.3" width="68" height="68" class="a"/><rect x="2023.9" y="-682.3" width="68" height="68" class="a"/><text transform="matrix(1 0 0 1 2175.6465 -702.5)" font-family="'Roboto-Regular'" font-size="41.9111" class="b">  M</text><text transform="matrix(1 0 0 1 2179.5352 -634.5)" font-family="'Roboto-Regular'" font-size="41.9111" class="b">  O</text><rect x="2159.9" y="-750.3" width="68" height="68" class="a"/><rect x="2159.9" y="-682.3" width="68" height="68" class="a"/><text transform="matrix(1 0 0 1 2451.7305 -702.5)" font-family="'Roboto-Regular'" font-size="41.9111" class="b">  M</text><rect x="2436" y="-750.3" width="68" height="68" class="a"/><text transform="matrix(1 0 0 1 2458.2588 -770.5)" font-family="'Roboto-Regular'" font-size="41.9111" class="b">  1</text><text transform="matrix(1 0 0 1 2594.2588 -770.5)" font-family="'Roboto-Regular'" font-size="41.9111" class="b">  2</text><text transform="matrix(1 0 0 1 2730.2588 -770.5)" font-family="'Roboto-Regular'" font-size="41.9111" class="b">  3</text><text transform="matrix(1 0 0 1 2866.2588 -770.5)" font-family="'Roboto-Regular'" font-size="41.9111" class="b">  4</text><text transform="matrix(1 0 0 1 3002.2588 -770.5)" font-family="'Roboto-Regular'" font-size="41.9111" class="b">  5</text><rect x="2436" y="-682.3" width="68" height="68" class="a"/><text transform="matrix(1 0 0 1 2587.7305 -702.5)" font-family="'Roboto-Regular'" font-size="41.9111" class="b">  M</text><rect x="2572" y="-750.3" width="68" height="68" class="a"/><rect x="2572" y="-682.3" width="68" height="68" class="a"/><text transform="matrix(1 0 0 1 2723.7305 -702.5)" font-family="'Roboto-Regular'" font-size="41.9111" class="b">  M</text><rect x="2708" y="-750.3" width="68" height="68" class="a"/><rect x="2708" y="-682.3" width="68" height="68" class="a"/><polyline points="3048 -648.3 3082 -648.3 3082 -546.3 2538 -546.3 2538 -716.3 2510.1 -716.3 " class="a"/><path d="M2504-716.3c2.8-1.1 6.4-2.9 8.5-4.8l-1.7 4.8 1.7 4.8C2510.4-713.4 2506.9-715.2 2504-716.3z" class="b"/><text transform="matrix(1 0 0 1 2859.7305 -702.5)" font-family="'Roboto-Regular'" font-size="41.9111" class="b">  M</text><rect x="2844" y="-750.3" width="68" height="68" class="a"/><rect x="2844" y="-682.3" width="68" height="68" class="a"/><text transform="matrix(1 0 0 1 2995.7305 -702.5)" font-family="'Roboto-Regular'" font-size="41.9111" class="b">  M</text><text transform="matrix(1 0 0 1 2999.6191 -634.5)" font-family="'Roboto-Regular'" font-size="41.9111" class="b">  O</text><rect x="2980" y="-750.3" width="68" height="68" class="a"/><rect x="2980" y="-682.3" width="68" height="68" class="a"/><text transform="matrix(1 0 0 1 25.2041 -702.5)" font-family="'Roboto-Regular'" font-size="41.9111" class="b">  M</text><rect x="9.5" y="-750.3" width="68" height="68" class="a"/><text transform="matrix(1 0 0 1 31.7324 -770.5)" font-family="'Roboto-Regular'" font-size="41.9111" class="b">  1</text><text transform="matrix(1 0 0 1 167.7324 -770.5)" font-family="'Roboto-Regular'" font-size="41.9111" class="b">  2</text><text transform="matrix(1 0 0 1 303.7324 -770.5)" font-family="'Roboto-Regular'" font-size="41.9111" class="b">  3</text><text transform="matrix(1 0 0 1 439.7324 -770.5)" font-family="'Roboto-Regular'" font-size="41.9111" class="b">  4</text><text transform="matrix(1 0 0 1 575.7324 -770.5)" font-family="'Roboto-Regular'" font-size="41.9111" class="b">  5</text><rect x="9.5" y="-682.3" width="68" height="68" class="a"/><text transform="matrix(1 0 0 1 161.2041 -702.5)" font-family="'Roboto-Regular'" font-size="41.9111" class="b">  M</text><text transform="matrix(1 0 0 1 165.0928 -634.5)" font-family="'Roboto-Regular'" font-size="41.9111" class="b">  O</text><rect x="145.5" y="-750.3" width="68" height="68" class="a"/><rect x="145.5" y="-682.3" width="68" height="68" class="a"/><text transform="matrix(1 0 0 1 297.2041 -702.5)" font-family="'Roboto-Regular'" font-size="41.9111" class="b">  M</text><text transform="matrix(1 0 0 1 301.0928 -634.5)" font-family="'Roboto-Regular'" font-size="41.9111" class="b">  O</text><rect x="281.5" y="-750.3" width="68" height="68" class="a"/><rect x="281.5" y="-682.3" width="68" height="68" class="a"/><polyline points="213.5 -648.3 247.5 -648.3 247.5 -546.3 111.5 -546.3 111.5 -716.3 83.5 -716.3 " class="a"/><path d="M77.5-716.3c2.8-1.1 6.4-2.9 8.5-4.8l-1.7 4.8 1.7 4.8C83.9-713.4 80.3-715.2 77.5-716.3z" class="b"/><text transform="matrix(1 0 0 1 433.2041 -702.5)" font-family="'Roboto-Regular'" font-size="41.9111" class="b">  M</text><text transform="matrix(1 0 0 1 437.0928 -634.5)" font-family="'Roboto-Regular'" font-size="41.9111" class="b">  O</text><rect x="417.5" y="-750.3" width="68" height="68" class="a"/><rect x="417.5" y="-682.3" width="68" height="68" class="a"/><text transform="matrix(1 0 0 1 569.2041 -702.5)" font-family="'Roboto-Regular'" font-size="41.9111" class="b">  M</text><text transform="matrix(1 0 0 1 573.0928 -634.5)" font-family="'Roboto-Regular'" font-size="41.9111" class="b">  O</text><rect x="553.5" y="-750.3" width="68" height="68" class="a"/><rect x="553.5" y="-682.3" width="68" height="68" class="a"/><text transform="matrix(1 0 0 1 -811.7539 -702.5)" font-family="'Roboto-Regular'" font-size="41.9111" class="b">  M</text><rect x="-827.5" y="-750.3" width="68" height="68" class="a"/><text transform="matrix(1 0 0 1 -805.2256 -770.5)" font-family="'Roboto-Regular'" font-size="41.9111" class="b">  1</text><text transform="matrix(1 0 0 1 -669.2256 -770.5)" font-family="'Roboto-Regular'" font-size="41.9111" class="b">  2</text><text transform="matrix(1 0 0 1 -533.2256 -770.5)" font-family="'Roboto-Regular'" font-size="41.9111" class="b">  3</text><text transform="matrix(1 0 0 1 -397.2256 -770.5)" font-family="'Roboto-Regular'" font-size="41.9111" class="b">  4</text><text transform="matrix(1 0 0 1 -261.2256 -770.5)" font-family="'Roboto-Regular'" font-size="41.9111" class="b">  5</text><rect x="-827.5" y="-682.3" width="68" height="68" class="a"/><text transform="matrix(1 0 0 1 -675.7539 -702.5)" font-family="'Roboto-Regular'" font-size="41.9111" class="b">  M</text><text transform="matrix(1 0 0 1 -671.8652 -634.5)" font-family="'Roboto-Regular'" font-size="41.9111" class="b">  O</text><text transform="matrix(1 0 0 1 -807.8652 -634.5)" font-family="'Roboto-Regular'" font-size="41.9111" class="b">  O</text><rect x="-691.5" y="-750.3" width="68" height="68" class="a"/><rect x="-691.5" y="-682.3" width="68" height="68" class="a"/><text transform="matrix(1 0 0 1 -539.7539 -702.5)" font-family="'Roboto-Regular'" font-size="41.9111" class="b">  M</text><text transform="matrix(1 0 0 1 -535.8652 -634.5)" font-family="'Roboto-Regular'" font-size="41.9111" class="b">  O</text><rect x="-555.5" y="-750.3" width="68" height="68" class="a"/><rect x="-555.5" y="-682.3" width="68" height="68" class="a"/><polyline points="-759.5 -648.3 -725.5 -648.3 -725.5 -716.3 -753.4 -716.3 " class="a"/><path d="M-759.5-716.3c2.8-1.1 6.4-2.9 8.5-4.8l-1.7 4.8 1.7 4.8C-753.1-713.4-756.6-715.2-759.5-716.3z" class="b"/><text transform="matrix(1 0 0 1 -403.7539 -702.5)" font-family="'Roboto-Regular'" font-size="41.9111" class="b">  M</text><text transform="matrix(1 0 0 1 -399.8652 -634.5)" font-family="'Roboto-Regular'" font-size="41.9111" class="b">  O</text><rect x="-419.5" y="-750.3" width="68" height="68" class="a"/><rect x="-419.5" y="-682.3" width="68" height="68" class="a"/><text transform="matrix(1 0 0 1 -267.7539 -702.5)" font-family="'Roboto-Regular'" font-size="41.9111" class="b">  M</text><text transform="matrix(1 0 0 1 -263.8652 -634.5)" font-family="'Roboto-Regular'" font-size="41.9111" class="b">  O</text><rect x="-283.5" y="-750.3" width="68" height="68" class="a"/><rect x="-283.5" y="-682.3" width="68" height="68" class="a"/><rect x="617" y="837.1" width="232.5" height="127.5" class="a"/><text transform="matrix(1 0 0 1 691.8242 920.1426)" font-family="'Roboto-Regular'" font-size="75.0523" class="b">  M</text><text transform="matrix(1 0 0 1 632.4111 1021.2939)" font-family="'Roboto-Regular'" font-size="26.523" class="b">  O</text><text transform="matrix(1 0 0 1 724.1055 1021.2939)" font-family="'Roboto-Regular'" font-size="26.523" class="b">  O</text><text transform="matrix(1 0 0 1 814.6846 1021.2939)" font-family="'Roboto-Regular'" font-size="26.523" class="b">  O</text><circle cx="641.5" cy="1012.5" r="25.7" class="a"/><circle cx="732.7" cy="1012.5" r="25.7" class="a"/><circle cx="823.8" cy="1012.5" r="25.7" class="a"/></svg>