<svg xmlns="http://www.w3.org/2000/svg" width="631" height="200" viewBox="0 0 631 199.5"><style>.a{fill:none;stroke:#384040;}.b{fill:#384040;}</style><rect x="1050.6" y="-230.5" width="68" height="136" class="a"/><rect x="2929.1" y="-230.5" width="68" height="136" class="a"/><rect x="2051" y="-230.5" width="68" height="136" class="a"/><rect x="2119" y="-230.5" width="68" height="136" class="a"/><rect x="2187" y="-230.5" width="68" height="136" class="a"/><path d="M1667.2 73.5l9.7 24.3 9.7-24.3h5.1v29.8h-3.9V91.7l0.4-12.5 -9.8 24.1h-3l-9.8-24.1 0.4 12.5v11.6h-3.9V73.5H1667.2z" class="b"/><rect x="1643" y="55.5" width="68" height="68" class="a"/><path d="M1680.2 35.3h-3.8V10l-7.6 2.8V9.4l10.8-4.1h0.6V35.3z" class="b"/><path d="M1823.2 35.3h-19.5v-2.7l10.3-11.5c1.5-1.7 2.6-3.1 3.2-4.2 0.6-1.1 0.9-2.2 0.9-3.4 0-1.6-0.5-2.8-1.4-3.8 -0.9-1-2.2-1.5-3.8-1.5 -1.9 0-3.3 0.5-4.4 1.6 -1 1.1-1.6 2.6-1.6 4.5h-3.8c0-2.7 0.9-5 2.7-6.6 1.8-1.7 4.1-2.5 7.1-2.5 2.8 0 5 0.7 6.6 2.2 1.6 1.5 2.4 3.4 2.4 5.8 0 2.9-1.9 6.4-5.6 10.5l-8 8.7h15V35.3z" class="b"/><path d="M1945.2 18.5h2.8c1.8 0 3.2-0.5 4.2-1.4 1-0.9 1.5-2.1 1.5-3.7 0-3.5-1.7-5.2-5.2-5.2 -1.6 0-2.9 0.5-3.9 1.4 -1 0.9-1.5 2.2-1.5 3.7h-3.8c0-2.4 0.9-4.3 2.6-5.9 1.7-1.6 3.9-2.3 6.6-2.3 2.8 0 5 0.7 6.6 2.2 1.6 1.5 2.4 3.6 2.4 6.2 0 1.3-0.4 2.6-1.3 3.8s-2 2.1-3.4 2.7c1.6 0.5 2.9 1.4 3.8 2.6 0.9 1.2 1.3 2.7 1.3 4.4 0 2.7-0.9 4.8-2.6 6.4 -1.7 1.6-4 2.4-6.8 2.4 -2.8 0-5.1-0.8-6.8-2.3s-2.6-3.5-2.6-6h3.8c0 1.6 0.5 2.8 1.5 3.8 1 0.9 2.4 1.4 4.1 1.4 1.8 0 3.2-0.5 4.2-1.4s1.5-2.3 1.5-4.1c0-1.7-0.5-3.1-1.6-4 -1.1-0.9-2.6-1.4-4.6-1.4h-2.8V18.5z" class="b"/><path d="M2091.7 25.3h4.1v3.1h-4.1v6.9h-3.8v-6.9h-13.6v-2.2l13.3-20.6h4V25.3zM2078.6 25.3h9.3V10.7l-0.4 0.8L2078.6 25.3z" class="b"/><path d="M2213.4 20.3l1.5-14.9h15.3v3.5h-12.1l-0.9 8.1c1.5-0.9 3.1-1.3 5-1.3 2.7 0 4.9 0.9 6.5 2.7 1.6 1.8 2.4 4.2 2.4 7.3 0 3.1-0.8 5.5-2.5 7.3 -1.7 1.8-4 2.7-6.9 2.7 -2.6 0-4.8-0.7-6.4-2.2 -1.7-1.5-2.6-3.5-2.8-6.1h3.6c0.2 1.7 0.8 3 1.8 3.9s2.3 1.3 3.9 1.3c1.8 0 3.1-0.6 4.1-1.8 1-1.2 1.5-2.9 1.5-5 0-2-0.5-3.6-1.6-4.8 -1.1-1.2-2.5-1.8-4.3-1.8 -1.7 0-2.9 0.4-3.9 1.1l-1 0.8L2213.4 20.3z" class="b"/><rect x="1643" y="123.5" width="68" height="68" class="a"/><path d="M1803.2 73.5l9.7 24.3 9.7-24.3h5.1v29.8h-3.9V91.7l0.4-12.5 -9.8 24.1h-3l-9.8-24.1 0.4 12.5v11.6h-3.9V73.5H1803.2z" class="b"/><rect x="1779" y="55.5" width="68" height="68" class="a"/><rect x="1779" y="123.5" width="68" height="68" class="a"/><path d="M1939.2 73.5l9.7 24.3 9.7-24.3h5.1v29.8h-3.9V91.7l0.4-12.5 -9.8 24.1h-3l-9.8-24.1 0.4 12.5v11.6h-3.9V73.5H1939.2z" class="b"/><path d="M1961 157.3c0 2.9-0.5 5.5-1.5 7.6s-2.4 3.8-4.2 5c-1.8 1.1-3.9 1.7-6.3 1.7 -2.3 0-4.4-0.6-6.2-1.7 -1.8-1.2-3.2-2.8-4.2-4.9s-1.5-4.6-1.5-7.4v-2.1c0-2.9 0.5-5.4 1.5-7.6 1-2.2 2.4-3.9 4.2-5 1.8-1.2 3.9-1.7 6.3-1.7 2.4 0 4.5 0.6 6.3 1.7 1.8 1.2 3.2 2.8 4.2 5s1.5 4.7 1.5 7.6V157.3zM1957.1 155.4c0-3.5-0.7-6.2-2.1-8.1 -1.4-1.9-3.4-2.8-6-2.8 -2.5 0-4.4 0.9-5.9 2.8 -1.4 1.9-2.2 4.5-2.2 7.9v2.2c0 3.4 0.7 6.1 2.2 8.1s3.4 2.9 5.9 2.9c2.5 0 4.5-0.9 5.9-2.8s2.1-4.5 2.1-8V155.4z" class="b"/><rect x="1915" y="55.5" width="68" height="68" class="a"/><rect x="1915" y="123.5" width="68" height="68" class="a"/><polyline points="1983 157.5 2017 157.5 2017 259.5 1745 259.5 1745 89.5 1717 89.5 " class="a"/><path d="M1711 89.5c2.8-1.1 6.4-2.9 8.5-4.8l-1.7 4.8 1.7 4.8C1717.4 92.4 1713.8 90.6 1711 89.5z" class="b"/><path d="M2075.2 73.5l9.7 24.3 9.7-24.3h5.1v29.8h-3.9V91.7l0.4-12.5 -9.8 24.1h-3l-9.8-24.1 0.4 12.5v11.6h-3.9V73.5H2075.2z" class="b"/><path d="M2097 157.3c0 2.9-0.5 5.5-1.5 7.6s-2.4 3.8-4.2 5c-1.8 1.1-3.9 1.7-6.3 1.7 -2.3 0-4.4-0.6-6.2-1.7 -1.8-1.2-3.2-2.8-4.2-4.9s-1.5-4.6-1.5-7.4v-2.1c0-2.9 0.5-5.4 1.5-7.6 1-2.2 2.4-3.9 4.2-5 1.8-1.2 3.9-1.7 6.3-1.7 2.4 0 4.5 0.6 6.3 1.7 1.8 1.2 3.2 2.8 4.2 5s1.5 4.7 1.5 7.6V157.3zM2093.1 155.4c0-3.5-0.7-6.2-2.1-8.1 -1.4-1.9-3.4-2.8-6-2.8 -2.5 0-4.4 0.9-5.9 2.8 -1.4 1.9-2.2 4.5-2.2 7.9v2.2c0 3.4 0.7 6.1 2.2 8.1s3.4 2.9 5.9 2.9c2.5 0 4.5-0.9 5.9-2.8s2.1-4.5 2.1-8V155.4z" class="b"/><rect x="2051" y="55.5" width="68" height="68" class="a"/><rect x="2051" y="123.5" width="68" height="68" class="a"/><path d="M2211.2 73.5l9.7 24.3 9.7-24.3h5.1v29.8h-3.9V91.7l0.4-12.5 -9.8 24.1h-3l-9.8-24.1 0.4 12.5v11.6h-3.9V73.5H2211.2z" class="b"/><path d="M2233 157.3c0 2.9-0.5 5.5-1.5 7.6s-2.4 3.8-4.2 5c-1.8 1.1-3.9 1.7-6.3 1.7 -2.3 0-4.4-0.6-6.2-1.7 -1.8-1.2-3.2-2.8-4.2-4.9s-1.5-4.6-1.5-7.4v-2.1c0-2.9 0.5-5.4 1.5-7.6 1-2.2 2.4-3.9 4.2-5 1.8-1.2 3.9-1.7 6.3-1.7 2.4 0 4.5 0.6 6.3 1.7 1.8 1.2 3.2 2.8 4.2 5s1.5 4.7 1.5 7.6V157.3zM2229.1 155.4c0-3.5-0.7-6.2-2.1-8.1 -1.4-1.9-3.4-2.8-6-2.8 -2.5 0-4.4 0.9-5.9 2.8 -1.4 1.9-2.2 4.5-2.2 7.9v2.2c0 3.4 0.7 6.1 2.2 8.1s3.4 2.9 5.9 2.9c2.5 0 4.5-0.9 5.9-2.8s2.1-4.5 2.1-8V155.4z" class="b"/><rect x="2187" y="55.5" width="68" height="68" class="a"/><rect x="2187" y="123.5" width="68" height="68" class="a"/><path d="M2477.3 73.5l9.7 24.3 9.7-24.3h5.1v29.8h-3.9V91.7l0.4-12.5 -9.8 24.1h-3l-9.8-24.1 0.4 12.5v11.6h-3.9V73.5H2477.3z" class="b"/><rect x="2453.1" y="55.5" width="68" height="68" class="a"/><path d="M2490.2 35.3h-3.8V10l-7.6 2.8V9.4l10.8-4.1h0.6V35.3z" class="b"/><path d="M2633.3 35.3h-19.5v-2.7l10.3-11.5c1.5-1.7 2.6-3.1 3.2-4.2 0.6-1.1 0.9-2.2 0.9-3.4 0-1.6-0.5-2.8-1.4-3.8 -0.9-1-2.2-1.5-3.8-1.5 -1.9 0-3.3 0.5-4.4 1.6 -1 1.1-1.6 2.6-1.6 4.5h-3.8c0-2.7 0.9-5 2.7-6.6 1.8-1.7 4.1-2.5 7.1-2.5 2.8 0 5 0.7 6.6 2.2 1.6 1.5 2.4 3.4 2.4 5.8 0 2.9-1.9 6.4-5.6 10.5l-8 8.7h15V35.3z" class="b"/><path d="M2755.3 18.5h2.8c1.8 0 3.2-0.5 4.2-1.4 1-0.9 1.5-2.1 1.5-3.7 0-3.5-1.7-5.2-5.2-5.2 -1.6 0-2.9 0.5-3.9 1.4 -1 0.9-1.5 2.2-1.5 3.7h-3.8c0-2.4 0.9-4.3 2.6-5.9 1.7-1.6 3.9-2.3 6.6-2.3 2.8 0 5 0.7 6.6 2.2 1.6 1.5 2.4 3.6 2.4 6.2 0 1.3-0.4 2.6-1.3 3.8s-2 2.1-3.4 2.7c1.6 0.5 2.9 1.4 3.8 2.6 0.9 1.2 1.3 2.7 1.3 4.4 0 2.7-0.9 4.8-2.6 6.4 -1.7 1.6-4 2.4-6.8 2.4 -2.8 0-5.1-0.8-6.8-2.3s-2.6-3.5-2.6-6h3.8c0 1.6 0.5 2.8 1.5 3.8 1 0.9 2.4 1.4 4.1 1.4 1.8 0 3.2-0.5 4.2-1.4s1.5-2.3 1.5-4.1c0-1.7-0.5-3.1-1.6-4 -1.1-0.9-2.6-1.4-4.6-1.4h-2.8V18.5z" class="b"/><path d="M2901.8 25.3h4.1v3.1h-4.1v6.9h-3.8v-6.9h-13.6v-2.2l13.3-20.6h4V25.3zM2888.7 25.3h9.3V10.7l-0.4 0.8L2888.7 25.3z" class="b"/><path d="M3023.5 20.3l1.5-14.9h15.3v3.5h-12.1l-0.9 8.1c1.5-0.9 3.1-1.3 5-1.3 2.7 0 4.9 0.9 6.5 2.7 1.6 1.8 2.4 4.2 2.4 7.3 0 3.1-0.8 5.5-2.5 7.3 -1.7 1.8-4 2.7-6.9 2.7 -2.6 0-4.8-0.7-6.4-2.2 -1.7-1.5-2.6-3.5-2.8-6.1h3.6c0.2 1.7 0.8 3 1.8 3.9s2.3 1.3 3.9 1.3c1.8 0 3.1-0.6 4.1-1.8 1-1.2 1.5-2.9 1.5-5 0-2-0.5-3.6-1.6-4.8 -1.1-1.2-2.5-1.8-4.3-1.8 -1.7 0-2.9 0.4-3.9 1.1l-1 0.8L3023.5 20.3z" class="b"/><rect x="2453.1" y="123.5" width="68" height="68" class="a"/><path d="M2613.3 73.5l9.7 24.3 9.7-24.3h5.1v29.8h-3.9V91.7l0.4-12.5 -9.8 24.1h-3l-9.8-24.1 0.4 12.5v11.6h-3.9V73.5H2613.3z" class="b"/><rect x="2589.1" y="55.5" width="68" height="68" class="a"/><rect x="2589.1" y="123.5" width="68" height="68" class="a"/><path d="M2749.3 73.5l9.7 24.3 9.7-24.3h5.1v29.8h-3.9V91.7l0.4-12.5 -9.8 24.1h-3l-9.8-24.1 0.4 12.5v11.6h-3.9V73.5H2749.3z" class="b"/><rect x="2725.1" y="55.5" width="68" height="68" class="a"/><rect x="2725.1" y="123.5" width="68" height="68" class="a"/><polyline points="2929.1 157.5 2963.1 157.5 2963.1 259.5 2555.1 259.5 2555.1 89.5 2527.1 89.5 " class="a"/><path d="M2521.1 89.5c2.8-1.1 6.4-2.9 8.5-4.8l-1.7 4.8 1.7 4.8C2527.4 92.4 2523.9 90.6 2521.1 89.5z" class="b"/><path d="M2885.3 73.5l9.7 24.3 9.7-24.3h5.1v29.8h-3.9V91.7l0.4-12.5 -9.8 24.1h-3l-9.8-24.1 0.4 12.5v11.6h-3.9V73.5H2885.3z" class="b"/><path d="M2907.1 157.3c0 2.9-0.5 5.5-1.5 7.6s-2.4 3.8-4.2 5c-1.8 1.1-3.9 1.7-6.3 1.7 -2.3 0-4.4-0.6-6.2-1.7 -1.8-1.2-3.2-2.8-4.2-4.9s-1.5-4.6-1.5-7.4v-2.1c0-2.9 0.5-5.4 1.5-7.6 1-2.2 2.4-3.9 4.2-5 1.8-1.2 3.9-1.7 6.3-1.7 2.4 0 4.5 0.6 6.3 1.7 1.8 1.2 3.2 2.8 4.2 5s1.5 4.7 1.5 7.6V157.3zM2903.1 155.4c0-3.5-0.7-6.2-2.1-8.1 -1.4-1.9-3.4-2.8-6-2.8 -2.5 0-4.4 0.9-5.9 2.8 -1.4 1.9-2.2 4.5-2.2 7.9v2.2c0 3.4 0.7 6.1 2.2 8.1s3.4 2.9 5.9 2.9c2.5 0 4.5-0.9 5.9-2.8s2.1-4.5 2.1-8V155.4z" class="b"/><rect x="2861.1" y="55.5" width="68" height="68" class="a"/><rect x="2861.1" y="123.5" width="68" height="68" class="a"/><path d="M3021.3 73.5l9.7 24.3 9.7-24.3h5.1v29.8h-3.9V91.7l0.4-12.5 -9.8 24.1h-3l-9.8-24.1 0.4 12.5v11.6h-3.9V73.5H3021.3z" class="b"/><path d="M3043.1 157.3c0 2.9-0.5 5.5-1.5 7.6s-2.4 3.8-4.2 5c-1.8 1.1-3.9 1.7-6.3 1.7 -2.3 0-4.4-0.6-6.2-1.7 -1.8-1.2-3.2-2.8-4.2-4.9s-1.5-4.6-1.5-7.4v-2.1c0-2.9 0.5-5.4 1.5-7.6 1-2.2 2.4-3.9 4.2-5 1.8-1.2 3.9-1.7 6.3-1.7 2.4 0 4.5 0.6 6.3 1.7 1.8 1.2 3.2 2.8 4.2 5s1.5 4.7 1.5 7.6V157.3zM3039.1 155.4c0-3.5-0.7-6.2-2.1-8.1 -1.4-1.9-3.4-2.8-6-2.8 -2.5 0-4.4 0.9-5.9 2.8 -1.4 1.9-2.2 4.5-2.2 7.9v2.2c0 3.4 0.7 6.1 2.2 8.1s3.4 2.9 5.9 2.9c2.5 0 4.5-0.9 5.9-2.8s2.1-4.5 2.1-8V155.4z" class="b"/><rect x="2997.1" y="55.5" width="68" height="68" class="a"/><rect x="2997.1" y="123.5" width="68" height="68" class="a"/><path d="M3297.4 73.5l9.7 24.3 9.7-24.3h5.1v29.8h-3.9V91.7l0.4-12.5 -9.8 24.1h-3l-9.8-24.1 0.4 12.5v11.6h-3.9V73.5H3297.4z" class="b"/><rect x="3273.2" y="55.5" width="68" height="68" class="a"/><path d="M3310.3 35.3h-3.8V10l-7.6 2.8V9.4l10.8-4.1h0.6V35.3z" class="b"/><path d="M3453.4 35.3h-19.5v-2.7l10.3-11.5c1.5-1.7 2.6-3.1 3.2-4.2 0.6-1.1 0.9-2.2 0.9-3.4 0-1.6-0.5-2.8-1.4-3.8 -0.9-1-2.2-1.5-3.8-1.5 -1.9 0-3.3 0.5-4.4 1.6 -1 1.1-1.6 2.6-1.6 4.5h-3.8c0-2.7 0.9-5 2.7-6.6 1.8-1.7 4.1-2.5 7.1-2.5 2.8 0 5 0.7 6.6 2.2 1.6 1.5 2.4 3.4 2.4 5.8 0 2.9-1.9 6.4-5.6 10.5l-8 8.7h15V35.3z" class="b"/><path d="M3575.4 18.5h2.8c1.8 0 3.2-0.5 4.2-1.4 1-0.9 1.5-2.1 1.5-3.7 0-3.5-1.7-5.2-5.2-5.2 -1.6 0-2.9 0.5-3.9 1.4 -1 0.9-1.5 2.2-1.5 3.7h-3.8c0-2.4 0.9-4.3 2.6-5.9 1.7-1.6 3.9-2.3 6.6-2.3 2.8 0 5 0.7 6.6 2.2 1.6 1.5 2.4 3.6 2.4 6.2 0 1.3-0.4 2.6-1.3 3.8s-2 2.1-3.4 2.7c1.6 0.5 2.9 1.4 3.8 2.6 0.9 1.2 1.3 2.7 1.3 4.4 0 2.7-0.9 4.8-2.6 6.4 -1.7 1.6-4 2.4-6.8 2.4 -2.8 0-5.1-0.8-6.8-2.3s-2.6-3.5-2.6-6h3.8c0 1.6 0.5 2.8 1.5 3.8 1 0.9 2.4 1.4 4.1 1.4 1.8 0 3.2-0.5 4.2-1.4s1.5-2.3 1.5-4.1c0-1.7-0.5-3.1-1.6-4 -1.1-0.9-2.6-1.4-4.6-1.4h-2.8V18.5z" class="b"/><path d="M3721.9 25.3h4.1v3.1h-4.1v6.9h-3.8v-6.9h-13.6v-2.2l13.3-20.6h4V25.3zM3708.8 25.3h9.3V10.7l-0.4 0.8L3708.8 25.3z" class="b"/><path d="M3843.6 20.3l1.5-14.9h15.3v3.5h-12.1l-0.9 8.1c1.5-0.9 3.1-1.3 5-1.3 2.7 0 4.9 0.9 6.5 2.7 1.6 1.8 2.4 4.2 2.4 7.3 0 3.1-0.8 5.5-2.5 7.3 -1.7 1.8-4 2.7-6.9 2.7 -2.6 0-4.8-0.7-6.4-2.2 -1.7-1.5-2.6-3.5-2.8-6.1h3.6c0.2 1.7 0.8 3 1.8 3.9s2.3 1.3 3.9 1.3c1.8 0 3.1-0.6 4.1-1.8 1-1.2 1.5-2.9 1.5-5 0-2-0.5-3.6-1.6-4.8 -1.1-1.2-2.5-1.8-4.3-1.8 -1.7 0-2.9 0.4-3.9 1.1l-1 0.8L3843.6 20.3z" class="b"/><rect x="3273.2" y="123.5" width="68" height="68" class="a"/><path d="M3433.4 73.5l9.7 24.3 9.7-24.3h5.1v29.8h-3.9V91.7l0.4-12.5 -9.8 24.1h-3l-9.8-24.1 0.4 12.5v11.6h-3.9V73.5H3433.4z" class="b"/><rect x="3409.2" y="55.5" width="68" height="68" class="a"/><rect x="3409.2" y="123.5" width="68" height="68" class="a"/><path d="M3569.4 73.5l9.7 24.3 9.7-24.3h5.1v29.8h-3.9V91.7l0.4-12.5 -9.8 24.1h-3l-9.8-24.1 0.4 12.5v11.6h-3.9V73.5H3569.4z" class="b"/><rect x="3545.2" y="55.5" width="68" height="68" class="a"/><rect x="3545.2" y="123.5" width="68" height="68" class="a"/><polyline points="3885.2 157.5 3919.2 157.5 3919.2 259.5 3375.2 259.5 3375.2 89.5 3347.2 89.5 " class="a"/><path d="M3341.2 89.5c2.8-1.1 6.4-2.9 8.5-4.8l-1.7 4.8 1.7 4.8C3347.5 92.4 3344 90.6 3341.2 89.5z" class="b"/><path d="M3705.4 73.5l9.7 24.3 9.7-24.3h5.1v29.8h-3.9V91.7l0.4-12.5 -9.8 24.1h-3l-9.8-24.1 0.4 12.5v11.6h-3.9V73.5H3705.4z" class="b"/><rect x="3681.2" y="55.5" width="68" height="68" class="a"/><rect x="3681.2" y="123.5" width="68" height="68" class="a"/><path d="M3841.4 73.5l9.7 24.3 9.7-24.3h5.1v29.8h-3.9V91.7l0.4-12.5 -9.8 24.1h-3l-9.8-24.1 0.4 12.5v11.6h-3.9V73.5H3841.4z" class="b"/><path d="M3863.1 157.3c0 2.9-0.5 5.5-1.5 7.6s-2.4 3.8-4.2 5c-1.8 1.1-3.9 1.7-6.3 1.7 -2.3 0-4.4-0.6-6.2-1.7 -1.8-1.2-3.2-2.8-4.2-4.9s-1.5-4.6-1.5-7.4v-2.1c0-2.9 0.5-5.4 1.5-7.6 1-2.2 2.4-3.9 4.2-5 1.8-1.2 3.9-1.7 6.3-1.7 2.4 0 4.5 0.6 6.3 1.7 1.8 1.2 3.2 2.8 4.2 5s1.5 4.7 1.5 7.6V157.3zM3859.2 155.4c0-3.5-0.7-6.2-2.1-8.1 -1.4-1.9-3.4-2.8-6-2.8 -2.5 0-4.4 0.9-5.9 2.8 -1.4 1.9-2.2 4.5-2.2 7.9v2.2c0 3.4 0.7 6.1 2.2 8.1s3.4 2.9 5.9 2.9c2.5 0 4.5-0.9 5.9-2.8s2.1-4.5 2.1-8V155.4z" class="b"/><rect x="3817.2" y="55.5" width="68" height="68" class="a"/><rect x="3817.2" y="123.5" width="68" height="68" class="a"/><path d="M870.9 73.5l9.7 24.3 9.7-24.3h5.1v29.8h-3.9V91.7l0.4-12.5 -9.8 24.1h-3l-9.8-24.1 0.4 12.5v11.6h-3.9V73.5H870.9z" class="b"/><rect x="846.6" y="55.5" width="68" height="68" class="a"/><path d="M883.8 35.3h-3.8V10l-7.6 2.8V9.4l10.8-4.1h0.6V35.3z" class="b"/><path d="M1026.9 35.3h-19.5v-2.7l10.3-11.5c1.5-1.7 2.6-3.1 3.2-4.2 0.6-1.1 0.9-2.2 0.9-3.4 0-1.6-0.5-2.8-1.4-3.8 -0.9-1-2.2-1.5-3.8-1.5 -1.9 0-3.3 0.5-4.4 1.6 -1 1.1-1.6 2.6-1.6 4.5h-3.8c0-2.7 0.9-5 2.7-6.6 1.8-1.7 4.1-2.5 7.1-2.5 2.8 0 5 0.7 6.6 2.2 1.6 1.5 2.4 3.4 2.4 5.8 0 2.9-1.9 6.4-5.6 10.5l-8 8.7h15V35.3z" class="b"/><path d="M1148.9 18.5h2.8c1.8 0 3.2-0.5 4.2-1.4 1-0.9 1.5-2.1 1.5-3.7 0-3.5-1.7-5.2-5.2-5.2 -1.6 0-2.9 0.5-3.9 1.4 -1 0.9-1.5 2.2-1.5 3.7h-3.8c0-2.4 0.9-4.3 2.6-5.9 1.7-1.6 3.9-2.3 6.6-2.3 2.8 0 5 0.7 6.6 2.2 1.6 1.5 2.4 3.6 2.4 6.2 0 1.3-0.4 2.6-1.3 3.8s-2 2.1-3.4 2.7c1.6 0.5 2.9 1.4 3.8 2.6 0.9 1.2 1.3 2.7 1.3 4.4 0 2.7-0.9 4.8-2.6 6.4 -1.7 1.6-4 2.4-6.8 2.4 -2.8 0-5.1-0.8-6.8-2.3s-2.6-3.5-2.6-6h3.8c0 1.6 0.5 2.8 1.5 3.8 1 0.9 2.4 1.4 4.1 1.4 1.8 0 3.2-0.5 4.2-1.4s1.5-2.3 1.5-4.1c0-1.7-0.5-3.1-1.6-4 -1.1-0.9-2.6-1.4-4.6-1.4h-2.8V18.5z" class="b"/><path d="M1295.3 25.3h4.1v3.1h-4.1v6.9h-3.8v-6.9h-13.6v-2.2l13.3-20.6h4V25.3zM1282.3 25.3h9.3V10.7l-0.4 0.8L1282.3 25.3z" class="b"/><path d="M1417.1 20.3l1.5-14.9h15.3v3.5h-12.1l-0.9 8.1c1.5-0.9 3.1-1.3 5-1.3 2.7 0 4.9 0.9 6.5 2.7 1.6 1.8 2.4 4.2 2.4 7.3 0 3.1-0.8 5.5-2.5 7.3 -1.7 1.8-4 2.7-6.9 2.7 -2.6 0-4.8-0.7-6.4-2.2 -1.7-1.5-2.6-3.5-2.8-6.1h3.6c0.2 1.7 0.8 3 1.8 3.9s2.3 1.3 3.9 1.3c1.8 0 3.1-0.6 4.1-1.8 1-1.2 1.5-2.9 1.5-5 0-2-0.5-3.6-1.6-4.8 -1.1-1.2-2.5-1.8-4.3-1.8 -1.7 0-2.9 0.4-3.9 1.1l-1 0.8L1417.1 20.3z" class="b"/><rect x="846.6" y="123.5" width="68" height="68" class="a"/><path d="M1006.9 73.5l9.7 24.3 9.7-24.3h5.1v29.8h-3.9V91.7l0.4-12.5 -9.8 24.1h-3l-9.8-24.1 0.4 12.5v11.6h-3.9V73.5H1006.9z" class="b"/><path d="M1028.6 157.3c0 2.9-0.5 5.5-1.5 7.6s-2.4 3.8-4.2 5c-1.8 1.1-3.9 1.7-6.3 1.7 -2.3 0-4.4-0.6-6.2-1.7 -1.8-1.2-3.2-2.8-4.2-4.9s-1.5-4.6-1.5-7.4v-2.1c0-2.9 0.5-5.4 1.5-7.6 1-2.2 2.4-3.9 4.2-5 1.8-1.2 3.9-1.7 6.3-1.7 2.4 0 4.5 0.6 6.3 1.7 1.8 1.2 3.2 2.8 4.2 5s1.5 4.7 1.5 7.6V157.3zM1024.7 155.4c0-3.5-0.7-6.2-2.1-8.1 -1.4-1.9-3.4-2.8-6-2.8 -2.5 0-4.4 0.9-5.9 2.8 -1.4 1.9-2.2 4.5-2.2 7.9v2.2c0 3.4 0.7 6.1 2.2 8.1s3.4 2.9 5.9 2.9c2.5 0 4.5-0.9 5.9-2.8s2.1-4.5 2.1-8V155.4z" class="b"/><rect x="982.6" y="55.5" width="68" height="68" class="a"/><rect x="982.6" y="123.5" width="68" height="68" class="a"/><path d="M1142.9 73.5l9.7 24.3 9.7-24.3h5.1v29.8h-3.9V91.7l0.4-12.5 -9.8 24.1h-3l-9.8-24.1 0.4 12.5v11.6h-3.9V73.5H1142.9z" class="b"/><path d="M1164.6 157.3c0 2.9-0.5 5.5-1.5 7.6s-2.4 3.8-4.2 5c-1.8 1.1-3.9 1.7-6.3 1.7 -2.3 0-4.4-0.6-6.2-1.7 -1.8-1.2-3.2-2.8-4.2-4.9s-1.5-4.6-1.5-7.4v-2.1c0-2.9 0.5-5.4 1.5-7.6 1-2.2 2.4-3.9 4.2-5 1.8-1.2 3.9-1.7 6.3-1.7 2.4 0 4.5 0.6 6.3 1.7 1.8 1.2 3.2 2.8 4.2 5s1.5 4.7 1.5 7.6V157.3zM1160.7 155.4c0-3.5-0.7-6.2-2.1-8.1 -1.4-1.9-3.4-2.8-6-2.8 -2.5 0-4.4 0.9-5.9 2.8 -1.4 1.9-2.2 4.5-2.2 7.9v2.2c0 3.4 0.7 6.1 2.2 8.1s3.4 2.9 5.9 2.9c2.5 0 4.5-0.9 5.9-2.8s2.1-4.5 2.1-8V155.4z" class="b"/><rect x="1118.6" y="55.5" width="68" height="68" class="a"/><rect x="1118.6" y="123.5" width="68" height="68" class="a"/><polyline points="1050.6 157.5 1084.6 157.5 1084.6 259.5 948.6 259.5 948.6 89.5 920.7 89.5 " class="a"/><path d="M914.6 89.5c2.8-1.1 6.4-2.9 8.5-4.8l-1.7 4.8 1.7 4.8C921 92.4 917.5 90.6 914.6 89.5z" class="b"/><path d="M1278.9 73.5l9.7 24.3 9.7-24.3h5.1v29.8h-3.9V91.7l0.4-12.5 -9.8 24.1h-3l-9.8-24.1 0.4 12.5v11.6h-3.9V73.5H1278.9z" class="b"/><path d="M1300.6 157.3c0 2.9-0.5 5.5-1.5 7.6s-2.4 3.8-4.2 5c-1.8 1.1-3.9 1.7-6.3 1.7 -2.3 0-4.4-0.6-6.2-1.7 -1.8-1.2-3.2-2.8-4.2-4.9s-1.5-4.6-1.5-7.4v-2.1c0-2.9 0.5-5.4 1.5-7.6 1-2.2 2.4-3.9 4.2-5 1.8-1.2 3.9-1.7 6.3-1.7 2.4 0 4.5 0.6 6.3 1.7 1.8 1.2 3.2 2.8 4.2 5s1.5 4.7 1.5 7.6V157.3zM1296.7 155.4c0-3.5-0.7-6.2-2.1-8.1 -1.4-1.9-3.4-2.8-6-2.8 -2.5 0-4.4 0.9-5.9 2.8 -1.4 1.9-2.2 4.5-2.2 7.9v2.2c0 3.4 0.7 6.1 2.2 8.1s3.4 2.9 5.9 2.9c2.5 0 4.5-0.9 5.9-2.8s2.1-4.5 2.1-8V155.4z" class="b"/><rect x="1254.6" y="55.5" width="68" height="68" class="a"/><rect x="1254.6" y="123.5" width="68" height="68" class="a"/><path d="M1414.9 73.5l9.7 24.3 9.7-24.3h5.1v29.8h-3.9V91.7l0.4-12.5 -9.8 24.1h-3l-9.8-24.1 0.4 12.5v11.6h-3.9V73.5H1414.9z" class="b"/><path d="M1436.6 157.3c0 2.9-0.5 5.5-1.5 7.6s-2.4 3.8-4.2 5c-1.8 1.1-3.9 1.7-6.3 1.7 -2.3 0-4.4-0.6-6.2-1.7 -1.8-1.2-3.2-2.8-4.2-4.9s-1.5-4.6-1.5-7.4v-2.1c0-2.9 0.5-5.4 1.5-7.6 1-2.2 2.4-3.9 4.2-5 1.8-1.2 3.9-1.7 6.3-1.7 2.4 0 4.5 0.6 6.3 1.7 1.8 1.2 3.2 2.8 4.2 5s1.5 4.7 1.5 7.6V157.3zM1432.7 155.4c0-3.5-0.7-6.2-2.1-8.1 -1.4-1.9-3.4-2.8-6-2.8 -2.5 0-4.4 0.9-5.9 2.8 -1.4 1.9-2.2 4.5-2.2 7.9v2.2c0 3.4 0.7 6.1 2.2 8.1s3.4 2.9 5.9 2.9c2.5 0 4.5-0.9 5.9-2.8s2.1-4.5 2.1-8V155.4z" class="b"/><rect x="1390.6" y="55.5" width="68" height="68" class="a"/><rect x="1390.6" y="123.5" width="68" height="68" class="a"/><path d="M33.9 73.5l9.7 24.3 9.7-24.3h5.1v29.8h-3.9V91.7l0.4-12.5 -9.8 24.1h-3l-9.8-24.1 0.4 12.5v11.6h-3.9V73.5H33.9z" class="b"/><rect x="9.7" y="55.5" width="68" height="68" class="a"/><path d="M46.8 35.3h-3.8V10l-7.6 2.8V9.4L46.2 5.3h0.6V35.3z" class="b"/><path d="M189.9 35.3H170.4v-2.7l10.3-11.5c1.5-1.7 2.6-3.1 3.2-4.2 0.6-1.1 0.9-2.2 0.9-3.4 0-1.6-0.5-2.8-1.4-3.8 -0.9-1-2.2-1.5-3.8-1.5 -1.9 0-3.3 0.5-4.4 1.6 -1 1.1-1.6 2.6-1.6 4.5h-3.8c0-2.7 0.9-5 2.7-6.6 1.8-1.7 4.1-2.5 7.1-2.5 2.8 0 5 0.7 6.6 2.2 1.6 1.5 2.4 3.4 2.4 5.8 0 2.9-1.9 6.4-5.6 10.5l-8 8.7h15V35.3z" class="b"/><path d="M311.9 18.5h2.8c1.8 0 3.2-0.5 4.2-1.4 1-0.9 1.5-2.1 1.5-3.7 0-3.5-1.7-5.2-5.2-5.2 -1.6 0-2.9 0.5-3.9 1.4 -1 0.9-1.5 2.2-1.5 3.7h-3.8c0-2.4 0.9-4.3 2.6-5.9 1.7-1.6 3.9-2.3 6.6-2.3 2.8 0 5 0.7 6.6 2.2 1.6 1.5 2.4 3.6 2.4 6.2 0 1.3-0.4 2.6-1.3 3.8s-2 2.1-3.4 2.7c1.6 0.5 2.9 1.4 3.8 2.6 0.9 1.2 1.3 2.7 1.3 4.4 0 2.7-0.9 4.8-2.6 6.4 -1.7 1.6-4 2.4-6.8 2.4 -2.8 0-5.1-0.8-6.8-2.3s-2.6-3.5-2.6-6h3.8c0 1.6 0.5 2.8 1.5 3.8 1 0.9 2.4 1.4 4.1 1.4 1.8 0 3.2-0.5 4.2-1.4s1.5-2.3 1.5-4.1c0-1.7-0.5-3.1-1.6-4 -1.1-0.9-2.6-1.4-4.6-1.4h-2.8V18.5z" class="b"/><path d="M458.4 25.3h4.1v3.1h-4.1v6.9h-3.8v-6.9h-13.6v-2.2l13.3-20.6h4V25.3zM445.3 25.3h9.3V10.7l-0.4 0.8L445.3 25.3z" class="b"/><path d="M580.1 20.3l1.5-14.9h15.3v3.5h-12.1l-0.9 8.1c1.5-0.9 3.1-1.3 5-1.3 2.7 0 4.9 0.9 6.5 2.7 1.6 1.8 2.4 4.2 2.4 7.3 0 3.1-0.8 5.5-2.5 7.3 -1.7 1.8-4 2.7-6.9 2.7 -2.6 0-4.8-0.7-6.4-2.2 -1.7-1.5-2.6-3.5-2.8-6.1h3.6c0.2 1.7 0.8 3 1.8 3.9s2.3 1.3 3.9 1.3c1.8 0 3.1-0.6 4.1-1.8 1-1.2 1.5-2.9 1.5-5 0-2-0.5-3.6-1.6-4.8 -1.1-1.2-2.5-1.8-4.3-1.8 -1.7 0-2.9 0.4-3.9 1.1l-1 0.8L580.1 20.3z" class="b"/><rect x="9.7" y="123.5" width="68" height="68" class="a"/><path d="M169.9 73.5l9.7 24.3 9.7-24.3h5.1v29.8h-3.9V91.7l0.4-12.5 -9.8 24.1h-3l-9.8-24.1 0.4 12.5v11.6h-3.9V73.5H169.9z" class="b"/><path d="M191.7 157.3c0 2.9-0.5 5.5-1.5 7.6s-2.4 3.8-4.2 5c-1.8 1.1-3.9 1.7-6.3 1.7 -2.3 0-4.4-0.6-6.2-1.7 -1.8-1.2-3.2-2.8-4.2-4.9s-1.5-4.6-1.5-7.4v-2.1c0-2.9 0.5-5.4 1.5-7.6 1-2.2 2.4-3.9 4.2-5 1.8-1.2 3.9-1.7 6.3-1.7 2.4 0 4.5 0.6 6.3 1.7 1.8 1.2 3.2 2.8 4.2 5s1.5 4.7 1.5 7.6V157.3zM187.7 155.4c0-3.5-0.7-6.2-2.1-8.1 -1.4-1.9-3.4-2.8-6-2.8 -2.5 0-4.4 0.9-5.9 2.8 -1.4 1.9-2.2 4.5-2.2 7.9v2.2c0 3.4 0.7 6.1 2.2 8.1s3.4 2.9 5.9 2.9c2.5 0 4.5-0.9 5.9-2.8s2.1-4.5 2.1-8V155.4z" class="b"/><path d="M55.7 157.3c0 2.9-0.5 5.5-1.5 7.6s-2.4 3.8-4.2 5c-1.8 1.1-3.9 1.7-6.3 1.7 -2.3 0-4.4-0.6-6.2-1.7 -1.8-1.2-3.2-2.8-4.2-4.9s-1.5-4.6-1.5-7.4v-2.1c0-2.9 0.5-5.4 1.5-7.6 1-2.2 2.4-3.9 4.2-5 1.8-1.2 3.9-1.7 6.3-1.7 2.4 0 4.5 0.6 6.3 1.7 1.8 1.2 3.2 2.8 4.2 5s1.5 4.7 1.5 7.6V157.3zM51.7 155.4c0-3.5-0.7-6.2-2.1-8.1 -1.4-1.9-3.4-2.8-6-2.8 -2.5 0-4.4 0.9-5.9 2.8 -1.4 1.9-2.2 4.5-2.2 7.9v2.2c0 3.4 0.7 6.1 2.2 8.1s3.4 2.9 5.9 2.9c2.5 0 4.5-0.9 5.9-2.8s2.1-4.5 2.1-8V155.4z" class="b"/><rect x="145.7" y="55.5" width="68" height="68" class="a"/><rect x="145.7" y="123.5" width="68" height="68" class="a"/><path d="M305.9 73.5l9.7 24.3 9.7-24.3h5.1v29.8h-3.9V91.7l0.4-12.5 -9.8 24.1h-3l-9.8-24.1 0.4 12.5v11.6h-3.9V73.5H305.9z" class="b"/><path d="M327.7 157.3c0 2.9-0.5 5.5-1.5 7.6s-2.4 3.8-4.2 5c-1.8 1.1-3.9 1.7-6.3 1.7 -2.3 0-4.4-0.6-6.2-1.7 -1.8-1.2-3.2-2.8-4.2-4.9s-1.5-4.6-1.5-7.4v-2.1c0-2.9 0.5-5.4 1.5-7.6 1-2.2 2.4-3.9 4.2-5 1.8-1.2 3.9-1.7 6.3-1.7 2.4 0 4.5 0.6 6.3 1.7 1.8 1.2 3.2 2.8 4.2 5s1.5 4.7 1.5 7.6V157.3zM323.7 155.4c0-3.5-0.7-6.2-2.1-8.1 -1.4-1.9-3.4-2.8-6-2.8 -2.5 0-4.4 0.9-5.9 2.8 -1.4 1.9-2.2 4.5-2.2 7.9v2.2c0 3.4 0.7 6.1 2.2 8.1s3.4 2.9 5.9 2.9c2.5 0 4.5-0.9 5.9-2.8s2.1-4.5 2.1-8V155.4z" class="b"/><rect x="281.7" y="55.5" width="68" height="68" class="a"/><rect x="281.7" y="123.5" width="68" height="68" class="a"/><polyline points="77.7 157.5 111.7 157.5 111.7 89.5 83.7 89.5 " class="a"/><path d="M77.7 89.5c2.8-1.1 6.4-2.9 8.5-4.8l-1.7 4.8 1.7 4.8C84 92.4 80.5 90.6 77.7 89.5z" class="b"/><path d="M441.9 73.5l9.7 24.3 9.7-24.3h5.1v29.8h-3.9V91.7l0.4-12.5 -9.8 24.1h-3l-9.8-24.1 0.4 12.5v11.6h-3.9V73.5H441.9z" class="b"/><path d="M463.7 157.3c0 2.9-0.5 5.5-1.5 7.6s-2.4 3.8-4.2 5c-1.8 1.1-3.9 1.7-6.3 1.7 -2.3 0-4.4-0.6-6.2-1.7 -1.8-1.2-3.2-2.8-4.2-4.9s-1.5-4.6-1.5-7.4v-2.1c0-2.9 0.5-5.4 1.5-7.6 1-2.2 2.4-3.9 4.2-5 1.8-1.2 3.9-1.7 6.3-1.7 2.4 0 4.5 0.6 6.3 1.7 1.8 1.2 3.2 2.8 4.2 5s1.5 4.7 1.5 7.6V157.3zM459.7 155.4c0-3.5-0.7-6.2-2.1-8.1 -1.4-1.9-3.4-2.8-6-2.8 -2.5 0-4.4 0.9-5.9 2.8 -1.4 1.9-2.2 4.5-2.2 7.9v2.2c0 3.4 0.7 6.1 2.2 8.1s3.4 2.9 5.9 2.9c2.5 0 4.5-0.9 5.9-2.8s2.1-4.5 2.1-8V155.4z" class="b"/><rect x="417.7" y="55.5" width="68" height="68" class="a"/><rect x="417.7" y="123.5" width="68" height="68" class="a"/><path d="M577.9 73.5l9.7 24.3 9.7-24.3h5.1v29.8h-3.9V91.7l0.4-12.5 -9.8 24.1h-3l-9.8-24.1 0.4 12.5v11.6h-3.9V73.5H577.9z" class="b"/><path d="M599.7 157.3c0 2.9-0.5 5.5-1.5 7.6s-2.4 3.8-4.2 5c-1.8 1.1-3.9 1.7-6.3 1.7 -2.3 0-4.4-0.6-6.2-1.7 -1.8-1.2-3.2-2.8-4.2-4.9s-1.5-4.6-1.5-7.4v-2.1c0-2.9 0.5-5.4 1.5-7.6 1-2.2 2.4-3.9 4.2-5 1.8-1.2 3.9-1.7 6.3-1.7 2.4 0 4.5 0.6 6.3 1.7 1.8 1.2 3.2 2.8 4.2 5s1.5 4.7 1.5 7.6V157.3zM595.7 155.4c0-3.5-0.7-6.2-2.1-8.1 -1.4-1.9-3.4-2.8-6-2.8 -2.5 0-4.4 0.9-5.9 2.8 -1.4 1.9-2.2 4.5-2.2 7.9v2.2c0 3.4 0.7 6.1 2.2 8.1s3.4 2.9 5.9 2.9c2.5 0 4.5-0.9 5.9-2.8s2.1-4.5 2.1-8V155.4z" class="b"/><rect x="553.7" y="55.5" width="68" height="68" class="a"/><rect x="553.7" y="123.5" width="68" height="68" class="a"/><text transform="matrix(1 0 0 1 1658.7041 -702.5)" font-family="'Roboto-Regular'" font-size="41.9111" class="b">  M</text><rect x="1643" y="-750.3" width="68" height="68" class="a"/><text transform="matrix(1 0 0 1 1665.2324 -770.5)" font-family="'Roboto-Regular'" font-size="41.9111" class="b">  1</text><text transform="matrix(1 0 0 1 1801.2324 -770.5)" font-family="'Roboto-Regular'" font-size="41.9111" class="b">  2</text><text transform="matrix(1 0 0 1 1937.2324 -770.5)" font-family="'Roboto-Regular'" font-size="41.9111" class="b">  3</text><text transform="matrix(1 0 0 1 2073.2324 -770.5)" font-family="'Roboto-Regular'" font-size="41.9111" class="b">  4</text><text transform="matrix(1 0 0 1 2209.2324 -770.5)" font-family="'Roboto-Regular'" font-size="41.9111" class="b">  5</text><rect x="1643" y="-682.3" width="68" height="68" class="a"/><text transform="matrix(1 0 0 1 1794.7041 -702.5)" font-family="'Roboto-Regular'" font-size="41.9111" class="b">  M</text><rect x="1779" y="-750.3" width="68" height="68" class="a"/><rect x="1779" y="-682.3" width="68" height="68" class="a"/><text transform="matrix(1 0 0 1 1930.7041 -702.5)" font-family="'Roboto-Regular'" font-size="41.9111" class="b">  M</text><text transform="matrix(1 0 0 1 1934.5928 -634.5)" font-family="'Roboto-Regular'" font-size="41.9111" class="b">  O</text><rect x="1915" y="-750.3" width="68" height="68" class="a"/><rect x="1915" y="-682.3" width="68" height="68" class="a"/><polyline points="1983 -648.3 2017 -648.3 2017 -546.3 1745 -546.3 1745 -716.3 1717 -716.3 " class="a"/><path d="M1711-716.3c2.8-1.1 6.4-2.9 8.5-4.8l-1.7 4.8 1.7 4.8C1717.4-713.4 1713.8-715.2 1711-716.3z" class="b"/><text transform="matrix(1 0 0 1 2066.7041 -702.5)" font-family="'Roboto-Regular'" font-size="41.9111" class="b">  M</text><text transform="matrix(1 0 0 1 2070.5928 -634.5)" font-family="'Roboto-Regular'" font-size="41.9111" class="b">  O</text><rect x="2051" y="-750.3" width="68" height="68" class="a"/><rect x="2051" y="-682.3" width="68" height="68" class="a"/><text transform="matrix(1 0 0 1 2202.7041 -702.5)" font-family="'Roboto-Regular'" font-size="41.9111" class="b">  M</text><text transform="matrix(1 0 0 1 2206.5928 -634.5)" font-family="'Roboto-Regular'" font-size="41.9111" class="b">  O</text><rect x="2187" y="-750.3" width="68" height="68" class="a"/><rect x="2187" y="-682.3" width="68" height="68" class="a"/><text transform="matrix(1 0 0 1 2468.7852 -702.5)" font-family="'Roboto-Regular'" font-size="41.9111" class="b">  M</text><rect x="2453.1" y="-750.3" width="68" height="68" class="a"/><text transform="matrix(1 0 0 1 2475.3135 -770.5)" font-family="'Roboto-Regular'" font-size="41.9111" class="b">  1</text><text transform="matrix(1 0 0 1 2611.3135 -770.5)" font-family="'Roboto-Regular'" font-size="41.9111" class="b">  2</text><text transform="matrix(1 0 0 1 2747.3135 -770.5)" font-family="'Roboto-Regular'" font-size="41.9111" class="b">  3</text><text transform="matrix(1 0 0 1 2883.3135 -770.5)" font-family="'Roboto-Regular'" font-size="41.9111" class="b">  4</text><text transform="matrix(1 0 0 1 3019.3135 -770.5)" font-family="'Roboto-Regular'" font-size="41.9111" class="b">  5</text><rect x="2453.1" y="-682.3" width="68" height="68" class="a"/><text transform="matrix(1 0 0 1 2604.7852 -702.5)" font-family="'Roboto-Regular'" font-size="41.9111" class="b">  M</text><rect x="2589.1" y="-750.3" width="68" height="68" class="a"/><rect x="2589.1" y="-682.3" width="68" height="68" class="a"/><text transform="matrix(1 0 0 1 2740.7852 -702.5)" font-family="'Roboto-Regular'" font-size="41.9111" class="b">  M</text><rect x="2725.1" y="-750.3" width="68" height="68" class="a"/><rect x="2725.1" y="-682.3" width="68" height="68" class="a"/><polyline points="2929.1 -648.3 2963.1 -648.3 2963.1 -546.3 2555.1 -546.3 2555.1 -716.3 2527.1 -716.3 " class="a"/><path d="M2521.1-716.3c2.8-1.1 6.4-2.9 8.5-4.8l-1.7 4.8 1.7 4.8C2527.4-713.4 2523.9-715.2 2521.1-716.3z" class="b"/><text transform="matrix(1 0 0 1 2876.7852 -702.5)" font-family="'Roboto-Regular'" font-size="41.9111" class="b">  M</text><text transform="matrix(1 0 0 1 2880.6738 -634.5)" font-family="'Roboto-Regular'" font-size="41.9111" class="b">  O</text><rect x="2861.1" y="-750.3" width="68" height="68" class="a"/><rect x="2861.1" y="-682.3" width="68" height="68" class="a"/><text transform="matrix(1 0 0 1 3012.7852 -702.5)" font-family="'Roboto-Regular'" font-size="41.9111" class="b">  M</text><text transform="matrix(1 0 0 1 3016.6738 -634.5)" font-family="'Roboto-Regular'" font-size="41.9111" class="b">  O</text><rect x="2997.1" y="-750.3" width="68" height="68" class="a"/><rect x="2997.1" y="-682.3" width="68" height="68" class="a"/><text transform="matrix(1 0 0 1 3288.8691 -702.5)" font-family="'Roboto-Regular'" font-size="41.9111" class="b">  M</text><rect x="3273.2" y="-750.3" width="68" height="68" class="a"/><text transform="matrix(1 0 0 1 3295.3975 -770.5)" font-family="'Roboto-Regular'" font-size="41.9111" class="b">  1</text><text transform="matrix(1 0 0 1 3431.3975 -770.5)" font-family="'Roboto-Regular'" font-size="41.9111" class="b">  2</text><text transform="matrix(1 0 0 1 3567.3975 -770.5)" font-family="'Roboto-Regular'" font-size="41.9111" class="b">  3</text><text transform="matrix(1 0 0 1 3703.3975 -770.5)" font-family="'Roboto-Regular'" font-size="41.9111" class="b">  4</text><text transform="matrix(1 0 0 1 3839.3975 -770.5)" font-family="'Roboto-Regular'" font-size="41.9111" class="b">  5</text><rect x="3273.2" y="-682.3" width="68" height="68" class="a"/><text transform="matrix(1 0 0 1 3424.8691 -702.5)" font-family="'Roboto-Regular'" font-size="41.9111" class="b">  M</text><rect x="3409.2" y="-750.3" width="68" height="68" class="a"/><rect x="3409.2" y="-682.3" width="68" height="68" class="a"/><text transform="matrix(1 0 0 1 3560.8691 -702.5)" font-family="'Roboto-Regular'" font-size="41.9111" class="b">  M</text><rect x="3545.2" y="-750.3" width="68" height="68" class="a"/><rect x="3545.2" y="-682.3" width="68" height="68" class="a"/><polyline points="3885.2 -648.3 3919.2 -648.3 3919.2 -546.3 3375.2 -546.3 3375.2 -716.3 3347.2 -716.3 " class="a"/><path d="M3341.2-716.3c2.8-1.1 6.4-2.9 8.5-4.8l-1.7 4.8 1.7 4.8C3347.5-713.4 3344-715.2 3341.2-716.3z" class="b"/><text transform="matrix(1 0 0 1 3696.8691 -702.5)" font-family="'Roboto-Regular'" font-size="41.9111" class="b">  M</text><rect x="3681.2" y="-750.3" width="68" height="68" class="a"/><rect x="3681.2" y="-682.3" width="68" height="68" class="a"/><text transform="matrix(1 0 0 1 3832.8691 -702.5)" font-family="'Roboto-Regular'" font-size="41.9111" class="b">  M</text><text transform="matrix(1 0 0 1 3836.7578 -634.5)" font-family="'Roboto-Regular'" font-size="41.9111" class="b">  O</text><rect x="3817.2" y="-750.3" width="68" height="68" class="a"/><rect x="3817.2" y="-682.3" width="68" height="68" class="a"/><text transform="matrix(1 0 0 1 862.3428 -702.5)" font-family="'Roboto-Regular'" font-size="41.9111" class="b">  M</text><rect x="846.6" y="-750.3" width="68" height="68" class="a"/><text transform="matrix(1 0 0 1 868.8711 -770.5)" font-family="'Roboto-Regular'" font-size="41.9111" class="b">  1</text><text transform="matrix(1 0 0 1 1004.8711 -770.5)" font-family="'Roboto-Regular'" font-size="41.9111" class="b">  2</text><text transform="matrix(1 0 0 1 1140.8711 -770.5)" font-family="'Roboto-Regular'" font-size="41.9111" class="b">  3</text><text transform="matrix(1 0 0 1 1276.8711 -770.5)" font-family="'Roboto-Regular'" font-size="41.9111" class="b">  4</text><text transform="matrix(1 0 0 1 1412.8711 -770.5)" font-family="'Roboto-Regular'" font-size="41.9111" class="b">  5</text><rect x="846.6" y="-682.3" width="68" height="68" class="a"/><text transform="matrix(1 0 0 1 998.3428 -702.5)" font-family="'Roboto-Regular'" font-size="41.9111" class="b">  M</text><text transform="matrix(1 0 0 1 1002.2314 -634.5)" font-family="'Roboto-Regular'" font-size="41.9111" class="b">  O</text><rect x="982.6" y="-750.3" width="68" height="68" class="a"/><rect x="982.6" y="-682.3" width="68" height="68" class="a"/><text transform="matrix(1 0 0 1 1134.3428 -702.5)" font-family="'Roboto-Regular'" font-size="41.9111" class="b">  M</text><text transform="matrix(1 0 0 1 1138.2314 -634.5)" font-family="'Roboto-Regular'" font-size="41.9111" class="b">  O</text><rect x="1118.6" y="-750.3" width="68" height="68" class="a"/><rect x="1118.6" y="-682.3" width="68" height="68" class="a"/><polyline points="1050.6 -648.3 1084.6 -648.3 1084.6 -546.3 948.6 -546.3 948.6 -716.3 920.7 -716.3 " class="a"/><path d="M914.6-716.3c2.8-1.1 6.4-2.9 8.5-4.8l-1.7 4.8 1.7 4.8C921-713.4 917.5-715.2 914.6-716.3z" class="b"/><text transform="matrix(1 0 0 1 1270.3428 -702.5)" font-family="'Roboto-Regular'" font-size="41.9111" class="b">  M</text><text transform="matrix(1 0 0 1 1274.2314 -634.5)" font-family="'Roboto-Regular'" font-size="41.9111" class="b">  O</text><rect x="1254.6" y="-750.3" width="68" height="68" class="a"/><rect x="1254.6" y="-682.3" width="68" height="68" class="a"/><text transform="matrix(1 0 0 1 1406.3428 -702.5)" font-family="'Roboto-Regular'" font-size="41.9111" class="b">  M</text><text transform="matrix(1 0 0 1 1410.2314 -634.5)" font-family="'Roboto-Regular'" font-size="41.9111" class="b">  O</text><rect x="1390.6" y="-750.3" width="68" height="68" class="a"/><rect x="1390.6" y="-682.3" width="68" height="68" class="a"/><text transform="matrix(1 0 0 1 25.3848 -702.5)" font-family="'Roboto-Regular'" font-size="41.9111" class="b">  M</text><rect x="9.7" y="-750.3" width="68" height="68" class="a"/><text transform="matrix(1 0 0 1 31.9131 -770.5)" font-family="'Roboto-Regular'" font-size="41.9111" class="b">  1</text><text transform="matrix(1 0 0 1 167.9131 -770.5)" font-family="'Roboto-Regular'" font-size="41.9111" class="b">  2</text><text transform="matrix(1 0 0 1 303.9131 -770.5)" font-family="'Roboto-Regular'" font-size="41.9111" class="b">  3</text><text transform="matrix(1 0 0 1 439.9131 -770.5)" font-family="'Roboto-Regular'" font-size="41.9111" class="b">  4</text><text transform="matrix(1 0 0 1 575.9131 -770.5)" font-family="'Roboto-Regular'" font-size="41.9111" class="b">  5</text><rect x="9.7" y="-682.3" width="68" height="68" class="a"/><text transform="matrix(1 0 0 1 161.3848 -702.5)" font-family="'Roboto-Regular'" font-size="41.9111" class="b">  M</text><text transform="matrix(1 0 0 1 165.2734 -634.5)" font-family="'Roboto-Regular'" font-size="41.9111" class="b">  O</text><text transform="matrix(1 0 0 1 29.2734 -634.5)" font-family="'Roboto-Regular'" font-size="41.9111" class="b">  O</text><rect x="145.7" y="-750.3" width="68" height="68" class="a"/><rect x="145.7" y="-682.3" width="68" height="68" class="a"/><text transform="matrix(1 0 0 1 297.3848 -702.5)" font-family="'Roboto-Regular'" font-size="41.9111" class="b">  M</text><text transform="matrix(1 0 0 1 301.2734 -634.5)" font-family="'Roboto-Regular'" font-size="41.9111" class="b">  O</text><rect x="281.7" y="-750.3" width="68" height="68" class="a"/><rect x="281.7" y="-682.3" width="68" height="68" class="a"/><polyline points="77.7 -648.3 111.7 -648.3 111.7 -716.3 83.7 -716.3 " class="a"/><path d="M77.7-716.3c2.8-1.1 6.4-2.9 8.5-4.8l-1.7 4.8 1.7 4.8C84-713.4 80.5-715.2 77.7-716.3z" class="b"/><text transform="matrix(1 0 0 1 433.3848 -702.5)" font-family="'Roboto-Regular'" font-size="41.9111" class="b">  M</text><text transform="matrix(1 0 0 1 437.2734 -634.5)" font-family="'Roboto-Regular'" font-size="41.9111" class="b">  O</text><rect x="417.7" y="-750.3" width="68" height="68" class="a"/><rect x="417.7" y="-682.3" width="68" height="68" class="a"/><text transform="matrix(1 0 0 1 569.3848 -702.5)" font-family="'Roboto-Regular'" font-size="41.9111" class="b">  M</text><text transform="matrix(1 0 0 1 573.2734 -634.5)" font-family="'Roboto-Regular'" font-size="41.9111" class="b">  O</text><rect x="553.7" y="-750.3" width="68" height="68" class="a"/><rect x="553.7" y="-682.3" width="68" height="68" class="a"/><rect x="1454.1" y="837.1" width="232.5" height="127.5" class="a"/><text transform="matrix(1 0 0 1 1528.9629 920.1426)" font-family="'Roboto-Regular'" font-size="75.0523" class="b">  M</text><text transform="matrix(1 0 0 1 1469.5498 1021.2939)" font-family="'Roboto-Regular'" font-size="26.523" class="b">  O</text><text transform="matrix(1 0 0 1 1561.2441 1021.2939)" font-family="'Roboto-Regular'" font-size="26.523" class="b">  O</text><text transform="matrix(1 0 0 1 1651.8232 1021.2939)" font-family="'Roboto-Regular'" font-size="26.523" class="b">  O</text><circle cx="1478.7" cy="1012.5" r="25.7" class="a"/><circle cx="1569.8" cy="1012.5" r="25.7" class="a"/><circle cx="1660.9" cy="1012.5" r="25.7" class="a"/></svg>