<svg xmlns="http://www.w3.org/2000/svg" width="748" height="408" viewBox="0 0 748 408"><style>.a{fill:none;stroke:#000;}</style><rect x="1109" y="-150" width="68" height="136" class="a"/><rect x="2987.4" y="-150" width="68" height="136" class="a"/><rect x="2109.3" y="-150" width="68" height="136" class="a"/><rect x="2177.3" y="-150" width="68" height="136" class="a"/><rect x="2245.3" y="-150" width="68" height="136" class="a"/><path d="M1725.6 154l9.7 24.3 9.7-24.3h5.1v29.8h-3.9v-11.6l0.4-12.5 -9.8 24.1h-3l-9.8-24.1 0.4 12.5v11.6h-3.9v-29.8H1725.6z"/><rect x="1701.3" y="136" width="68" height="68" class="a"/><path d="M1738.5 115.8h-3.8V90.5l-7.6 2.8v-3.4l10.8-4.1h0.6V115.8z"/><path d="M1881.6 115.8h-19.5v-2.7l10.3-11.5c1.5-1.7 2.6-3.1 3.2-4.2 0.6-1.1 0.9-2.2 0.9-3.4 0-1.6-0.5-2.8-1.4-3.8 -0.9-1-2.2-1.5-3.8-1.5 -1.9 0-3.3 0.5-4.4 1.6 -1 1.1-1.6 2.6-1.6 4.5h-3.8c0-2.7 0.9-5 2.7-6.6 1.8-1.7 4.1-2.5 7.1-2.5 2.8 0 5 0.7 6.6 2.2 1.6 1.5 2.4 3.4 2.4 5.8 0 2.9-1.9 6.4-5.6 10.5l-8 8.7h15V115.8z"/><path d="M2003.5 99h2.8c1.8 0 3.2-0.5 4.2-1.4 1-0.9 1.5-2.1 1.5-3.7 0-3.5-1.7-5.2-5.2-5.2 -1.6 0-2.9 0.5-3.9 1.4 -1 0.9-1.5 2.2-1.5 3.7h-3.8c0-2.4 0.9-4.3 2.6-5.9 1.7-1.6 3.9-2.3 6.6-2.3 2.8 0 5 0.7 6.6 2.2 1.6 1.5 2.4 3.6 2.4 6.2 0 1.3-0.4 2.6-1.3 3.8s-2 2.1-3.4 2.7c1.6 0.5 2.9 1.4 3.8 2.6 0.9 1.2 1.3 2.7 1.3 4.4 0 2.7-0.9 4.8-2.6 6.4 -1.7 1.6-4 2.4-6.8 2.4 -2.8 0-5.1-0.8-6.8-2.3s-2.6-3.5-2.6-6h3.8c0 1.6 0.5 2.8 1.5 3.8 1 0.9 2.4 1.4 4.1 1.4 1.8 0 3.2-0.5 4.2-1.4s1.5-2.3 1.5-4.1c0-1.7-0.5-3.1-1.6-4 -1.1-0.9-2.6-1.4-4.6-1.4h-2.8V99z"/><path d="M2150 105.8h4.1v3.1h-4.1v6.9h-3.8v-6.9h-13.6v-2.2l13.3-20.6h4V105.8zM2136.9 105.8h9.3V91.2l-0.4 0.8L2136.9 105.8z"/><path d="M2271.8 100.8l1.5-14.9h15.3v3.5h-12.1l-0.9 8.1c1.5-0.9 3.1-1.3 5-1.3 2.7 0 4.9 0.9 6.5 2.7 1.6 1.8 2.4 4.2 2.4 7.3 0 3.1-0.8 5.5-2.5 7.3 -1.7 1.8-4 2.7-6.9 2.7 -2.6 0-4.8-0.7-6.4-2.2 -1.7-1.5-2.6-3.5-2.8-6.1h3.6c0.2 1.7 0.8 3 1.8 3.9s2.3 1.3 3.9 1.3c1.8 0 3.1-0.6 4.1-1.8 1-1.2 1.5-2.9 1.5-5 0-2-0.5-3.6-1.6-4.8 -1.1-1.2-2.5-1.8-4.3-1.8 -1.7 0-2.9 0.4-3.9 1.1l-1 0.8L2271.8 100.8z"/><rect x="1701.3" y="204" width="68" height="68" class="a"/><path d="M1861.6 154l9.7 24.3 9.7-24.3h5.1v29.8h-3.9v-11.6l0.4-12.5 -9.8 24.1h-3l-9.8-24.1 0.4 12.5v11.6h-3.9v-29.8H1861.6z"/><rect x="1837.3" y="136" width="68" height="68" class="a"/><rect x="1837.3" y="204" width="68" height="68" class="a"/><path d="M1997.6 154l9.7 24.3 9.7-24.3h5.1v29.8h-3.9v-11.6l0.4-12.5 -9.8 24.1h-3l-9.8-24.1 0.4 12.5v11.6h-3.9v-29.8H1997.6z"/><path d="M2019.3 237.8c0 2.9-0.5 5.5-1.5 7.6s-2.4 3.8-4.2 5c-1.8 1.1-3.9 1.7-6.3 1.7 -2.3 0-4.4-0.6-6.2-1.7 -1.8-1.2-3.2-2.8-4.2-4.9s-1.5-4.6-1.5-7.4v-2.1c0-2.9 0.5-5.4 1.5-7.6 1-2.2 2.4-3.9 4.2-5 1.8-1.2 3.9-1.7 6.3-1.7 2.4 0 4.5 0.6 6.3 1.7 1.8 1.2 3.2 2.8 4.2 5s1.5 4.7 1.5 7.6V237.8zM2015.4 235.9c0-3.5-0.7-6.2-2.1-8.1 -1.4-1.9-3.4-2.8-6-2.8 -2.5 0-4.4 0.9-5.9 2.8 -1.4 1.9-2.2 4.5-2.2 7.9v2.2c0 3.4 0.7 6.1 2.2 8.1s3.4 2.9 5.9 2.9c2.5 0 4.5-0.9 5.9-2.8s2.1-4.5 2.1-8V235.9z"/><rect x="1973.3" y="136" width="68" height="68" class="a"/><rect x="1973.3" y="204" width="68" height="68" class="a"/><polyline points="2041.3 238 2075.3 238 2075.3 340 1803.3 340 1803.3 170 1775.4 170 " class="a"/><path d="M1769.3 170c2.8-1.1 6.4-2.9 8.5-4.8l-1.7 4.8 1.7 4.8C1775.7 172.9 1772.2 171.1 1769.3 170z"/><path d="M2133.6 154l9.7 24.3 9.7-24.3h5.1v29.8h-3.9v-11.6l0.4-12.5 -9.8 24.1h-3l-9.8-24.1 0.4 12.5v11.6h-3.9v-29.8H2133.6z"/><path d="M2155.3 237.8c0 2.9-0.5 5.5-1.5 7.6s-2.4 3.8-4.2 5c-1.8 1.1-3.9 1.7-6.3 1.7 -2.3 0-4.4-0.6-6.2-1.7 -1.8-1.2-3.2-2.8-4.2-4.9s-1.5-4.6-1.5-7.4v-2.1c0-2.9 0.5-5.4 1.5-7.6 1-2.2 2.4-3.9 4.2-5 1.8-1.2 3.9-1.7 6.3-1.7 2.4 0 4.5 0.6 6.3 1.7 1.8 1.2 3.2 2.8 4.2 5s1.5 4.7 1.5 7.6V237.8zM2151.4 235.9c0-3.5-0.7-6.2-2.1-8.1 -1.4-1.9-3.4-2.8-6-2.8 -2.5 0-4.4 0.9-5.9 2.8 -1.4 1.9-2.2 4.5-2.2 7.9v2.2c0 3.4 0.7 6.1 2.2 8.1s3.4 2.9 5.9 2.9c2.5 0 4.5-0.9 5.9-2.8s2.1-4.5 2.1-8V235.9z"/><rect x="2109.3" y="136" width="68" height="68" class="a"/><rect x="2109.3" y="204" width="68" height="68" class="a"/><path d="M2269.6 154l9.7 24.3 9.7-24.3h5.1v29.8h-3.9v-11.6l0.4-12.5 -9.8 24.1h-3l-9.8-24.1 0.4 12.5v11.6h-3.9v-29.8H2269.6z"/><path d="M2291.3 237.8c0 2.9-0.5 5.5-1.5 7.6s-2.4 3.8-4.2 5c-1.8 1.1-3.9 1.7-6.3 1.7 -2.3 0-4.4-0.6-6.2-1.7 -1.8-1.2-3.2-2.8-4.2-4.9s-1.5-4.6-1.5-7.4v-2.1c0-2.9 0.5-5.4 1.5-7.6 1-2.2 2.4-3.9 4.2-5 1.8-1.2 3.9-1.7 6.3-1.7 2.4 0 4.5 0.6 6.3 1.7 1.8 1.2 3.2 2.8 4.2 5s1.5 4.7 1.5 7.6V237.8zM2287.4 235.9c0-3.5-0.7-6.2-2.1-8.1 -1.4-1.9-3.4-2.8-6-2.8 -2.5 0-4.4 0.9-5.9 2.8 -1.4 1.9-2.2 4.5-2.2 7.9v2.2c0 3.4 0.7 6.1 2.2 8.1s3.4 2.9 5.9 2.9c2.5 0 4.5-0.9 5.9-2.8s2.1-4.5 2.1-8V235.9z"/><rect x="2245.3" y="136" width="68" height="68" class="a"/><rect x="2245.3" y="204" width="68" height="68" class="a"/><path d="M2535.6 154l9.7 24.3 9.7-24.3h5.1v29.8h-3.9v-11.6l0.4-12.5 -9.8 24.1h-3l-9.8-24.1 0.4 12.5v11.6h-3.9v-29.8H2535.6z"/><rect x="2511.4" y="136" width="68" height="68" class="a"/><path d="M2548.6 115.8h-3.8V90.5l-7.6 2.8v-3.4l10.8-4.1h0.6V115.8z"/><path d="M2691.6 115.8h-19.5v-2.7l10.3-11.5c1.5-1.7 2.6-3.1 3.2-4.2 0.6-1.1 0.9-2.2 0.9-3.4 0-1.6-0.5-2.8-1.4-3.8 -0.9-1-2.2-1.5-3.8-1.5 -1.9 0-3.3 0.5-4.4 1.6 -1 1.1-1.6 2.6-1.6 4.5h-3.8c0-2.7 0.9-5 2.7-6.6 1.8-1.7 4.1-2.5 7.1-2.5 2.8 0 5 0.7 6.6 2.2 1.6 1.5 2.4 3.4 2.4 5.8 0 2.9-1.9 6.4-5.6 10.5l-8 8.7h15V115.8z"/><path d="M2813.6 99h2.8c1.8 0 3.2-0.5 4.2-1.4 1-0.9 1.5-2.1 1.5-3.7 0-3.5-1.7-5.2-5.2-5.2 -1.6 0-2.9 0.5-3.9 1.4 -1 0.9-1.5 2.2-1.5 3.7h-3.8c0-2.4 0.9-4.3 2.6-5.9 1.7-1.6 3.9-2.3 6.6-2.3 2.8 0 5 0.7 6.6 2.2 1.6 1.5 2.4 3.6 2.4 6.2 0 1.3-0.4 2.6-1.3 3.8s-2 2.1-3.4 2.7c1.6 0.5 2.9 1.4 3.8 2.6 0.9 1.2 1.3 2.7 1.3 4.4 0 2.7-0.9 4.8-2.6 6.4 -1.7 1.6-4 2.4-6.8 2.4 -2.8 0-5.1-0.8-6.8-2.3s-2.6-3.5-2.6-6h3.8c0 1.6 0.5 2.8 1.5 3.8 1 0.9 2.4 1.4 4.1 1.4 1.8 0 3.2-0.5 4.2-1.4s1.5-2.3 1.5-4.1c0-1.7-0.5-3.1-1.6-4 -1.1-0.9-2.6-1.4-4.6-1.4h-2.8V99z"/><path d="M2960.1 105.8h4.1v3.1h-4.1v6.9h-3.8v-6.9h-13.6v-2.2l13.3-20.6h4V105.8zM2947 105.8h9.3V91.2l-0.4 0.8L2947 105.8z"/><path d="M3081.8 100.8l1.5-14.9h15.3v3.5h-12.1l-0.9 8.1c1.5-0.9 3.1-1.3 5-1.3 2.7 0 4.9 0.9 6.5 2.7 1.6 1.8 2.4 4.2 2.4 7.3 0 3.1-0.8 5.5-2.5 7.3 -1.7 1.8-4 2.7-6.9 2.7 -2.6 0-4.8-0.7-6.4-2.2 -1.7-1.5-2.6-3.5-2.8-6.1h3.6c0.2 1.7 0.8 3 1.8 3.9s2.3 1.3 3.9 1.3c1.8 0 3.1-0.6 4.1-1.8 1-1.2 1.5-2.9 1.5-5 0-2-0.5-3.6-1.6-4.8 -1.1-1.2-2.5-1.8-4.3-1.8 -1.7 0-2.9 0.4-3.9 1.1l-1 0.8L3081.8 100.8z"/><rect x="2511.4" y="204" width="68" height="68" class="a"/><path d="M2671.6 154l9.7 24.3 9.7-24.3h5.1v29.8h-3.9v-11.6l0.4-12.5 -9.8 24.1h-3l-9.8-24.1 0.4 12.5v11.6h-3.9v-29.8H2671.6z"/><rect x="2647.4" y="136" width="68" height="68" class="a"/><rect x="2647.4" y="204" width="68" height="68" class="a"/><path d="M2807.6 154l9.7 24.3 9.7-24.3h5.1v29.8h-3.9v-11.6l0.4-12.5 -9.8 24.1h-3l-9.8-24.1 0.4 12.5v11.6h-3.9v-29.8H2807.6z"/><rect x="2783.4" y="136" width="68" height="68" class="a"/><rect x="2783.4" y="204" width="68" height="68" class="a"/><polyline points="2987.4 238 3021.4 238 3021.4 340 2613.4 340 2613.4 170 2585.4 170 " class="a"/><path d="M2579.4 170c2.8-1.1 6.4-2.9 8.5-4.8l-1.7 4.8 1.7 4.8C2585.8 172.9 2582.2 171.1 2579.4 170z"/><path d="M2943.6 154l9.7 24.3 9.7-24.3h5.1v29.8h-3.9v-11.6l0.4-12.5 -9.8 24.1h-3l-9.8-24.1 0.4 12.5v11.6h-3.9v-29.8H2943.6z"/><path d="M2965.4 237.8c0 2.9-0.5 5.5-1.5 7.6s-2.4 3.8-4.2 5c-1.8 1.1-3.9 1.7-6.3 1.7 -2.3 0-4.4-0.6-6.2-1.7 -1.8-1.2-3.2-2.8-4.2-4.9s-1.5-4.6-1.5-7.4v-2.1c0-2.9 0.5-5.4 1.5-7.6 1-2.2 2.4-3.9 4.2-5 1.8-1.2 3.9-1.7 6.3-1.7 2.4 0 4.5 0.6 6.3 1.7 1.8 1.2 3.2 2.8 4.2 5s1.5 4.7 1.5 7.6V237.8zM2961.5 235.9c0-3.5-0.7-6.2-2.1-8.1 -1.4-1.9-3.4-2.8-6-2.8 -2.5 0-4.4 0.9-5.9 2.8 -1.4 1.9-2.2 4.5-2.2 7.9v2.2c0 3.4 0.7 6.1 2.2 8.1s3.4 2.9 5.9 2.9c2.5 0 4.5-0.9 5.9-2.8s2.1-4.5 2.1-8V235.9z"/><rect x="2919.4" y="136" width="68" height="68" class="a"/><rect x="2919.4" y="204" width="68" height="68" class="a"/><path d="M3079.6 154l9.7 24.3 9.7-24.3h5.1v29.8h-3.9v-11.6l0.4-12.5 -9.8 24.1h-3l-9.8-24.1 0.4 12.5v11.6h-3.9v-29.8H3079.6z"/><path d="M3101.4 237.8c0 2.9-0.5 5.5-1.5 7.6s-2.4 3.8-4.2 5c-1.8 1.1-3.9 1.7-6.3 1.7 -2.3 0-4.4-0.6-6.2-1.7 -1.8-1.2-3.2-2.8-4.2-4.9s-1.5-4.6-1.5-7.4v-2.1c0-2.9 0.5-5.4 1.5-7.6 1-2.2 2.4-3.9 4.2-5 1.8-1.2 3.9-1.7 6.3-1.7 2.4 0 4.5 0.6 6.3 1.7 1.8 1.2 3.2 2.8 4.2 5s1.5 4.7 1.5 7.6V237.8zM3097.5 235.9c0-3.5-0.7-6.2-2.1-8.1 -1.4-1.9-3.4-2.8-6-2.8 -2.5 0-4.4 0.9-5.9 2.8 -1.4 1.9-2.2 4.5-2.2 7.9v2.2c0 3.4 0.7 6.1 2.2 8.1s3.4 2.9 5.9 2.9c2.5 0 4.5-0.9 5.9-2.8s2.1-4.5 2.1-8V235.9z"/><rect x="3055.4" y="136" width="68" height="68" class="a"/><rect x="3055.4" y="204" width="68" height="68" class="a"/><path d="M3355.7 154l9.7 24.3 9.7-24.3h5.1v29.8h-3.9v-11.6l0.4-12.5 -9.8 24.1h-3l-9.8-24.1 0.4 12.5v11.6h-3.9v-29.8H3355.7z"/><rect x="3331.5" y="136" width="68" height="68" class="a"/><path d="M3368.6 115.8h-3.8V90.5l-7.6 2.8v-3.4l10.8-4.1h0.6V115.8z"/><path d="M3511.7 115.8h-19.5v-2.7l10.3-11.5c1.5-1.7 2.6-3.1 3.2-4.2 0.6-1.1 0.9-2.2 0.9-3.4 0-1.6-0.5-2.8-1.4-3.8 -0.9-1-2.2-1.5-3.8-1.5 -1.9 0-3.3 0.5-4.4 1.6 -1 1.1-1.6 2.6-1.6 4.5h-3.8c0-2.7 0.9-5 2.7-6.6 1.8-1.7 4.1-2.5 7.1-2.5 2.8 0 5 0.7 6.6 2.2 1.6 1.5 2.4 3.4 2.4 5.8 0 2.9-1.9 6.4-5.6 10.5l-8 8.7h15V115.8z"/><path d="M3633.7 99h2.8c1.8 0 3.2-0.5 4.2-1.4 1-0.9 1.5-2.1 1.5-3.7 0-3.5-1.7-5.2-5.2-5.2 -1.6 0-2.9 0.5-3.9 1.4 -1 0.9-1.5 2.2-1.5 3.7h-3.8c0-2.4 0.9-4.3 2.6-5.9 1.7-1.6 3.9-2.3 6.6-2.3 2.8 0 5 0.7 6.6 2.2 1.6 1.5 2.4 3.6 2.4 6.2 0 1.3-0.4 2.6-1.3 3.8s-2 2.1-3.4 2.7c1.6 0.5 2.9 1.4 3.8 2.6 0.9 1.2 1.3 2.7 1.3 4.4 0 2.7-0.9 4.8-2.6 6.4 -1.7 1.6-4 2.4-6.8 2.4 -2.8 0-5.1-0.8-6.8-2.3s-2.6-3.5-2.6-6h3.8c0 1.6 0.5 2.8 1.5 3.8 1 0.9 2.4 1.4 4.1 1.4 1.8 0 3.2-0.5 4.2-1.4s1.5-2.3 1.5-4.1c0-1.7-0.5-3.1-1.6-4 -1.1-0.9-2.6-1.4-4.6-1.4h-2.8V99z"/><path d="M3780.2 105.8h4.1v3.1h-4.1v6.9h-3.8v-6.9h-13.6v-2.2l13.3-20.6h4V105.8zM3767.1 105.8h9.3V91.2l-0.4 0.8L3767.1 105.8z"/><path d="M3901.9 100.8l1.5-14.9h15.3v3.5h-12.1l-0.9 8.1c1.5-0.9 3.1-1.3 5-1.3 2.7 0 4.9 0.9 6.5 2.7 1.6 1.8 2.4 4.2 2.4 7.3 0 3.1-0.8 5.5-2.5 7.3 -1.7 1.8-4 2.7-6.9 2.7 -2.6 0-4.8-0.7-6.4-2.2 -1.7-1.5-2.6-3.5-2.8-6.1h3.6c0.2 1.7 0.8 3 1.8 3.9s2.3 1.3 3.9 1.3c1.8 0 3.1-0.6 4.1-1.8 1-1.2 1.5-2.9 1.5-5 0-2-0.5-3.6-1.6-4.8 -1.1-1.2-2.5-1.8-4.3-1.8 -1.7 0-2.9 0.4-3.9 1.1l-1 0.8L3901.9 100.8z"/><rect x="3331.5" y="204" width="68" height="68" class="a"/><path d="M3491.7 154l9.7 24.3 9.7-24.3h5.1v29.8h-3.9v-11.6l0.4-12.5 -9.8 24.1h-3l-9.8-24.1 0.4 12.5v11.6h-3.9v-29.8H3491.7z"/><rect x="3467.5" y="136" width="68" height="68" class="a"/><rect x="3467.5" y="204" width="68" height="68" class="a"/><path d="M3627.7 154l9.7 24.3 9.7-24.3h5.1v29.8h-3.9v-11.6l0.4-12.5 -9.8 24.1h-3l-9.8-24.1 0.4 12.5v11.6h-3.9v-29.8H3627.7z"/><rect x="3603.5" y="136" width="68" height="68" class="a"/><rect x="3603.5" y="204" width="68" height="68" class="a"/><polyline points="3943.5 238 3977.5 238 3977.5 340 3433.5 340 3433.5 170 3405.5 170 " class="a"/><path d="M3399.5 170c2.8-1.1 6.4-2.9 8.5-4.8l-1.7 4.8 1.7 4.8C3405.8 172.9 3402.3 171.1 3399.5 170z"/><path d="M3763.7 154l9.7 24.3 9.7-24.3h5.1v29.8h-3.9v-11.6l0.4-12.5 -9.8 24.1h-3l-9.8-24.1 0.4 12.5v11.6h-3.9v-29.8H3763.7z"/><rect x="3739.5" y="136" width="68" height="68" class="a"/><rect x="3739.5" y="204" width="68" height="68" class="a"/><path d="M3899.7 154l9.7 24.3 9.7-24.3h5.1v29.8h-3.9v-11.6l0.4-12.5 -9.8 24.1h-3l-9.8-24.1 0.4 12.5v11.6h-3.9v-29.8H3899.7z"/><path d="M3921.5 237.8c0 2.9-0.5 5.5-1.5 7.6s-2.4 3.8-4.2 5c-1.8 1.1-3.9 1.7-6.3 1.7 -2.3 0-4.4-0.6-6.2-1.7 -1.8-1.2-3.2-2.8-4.2-4.9s-1.5-4.6-1.5-7.4v-2.1c0-2.9 0.5-5.4 1.5-7.6 1-2.2 2.4-3.9 4.2-5 1.8-1.2 3.9-1.7 6.3-1.7 2.4 0 4.5 0.6 6.3 1.7 1.8 1.2 3.2 2.8 4.2 5s1.5 4.7 1.5 7.6V237.8zM3917.5 235.9c0-3.5-0.7-6.2-2.1-8.1 -1.4-1.9-3.4-2.8-6-2.8 -2.5 0-4.4 0.9-5.9 2.8 -1.4 1.9-2.2 4.5-2.2 7.9v2.2c0 3.4 0.7 6.1 2.2 8.1s3.4 2.9 5.9 2.9c2.5 0 4.5-0.9 5.9-2.8s2.1-4.5 2.1-8V235.9z"/><rect x="3875.5" y="136" width="68" height="68" class="a"/><rect x="3875.5" y="204" width="68" height="68" class="a"/><path d="M929.2 154l9.7 24.3 9.7-24.3h5.1v29.8h-3.9v-11.6l0.4-12.5 -9.8 24.1h-3l-9.8-24.1 0.4 12.5v11.6h-3.9v-29.8H929.2z"/><rect x="905" y="136" width="68" height="68" class="a"/><path d="M942.1 115.8h-3.8V90.5l-7.6 2.8v-3.4l10.8-4.1h0.6V115.8z"/><path d="M1085.2 115.8h-19.5v-2.7l10.3-11.5c1.5-1.7 2.6-3.1 3.2-4.2 0.6-1.1 0.9-2.2 0.9-3.4 0-1.6-0.5-2.8-1.4-3.8 -0.9-1-2.2-1.5-3.8-1.5 -1.9 0-3.3 0.5-4.4 1.6 -1 1.1-1.6 2.6-1.6 4.5h-3.8c0-2.7 0.9-5 2.7-6.6 1.8-1.7 4.1-2.5 7.1-2.5 2.8 0 5 0.7 6.6 2.2 1.6 1.5 2.4 3.4 2.4 5.8 0 2.9-1.9 6.4-5.6 10.5l-8 8.7h15V115.8z"/><path d="M1207.2 99h2.8c1.8 0 3.2-0.5 4.2-1.4 1-0.9 1.5-2.1 1.5-3.7 0-3.5-1.7-5.2-5.2-5.2 -1.6 0-2.9 0.5-3.9 1.4 -1 0.9-1.5 2.2-1.5 3.7h-3.8c0-2.4 0.9-4.3 2.6-5.9 1.7-1.6 3.9-2.3 6.6-2.3 2.8 0 5 0.7 6.6 2.2 1.6 1.5 2.4 3.6 2.4 6.2 0 1.3-0.4 2.6-1.3 3.8s-2 2.1-3.4 2.7c1.6 0.5 2.9 1.4 3.8 2.6 0.9 1.2 1.3 2.7 1.3 4.4 0 2.7-0.9 4.8-2.6 6.4 -1.7 1.6-4 2.4-6.8 2.4 -2.8 0-5.1-0.8-6.8-2.3s-2.6-3.5-2.6-6h3.8c0 1.6 0.5 2.8 1.5 3.8 1 0.9 2.4 1.4 4.1 1.4 1.8 0 3.2-0.5 4.2-1.4s1.5-2.3 1.5-4.1c0-1.7-0.5-3.1-1.6-4 -1.1-0.9-2.6-1.4-4.6-1.4h-2.8V99z"/><path d="M1353.6 105.8h4.1v3.1h-4.1v6.9h-3.8v-6.9h-13.6v-2.2l13.3-20.6h4V105.8zM1340.6 105.8h9.3V91.2l-0.4 0.8L1340.6 105.8z"/><path d="M1475.4 100.8l1.5-14.9h15.3v3.5h-12.1l-0.9 8.1c1.5-0.9 3.1-1.3 5-1.3 2.7 0 4.9 0.9 6.5 2.7 1.6 1.8 2.4 4.2 2.4 7.3 0 3.1-0.8 5.5-2.5 7.3 -1.7 1.8-4 2.7-6.9 2.7 -2.6 0-4.8-0.7-6.4-2.2 -1.7-1.5-2.6-3.5-2.8-6.1h3.6c0.2 1.7 0.8 3 1.8 3.9s2.3 1.3 3.9 1.3c1.8 0 3.1-0.6 4.1-1.8 1-1.2 1.5-2.9 1.5-5 0-2-0.5-3.6-1.6-4.8 -1.1-1.2-2.5-1.8-4.3-1.8 -1.7 0-2.9 0.4-3.9 1.1l-1 0.8L1475.4 100.8z"/><rect x="905" y="204" width="68" height="68" class="a"/><path d="M1065.2 154l9.7 24.3 9.7-24.3h5.1v29.8h-3.9v-11.6l0.4-12.5 -9.8 24.1h-3l-9.8-24.1 0.4 12.5v11.6h-3.9v-29.8H1065.2z"/><path d="M1086.9 237.8c0 2.9-0.5 5.5-1.5 7.6s-2.4 3.8-4.2 5c-1.8 1.1-3.9 1.7-6.3 1.7 -2.3 0-4.4-0.6-6.2-1.7 -1.8-1.2-3.2-2.8-4.2-4.9s-1.5-4.6-1.5-7.4v-2.1c0-2.9 0.5-5.4 1.5-7.6 1-2.2 2.4-3.9 4.2-5 1.8-1.2 3.9-1.7 6.3-1.7 2.4 0 4.5 0.6 6.3 1.7 1.8 1.2 3.2 2.8 4.2 5s1.5 4.7 1.5 7.6V237.8zM1083 235.9c0-3.5-0.7-6.2-2.1-8.1 -1.4-1.9-3.4-2.8-6-2.8 -2.5 0-4.4 0.9-5.9 2.8 -1.4 1.9-2.2 4.5-2.2 7.9v2.2c0 3.4 0.7 6.1 2.2 8.1s3.4 2.9 5.9 2.9c2.5 0 4.5-0.9 5.9-2.8s2.1-4.5 2.1-8V235.9z"/><rect x="1041" y="136" width="68" height="68" class="a"/><rect x="1041" y="204" width="68" height="68" class="a"/><path d="M1201.2 154l9.7 24.3 9.7-24.3h5.1v29.8h-3.9v-11.6l0.4-12.5 -9.8 24.1h-3l-9.8-24.1 0.4 12.5v11.6h-3.9v-29.8H1201.2z"/><path d="M1222.9 237.8c0 2.9-0.5 5.5-1.5 7.6s-2.4 3.8-4.2 5c-1.8 1.1-3.9 1.7-6.3 1.7 -2.3 0-4.4-0.6-6.2-1.7 -1.8-1.2-3.2-2.8-4.2-4.9s-1.5-4.6-1.5-7.4v-2.1c0-2.9 0.5-5.4 1.5-7.6 1-2.2 2.4-3.9 4.2-5 1.8-1.2 3.9-1.7 6.3-1.7 2.4 0 4.5 0.6 6.3 1.7 1.8 1.2 3.2 2.8 4.2 5s1.5 4.7 1.5 7.6V237.8zM1219 235.9c0-3.5-0.7-6.2-2.1-8.1 -1.4-1.9-3.4-2.8-6-2.8 -2.5 0-4.4 0.9-5.9 2.8 -1.4 1.9-2.2 4.5-2.2 7.9v2.2c0 3.4 0.7 6.1 2.2 8.1s3.4 2.9 5.9 2.9c2.5 0 4.5-0.9 5.9-2.8s2.1-4.5 2.1-8V235.9z"/><rect x="1177" y="136" width="68" height="68" class="a"/><rect x="1177" y="204" width="68" height="68" class="a"/><polyline points="1109 238 1143 238 1143 340 1007 340 1007 170 979 170 " class="a"/><path d="M973 170c2.8-1.1 6.4-2.9 8.5-4.8l-1.7 4.8 1.7 4.8C979.3 172.9 975.8 171.1 973 170z"/><path d="M1337.2 154l9.7 24.3 9.7-24.3h5.1v29.8h-3.9v-11.6l0.4-12.5 -9.8 24.1h-3l-9.8-24.1 0.4 12.5v11.6h-3.9v-29.8H1337.2z"/><path d="M1358.9 237.8c0 2.9-0.5 5.5-1.5 7.6s-2.4 3.8-4.2 5c-1.8 1.1-3.9 1.7-6.3 1.7 -2.3 0-4.4-0.6-6.2-1.7 -1.8-1.2-3.2-2.8-4.2-4.9s-1.5-4.6-1.5-7.4v-2.1c0-2.9 0.5-5.4 1.5-7.6 1-2.2 2.4-3.9 4.2-5 1.8-1.2 3.9-1.7 6.3-1.7 2.4 0 4.5 0.6 6.3 1.7 1.8 1.2 3.2 2.8 4.2 5s1.5 4.7 1.5 7.6V237.8zM1355 235.9c0-3.5-0.7-6.2-2.1-8.1 -1.4-1.9-3.4-2.8-6-2.8 -2.5 0-4.4 0.9-5.9 2.8 -1.4 1.9-2.2 4.5-2.2 7.9v2.2c0 3.4 0.7 6.1 2.2 8.1s3.4 2.9 5.9 2.9c2.5 0 4.5-0.9 5.9-2.8s2.1-4.5 2.1-8V235.9z"/><rect x="1313" y="136" width="68" height="68" class="a"/><rect x="1313" y="204" width="68" height="68" class="a"/><path d="M1473.2 154l9.7 24.3 9.7-24.3h5.1v29.8h-3.9v-11.6l0.4-12.5 -9.8 24.1h-3l-9.8-24.1 0.4 12.5v11.6h-3.9v-29.8H1473.2z"/><path d="M1494.9 237.8c0 2.9-0.5 5.5-1.5 7.6s-2.4 3.8-4.2 5c-1.8 1.1-3.9 1.7-6.3 1.7 -2.3 0-4.4-0.6-6.2-1.7 -1.8-1.2-3.2-2.8-4.2-4.9s-1.5-4.6-1.5-7.4v-2.1c0-2.9 0.5-5.4 1.5-7.6 1-2.2 2.4-3.9 4.2-5 1.8-1.2 3.9-1.7 6.3-1.7 2.4 0 4.5 0.6 6.3 1.7 1.8 1.2 3.2 2.8 4.2 5s1.5 4.7 1.5 7.6V237.8zM1491 235.9c0-3.5-0.7-6.2-2.1-8.1 -1.4-1.9-3.4-2.8-6-2.8 -2.5 0-4.4 0.9-5.9 2.8 -1.4 1.9-2.2 4.5-2.2 7.9v2.2c0 3.4 0.7 6.1 2.2 8.1s3.4 2.9 5.9 2.9c2.5 0 4.5-0.9 5.9-2.8s2.1-4.5 2.1-8V235.9z"/><rect x="1449" y="136" width="68" height="68" class="a"/><rect x="1449" y="204" width="68" height="68" class="a"/><path d="M92.2 154l9.7 24.3 9.7-24.3h5.1v29.8h-3.9v-11.6l0.4-12.5 -9.8 24.1h-3l-9.8-24.1 0.4 12.5v11.6h-3.9v-29.8H92.2z"/><rect x="68" y="136" width="68" height="68" class="a"/><path d="M105.2 115.8h-3.8V90.5l-7.6 2.8v-3.4l10.8-4.1h0.6V115.8z"/><path d="M248.2 115.8h-19.5v-2.7l10.3-11.5c1.5-1.7 2.6-3.1 3.2-4.2 0.6-1.1 0.9-2.2 0.9-3.4 0-1.6-0.5-2.8-1.4-3.8 -0.9-1-2.2-1.5-3.8-1.5 -1.9 0-3.3 0.5-4.4 1.6 -1 1.1-1.6 2.6-1.6 4.5h-3.8c0-2.7 0.9-5 2.7-6.6 1.8-1.7 4.1-2.5 7.1-2.5 2.8 0 5 0.7 6.6 2.2 1.6 1.5 2.4 3.4 2.4 5.8 0 2.9-1.9 6.4-5.6 10.5l-8 8.7h15V115.8z"/><path d="M370.2 99h2.8c1.8 0 3.2-0.5 4.2-1.4 1-0.9 1.5-2.1 1.5-3.7 0-3.5-1.7-5.2-5.2-5.2 -1.6 0-2.9 0.5-3.9 1.4 -1 0.9-1.5 2.2-1.5 3.7h-3.8c0-2.4 0.9-4.3 2.6-5.9 1.7-1.6 3.9-2.3 6.6-2.3 2.8 0 5 0.7 6.6 2.2 1.6 1.5 2.4 3.6 2.4 6.2 0 1.3-0.4 2.6-1.3 3.8s-2 2.1-3.4 2.7c1.6 0.5 2.9 1.4 3.8 2.6 0.9 1.2 1.3 2.7 1.3 4.4 0 2.7-0.9 4.8-2.6 6.4 -1.7 1.6-4 2.4-6.8 2.4 -2.8 0-5.1-0.8-6.8-2.3s-2.6-3.5-2.6-6h3.8c0 1.6 0.5 2.8 1.5 3.8 1 0.9 2.4 1.4 4.1 1.4 1.8 0 3.2-0.5 4.2-1.4s1.5-2.3 1.5-4.1c0-1.7-0.5-3.1-1.6-4 -1.1-0.9-2.6-1.4-4.6-1.4h-2.8V99z"/><path d="M516.7 105.8h4.1v3.1h-4.1v6.9h-3.8v-6.9h-13.6v-2.2l13.3-20.6h4V105.8zM503.6 105.8h9.3V91.2l-0.4 0.8L503.6 105.8z"/><path d="M638.4 100.8l1.5-14.9h15.3v3.5h-12.1l-0.9 8.1c1.5-0.9 3.1-1.3 5-1.3 2.7 0 4.9 0.9 6.5 2.7 1.6 1.8 2.4 4.2 2.4 7.3 0 3.1-0.8 5.5-2.5 7.3 -1.7 1.8-4 2.7-6.9 2.7 -2.6 0-4.8-0.7-6.4-2.2 -1.7-1.5-2.6-3.5-2.8-6.1h3.6c0.2 1.7 0.8 3 1.8 3.9s2.3 1.3 3.9 1.3c1.8 0 3.1-0.6 4.1-1.8 1-1.2 1.5-2.9 1.5-5 0-2-0.5-3.6-1.6-4.8 -1.1-1.2-2.5-1.8-4.3-1.8 -1.7 0-2.9 0.4-3.9 1.1l-1 0.8L638.4 100.8z"/><rect x="68" y="204" width="68" height="68" class="a"/><path d="M228.2 154l9.7 24.3 9.7-24.3h5.1v29.8h-3.9v-11.6l0.4-12.5 -9.8 24.1h-3l-9.8-24.1 0.4 12.5v11.6h-3.9v-29.8H228.2z"/><path d="M250 237.8c0 2.9-0.5 5.5-1.5 7.6s-2.4 3.8-4.2 5c-1.8 1.1-3.9 1.7-6.3 1.7 -2.3 0-4.4-0.6-6.2-1.7 -1.8-1.2-3.2-2.8-4.2-4.9s-1.5-4.6-1.5-7.4v-2.1c0-2.9 0.5-5.4 1.5-7.6 1-2.2 2.4-3.9 4.2-5 1.8-1.2 3.9-1.7 6.3-1.7 2.4 0 4.5 0.6 6.3 1.7 1.8 1.2 3.2 2.8 4.2 5s1.5 4.7 1.5 7.6V237.8zM246.1 235.9c0-3.5-0.7-6.2-2.1-8.1 -1.4-1.9-3.4-2.8-6-2.8 -2.5 0-4.4 0.9-5.9 2.8 -1.4 1.9-2.2 4.5-2.2 7.9v2.2c0 3.4 0.7 6.1 2.2 8.1s3.4 2.9 5.9 2.9c2.5 0 4.5-0.9 5.9-2.8s2.1-4.5 2.1-8V235.9z"/><path d="M114 237.8c0 2.9-0.5 5.5-1.5 7.6s-2.4 3.8-4.2 5c-1.8 1.1-3.9 1.7-6.3 1.7 -2.3 0-4.4-0.6-6.2-1.7 -1.8-1.2-3.2-2.8-4.2-4.9s-1.5-4.6-1.5-7.4v-2.1c0-2.9 0.5-5.4 1.5-7.6 1-2.2 2.4-3.9 4.2-5 1.8-1.2 3.9-1.7 6.3-1.7 2.4 0 4.5 0.6 6.3 1.7 1.8 1.2 3.2 2.8 4.2 5s1.5 4.7 1.5 7.6V237.8zM110.1 235.9c0-3.5-0.7-6.2-2.1-8.1 -1.4-1.9-3.4-2.8-6-2.8 -2.5 0-4.4 0.9-5.9 2.8 -1.4 1.9-2.2 4.5-2.2 7.9v2.2c0 3.4 0.7 6.1 2.2 8.1s3.4 2.9 5.9 2.9c2.5 0 4.5-0.9 5.9-2.8s2.1-4.5 2.1-8V235.9z"/><rect x="204" y="136" width="68" height="68" class="a"/><rect x="204" y="204" width="68" height="68" class="a"/><path d="M364.2 154l9.7 24.3 9.7-24.3h5.1v29.8h-3.9v-11.6l0.4-12.5 -9.8 24.1h-3l-9.8-24.1 0.4 12.5v11.6h-3.9v-29.8H364.2z"/><path d="M386 237.8c0 2.9-0.5 5.5-1.5 7.6s-2.4 3.8-4.2 5c-1.8 1.1-3.9 1.7-6.3 1.7 -2.3 0-4.4-0.6-6.2-1.7 -1.8-1.2-3.2-2.8-4.2-4.9s-1.5-4.6-1.5-7.4v-2.1c0-2.9 0.5-5.4 1.5-7.6 1-2.2 2.4-3.9 4.2-5 1.8-1.2 3.9-1.7 6.3-1.7 2.4 0 4.5 0.6 6.3 1.7 1.8 1.2 3.2 2.8 4.2 5s1.5 4.7 1.5 7.6V237.8zM382.1 235.9c0-3.5-0.7-6.2-2.1-8.1 -1.4-1.9-3.4-2.8-6-2.8 -2.5 0-4.4 0.9-5.9 2.8 -1.4 1.9-2.2 4.5-2.2 7.9v2.2c0 3.4 0.7 6.1 2.2 8.1s3.4 2.9 5.9 2.9c2.5 0 4.5-0.9 5.9-2.8s2.1-4.5 2.1-8V235.9z"/><rect x="340" y="136" width="68" height="68" class="a"/><rect x="340" y="204" width="68" height="68" class="a"/><polyline points="136 238 170 238 170 170 142 170 " class="a"/><path d="M136 170c2.8-1.1 6.4-2.9 8.5-4.8l-1.7 4.8 1.7 4.8C142.4 172.9 138.8 171.1 136 170z"/><path d="M500.2 154l9.7 24.3 9.7-24.3h5.1v29.8h-3.9v-11.6l0.4-12.5 -9.8 24.1h-3l-9.8-24.1 0.4 12.5v11.6h-3.9v-29.8H500.2z"/><path d="M522 237.8c0 2.9-0.5 5.5-1.5 7.6s-2.4 3.8-4.2 5c-1.8 1.1-3.9 1.7-6.3 1.7 -2.3 0-4.4-0.6-6.2-1.7 -1.8-1.2-3.2-2.8-4.2-4.9s-1.5-4.6-1.5-7.4v-2.1c0-2.9 0.5-5.4 1.5-7.6 1-2.2 2.4-3.9 4.2-5 1.8-1.2 3.9-1.7 6.3-1.7 2.4 0 4.5 0.6 6.3 1.7 1.8 1.2 3.2 2.8 4.2 5s1.5 4.7 1.5 7.6V237.8zM518.1 235.9c0-3.5-0.7-6.2-2.1-8.1 -1.4-1.9-3.4-2.8-6-2.8 -2.5 0-4.4 0.9-5.9 2.8 -1.4 1.9-2.2 4.5-2.2 7.9v2.2c0 3.4 0.7 6.1 2.2 8.1s3.4 2.9 5.9 2.9c2.5 0 4.5-0.9 5.9-2.8s2.1-4.5 2.1-8V235.9z"/><rect x="476" y="136" width="68" height="68" class="a"/><rect x="476" y="204" width="68" height="68" class="a"/><path d="M636.2 154l9.7 24.3 9.7-24.3h5.1v29.8h-3.9v-11.6l0.4-12.5 -9.8 24.1h-3l-9.8-24.1 0.4 12.5v11.6h-3.9v-29.8H636.2z"/><path d="M658 237.8c0 2.9-0.5 5.5-1.5 7.6s-2.4 3.8-4.2 5c-1.8 1.1-3.9 1.7-6.3 1.7 -2.3 0-4.4-0.6-6.2-1.7 -1.8-1.2-3.2-2.8-4.2-4.9s-1.5-4.6-1.5-7.4v-2.1c0-2.9 0.5-5.4 1.5-7.6 1-2.2 2.4-3.9 4.2-5 1.8-1.2 3.9-1.7 6.3-1.7 2.4 0 4.5 0.6 6.3 1.7 1.8 1.2 3.2 2.8 4.2 5s1.5 4.7 1.5 7.6V237.8zM654.1 235.9c0-3.5-0.7-6.2-2.1-8.1 -1.4-1.9-3.4-2.8-6-2.8 -2.5 0-4.4 0.9-5.9 2.8 -1.4 1.9-2.2 4.5-2.2 7.9v2.2c0 3.4 0.7 6.1 2.2 8.1s3.4 2.9 5.9 2.9c2.5 0 4.5-0.9 5.9-2.8s2.1-4.5 2.1-8V235.9z"/><rect x="612" y="136" width="68" height="68" class="a"/><rect x="612" y="204" width="68" height="68" class="a"/><text transform="matrix(1 0 0 1 1717.0234 -622)" font-family="'Roboto-Regular'" font-size="41.9111">  M</text><rect x="1701.3" y="-669.8" width="68" height="68" class="a"/><text transform="matrix(1 0 0 1 1723.5518 -690)" font-family="'Roboto-Regular'" font-size="41.9111">  1</text><text transform="matrix(1 0 0 1 1859.5518 -690)" font-family="'Roboto-Regular'" font-size="41.9111">  2</text><text transform="matrix(1 0 0 1 1995.5518 -690)" font-family="'Roboto-Regular'" font-size="41.9111">  3</text><text transform="matrix(1 0 0 1 2131.5518 -690)" font-family="'Roboto-Regular'" font-size="41.9111">  4</text><text transform="matrix(1 0 0 1 2267.5518 -690)" font-family="'Roboto-Regular'" font-size="41.9111">  5</text><rect x="1701.3" y="-601.8" width="68" height="68" class="a"/><text transform="matrix(1 0 0 1 1853.0234 -622)" font-family="'Roboto-Regular'" font-size="41.9111">  M</text><rect x="1837.3" y="-669.8" width="68" height="68" class="a"/><rect x="1837.3" y="-601.8" width="68" height="68" class="a"/><text transform="matrix(1 0 0 1 1989.0234 -622)" font-family="'Roboto-Regular'" font-size="41.9111">  M</text><text transform="matrix(1 0 0 1 1992.9121 -554)" font-family="'Roboto-Regular'" font-size="41.9111">  O</text><rect x="1973.3" y="-669.8" width="68" height="68" class="a"/><rect x="1973.3" y="-601.8" width="68" height="68" class="a"/><polyline points="2041.3 -567.8 2075.3 -567.8 2075.3 -465.8 1803.3 -465.8 1803.3 -635.8 1775.4 -635.8 " class="a"/><path d="M1769.3-635.8c2.8-1.1 6.4-2.9 8.5-4.8l-1.7 4.8 1.7 4.8C1775.7-632.9 1772.2-634.7 1769.3-635.8z"/><text transform="matrix(1 0 0 1 2125.0234 -622)" font-family="'Roboto-Regular'" font-size="41.9111">  M</text><text transform="matrix(1 0 0 1 2128.9121 -554)" font-family="'Roboto-Regular'" font-size="41.9111">  O</text><rect x="2109.3" y="-669.8" width="68" height="68" class="a"/><rect x="2109.3" y="-601.8" width="68" height="68" class="a"/><text transform="matrix(1 0 0 1 2261.0234 -622)" font-family="'Roboto-Regular'" font-size="41.9111">  M</text><text transform="matrix(1 0 0 1 2264.9121 -554)" font-family="'Roboto-Regular'" font-size="41.9111">  O</text><rect x="2245.3" y="-669.8" width="68" height="68" class="a"/><rect x="2245.3" y="-601.8" width="68" height="68" class="a"/><text transform="matrix(1 0 0 1 2527.1045 -622)" font-family="'Roboto-Regular'" font-size="41.9111">  M</text><rect x="2511.4" y="-669.8" width="68" height="68" class="a"/><text transform="matrix(1 0 0 1 2533.6328 -690)" font-family="'Roboto-Regular'" font-size="41.9111">  1</text><text transform="matrix(1 0 0 1 2669.6328 -690)" font-family="'Roboto-Regular'" font-size="41.9111">  2</text><text transform="matrix(1 0 0 1 2805.6328 -690)" font-family="'Roboto-Regular'" font-size="41.9111">  3</text><text transform="matrix(1 0 0 1 2941.6328 -690)" font-family="'Roboto-Regular'" font-size="41.9111">  4</text><text transform="matrix(1 0 0 1 3077.6328 -690)" font-family="'Roboto-Regular'" font-size="41.9111">  5</text><rect x="2511.4" y="-601.8" width="68" height="68" class="a"/><text transform="matrix(1 0 0 1 2663.1045 -622)" font-family="'Roboto-Regular'" font-size="41.9111">  M</text><rect x="2647.4" y="-669.8" width="68" height="68" class="a"/><rect x="2647.4" y="-601.8" width="68" height="68" class="a"/><text transform="matrix(1 0 0 1 2799.1045 -622)" font-family="'Roboto-Regular'" font-size="41.9111">  M</text><rect x="2783.4" y="-669.8" width="68" height="68" class="a"/><rect x="2783.4" y="-601.8" width="68" height="68" class="a"/><polyline points="2987.4 -567.8 3021.4 -567.8 3021.4 -465.8 2613.4 -465.8 2613.4 -635.8 2585.4 -635.8 " class="a"/><path d="M2579.4-635.8c2.8-1.1 6.4-2.9 8.5-4.8l-1.7 4.8 1.7 4.8C2585.8-632.9 2582.2-634.7 2579.4-635.8z"/><text transform="matrix(1 0 0 1 2935.1045 -622)" font-family="'Roboto-Regular'" font-size="41.9111">  M</text><text transform="matrix(1 0 0 1 2938.9932 -554)" font-family="'Roboto-Regular'" font-size="41.9111">  O</text><rect x="2919.4" y="-669.8" width="68" height="68" class="a"/><rect x="2919.4" y="-601.8" width="68" height="68" class="a"/><text transform="matrix(1 0 0 1 3071.1045 -622)" font-family="'Roboto-Regular'" font-size="41.9111">  M</text><text transform="matrix(1 0 0 1 3074.9932 -554)" font-family="'Roboto-Regular'" font-size="41.9111">  O</text><rect x="3055.4" y="-669.8" width="68" height="68" class="a"/><rect x="3055.4" y="-601.8" width="68" height="68" class="a"/><text transform="matrix(1 0 0 1 3347.1885 -622)" font-family="'Roboto-Regular'" font-size="41.9111">  M</text><rect x="3331.5" y="-669.8" width="68" height="68" class="a"/><text transform="matrix(1 0 0 1 3353.7168 -690)" font-family="'Roboto-Regular'" font-size="41.9111">  1</text><text transform="matrix(1 0 0 1 3489.7168 -690)" font-family="'Roboto-Regular'" font-size="41.9111">  2</text><text transform="matrix(1 0 0 1 3625.7168 -690)" font-family="'Roboto-Regular'" font-size="41.9111">  3</text><text transform="matrix(1 0 0 1 3761.7168 -690)" font-family="'Roboto-Regular'" font-size="41.9111">  4</text><text transform="matrix(1 0 0 1 3897.7168 -690)" font-family="'Roboto-Regular'" font-size="41.9111">  5</text><rect x="3331.5" y="-601.8" width="68" height="68" class="a"/><text transform="matrix(1 0 0 1 3483.1885 -622)" font-family="'Roboto-Regular'" font-size="41.9111">  M</text><rect x="3467.5" y="-669.8" width="68" height="68" class="a"/><rect x="3467.5" y="-601.8" width="68" height="68" class="a"/><text transform="matrix(1 0 0 1 3619.1885 -622)" font-family="'Roboto-Regular'" font-size="41.9111">  M</text><rect x="3603.5" y="-669.8" width="68" height="68" class="a"/><rect x="3603.5" y="-601.8" width="68" height="68" class="a"/><polyline points="3943.5 -567.8 3977.5 -567.8 3977.5 -465.8 3433.5 -465.8 3433.5 -635.8 3405.5 -635.8 " class="a"/><path d="M3399.5-635.8c2.8-1.1 6.4-2.9 8.5-4.8l-1.7 4.8 1.7 4.8C3405.8-632.9 3402.3-634.7 3399.5-635.8z"/><text transform="matrix(1 0 0 1 3755.1885 -622)" font-family="'Roboto-Regular'" font-size="41.9111">  M</text><rect x="3739.5" y="-669.8" width="68" height="68" class="a"/><rect x="3739.5" y="-601.8" width="68" height="68" class="a"/><text transform="matrix(1 0 0 1 3891.1885 -622)" font-family="'Roboto-Regular'" font-size="41.9111">  M</text><text transform="matrix(1 0 0 1 3895.0771 -554)" font-family="'Roboto-Regular'" font-size="41.9111">  O</text><rect x="3875.5" y="-669.8" width="68" height="68" class="a"/><rect x="3875.5" y="-601.8" width="68" height="68" class="a"/><text transform="matrix(1 0 0 1 920.6621 -622)" font-family="'Roboto-Regular'" font-size="41.9111">  M</text><rect x="905" y="-669.8" width="68" height="68" class="a"/><text transform="matrix(1 0 0 1 927.1904 -690)" font-family="'Roboto-Regular'" font-size="41.9111">  1</text><text transform="matrix(1 0 0 1 1063.1904 -690)" font-family="'Roboto-Regular'" font-size="41.9111">  2</text><text transform="matrix(1 0 0 1 1199.1904 -690)" font-family="'Roboto-Regular'" font-size="41.9111">  3</text><text transform="matrix(1 0 0 1 1335.1904 -690)" font-family="'Roboto-Regular'" font-size="41.9111">  4</text><text transform="matrix(1 0 0 1 1471.1904 -690)" font-family="'Roboto-Regular'" font-size="41.9111">  5</text><rect x="905" y="-601.8" width="68" height="68" class="a"/><text transform="matrix(1 0 0 1 1056.6621 -622)" font-family="'Roboto-Regular'" font-size="41.9111">  M</text><text transform="matrix(1 0 0 1 1060.5508 -554)" font-family="'Roboto-Regular'" font-size="41.9111">  O</text><rect x="1041" y="-669.8" width="68" height="68" class="a"/><rect x="1041" y="-601.8" width="68" height="68" class="a"/><text transform="matrix(1 0 0 1 1192.6621 -622)" font-family="'Roboto-Regular'" font-size="41.9111">  M</text><text transform="matrix(1 0 0 1 1196.5508 -554)" font-family="'Roboto-Regular'" font-size="41.9111">  O</text><rect x="1177" y="-669.8" width="68" height="68" class="a"/><rect x="1177" y="-601.8" width="68" height="68" class="a"/><polyline points="1109 -567.8 1143 -567.8 1143 -465.8 1007 -465.8 1007 -635.8 979 -635.8 " class="a"/><path d="M973-635.8c2.8-1.1 6.4-2.9 8.5-4.8l-1.7 4.8 1.7 4.8C979.3-632.9 975.8-634.7 973-635.8z"/><text transform="matrix(1 0 0 1 1328.6621 -622)" font-family="'Roboto-Regular'" font-size="41.9111">  M</text><text transform="matrix(1 0 0 1 1332.5508 -554)" font-family="'Roboto-Regular'" font-size="41.9111">  O</text><rect x="1313" y="-669.8" width="68" height="68" class="a"/><rect x="1313" y="-601.8" width="68" height="68" class="a"/><text transform="matrix(1 0 0 1 1464.6621 -622)" font-family="'Roboto-Regular'" font-size="41.9111">  M</text><text transform="matrix(1 0 0 1 1468.5508 -554)" font-family="'Roboto-Regular'" font-size="41.9111">  O</text><rect x="1449" y="-669.8" width="68" height="68" class="a"/><rect x="1449" y="-601.8" width="68" height="68" class="a"/><text transform="matrix(1 0 0 1 83.7041 -622)" font-family="'Roboto-Regular'" font-size="41.9111">  M</text><rect x="68" y="-669.8" width="68" height="68" class="a"/><text transform="matrix(1 0 0 1 90.2324 -690)" font-family="'Roboto-Regular'" font-size="41.9111">  1</text><text transform="matrix(1 0 0 1 226.2324 -690)" font-family="'Roboto-Regular'" font-size="41.9111">  2</text><text transform="matrix(1 0 0 1 362.2324 -690)" font-family="'Roboto-Regular'" font-size="41.9111">  3</text><text transform="matrix(1 0 0 1 498.2324 -690)" font-family="'Roboto-Regular'" font-size="41.9111">  4</text><text transform="matrix(1 0 0 1 634.2324 -690)" font-family="'Roboto-Regular'" font-size="41.9111">  5</text><rect x="68" y="-601.8" width="68" height="68" class="a"/><text transform="matrix(1 0 0 1 219.7041 -622)" font-family="'Roboto-Regular'" font-size="41.9111">  M</text><text transform="matrix(1 0 0 1 223.5928 -554)" font-family="'Roboto-Regular'" font-size="41.9111">  O</text><text transform="matrix(1 0 0 1 87.5928 -554)" font-family="'Roboto-Regular'" font-size="41.9111">  O</text><rect x="204" y="-669.8" width="68" height="68" class="a"/><rect x="204" y="-601.8" width="68" height="68" class="a"/><text transform="matrix(1 0 0 1 355.7041 -622)" font-family="'Roboto-Regular'" font-size="41.9111">  M</text><text transform="matrix(1 0 0 1 359.5928 -554)" font-family="'Roboto-Regular'" font-size="41.9111">  O</text><rect x="340" y="-669.8" width="68" height="68" class="a"/><rect x="340" y="-601.8" width="68" height="68" class="a"/><polyline points="136 -567.8 170 -567.8 170 -635.8 142 -635.8 " class="a"/><path d="M136-635.8c2.8-1.1 6.4-2.9 8.5-4.8l-1.7 4.8 1.7 4.8C142.4-632.9 138.8-634.7 136-635.8z"/><text transform="matrix(1 0 0 1 491.7041 -622)" font-family="'Roboto-Regular'" font-size="41.9111">  M</text><text transform="matrix(1 0 0 1 495.5928 -554)" font-family="'Roboto-Regular'" font-size="41.9111">  O</text><rect x="476" y="-669.8" width="68" height="68" class="a"/><rect x="476" y="-601.8" width="68" height="68" class="a"/><text transform="matrix(1 0 0 1 627.7041 -622)" font-family="'Roboto-Regular'" font-size="41.9111">  M</text><text transform="matrix(1 0 0 1 631.5928 -554)" font-family="'Roboto-Regular'" font-size="41.9111">  O</text><rect x="612" y="-669.8" width="68" height="68" class="a"/><rect x="612" y="-601.8" width="68" height="68" class="a"/><rect x="1512.4" y="917.6" width="232.5" height="127.5" class="a"/><text transform="matrix(1 0 0 1 1587.2822 1000.6426)" font-family="'Roboto-Regular'" font-size="75.0523">  M</text><text transform="matrix(1 0 0 1 1527.8691 1101.7939)" font-family="'Roboto-Regular'" font-size="26.523">  O</text><text transform="matrix(1 0 0 1 1619.5635 1101.7939)" font-family="'Roboto-Regular'" font-size="26.523">  O</text><text transform="matrix(1 0 0 1 1710.1426 1101.7939)" font-family="'Roboto-Regular'" font-size="26.523">  O</text><circle cx="1537" cy="1093" r="25.7" class="a"/><circle cx="1628.1" cy="1093" r="25.7" class="a"/><circle cx="1719.3" cy="1093" r="25.7" class="a"/></svg>