<svg xmlns="http://www.w3.org/2000/svg" width="186" height="129" viewBox="0 0 186 129"><desc>  Created with Sketch.</desc><g fill="none"><g style="stroke-width:2;stroke:#231F1F"><path d="M164.3 127.1C159.1 127.1 153.9 125.2 150 121.2L92.7 64 35.5 121.2C27.6 129.1 14.8 129.1 6.9 121.2 -1 113.3-1 100.5 6.9 92.7L78.5 21.1C86.3 13.2 99.1 13.2 107 21.1L178.6 92.7C186.4 100.5 186.4 113.3 178.6 121.2 174.6 125.2 169.4 127.1 164.3 127.1Z"/><path d="M92.7 112.9C87.6 112.9 82.4 111 78.5 107L6.9 35.5C-1 27.6-1 14.8 6.9 6.9 14.8-1 27.6-1 35.5 6.9L92.7 64.2 150 6.9C157.9-1 170.7-1 178.6 6.9 186.4 14.8 186.4 27.6 178.6 35.5L107 107C103.1 111 97.9 112.9 92.7 112.9Z"/></g></g></svg>