<svg xmlns="http://www.w3.org/2000/svg" width="94" height="94" viewBox="0 0 94 94"><style>.a{stroke-width:2;stroke:#FFF;}</style><desc>  Created with Sketch.</desc><g fill="none"><path d="M94 47C94 21 73 0 47 0 21 0 0 21 0 47 0 73 21 94 47 94 73 94 94 73 94 47Z" fill="#384040"/><path d="M71.8 68.3C70 68.3 68.3 67.6 66.9 66.2L47.4 46.7 27.8 66.2C25.1 68.9 20.7 68.9 18 66.2 15.3 63.5 15.3 59.2 18 56.5L42.5 32C45.2 29.3 49.5 29.3 52.2 32L76.7 56.5C79.4 59.2 79.4 63.5 76.7 66.2 75.3 67.6 73.6 68.3 71.8 68.3Z" class="a"/><path d="M47.4 63.3C45.6 63.3 43.8 62.6 42.5 61.2L18 36.8C15.3 34.1 15.3 29.7 18 27 20.7 24.3 25.1 24.3 27.8 27L47.4 46.6 66.9 27C69.6 24.3 74 24.3 76.7 27 79.4 29.7 79.4 34.1 76.7 36.8L52.2 61.2C50.9 62.6 49.1 63.3 47.4 63.3Z" class="a"/></g></svg>