<svg xmlns="http://www.w3.org/2000/svg" width="37" height="36" viewBox="0 0 37 36"><desc>  Created with Sketch.</desc><g fill="none"><g fill="#384040"><path d="M34.6 17.8L26.5 17.8C25.5 17.8 24.6 18.5 24.3 19.4 23.5 21.9 21.2 23.6 18.6 23.6 16 23.6 13.7 21.9 12.9 19.4 12.5 18.5 11.7 17.8 10.7 17.8L2.5 17.8C1.3 17.8 0.3 18.8 0.3 20.1L0.3 33.1C0.3 34.4 1.3 35.4 2.5 35.4L34.6 35.4C35.9 35.4 36.9 34.4 36.9 33.1L36.9 20.1C36.9 18.8 35.9 17.8 34.6 17.8Z"/><path d="M18.1 19C18.2 19.2 18.4 19.3 18.6 19.3L18.6 19.3C18.8 19.3 19 19.2 19.1 19L25.4 10.2C25.5 10 25.6 9.7 25.5 9.5 25.4 9.3 25.1 9.2 24.9 9.2L21.9 9.2 21.9 1.2C21.9 0.9 21.7 0.6 21.3 0.6L15.8 0.6C15.5 0.6 15.2 0.9 15.2 1.2L15.2 9.2 12.2 9.2C12 9.2 11.8 9.3 11.7 9.5 11.6 9.7 11.6 10 11.7 10.2L18.1 19Z"/></g></g></svg>