<svg xmlns="http://www.w3.org/2000/svg" width="92" height="92" viewBox="0 0 92 92"><desc>  Created with Sketch.</desc><g fill="none"><g style="stroke-width:2;stroke:#FFF"><path d="M91 46C91 21.1 70.9 1 46 1 21.1 1 1 21.1 1 46 1 70.9 21.1 91 46 91 70.9 91 91 70.9 91 46Z" stroke-linejoin="round"/><path d="M69.4 66.6C67.7 66.6 66 66 64.7 64.7L46 46 27.3 64.7C24.7 67.3 20.5 67.3 17.9 64.7 15.3 62.1 15.3 57.9 17.9 55.4L41.3 31.9C43.9 29.4 48.1 29.4 50.7 31.9L74.1 55.4C76.7 57.9 76.7 62.1 74.1 64.7 72.8 66 71.1 66.6 69.4 66.6Z"/><path d="M46 62C44.3 62 42.6 61.3 41.3 60.1L17.9 36.6C15.3 34.1 15.3 29.9 17.9 27.3 20.5 24.7 24.7 24.7 27.3 27.3L46 46 64.7 27.3C67.3 24.7 71.5 24.7 74.1 27.3 76.7 29.9 76.7 34.1 74.1 36.6L50.7 60.1C49.4 61.3 47.7 62 46 62Z"/></g></g></svg>